<?xml version="1.0" encoding="UTF-8"?>
<svg width="22px" height="22px" viewBox="0 0 22 22" version="1.1" xmlns="http://www.w3.org/2000/svg" xmlns:xlink="http://www.w3.org/1999/xlink">
    <!-- Generator: Sketch 53.2 (72643) - https://sketchapp.com -->
    <title>chat</title>
    <desc>Created with Sketch.</desc>
    <g id="Page-1" stroke="none" stroke-width="1" fill="none" fill-rule="evenodd">
        <g id="Desktop-step7" transform="translate(-769.000000, -754.000000)" fill="#FFFFFF" fill-rule="nonzero">
            <g id="Body" transform="translate(162.000000, 128.000000)">
                <g id="Points" transform="translate(598.000000, 521.000000)">
                    <g id="Point" transform="translate(0.000000, 96.000000)">
                        <g id="Icon">
                            <g id="chat" transform="translate(9.000000, 9.000000)">
                                <path d="M18.756749,3.22175732 C20.8324812,5.29748954 21.9739038,8.05899582 21.9739038,10.990795 C21.9739038,13.9225941 20.8324812,16.6841004 18.756749,18.7598326 C16.6810167,20.8355649 13.924113,21.9769874 10.9877113,21.9769874 C9.16511715,21.9769874 7.37474059,21.5259414 5.78227197,20.6698745 C4.59942678,21.4845188 3.18185356,21.9493724 1.83331799,21.9493724 C1.56176987,21.9493724 1.29942678,21.9263598 1.05549372,21.8895397 C0.609050209,21.8205021 0.268464435,21.4753138 0.199426778,21.0288703 C0.134991632,20.5870293 0.360514644,20.1543933 0.760933054,19.9564854 C1.41448954,19.6343096 1.99900837,18.9623431 2.49147699,17.9543933 C-1.07546862,13.6188285 -0.78551046,7.22133891 3.21867364,3.21715481 C5.29440586,1.14142259 8.05130962,1.42108547e-14 10.9877113,1.42108547e-14 C13.924113,1.42108547e-14 16.6810167,1.1460251 18.756749,3.22175732 Z M17.8776695,17.8807531 C21.6793431,14.083682 21.6793431,7.89790795 17.8776695,4.0916318 C16.0366653,2.25062762 13.5927322,1.23807531 10.9877113,1.23807531 C8.38729289,1.23807531 5.93875732,2.25062762 4.09775314,4.0916318 C0.461769874,7.72761506 0.282271967,13.5912134 3.68812971,17.4389121 C3.84921757,17.6230126 3.89064017,17.8807531 3.79398745,18.1016736 C3.27390377,19.2937238 2.65256485,20.1497908 1.91156067,20.7020921 C2.53289958,20.6882845 3.9504728,20.5271967 5.358841,19.4364017 C5.46930126,19.3535565 5.60737657,19.3075314 5.74084937,19.3075314 C5.84670711,19.3075314 5.95716736,19.339749 6.05382008,19.3949791 C7.54043096,20.2694561 9.24796234,20.7343096 10.9877113,20.7343096 C13.5881297,20.7343096 16.0366653,19.7217573 17.8776695,17.8807531 Z M13.7768326,5.95564854 C14.7663724,5.95564854 15.700682,6.34225941 16.4048661,7.04644351 C17.1044477,7.75062762 17.4910586,8.68493724 17.4910586,9.6790795 C17.4910586,10.6686192 17.1044477,11.6029289 16.4002636,12.307113 L11.4203473,17.2686192 C11.300682,17.3882845 11.1395941,17.4481172 10.9831088,17.4481172 C10.8266234,17.4481172 10.6655356,17.383682 10.5458703,17.2640167 L5.57976151,12.2979079 C4.88017992,11.5937238 4.48896653,10.6640167 4.48896653,9.66987448 C4.48436402,8.68033473 4.8709749,7.7460251 5.575159,7.041841 C6.27474059,6.34225941 7.20905021,5.95564854 8.19858996,5.95564854 C9.19273222,5.95564854 10.1270418,6.34225941 10.8312259,7.04644351 L10.9877113,7.20292887 L11.1441967,7.04644351 C11.8483808,6.34225941 12.7826904,5.95564854 13.7768326,5.95564854 Z M15.5211841,11.4280335 C15.9906402,10.9585774 16.2483808,10.3372385 16.2483808,9.67447699 C16.2529833,9.01631799 15.9952427,8.39497908 15.5257866,7.92552301 C15.0563305,7.45606695 14.4349916,7.19832636 13.7768326,7.19832636 C13.1140711,7.19832636 12.4927322,7.45606695 12.0232762,7.92552301 L11.4295523,8.51924686 C11.1856192,8.76317992 10.7944059,8.76317992 10.5504728,8.51924686 L9.95214644,7.9209205 C9.48269038,7.45146444 8.86135146,7.19372385 8.19858996,7.19372385 C7.53582845,7.19372385 6.91448954,7.45146444 6.44963598,7.91631799 C5.98478243,8.38117155 5.72704184,9.00251046 5.72704184,9.66527197 C5.72704184,10.3280335 5.98478243,10.9493724 6.45423849,11.4188285 L10.9831088,15.9476987 L15.5211841,11.4280335 Z" id="Combined-Shape"></path>
                            </g>
                        </g>
                    </g>
                </g>
            </g>
        </g>
    </g>
</svg>