<?xml version="1.0" encoding="UTF-8"?>
<svg width="15px" height="18px" viewBox="0 0 15 18" version="1.1" xmlns="http://www.w3.org/2000/svg" xmlns:xlink="http://www.w3.org/1999/xlink">
    <!-- Generator: Sketch 53.2 (72643) - https://sketchapp.com -->
    <title>document (1)</title>
    <desc>Created with Sketch.</desc>
    <g id="Page-1" stroke="none" stroke-width="1" fill="none" fill-rule="evenodd">
        <g id="Desktop-step6-Checking-process" transform="translate(-805.000000, -921.000000)" fill="#FFFFFF" fill-rule="nonzero">
            <g id="Body" transform="translate(162.000000, 128.000000)">
                <g id="Points" transform="translate(316.000000, 786.000000)">
                    <g id="Point" transform="translate(318.000000, 0.000000)">
                        <g id="Icon">
                            <g id="document-(1)" transform="translate(9.000000, 7.000000)">
                                <path d="M12.9,3.6 L10.2,0.9 L0.9,0.9 L0.9,16.5 L4.52970994e-14,16.5 L4.52970994e-14,0 L12.9,0 L12.9,3.6 Z M10.0242,1.5 L14.4,5.8758 L14.4,18 L1.5,18 L1.5,1.5 L10.0242,1.5 Z M4.2,5.1 C4.0344,5.1 3.9,5.2341 3.9,5.4 C3.9,5.5659 4.0344,5.7 4.2,5.7 L7.2,5.7 C7.3656,5.7 7.5,5.5659 7.5,5.4 C7.5,5.2341 7.3656,5.1 7.2,5.1 L4.2,5.1 Z M11.7,15.3 C11.8656,15.3 12,15.1659 12,15 C12,14.8341 11.8656,14.7 11.7,14.7 L4.2,14.7 C4.0344,14.7 3.9,14.8341 3.9,15 C3.9,15.1659 4.0344,15.3 4.2,15.3 L11.7,15.3 Z M11.7,12.9 C11.8656,12.9 12,12.7659 12,12.6 C12,12.4341 11.8656,12.3 11.7,12.3 L4.2,12.3 C4.0344,12.3 3.9,12.4341 3.9,12.6 C3.9,12.7659 4.0344,12.9 4.2,12.9 L11.7,12.9 Z M11.7,10.5 C11.8656,10.5 12,10.3659 12,10.2 C12,10.0341 11.8656,9.9 11.7,9.9 L4.2,9.9 C4.0344,9.9 3.9,10.0341 3.9,10.2 C3.9,10.3659 4.0344,10.5 4.2,10.5 L11.7,10.5 Z M11.7,8.1 C11.8656,8.1 12,7.9659 12,7.8 C12,7.6341 11.8656,7.5 11.7,7.5 L4.2,7.5 C4.0344,7.5 3.9,7.6341 3.9,7.8 C3.9,7.9659 4.0344,8.1 4.2,8.1 L11.7,8.1 Z M9.6,6.3 L13.8,6.3 L9.6,2.1 L9.6,6.3 Z" id="Combined-Shape"></path>
                            </g>
                        </g>
                    </g>
                </g>
            </g>
        </g>
    </g>
</svg>