<?xml version="1.0" encoding="UTF-8"?>
<svg width="15px" height="17px" viewBox="0 0 15 17" version="1.1" xmlns="http://www.w3.org/2000/svg" xmlns:xlink="http://www.w3.org/1999/xlink">
    <!-- Generator: Sketch 53.2 (72643) - https://sketchapp.com -->
    <title>Easy-595b40b85ba036ed117dc0a2</title>
    <desc>Created with Sketch.</desc>
    <g id="Page-1" stroke="none" stroke-width="1" fill="none" fill-rule="evenodd">
        <g id="Desktop-step6-Checking-process" transform="translate(-858.000000, -945.000000)" fill="#FFFFFF" fill-rule="nonzero">
            <g id="Body" transform="translate(162.000000, 128.000000)">
                <g id="Points" transform="translate(231.000000, 809.000000)">
                    <g id="Point" transform="translate(457.000000, 0.000000)">
                        <g id="Icon">
                            <g id="Easy-595b40b85ba036ed117dc0a2" transform="translate(8.000000, 8.000000)">
                                <path d="M4.190625,0.190625 C4.03149398,0.193107911 3.87986729,0.258705488 3.76910287,0.372986241 C3.65833845,0.487266995 3.59751007,0.640869085 3.6,0.8 L3.6,2 C3.59693983,2.21638155 3.71062518,2.41764882 3.89752371,2.52673263 C4.08442224,2.63581645 4.31557776,2.63581645 4.50247629,2.52673263 C4.68937482,2.41764882 4.80306017,2.21638155 4.8,2 L4.8,0.8 C4.80254091,0.637618084 4.73915535,0.481140465 4.62431994,0.366305055 C4.50948453,0.251469645 4.35300692,0.188084086 4.190625,0.190625 Z M1.79296872,1.39296872 C1.54850178,1.39301843 1.32850521,1.54136912 1.23682515,1.76799403 C1.14514508,1.99461894 1.20011267,2.25420511 1.37578128,2.42421872 L2.57578128,3.62421872 C2.72627202,3.78095967 2.94974057,3.84409786 3.16000362,3.78928329 C3.37026668,3.73446872 3.53446872,3.57026668 3.58928329,3.36000362 C3.64409786,3.14974057 3.58095967,2.92627202 3.42421872,2.77578128 L2.22421872,1.57578128 C2.11117,1.45893871 1.95554854,1.39296872 1.79296872,1.39296872 Z M6.58828128,1.39531256 C6.43256906,1.39964702 6.28464474,1.4643639 6.17578128,1.57578128 L4.97578128,2.77578128 C4.81904033,2.92627202 4.75590214,3.14974057 4.81071671,3.36000362 C4.86553128,3.57026668 5.02973332,3.73446872 5.23999638,3.78928329 C5.45025943,3.84409786 5.67372798,3.78095967 5.82421872,3.62421872 L7.02421872,2.42421872 C7.20078963,2.25159202 7.25357979,1.98842197 7.15724549,1.7610523 C7.06091119,1.53368262 6.83512422,1.38854297 6.58828128,1.39531256 Z M11.8359372,1.41406256 C11.4735396,1.45091444 11.1195624,1.5982322 10.8304692,1.86171872 C10.8257042,1.86632823 10.821016,1.8710164 10.8164064,1.87578128 L5.45390628,7.109375 C5.23772688,6.81238688 5.1118716,6.59942648 4.753125,6.23984372 C4.75234592,6.23906032 4.75156468,6.23827908 4.75078128,6.2375 C4.2273648,5.7147824 3.57996552,5.33165756 2.91328128,5.13359372 C2.24659692,4.93552988 1.5303354,4.91060912 0.92578128,5.26718744 C0.37432308,5.59167896 0.09140628,6.096875 0.09140628,6.096875 C-0.0451087675,6.31513616 -0.0271914216,6.59615618 0.13593744,6.79531256 L1.83515628,8.85781256 L2.40703128,12.2984372 C2.42688935,12.4164404 2.48157488,12.5258116 2.56406256,12.6125 L5.83593744,16.0648436 C5.83978959,16.0688038 5.84369624,16.0727105 5.84765628,16.0765628 C7.07552604,17.3044328 9.0859122,17.3040188 10.3148436,16.0765628 L10.8492192,15.5398436 L10.6007808,15.5398436 C10.760712,15.5404366 10.9142627,15.4771604 11.0273436,15.3640628 L13.9359372,12.4343744 L13.9335936,12.4343744 C14.5458756,11.8201988 14.6814036,10.8052826 14.0531256,10.1117187 C13.8181188,9.85256792 13.4874024,9.75579632 13.1625,9.68281256 C13.188636,9.24199772 13.067172,8.80129952 12.7335936,8.46875 C12.5088912,8.24404712 12.2030256,8.181659 11.9085936,8.11015628 C11.9779896,7.62770756 11.8989936,7.13613956 11.53125,6.76953128 C11.420586,6.65919488 11.2599204,6.67390688 11.1281256,6.603125 L13.2304692,4.47734372 L13.2,4.50546872 C13.7693028,4.00208564 13.834914,3.2210378 13.5656256,2.54140628 C13.58183,2.39242066 13.5416986,2.24276388 13.4531256,2.121875 C13.1440392,1.70227268 12.6811968,1.46179064 12.1992192,1.41406256 C12.0787248,1.40213036 11.9567364,1.40177852 11.8359372,1.41406256 Z M12.0820308,2.59765628 C12.2358768,2.6130218 12.3837852,2.69357756 12.4875,2.834375 C12.6673176,3.07811444 12.632244,3.40495256 12.4054692,3.60546872 C12.3949918,3.6144899 12.3848294,3.6238705 12.375,3.63359372 L9.27890628,6.771875 L9.27656256,6.77421872 C9.06547172,7.0124632 9.07713907,7.37407984 9.30314855,7.59822153 C9.52915802,7.82236321 9.89085904,7.83102934 10.1273436,7.61796872 C10.2858732,7.45894856 10.5250752,7.45788728 10.6851564,7.61796872 C10.6851549,7.61875 10.6851549,7.61953128 10.6851564,7.62031256 C10.8441768,7.7788418 10.8452376,8.01569972 10.6851564,8.17578128 C10.6835854,8.17733512 10.682023,8.17889762 10.6804692,8.18046872 L10.4343744,8.43125 L10.4296872,8.43593744 C10.204451,8.67276448 10.2101672,9.04629063 10.4425449,9.27611454 C10.6749226,9.50593845 11.0484891,9.50752689 11.2828128,9.27968744 C11.4107748,9.15172496 11.7290028,9.16103396 11.8851564,9.31718744 C12.0441768,9.47571692 12.0452376,9.71257472 11.8851564,9.87265628 C11.8819968,9.87574666 11.8788714,9.87887185 11.8757808,9.88203128 L11.7421872,10.0226563 L11.7328128,10.0320313 C11.5078975,10.2699632 11.5152282,10.6442681 11.7492873,10.873211 C11.9833463,11.1021539 12.3577218,11.1012118 12.5906256,10.8710937 C12.6963324,10.7650545 13.059156,10.8014211 13.1648436,10.9179687 C13.2738636,11.037962 13.2475404,11.4254 13.0851564,11.5882808 C13.0843752,11.5882793 13.083594,11.5882793 13.0828128,11.5882808 L10.1765628,14.5156256 L10.1742192,14.5179692 L9.46640628,15.2257808 C8.69613792,15.9951248 7.46502396,15.994712 6.69609372,15.2257808 L3.5625,11.9210936 L2.99296872,8.50156256 C2.97571465,8.3973317 2.93124746,8.29950377 2.86406256,8.21796872 L1.39921872,6.43906256 C1.4602038,6.3780554 1.4730084,6.33735056 1.53515628,6.30078128 C1.73220204,6.1845596 2.11487808,6.14883884 2.57109372,6.284375 C3.02730948,6.41991116 3.5269602,6.71339888 3.90234372,7.08828128 C4.3453128,7.53284504 4.903125,8.3375 4.903125,8.3375 C5.00302965,8.48459188 5.16302469,8.57980119 5.33995831,8.59744931 C5.51689193,8.61509742 5.69254084,8.55336667 5.81953128,8.42890628 L11.6390628,2.75 C11.7684048,2.63211488 11.928186,2.58229064 12.0820308,2.59765628 Z" id="Shape"></path>
                            </g>
                        </g>
                    </g>
                </g>
            </g>
        </g>
    </g>
</svg>