<?xml version="1.0" encoding="UTF-8"?>
<svg width="18px" height="14px" viewBox="0 0 18 14" version="1.1" xmlns="http://www.w3.org/2000/svg" xmlns:xlink="http://www.w3.org/1999/xlink">
    <!-- Generator: Sketch 53.2 (72643) - https://sketchapp.com -->
    <title>fast</title>
    <desc>Created with Sketch.</desc>
    <g id="Page-1" stroke="none" stroke-width="1" fill="none" fill-rule="evenodd">
        <g id="Desktop-step6-Checking-process" transform="translate(-400.000000, -946.000000)" fill="#FFFFFF" fill-rule="nonzero">
            <g id="Body" transform="translate(162.000000, 128.000000)">
                <g id="Points" transform="translate(231.000000, 809.000000)">
                    <g id="Point">
                        <g id="Icon">
                            <g id="fast" transform="translate(7.000000, 9.000000)">
                                <path d="M0.973441406,4.32421875 L3.04062891,4.32421875 L3.04062891,5.37890625 L0.973441406,5.37890625 L0.973441406,4.32421875 Z M0.973441406,8.54296875 L3.04062891,8.54296875 L3.04062891,9.59765625 L0.973441406,9.59765625 L0.973441406,8.54296875 Z M4.4408921e-16,6.43359375 L3.04066406,6.43359375 L3.04066406,7.48828125 L4.4408921e-16,7.48828125 L4.4408921e-16,6.43359375 Z M11.0476406,0.00861328125 C14.8811836,0.00861328125 18,3.12742969 18,6.9609375 C18,10.7944453 14.8811836,13.9132617 11.0476406,13.9132617 C7.21409766,13.9132617 4.09531641,10.7944453 4.09531641,6.9609375 C4.09531641,3.12742969 7.21413281,0.00861328125 11.0476406,0.00861328125 Z M11.0476406,12.8585742 C14.2996289,12.8585742 16.9453125,10.2128906 16.9453125,6.9609375 C16.9453125,3.70898438 14.2996289,1.06330078 11.0476406,1.06330078 C7.7956875,1.06330078 5.15000391,3.70898438 5.15000391,6.9609375 C5.15000391,10.2128906 7.7956875,12.8585742 11.0476406,12.8585742 Z M11.3881641,7.22299219 L13.6453008,8.76111328 L13.0513359,9.63267188 L10.3334766,7.78053516 L10.3334766,3.81645703 L11.3881641,3.81645703 L11.3881641,7.22299219 Z" id="Combined-Shape"></path>
                            </g>
                        </g>
                    </g>
                </g>
            </g>
        </g>
    </g>
</svg>