<?xml version="1.0" encoding="UTF-8"?>
<svg width="16px" height="22px" viewBox="0 0 16 22" version="1.1" xmlns="http://www.w3.org/2000/svg" xmlns:xlink="http://www.w3.org/1999/xlink">
    <!-- Generator: Sketch 53.2 (72643) - https://sketchapp.com -->
    <title>lock (1)</title>
    <desc>Created with Sketch.</desc>
    <g id="Page-1" stroke="none" stroke-width="1" fill="none" fill-rule="evenodd">
        <g id="Desktop-step7" transform="translate(-773.000000, -882.000000)" fill="#FFFFFF" fill-rule="nonzero">
            <g id="Body" transform="translate(162.000000, 128.000000)">
                <g id="Points" transform="translate(598.000000, 521.000000)">
                    <g id="Point" transform="translate(0.000000, 224.000000)">
                        <g id="Icon">
                            <g id="lock-(1)" transform="translate(13.000000, 9.000000)">
                                <path d="M14.4773501,9.57007625 C14.8694399,9.56990295 15.1872007,9.88766381 15.1870275,10.2797537 L15.1870275,21.2903226 C15.1859879,21.6817194 14.8689201,21.9987872 14.4773501,22 L13.7676727,22 L13.7676727,19.1826014 L1.41935484,19.1826014 L1.41935484,20.5806452 L12.3483178,20.5806452 L12.3483178,22 L0.709677419,22 C0.318280609,21.9987872 0.00121282984,21.6817194 2.4496534e-15,21.2903226 L2.4496534e-15,10.2797537 C-0.000173261089,9.88766381 0.317760815,9.56990295 0.709677419,9.57007625 L2.92395413,9.57007625 L2.92395413,4.66973286 C2.92395413,2.09074157 5.01452245,0 7.59351375,0 C10.172505,0 12.2632466,2.09074157 12.2632466,4.66973286 L12.2632466,9.57007625 L14.4773501,9.57007625 Z M4.34330897,4.66973286 L4.34330897,9.57007625 L10.8438918,9.57007625 L10.8438918,4.66973286 C10.8438918,2.87457473 9.38867188,1.41935484 7.59351375,1.41935484 C5.79852887,1.41935484 4.34330897,2.87457473 4.34330897,4.66973286 Z M13.7676727,17.7632466 L13.7676727,10.9894311 L1.41935484,10.9894311 L1.41935484,17.7632466 L13.7676727,17.7632466 Z M5.74949597,14.5201455 C5.34233239,14.1878308 5.2181042,13.6188414 5.44975431,13.1470514 C5.68123112,12.6752615 6.20759829,12.4255922 6.71941156,12.5444493 C7.2312248,12.6633065 7.593687,13.1195029 7.59351375,13.6450038 C7.59351375,13.1195029 7.95580269,12.6634797 8.46761593,12.5446226 C8.97960246,12.4257655 9.50579637,12.6754347 9.73727319,13.1470514 C9.96892325,13.6188414 9.84486831,14.1878308 9.43770477,14.5201455 L7.9800592,15.8771264 C7.76227002,16.0798419 7.42493072,16.0798419 7.2071415,15.8771264 L5.74949597,14.5201455 Z" id="Combined-Shape"></path>
                            </g>
                        </g>
                    </g>
                </g>
            </g>
        </g>
    </g>
</svg>