<?xml version="1.0" encoding="UTF-8"?>
<svg width="16px" height="18px" viewBox="0 0 16 18" version="1.1" xmlns="http://www.w3.org/2000/svg" xmlns:xlink="http://www.w3.org/1999/xlink">
    <!-- Generator: Sketch 53.2 (72643) - https://sketchapp.com -->
    <title>piggy-bank</title>
    <desc>Created with Sketch.</desc>
    <g id="Page-1" stroke="none" stroke-width="1" fill="none" fill-rule="evenodd">
        <g id="Desktop-step6-Checking-process" transform="translate(-637.000000, -921.000000)" fill="#FFFFFF" fill-rule="nonzero">
            <g id="Body" transform="translate(162.000000, 128.000000)">
                <g id="Points" transform="translate(316.000000, 786.000000)">
                    <g id="Point" transform="translate(150.000000, 0.000000)">
                        <g id="Icon">
                            <g id="piggy-bank" transform="translate(9.000000, 7.000000)">
                                <path d="M4.545,9.06375 C2.04375,9.06375 0.015,7.03125 0.015,4.53 C0.015,2.02875 2.04375,-3.26849658e-13 4.545,-3.26849658e-13 C7.04625,-3.26849658e-13 9.075,2.0325 9.075,4.53375 C9.075,7.035 7.04625,9.06375 4.545,9.06375 Z M2.9625,6.3225 C2.91,6.52125 2.92875,6.57 3.1125,6.65625 C3.35625,6.77625 3.615,6.83625 3.88125,6.8775 C4.09125,6.91125 4.095,6.9225 4.09875,7.13625 C4.1025,7.23375 4.1025,7.33125 4.1025,7.42875 C4.1025,7.5525 4.1625,7.62375 4.29,7.6275 C4.4325,7.63125 4.57875,7.63125 4.72125,7.6275 C4.84125,7.62375 4.90125,7.56 4.90125,7.44 C4.90125,7.305 4.90875,7.17375 4.90125,7.03875 C4.89375,6.90375 4.95375,6.83625 5.085,6.79875 C5.38875,6.71625 5.64375,6.555 5.8425,6.315 C6.39,5.65125 6.18,4.67625 5.40375,4.245 C5.15625,4.11 4.8975,4.005 4.6425,3.9 C4.4925,3.84 4.35,3.76875 4.22625,3.6675 C3.97875,3.46875 4.0275,3.15 4.31625,3.0225 C4.39875,2.985 4.48125,2.97375 4.57125,2.97 C4.90875,2.95125 5.2275,3.015 5.53125,3.16125 C5.68125,3.2325 5.73,3.21 5.7825,3.0525 C5.83875,2.8875 5.88375,2.71875 5.9325,2.55 C5.9625,2.4375 5.925,2.3625 5.81625,2.31375 C5.62125,2.2275 5.4225,2.1675 5.2125,2.13375 C4.93875,2.0925 4.93875,2.08875 4.93875,1.815 C4.93875,1.425 4.93875,1.425 4.54875,1.425 C4.4925,1.425 4.43625,1.425 4.38,1.425 C4.2,1.4325 4.16625,1.4625 4.1625,1.64625 C4.1625,1.72875 4.1625,1.81125 4.1625,1.89375 C4.15875,2.1375 4.15875,2.13375 3.92625,2.22 C3.36375,2.4225 3.015,2.80875 2.9775,3.42375 C2.94375,3.9675 3.22875,4.33875 3.675,4.605 C3.9525,4.77 4.25625,4.8675 4.54875,4.995 C4.66125,5.04375 4.77,5.10375 4.8675,5.1825 C5.14875,5.415 5.09625,5.80125 4.7625,5.9475 C4.58625,6.02625 4.395,6.045 4.20375,6.0225 C3.90375,5.985 3.61875,5.90625 3.34875,5.7675 C3.19125,5.685 3.1425,5.70375 3.09,5.87625 C3.045,6.02625 3.00375,6.1725 2.9625,6.3225 Z M14.7075,9.4425 C15.105,9.4425 15.4275,9.765 15.435,10.1625 L15.435,11.93625 C15.435,12.33375 15.1125,12.65625 14.715,12.65625 L14.21625,12.65625 C13.905,13.66875 13.30125,14.57625 12.48375,15.30375 C12.47625,15.31125 12.46875,15.315 12.46125,15.3225 C12.435,15.345 12.40875,15.3675 12.3825,15.39 C11.6475,16.05375 11.58,16.83 11.57625,17.025 L11.57625,17.61 C11.57625,17.8275 11.4,18 11.18625,18 L8.80875,18 C8.59125,18 8.41875,17.82375 8.41875,17.61 L8.41875,17.05125 C8.145,17.08125 7.87125,17.09625 7.59,17.09625 C7.23375,17.09625 6.88125,17.07 6.53625,17.025 L6.53625,17.61 C6.53625,17.8275 6.36,18 6.14625,18 L3.77625,18 C3.57,18 3.40125,17.83875 3.38625,17.63625 C3.38625,17.63625 3.38625,17.63625 3.38625,17.6325 C3.38625,17.625 3.38625,17.6175 3.38625,17.61 L3.38625,17.43375 C3.3675,17.02125 3.24,16.06875 2.49375,15.3 C1.97625,14.77125 1.60125,14.11875 1.3425,13.56 C1.1475,13.18125 0.99375,12.78 0.8925,12.36375 C0.88875,12.3525 0.88875,12.345 0.88875,12.345 C0.79125,11.94375 0.73875,11.5275 0.73875,11.1 C0.73875,10.30875 0.91125,9.555 1.23,8.865 C2.14875,9.57 3.29625,9.99 4.545,9.99 C7.11375,9.99 9.27,8.20875 9.8475,5.81625 C9.93,5.475 10.1175,5.1675 10.38,4.93875 C10.7625,4.605 11.3175,4.30875 12.12375,4.2075 C12.48375,4.1625 12.73125,4.55625 12.54,4.86375 C12.26625,5.3025 12.03,5.91375 12.22125,6.585 C12.22875,6.61875 12.23625,6.65625 12.23625,6.69 C13.1475,7.425 13.83,8.37375 14.17875,9.4425 L14.7075,9.4425 Z M11.74125,9.57 C12.0675,9.57 12.33,9.3075 12.33,8.98125 C12.33,8.655 12.0675,8.3925 11.74125,8.3925 C11.415,8.3925 11.1525,8.655 11.1525,8.98125 C11.1525,9.3075 11.415,9.57 11.74125,9.57 Z" id="Combined-Shape"></path>
                            </g>
                        </g>
                    </g>
                </g>
            </g>
        </g>
    </g>
</svg>