<?xml version="1.0" encoding="UTF-8"?>
<svg width="18px" height="18px" viewBox="0 0 18 18" version="1.1" xmlns="http://www.w3.org/2000/svg" xmlns:xlink="http://www.w3.org/1999/xlink">
    <!-- Generator: Sketch 53.2 (72643) - https://sketchapp.com -->
    <title>time-saving</title>
    <desc>Created with Sketch.</desc>
    <g id="Page-1" stroke="none" stroke-width="1" fill="none" fill-rule="evenodd">
        <g id="Desktop-step6-Checking-process" transform="translate(-485.000000, -921.000000)" fill="#FFFFFF" fill-rule="nonzero">
            <g id="Body" transform="translate(162.000000, 128.000000)">
                <g id="Points" transform="translate(316.000000, 786.000000)">
                    <g id="Point">
                        <g id="Icon">
                            <g id="time-saving" transform="translate(7.000000, 7.000000)">
                                <path d="M8.96,3.55271368e-14 C13.888,3.55271368e-14 17.92,4.03225 17.92,8.96025 C17.92,13.88825 13.888,17.92 8.96,17.92 C4.032,17.92 7.10542736e-15,13.88825 7.10542736e-15,8.96025 C7.10542736e-15,4.03225 4.032,3.55271368e-14 8.96,3.55271368e-14 Z M15.4,12.43225 C15.90375,11.48 16.24,10.35975 16.296,9.128 L15.568,9.128 L15.568,8.736 L16.296,8.736 C16.24,7.504 15.96,6.44 15.4,5.43225 L14.78425,5.76825 L14.56025,5.43225 L15.176,5.096 C14.56025,4.088 13.776,3.304 12.76825,2.68775 L12.43225,3.304 L12.09575,3.08 L12.43225,2.464 C11.424,1.904 10.30375,1.624 9.128,1.568 L9.128,2.296 L8.73575,2.296 L8.73575,1.568 C7.50375,1.624 6.43975,1.904 5.43175,2.464 L5.76775,3.08 L5.43175,3.304 L5.09575,2.68775 C4.08775,3.304 3.30375,4.088 2.68775,5.096 L3.30375,5.43225 L3.07975,5.76825 L2.46375,5.43225 C1.90375,6.44 1.62375,7.56025 1.56775,8.736 L2.29575,8.736 L2.29575,9.128 L1.56775,9.128 C1.62375,10.36 1.90375,11.424 2.46375,12.43225 L3.07975,12.09625 L3.30375,12.43225 L2.68775,12.7685 C3.30375,13.776 4.08775,14.5605 5.09575,15.17675 L5.43175,14.5605 L5.76775,14.7845 L5.43175,15.40075 C6.43975,15.96075 7.55975,16.2405 8.73575,16.29675 L8.73575,15.56875 L9.128,15.56875 L9.128,16.29675 C10.36,16.2405 11.424,15.96075 12.43225,15.40075 L12.09575,14.7845 L12.43225,14.5605 L12.76825,15.17675 C13.776,14.5605 14.56025,13.776 15.176,12.7685 L14.56025,12.43225 L14.78425,12.09625 L15.4,12.43225 Z M8.96,3.36 C12.03975,3.36 14.56,5.88 14.56,8.96 L8.96,8.96 L8.96,3.36 Z" id="Combined-Shape"></path>
                            </g>
                        </g>
                    </g>
                </g>
            </g>
        </g>
    </g>
</svg>