<?xml version="1.0" encoding="UTF-8"?>
<svg width="35px" height="29px" viewBox="0 0 35 29" version="1.1" xmlns="http://www.w3.org/2000/svg" xmlns:xlink="http://www.w3.org/1999/xlink">
    <!-- Generator: Sketch 52.6 (67491) - http://www.bohemiancoding.com/sketch -->
    <title>711159</title>
    <desc>Created with Sketch.</desc>
    <g id="desktop" stroke="none" stroke-width="1" fill="none" fill-rule="evenodd">
        <g id="hic_guide_template" transform="translate(-573.000000, -4880.000000)" fill="#FFFFFF" fill-rule="nonzero">
            <g id="Group-20" transform="translate(528.000000, 4839.000000)">
                <g id="711159" transform="translate(45.000000, 41.000000)">
                    <path d="M33.6251072,4.8036978 L24.1299415,4.8036978 L24.1299415,7.42834426 L32.3184405,7.42834426 L32.3184405,21.0765881 L30.3148441,21.0765881 C29.5931481,21.0765881 29.0081774,21.6640912 29.0081774,22.3889113 L29.0081774,24.6107201 L24.4091228,21.3202505 C24.1874561,21.1614862 23.9226023,21.0765881 23.6507895,21.0765881 L14.9832066,21.0765881 L14.9832066,17.1396184 L12.3698733,17.1396184 L12.3698733,22.3889113 C12.3698733,23.1137315 12.9548441,23.7012346 13.67654,23.7012346 L23.2331092,23.7012346 L29.5565789,28.2257074 C29.7822027,28.387144 30.0478752,28.4693697 30.3149123,28.4693697 C30.5191813,28.4693697 30.7247466,28.4212676 30.9133918,28.3236931 C31.348538,28.0983945 31.6215789,27.6482769 31.6215789,27.1570465 L31.6215789,23.7012346 L33.6251754,23.7012346 C34.3468713,23.7012346 34.9318421,23.1137315 34.9318421,22.3889113 L34.9318421,6.11602103 C34.9317739,5.3912009 34.3468031,4.8036978 33.6251072,4.8036978 Z" id="Shape"></path>
                    <path d="M24.1299415,0.035562644 L1.30666667,0.035562644 C0.58497076,0.035562644 0,0.622997224 0,1.34788588 L0,17.1396184 C0,17.8644385 0.58497076,18.4519416 1.30666667,18.4519416 L4.2684308,18.4519416 L4.2684308,22.8701376 C4.2684308,23.391586 4.57551657,23.8631508 5.0507115,24.0722098 C5.21929825,24.1461445 5.39743665,24.1824609 5.57468811,24.1824609 C5.8969883,24.1824609 6.21499025,24.0630279 6.46108187,23.8347144 L12.2705361,18.4519416 L24.1299415,18.4519416 C24.8516374,18.4519416 25.4366082,17.8644385 25.4366082,17.1396184 L25.4366082,1.34788588 C25.4366082,0.622997224 24.8516374,0.035562644 24.1299415,0.035562644 Z M22.8232749,15.8272952 L11.7600682,15.8272952 C11.4316277,15.8272952 11.1154678,15.9515246 10.874152,16.1750416 L6.88183236,19.8740363 L6.88183236,17.1395499 C6.88183236,16.4147298 6.2968616,15.8272267 5.57516569,15.8272267 L2.61333333,15.8272267 L2.61333333,2.66020911 L22.8232749,2.66020911 L22.8232066,15.8272952 L22.8232749,15.8272952 Z" id="Shape"></path>
                </g>
            </g>
        </g>
    </g>
</svg>