<?xml version="1.0" encoding="UTF-8"?>
<svg width="21px" height="17px" viewBox="0 0 21 17" version="1.1" xmlns="http://www.w3.org/2000/svg" xmlns:xlink="http://www.w3.org/1999/xlink">
    <!-- Generator: Sketch 52.6 (67491) - http://www.bohemiancoding.com/sketch -->
    <title>37572</title>
    <desc>Created with Sketch.</desc>
    <g id="mobile" stroke="none" stroke-width="1" fill="none" fill-rule="evenodd">
        <g id="hic_guide_template_-_social_media_widget_fixed" transform="translate(-278.000000, -672.000000)" fill="#FFFFFF" fill-rule="nonzero">
            <g id="Group-8" transform="translate(0.000000, 607.000000)">
                <g id="37572" transform="translate(278.000000, 65.000000)">
                    <path d="M19.1177368,16.4944138 C19.589608,16.4944138 19.9984791,16.3386098 20.3460653,16.0309655 L14.3986443,10.0833158 C14.255951,10.1854955 14.1176407,10.2848548 13.9869909,10.3793358 C13.5419129,10.7072559 13.1806824,10.9631434 12.9032995,11.1465027 C12.6259546,11.3302813 12.2569492,11.5176044 11.7963212,11.708853 C11.3353884,11.9003303 10.9059746,11.9957641 10.5076225,11.9957641 L10.4959601,11.9957641 L10.4842976,11.9957641 C10.0859074,11.9957641 9.65649365,11.9003684 9.19559891,11.708853 C8.73470417,11.5176044 8.36569873,11.3302813 8.08862069,11.1465027 C7.81127586,10.9631434 7.45023593,10.707294 7.00492922,10.3793358 C6.88083485,10.2883612 6.74321053,10.1885445 6.59441924,10.0817151 L0.645854809,16.0309655 C0.993402904,16.3386098 1.40254083,16.4944138 1.87437387,16.4944138 L19.1177368,16.4944138 Z" id="Shape"></path>
                    <path d="M1.18327949,6.33807441 C0.738239564,6.04136842 0.343584392,5.70155717 0,5.3187931 L0,14.3676588 L5.24203448,9.12562432 C4.19333031,8.39348276 2.84212704,7.46536661 1.18327949,6.33807441 Z" id="Shape"></path>
                    <path d="M19.8207604,6.33807441 C18.2251797,7.41803085 16.8690599,8.34774773 15.7522486,9.12772051 L20.9921869,14.3678875 L20.9921869,5.3187931 C20.656225,5.69385844 20.2658004,6.03344102 19.8207604,6.33807441 Z" id="Shape"></path>
                    <path d="M19.1177368,0.000495462795 L1.87441198,0.000495462795 C1.27284392,0.000495462795 0.810348457,0.203635209 0.486353902,0.609495463 C0.162092559,1.01554628 0.000228675136,1.52335753 0.000228675136,2.13235753 C0.000228675136,2.62427586 0.215030853,3.15727949 0.644444646,3.73152087 C1.07385844,4.30553358 1.53078947,4.75640472 2.01500907,5.08436298 C2.28046279,5.2719147 3.08097822,5.82843376 4.41655535,6.75372958 C5.13752995,7.25334664 5.76451906,7.68882033 6.30331579,8.0646098 C6.76257169,8.38460254 7.15863702,8.66171869 7.48564247,8.89168966 C7.5231833,8.91802541 7.5822196,8.96025408 7.66057895,9.01627949 C7.74499819,9.07691652 7.85182759,9.1538657 7.98362069,9.24903267 C8.23741198,9.43258258 8.44825045,9.58095463 8.61617423,9.69430127 C8.78386933,9.80768603 8.98704719,9.93433394 9.2254029,10.0749691 C9.46356806,10.2154138 9.68820327,10.3210236 9.89904174,10.391265 C10.1099183,10.4614682 10.3051307,10.4966842 10.4847169,10.4966842 L10.4963793,10.4966842 L10.5080417,10.4966842 C10.6875898,10.4966842 10.8828403,10.4614682 11.093755,10.391265 C11.3045554,10.3210236 11.529,10.2156425 11.7673557,10.0749691 C12.0054828,9.93433394 12.2083938,9.80741924 12.3766225,9.69430127 C12.5445463,9.58095463 12.7553848,9.43262069 13.0092142,9.24903267 C13.1407405,9.1538657 13.2475699,9.0768784 13.3319891,9.01647005 C13.4103866,8.96021597 13.4693848,8.91825408 13.5071543,8.89168966 C13.7618984,8.71442831 14.1588784,8.43845554 14.6926062,8.06784936 C15.6637895,7.39306715 17.0940762,6.39989292 18.9894882,5.08436298 C19.5595372,4.68620145 20.0357913,4.20571688 20.4185554,3.64359528 C20.8006334,3.08147368 20.9921869,2.49183485 20.9921869,1.87486933 C20.9921869,1.35939746 20.8064646,0.918321234 20.4358203,0.550954628 C20.0647568,0.184045372 19.6253575,0.000495462795 19.1177368,0.000495462795 Z" id="Shape"></path>
                </g>
            </g>
        </g>
    </g>
</svg>