<?xml version="1.0" encoding="UTF-8"?>
<svg xmlns="http://www.w3.org/2000/svg" xmlns:xlink="http://www.w3.org/1999/xlink" width="103px" height="33px" version="1.1" viewBox="0 0 103 33">
<!--Generator: Sketch 54.1 (76490) - https://sketchapp.com-->
    <title>
        myOwn-logo
    </title>
    <desc>
        Created with Sketch.
    </desc>
    <defs>
        <linearGradient id="linearGradient-1-myOwn" x1="100%" x2="0%" y1="50.0000407%" y2="50%">
            <stop offset="0%" stop-color="#D31145"/>
            <stop offset="48.6903902%" stop-color="#AC55A1"/>
            <stop offset="100%" stop-color="#27AAE1"/>
        </linearGradient>
    </defs>
    <g id="Page-1" fill="none" fill-rule="evenodd" stroke="none" stroke-width="1">
        <g id="Tablet-Step1" fill="url(#linearGradient-1-myOwn)" fill-rule="nonzero" transform="translate(-406.000000, -837.000000)">
            <g id="Partner" transform="translate(0.000000, 740.000000)">
                <g id="Group-2" transform="translate(252.000000, 86.000000)">
                    <g id="Logo-8" transform="translate(146.000000, 0.000000)">
                        <g id="myOwn-logo" transform="translate(8.000000, 11.000000)">
                            <path id="Fill-1-Copy-2" d="M88.7675609,19.2555412 C88.7675609,20.5151643 89.7310042,21.5346355 90.9213967,21.5346355 C92.1121971,21.5346355 93.0755042,20.5151643 93.0755042,19.2555412 L93.0755042,12.3870305 C93.0755042,10.2275977 94.123986,9.11762052 95.7681392,9.11762052 C97.411749,9.11762052 98.3756002,10.2275977 98.3756002,12.3870305 L98.3756002,19.2555412 C98.3756002,20.5151643 99.3390443,21.5346355 100.529301,21.5346355 C101.719692,21.5346355 102.683544,20.5151643 102.683544,19.2555412 L102.683544,10.9475008 C102.683544,7.25844667 100.784414,4.97879975 97.5253591,4.97879975 C95.3429509,4.97879975 94.0676569,6.20857655 93.0755042,7.55815299 L93.0755042,7.37824628 C93.0755042,6.11862322 92.1121971,5.09859936 90.9213967,5.09859936 C89.7310042,5.09859936 88.7675609,6.11862322 88.7675609,7.37824628 L88.7675609,19.2555412 Z M69.3352812,19.6089984 C69.5503926,20.1423623 69.8223774,20.6421491 70.2346403,21.0155038 C71.1760421,21.8676424 72.7592406,21.7500536 73.5787323,20.7667849 C74.0069141,20.252904 74.2188964,19.5819157 74.420266,18.9304104 C75.1480527,16.5758713 75.8758394,14.2213324 76.6036269,11.8673461 L78.7706604,18.9346938 C78.9761116,19.6041622 79.1897262,20.2909027 79.6106974,20.8361498 C80.463932,21.9412908 82.3042843,21.9477852 83.1795609,20.8697269 C83.6179476,20.3304214 83.8510186,19.6420227 84.0748381,18.9710344 C85.2072686,15.5780941 86.339155,12.1844627 87.4711776,8.79138421 C87.6637028,8.21366548 87.8593578,7.61356202 87.8056136,7.00323346 C87.7333658,6.18329013 87.168443,5.43519894 86.4282743,5.17998571 C85.6882426,4.9246343 84.8150067,5.17722216 84.3001543,5.79459776 C83.9304778,6.238561 83.7531919,6.8201487 83.5847488,7.38432608 C82.8451242,9.86681713 82.1049562,12.3497226 81.3649238,14.8322137 C80.6355041,12.4207457 79.9056758,10.0092778 79.1763923,7.59794799 C79.0089019,7.04441025 78.835289,6.47857475 78.4962265,6.02120831 C78.0582484,5.42981003 77.3539997,5.07262205 76.6441726,5.07262205 C75.9342093,5.07317476 75.2330904,5.4281519 74.7813698,6.00766695 C74.3823051,6.51933701 74.1846094,7.16863152 73.995621,7.80106845 C73.2974956,10.1355717 72.5989615,12.4700749 71.9008361,14.8045783 C71.2021657,12.4055463 70.5036317,10.0066524 69.8049616,7.60817314 C69.6205998,6.97504531 69.424945,6.3209146 69.0075117,5.82817481 C68.5044966,5.23470387 67.6886785,4.95171703 66.9562655,5.1382562 C66.2238525,5.32465721 65.6128053,5.9837623 65.4718467,6.76639778 C65.3480318,7.45755998 65.5681775,8.15991457 65.7853298,8.82440852 C66.8619756,12.1177232 67.9390296,15.4115905 69.0156753,18.7049052 C69.114047,19.0062696 69.2159563,19.3130229 69.3352812,19.6089984 Z M48.0569344,10.8571329 C48.0569344,14.4567863 50.5506491,17.4557836 54.0652248,17.4557836 C57.5793922,17.4557836 60.0167779,14.5163406 60.0167779,10.9173781 L60.0167779,10.8571329 C60.0167779,7.25817036 57.5230632,4.25917306 54.0083515,4.25917306 C50.4937759,4.25917306 48.0569344,7.19806326 48.0569344,10.7975785 L48.0569344,10.8571329 Z M43.4938774,10.9173781 L43.4938774,10.8571329 C43.4938774,4.88898459 47.9431879,0 54.0652248,0 C60.1868534,0 64.5798349,4.82887752 64.5798349,10.7975785 L64.5798349,10.8571329 C64.5798349,16.8258339 60.1299802,21.7149566 54.0083515,21.7149566 C47.8868589,21.7149566 43.4938774,16.8860791 43.4938774,10.9173781 Z M22.2696827,5.09003238 C20.2010207,5.09003238 18.6137403,5.9898421 17.2815731,7.63967752 C16.488205,6.01968837 14.9859624,5.09003238 13.0017939,5.09003238 C10.8197935,5.09003238 9.51579087,6.31994735 8.52431886,7.66952377 C8.66813472,7.47331221 7.20902316,6.27172352 7.09582094,6.19088988 C5.306763,4.91938357 3.36205199,4.75080743 1.36033168,5.51340722 C0.737039078,5.75300643 0,6.29286463 0,7.40284184 C0,8.5124045 0.822076819,9.26256833 1.70048263,9.26256833 C2.04049752,9.26256833 2.23928173,9.20232311 2.40935721,9.14221601 C2.7775366,9.02241641 3.00394107,8.96230938 3.31592752,8.96230938 C4.32291039,8.96230938 4.2312057,9.61422923 4.21583088,10.6425437 C4.20657877,11.3037214 4.21623906,11.9661428 4.21623906,12.6273206 L4.21623906,19.3662211 C4.21623906,20.6265351 5.17968261,21.6460062 6.37007487,21.6460062 C7.56033109,21.6460062 8.52377463,20.6265351 8.52377463,19.3662211 L8.52377463,12.4984013 C8.52377463,10.3389685 9.51579087,9.22885311 11.1312358,9.22885311 C12.7466807,9.22885311 13.6537952,10.3389685 13.6537952,12.4984013 L13.6537952,19.3662211 C13.6537952,20.6265351 14.6176469,21.6460062 15.8080392,21.6460062 C16.9982954,21.6460062 17.9617389,20.6265351 17.9617389,19.3662211 L17.9617389,12.4984013 C17.9617389,10.3389685 18.9537552,9.22885311 20.5692001,9.22885311 C22.184645,9.22885311 23.0917595,10.3389685 23.0917595,12.4984013 L23.0917595,19.3662211 C23.0917595,20.6265351 24.0552031,21.6460062 25.2454593,21.6460062 C26.4357155,21.6460062 27.3997033,20.6265351 27.3997033,19.3662211 L27.3997033,10.9986263 C27.3997033,7.12966557 25.472408,5.09003238 22.2696827,5.09003238 Z M42.681597,7.30971044 C42.681597,7.66966197 42.5683948,8.17967388 42.483357,8.38942683 L34.2300704,30.3790797 C33.861755,31.4587961 33.2384623,32.0886076 32.1612723,32.0886076 C30.9710162,32.0886076 30.0357371,31.188936 30.0357371,29.898914 C30.0357371,29.5992077 30.1489393,29.1493028 30.2621415,28.8495966 L33.3101662,21.1181695 L28.1432733,8.44967205 C28.030071,8.14927491 27.9168688,7.69950822 27.9168688,7.39966379 C27.9168688,6.11019442 28.8521479,5.20997016 30.042404,5.20997016 C31.119594,5.20997016 31.7428866,5.8403344 32.1116103,6.9200508 L35.4981531,15.9825386 L38.5717571,6.94989707 C38.9119081,5.98998027 39.5357449,5.20997016 40.6409634,5.20997016 C41.746318,5.20997016 42.681597,6.11019442 42.681597,7.30971044 Z"/>
                        </g>
                    </g>
                </g>
            </g>
        </g>
    </g>
</svg>
