<?xml version="1.0" encoding="UTF-8"?>
<svg width="120px" height="54px" viewBox="0 0 120 54" version="1.1" xmlns="http://www.w3.org/2000/svg" xmlns:xlink="http://www.w3.org/1999/xlink">
    <!-- Generator: Sketch 54.1 (76490) - https://sketchapp.com -->
    <title>Assets / Logo / LIC Provider / ZURICH</title>
    <desc>Created with Sketch.</desc>
    <g id="Assets-/-Logo-/-LIC-Provider-/-ZURICH" stroke="none" stroke-width="1" fill="none" fill-rule="evenodd">
        <g id="zurich-logo-big" transform="translate(29.000000, 8.000000)" fill-rule="nonzero">
            <path d="M28.69,0 C22.9425,0 18.2875,4.655 18.2875,10.4025 C18.2875,12.7775 19.095,14.9625 20.425,16.72 L29.07,5.32 L28.12,5.32 L27.17,5.32 C26.1725,5.32 25.27,5.3675 24.605,5.51 C24.1775,5.605 23.845,5.7475 23.56,5.9375 C23.2275,6.175 22.8,6.6975 22.515,7.22 C22.4675,7.2675 22.42,7.3625 22.3725,7.505 L21.85,7.41 L22.705,4.1325 L33.5825,4.1325 L24.9375,15.675 C25.5075,15.6275 25.745,15.6275 26.1725,15.6275 C26.505,15.6275 27.075,15.6275 27.7875,15.675 L29.3075,15.77 C29.8775,15.8175 30.305,15.8175 30.685,15.8175 C31.4925,15.8175 32.015,15.77 32.49,15.58 C32.87,15.4375 33.25,15.295 33.5825,15.0575 C34.2,14.63 34.77,13.965 35.15,13.3 C35.1975,13.2525 35.245,13.11 35.2925,13.015 L35.7675,13.1575 C35.625,13.7275 35.53,13.965 35.2925,14.44 C34.8175,15.485 34.295,16.15 33.5825,16.72 C32.8225,17.29 32.015,17.5275 31.065,17.5275 L30.9225,17.5275 C30.21,17.5275 29.64,17.48 27.93,17.195 C26.1725,16.91 25.3175,16.815 24.415,16.815 C23.845,16.815 23.275,16.8625 22.705,16.9575 C21.945,17.1 21.66,17.1475 20.995,17.48 C22.895,19.57 25.65,20.8525 28.69,20.8525 C34.4375,20.8525 39.0925,16.1975 39.0925,10.4025 C39.0925,4.655 34.4375,0 28.69,0 Z" id="Path" fill="#003399"></path>
            <path d="M7.2675,36.29 C6.84,36.385 6.3175,36.4325 5.7,36.4325 C5.51,36.4325 5.225,36.4325 4.8925,36.4325 L3.3725,36.4325 L9.405,27.835 L1.5675,27.835 L0.6175,29.925 C0.95,29.735 1.045,29.6875 1.33,29.5925 C1.7575,29.4025 2.28,29.26 2.755,29.2125 C3.1825,29.1175 3.5625,29.1175 4.18,29.07 C4.465,29.07 4.7025,29.07 4.94,29.07 L6.08,29.07 L0,37.6675 L8.645,37.6675 L9.6425,35.435 C9.31,35.625 9.1675,35.72 8.93,35.815 C8.36,36.005 7.8375,36.195 7.2675,36.29 Z M35.15,29.64 C35.15,28.975 35.15,28.785 35.245,28.5475 C35.2925,28.4525 35.34,28.3575 35.3875,28.215 C35.4825,28.025 35.5775,27.9775 35.7675,27.7875 L32.585,27.7875 C32.775,27.9775 32.87,28.025 32.965,28.1675 C33.0125,28.2625 33.1075,28.3575 33.1075,28.5 C33.2025,28.7375 33.2025,28.975 33.2025,29.545 C33.2025,29.83 33.2025,30.02 33.2025,30.115 L33.2025,36.1 C33.2025,36.4325 33.155,36.8125 33.06,37.05 C33.0125,37.145 32.965,37.24 32.9175,37.335 C32.8225,37.43 32.775,37.525 32.6325,37.6675 L35.815,37.6675 C35.6725,37.525 35.625,37.4775 35.4825,37.335 C35.435,37.24 35.3875,37.145 35.34,37.05 C35.245,36.8125 35.1975,36.48 35.1975,36.195 L35.1975,30.21 L35.15,29.64 Z M44.6975,36.2425 C44.08,36.48 43.5575,36.6225 42.94,36.6225 C41.895,36.6225 41.04,36.2425 40.375,35.5775 C39.71,34.865 39.3775,33.915 39.3775,32.87 C39.3775,31.825 39.71,30.875 40.28,30.21 C40.5175,29.925 40.85,29.6875 41.1825,29.4975 C41.7525,29.165 42.4175,29.0225 43.13,29.0225 C43.7475,29.0225 44.3175,29.1175 44.935,29.4025 C45.315,29.545 45.4575,29.64 45.7425,29.83 L45.7425,27.9775 C45.505,27.8825 45.41,27.8825 45.125,27.835 C44.555,27.6925 43.985,27.645 43.3675,27.645 C42.275,27.645 41.3725,27.835 40.5175,28.1675 C39.995,28.3575 39.5675,28.6425 39.14,28.975 C37.905,29.9725 37.24,31.35 37.24,33.0125 C37.24,34.58 37.905,35.9575 39.045,36.86 C39.995,37.62 41.2775,38 42.75,38 C43.7,38 44.555,37.8575 45.5525,37.5725 C45.6,37.5725 45.6475,37.525 45.695,37.525 L45.695,35.72 C45.4575,35.8625 45.3625,35.91 45.22,36.005 C45.125,36.0525 44.935,36.1475 44.6975,36.2425 Z M56.43,29.64 C56.43,29.2125 56.4775,28.88 56.525,28.595 C56.5725,28.4525 56.62,28.3575 56.6675,28.215 C56.7625,28.025 56.8575,27.9775 57.0475,27.7875 L53.8175,27.7875 C54.0075,27.93 54.055,28.025 54.1975,28.1675 C54.2925,28.2625 54.34,28.405 54.3875,28.5 C54.4825,28.7375 54.4825,29.0225 54.4825,29.545 L54.4825,31.92 L50.0175,31.92 L50.0175,30.115 C50.0175,29.5925 50.0175,29.2125 50.065,28.975 C50.065,28.8325 50.1125,28.69 50.16,28.5475 C50.255,28.3575 50.3975,28.025 50.5875,27.8825 C50.635,27.835 50.635,27.835 50.6825,27.7875 L47.5,27.7875 C47.69,27.9775 47.7375,28.025 47.8325,28.1675 C47.88,28.2625 47.975,28.3575 48.0225,28.5 C48.1175,28.7375 48.1175,28.88 48.1175,29.545 L48.1175,30.1625 L48.1175,35.5775 C48.1175,36.1475 48.1175,36.385 48.07,36.6225 C48.07,36.765 48.0225,36.86 47.975,37.0025 C47.88,37.24 47.785,37.3825 47.595,37.5725 C47.595,37.5725 47.5475,37.62 47.5,37.6675 L50.635,37.6675 C50.4925,37.525 50.445,37.4775 50.35,37.335 C50.3025,37.24 50.255,37.145 50.2075,37.05 C50.1125,36.8125 50.065,36.6225 50.065,36.195 C50.065,36.005 50.065,35.7675 50.065,35.625 L50.065,33.25 L54.53,33.25 L54.53,35.625 C54.53,36.1475 54.53,36.3375 54.4825,36.6225 C54.4825,36.765 54.435,36.9075 54.3875,37.05 C54.34,37.24 54.1975,37.3825 54.0075,37.5725 C53.96,37.62 53.9125,37.62 53.865,37.715 L57.0475,37.715 C56.905,37.5725 56.8575,37.525 56.7625,37.43 C56.6675,37.335 56.62,37.1925 56.5725,37.0975 C56.4775,36.86 56.43,36.7175 56.43,36.195 C56.43,35.91 56.43,35.72 56.43,35.6725 L56.43,30.2575 L56.43,29.64 L56.43,29.64 Z M30.97,37.0025 C30.6375,36.67 30.305,36.3375 29.83,35.8625 C29.545,35.53 29.3075,35.2925 29.1175,35.055 L27.55,33.25 C27.74,33.2025 27.835,33.155 27.9775,33.1075 C28.4525,32.9175 28.88,32.68 29.2125,32.395 C29.5925,32.0625 29.8775,31.73 30.02,31.255 C30.115,31.0175 30.1625,30.7325 30.1625,30.495 C30.1625,29.8775 29.925,29.355 29.4975,28.88 C29.07,28.4525 28.5,28.1675 27.8825,27.9775 C27.455,27.8825 26.98,27.835 26.1725,27.7875 C25.8875,27.7875 25.555,27.7875 25.27,27.7875 L22.705,27.7875 C22.895,27.93 22.9425,28.025 23.0375,28.1675 C23.1325,28.2625 23.18,28.405 23.2275,28.5475 C23.275,28.785 23.3225,29.07 23.3225,29.5925 L23.3225,36.0525 C23.3225,36.5275 23.275,36.8125 23.2275,37.0025 C23.18,37.0975 23.1325,37.24 23.0375,37.335 C22.9425,37.43 22.895,37.525 22.705,37.6675 L25.8875,37.6675 C25.745,37.525 25.6975,37.4775 25.6025,37.335 C25.5075,37.24 25.46,37.145 25.4125,37.05 C25.3175,36.8125 25.27,36.6225 25.27,36.1475 C25.27,36.005 25.27,35.815 25.27,35.6725 L25.27,33.44 L27.075,35.625 C27.17,35.72 27.3125,35.91 27.5025,36.1 C27.6925,36.3375 27.8825,36.5275 27.9775,36.6225 C28.3575,37.0025 28.69,37.24 29.0225,37.43 C29.3075,37.5725 29.5925,37.6675 30.02,37.6675 C30.1625,37.6675 30.3525,37.6675 30.5425,37.6675 L31.7775,37.6675 C31.5875,37.525 31.54,37.4775 31.3975,37.3825 C31.255,37.24 31.1125,37.145 30.97,37.0025 Z M27.17,32.1575 C26.79,32.3475 26.4575,32.49 25.935,32.5375 C25.745,32.585 25.555,32.585 25.4125,32.585 C25.365,32.585 25.3175,32.585 25.27,32.585 L25.27,28.975 C25.4125,28.975 25.46,28.975 25.555,28.975 C26.03,28.975 26.505,29.0225 26.885,29.1175 C27.1225,29.165 27.36,29.3075 27.55,29.45 C27.8825,29.735 28.0725,30.1625 28.0725,30.685 C28.0725,31.1125 27.93,31.4925 27.6925,31.7775 C27.5025,31.92 27.36,32.0625 27.17,32.1575 Z M18.1925,28.215 C18.24,28.31 18.2875,28.4525 18.335,28.5475 C18.3825,28.785 18.43,29.0225 18.43,29.5925 L18.43,33.345 C18.43,34.1525 18.43,34.6275 18.335,35.0075 C18.2875,35.245 18.1925,35.53 18.0975,35.72 C17.86,36.1 17.385,36.4325 16.8625,36.575 C16.625,36.6225 16.3875,36.67 16.15,36.67 C15.295,36.67 14.5825,36.3375 14.2025,35.815 C13.9175,35.435 13.87,35.0075 13.8225,34.01 L13.8225,33.2025 L13.8225,30.21 C13.8225,29.64 13.8225,29.355 13.87,29.07 C13.87,28.88 13.9175,28.7375 13.965,28.6425 C14.0125,28.405 14.2025,28.12 14.345,27.93 C14.345,27.93 14.3925,27.8825 14.44,27.835 L11.21,27.835 C11.4,27.9775 11.495,28.0725 11.59,28.215 C11.6375,28.31 11.685,28.4525 11.7325,28.5475 C11.78,28.69 11.78,28.8325 11.78,29.0225 C11.78,29.1175 11.78,29.3075 11.78,29.64 L11.78,33.0125 C11.78,34.0575 11.78,34.3425 11.8275,34.77 C11.875,35.4825 12.1125,36.0525 12.54,36.575 C13.3,37.525 14.4875,38 16.055,38 C16.815,38 17.5275,37.905 18.05,37.6675 C18.62,37.4775 19.1425,37.0975 19.5225,36.67 C19.9975,36.1475 20.235,35.53 20.33,34.77 C20.3775,34.3425 20.3775,33.7725 20.3775,33.0125 L20.3775,30.1625 L20.3775,29.5925 L20.3775,29.4975 C20.3775,29.07 20.3775,28.8325 20.4725,28.595 C20.52,28.4525 20.5675,28.31 20.6625,28.215 C20.7575,28.025 20.8525,27.9775 21.0425,27.7875 L17.86,27.7875 C18.05,27.9775 18.0975,28.025 18.1925,28.215 Z M60.4675,25.365 L60.4675,25.365 C60.705,25.3175 60.895,25.175 60.895,24.89 C60.895,24.51 60.6575,24.3675 60.325,24.3675 L59.8025,24.3675 L59.8025,26.315 L59.9925,26.315 L59.9925,25.4125 L60.135,25.4125 C60.325,25.4125 60.4675,25.4125 60.5625,25.65 L60.8475,26.315 L61.0375,26.315 L60.705,25.555 C60.705,25.46 60.61,25.4125 60.4675,25.365 Z M59.9925,25.27 L59.9925,24.5575 L60.1825,24.5575 C60.4675,24.5575 60.6575,24.5575 60.6575,24.89 C60.6575,25.175 60.42,25.2225 60.1825,25.2225 L59.9925,25.2225 L59.9925,25.27 Z M60.3725,23.7975 C59.47,23.7975 58.7575,24.51 58.7575,25.4125 C58.7575,26.2675 59.47,27.0275 60.3725,27.0275 C61.2275,27.0275 61.9875,26.315 61.9875,25.4125 C61.9875,24.51 61.275,23.7975 60.3725,23.7975 Z M60.3725,26.79 C59.6125,26.79 58.9475,26.1725 58.9475,25.365 C58.9475,24.605 59.565,23.94 60.3725,23.94 C61.1325,23.94 61.7975,24.5575 61.7975,25.365 C61.7975,26.1725 61.18,26.79 60.3725,26.79 Z" id="Shape" fill="#000066"></path>
        </g>
    </g>
</svg>