<?xml version="1.0" encoding="UTF-8"?>
<svg width="65px" height="67px" viewBox="0 0 65 67" version="1.1" xmlns="http://www.w3.org/2000/svg" xmlns:xlink="http://www.w3.org/1999/xlink">
    <!-- Generator: Sketch 52.6 (67491) - http://www.bohemiancoding.com/sketch -->
    <title>Group 7</title>
    <desc>Created with Sketch.</desc>
    <defs>
        <path d="M20.0000538,0.333333333 C8.97205375,0.333333333 5.37532104e-05,8.408 5.37532104e-05,18.3333333 C5.37532104e-05,21.8026667 1.09738709,25.1633333 3.17872042,28.0693333 C2.78472042,32.4273333 1.72872042,35.6626667 0.195387087,37.1953333 C-0.00727958012,37.398 -0.0579462468,37.708 0.0700537532,37.964 C0.183387087,38.1926667 0.41672042,38.3333333 0.66672042,38.3333333 C0.697387087,38.3333333 0.728053753,38.3313333 0.759387087,38.3266667 C1.02938709,38.2886667 7.30138709,37.386 11.8380538,34.7673333 C14.4140538,35.8066667 17.1580538,36.3333333 20.0000538,36.3333333 C31.0280538,36.3333333 40.0000538,28.2586667 40.0000538,18.3333333 C40.0000538,8.408 31.0280538,0.333333333 20.0000538,0.333333333 Z M10.6667204,21 C9.19605375,21 8.00005375,19.804 8.00005375,18.3333333 C8.00005375,16.8626667 9.19605375,15.6666667 10.6667204,15.6666667 C12.1373871,15.6666667 13.3333871,16.8626667 13.3333871,18.3333333 C13.3333871,19.804 12.1373871,21 10.6667204,21 Z M20.0000538,21 C18.5293871,21 17.3333871,19.804 17.3333871,18.3333333 C17.3333871,16.8626667 18.5293871,15.6666667 20.0000538,15.6666667 C21.4707204,15.6666667 22.6667204,16.8626667 22.6667204,18.3333333 C22.6667204,19.804 21.4707204,21 20.0000538,21 Z M29.3333871,21 C27.8627204,21 26.6667204,19.804 26.6667204,18.3333333 C26.6667204,16.8626667 27.8627204,15.6666667 29.3333871,15.6666667 C30.8040538,15.6666667 32.0000538,16.8626667 32.0000538,18.3333333 C32.0000538,19.804 30.8040538,21 29.3333871,21 Z" id="path-1"></path>
        <filter x="-58.4%" y="-51.3%" width="214.7%" height="219.2%" filterUnits="objectBoundingBox" id="filter-2">
            <feMorphology radius="3" operator="dilate" in="SourceAlpha" result="shadowSpreadOuter1"></feMorphology>
            <feOffset dx="0" dy="3" in="shadowSpreadOuter1" result="shadowOffsetOuter1"></feOffset>
            <feGaussianBlur stdDeviation="6" in="shadowOffsetOuter1" result="shadowBlurOuter1"></feGaussianBlur>
            <feComposite in="shadowBlurOuter1" in2="SourceAlpha" operator="out" result="shadowBlurOuter1"></feComposite>
            <feColorMatrix values="0 0 0 0 0   0 0 0 0 0   0 0 0 0 0  0 0 0 0.178838315 0" type="matrix" in="shadowBlurOuter1"></feColorMatrix>
        </filter>
    </defs>
    <g id="mobile" stroke="none" stroke-width="1" fill="none" fill-rule="evenodd">
        <g id="hic_guide_template_-_social_media_widget_fixed" transform="translate(-255.000000, -596.000000)">
            <g id="Group-8" transform="translate(0.000000, 607.000000)">
                <g id="Group-7" transform="translate(290.000000, 19.500000) scale(-1, 1) translate(-290.000000, -19.500000) translate(270.000000, 0.000000)">
                    <g id="134718" transform="translate(20.500000, 18.500000) scale(-1, 1) translate(-20.500000, -18.500000) translate(5.000000, 13.000000)" fill="#FFFFFF">
                        <rect id="Rectangle-7" x="0" y="0" width="31" height="11"></rect>
                    </g>
                    <g id="Shape">
                        <use fill="black" fill-opacity="1" filter="url(#filter-2)" xlink:href="#path-1"></use>
                        <path stroke="#FFFFFF" stroke-width="3" d="M11.9517455,36.4184154 C9.95468924,37.4777963 7.60658127,38.315754 5.07231339,38.9674813 C3.36292554,39.4070776 1.91975168,39.6781392 0.980354041,39.8103019 C0.874894149,39.8260087 0.770659352,39.8333333 0.66672042,39.8333333 C-0.153027703,39.8333333 -0.907285023,39.369874 -1.27158703,38.6348204 C-1.68852994,37.8009346 -1.52416273,36.7935628 -0.865042432,36.1344426 C0.30629042,34.963619 1.23285875,32.2363526 1.63209167,28.4714366 C-0.418361842,25.4218741 -1.49994625,21.93159 -1.49994625,18.3333333 C-1.49994625,7.54231932 8.17675433,-1.16666667 20.0000538,-1.16666667 C31.8233532,-1.16666667 41.5000538,7.54231932 41.5000538,18.3333333 C41.5000538,29.1243474 31.8233532,37.8333333 20.0000538,37.8333333 C17.2135004,37.8333333 14.5098793,37.3579826 11.9517455,36.4184154 Z M10.6667204,19.5 C11.30896,19.5 11.8333871,18.9755729 11.8333871,18.3333333 C11.8333871,17.6910938 11.30896,17.1666667 10.6667204,17.1666667 C10.0244809,17.1666667 9.50005375,17.6910938 9.50005375,18.3333333 C9.50005375,18.9755729 10.0244809,19.5 10.6667204,19.5 Z M20.0000538,19.5 C20.6422933,19.5 21.1667204,18.9755729 21.1667204,18.3333333 C21.1667204,17.6910938 20.6422933,17.1666667 20.0000538,17.1666667 C19.3578142,17.1666667 18.8333871,17.6910938 18.8333871,18.3333333 C18.8333871,18.9755729 19.3578142,19.5 20.0000538,19.5 Z M29.3333871,19.5 C29.9756266,19.5 30.5000538,18.9755729 30.5000538,18.3333333 C30.5000538,17.6910938 29.9756266,17.1666667 29.3333871,17.1666667 C28.6911475,17.1666667 28.1667204,17.6910938 28.1667204,18.3333333 C28.1667204,18.9755729 28.6911475,19.5 29.3333871,19.5 Z" fill="#79CA1B" fill-rule="evenodd"></path>
                    </g>
                </g>
            </g>
        </g>
    </g>
</svg>