<?xml version="1.0" encoding="UTF-8"?>
<svg width="28px" height="28px" viewBox="0 0 28 28" version="1.1" xmlns="http://www.w3.org/2000/svg" xmlns:xlink="http://www.w3.org/1999/xlink">
    <!-- Generator: Sketch 52.6 (67491) - http://www.bohemiancoding.com/sketch -->
    <title>69407</title>
    <desc>Created with Sketch.</desc>
    <g id="desktop" stroke="none" stroke-width="1" fill="none" fill-rule="evenodd">
        <g id="hic_guide_template" transform="translate(-1132.000000, -7031.000000)" fill="#000000" fill-rule="nonzero">
            <g id="Group-18" transform="translate(0.000000, 6586.000000)">
                <g id="Group-10" transform="translate(1132.000000, 445.000000)">
                    <g id="69407">
                        <path d="M13.8655851,0 C6.22013298,0 0,6.22013298 0,13.8655851 C0,21.5104787 6.22013298,27.7311702 13.8655851,27.7311702 C21.5104787,27.7311702 27.7311702,21.5104787 27.7311702,13.8655851 C27.7311702,6.22013298 21.5115957,0 13.8655851,0 Z M17.3138298,14.3537234 L15.0580053,14.3537234 C15.0580053,17.9577926 15.0580053,22.3940426 15.0580053,22.3940426 L11.7153191,22.3940426 C11.7153191,22.3940426 11.7153191,18.0007979 11.7153191,14.3537234 L10.1263564,14.3537234 L10.1263564,11.5120213 L11.7153191,11.5120213 L11.7153191,9.67396277 C11.7153191,8.35755319 12.3408511,6.30055851 15.0887234,6.30055851 L17.5657181,6.31005319 L17.5657181,9.06853723 C17.5657181,9.06853723 16.0605319,9.06853723 15.7678723,9.06853723 C15.4752128,9.06853723 15.0591223,9.21486702 15.0591223,9.84263298 L15.0591223,11.5125798 L17.6059309,11.5125798 L17.3138298,14.3537234 Z" id="Shape"></path>
                    </g>
                </g>
            </g>
        </g>
    </g>
</svg>