<?xml version="1.0" encoding="UTF-8"?>
<svg width="30px" height="18px" viewBox="0 0 30 18" version="1.1" xmlns="http://www.w3.org/2000/svg" xmlns:xlink="http://www.w3.org/1999/xlink">
    <!-- Generator: Sketch 52.6 (67491) - http://www.bohemiancoding.com/sketch -->
    <title>733613</title>
    <desc>Created with Sketch.</desc>
    <g id="mobile" stroke="none" stroke-width="1" fill="none" fill-rule="evenodd">
        <g id="hic_guide_template_-_social_media_widget_fixed" transform="translate(-145.000000, -671.000000)" fill="#FFFFFF" fill-rule="nonzero">
            <g id="Group-8" transform="translate(0.000000, 607.000000)">
                <g id="733613" transform="translate(145.000000, 64.000000)">
                    <polygon id="Shape" points="26.25 7.5 26.25 3.75 24.375 3.75 24.375 7.5 20.625 7.5 20.625 9.375 24.375 9.375 24.375 13.125 26.25 13.125 26.25 9.375 30 9.375 30 7.5"></polygon>
                    <path d="M8.57142857,7.66071429 L8.57142857,11.0892857 L13.4211429,11.0892857 C12.7131429,13.0847143 10.8068571,14.5178571 8.57142857,14.5178571 C5.736,14.5178571 3.42857143,12.2104286 3.42857143,9.375 C3.42857143,6.53957143 5.736,4.23214286 8.57142857,4.23214286 C9.80057143,4.23214286 10.9834286,4.67271429 11.9022857,5.47328571 L14.1548571,2.88814286 C12.612,1.54414286 10.6302857,0.803571429 8.57142857,0.803571429 C3.84514286,0.803571429 0,4.64871429 0,9.375 C0,14.1012857 3.84514286,17.9464286 8.57142857,17.9464286 C13.2977143,17.9464286 17.1428571,14.1012857 17.1428571,9.375 L17.1428571,7.66071429 L8.57142857,7.66071429 Z" id="Shape"></path>
                </g>
            </g>
        </g>
    </g>
</svg>