<?xml version="1.0" encoding="UTF-8"?>
<svg width="29px" height="28px" viewBox="0 0 29 28" version="1.1" xmlns="http://www.w3.org/2000/svg" xmlns:xlink="http://www.w3.org/1999/xlink">
    <!-- Generator: Sketch 52.6 (67491) - http://www.bohemiancoding.com/sketch -->
    <title>69406</title>
    <desc>Created with Sketch.</desc>
    <g id="desktop" stroke="none" stroke-width="1" fill="none" fill-rule="evenodd">
        <g id="hic_guide_template" transform="translate(-1203.000000, -7031.000000)" fill="#000000" fill-rule="nonzero">
            <g id="Group-18" transform="translate(0.000000, 6586.000000)">
                <g id="Group-10" transform="translate(1132.000000, 445.000000)">
                    <g id="69406" transform="translate(71.382979, 0.000000)">
                        <path d="M16.3922872,11.8951596 C15.2054521,11.8951596 14.6754255,12.5475 14.3788564,13.0054787 L14.3788564,12.0537766 L12.1436968,12.0537766 C12.1727394,12.6837766 12.1436968,18.7788032 12.1436968,18.7788032 L14.3788564,18.7788032 L14.3788564,15.0217021 C14.3788564,14.8211968 14.3917021,14.6195745 14.4520213,14.4760372 C14.6139894,14.0739096 14.9814894,13.6578191 15.5992021,13.6578191 C16.4079255,13.6578191 16.7313032,14.2744149 16.7313032,15.1792021 L16.7313032,18.7771277 L18.9664628,18.7771277 L18.9670213,18.7771277 L18.9670213,14.9206117 C18.9659043,12.8563564 17.8628457,11.8951596 16.3922872,11.8951596 Z M14.3771809,13.0289362 L14.3632181,13.0289362 C14.3676862,13.021117 14.3743883,13.0138564 14.3771809,13.0060372 L14.3771809,13.0289362 Z" id="Shape"></path>
                        <polygon id="Rectangle-path" points="8.66976064 12.0537766 10.9049202 12.0537766 10.9049202 18.7788032 8.66976064 18.7788032"></polygon>
                        <path d="M13.8655851,0 C6.22013298,0 0,6.22013298 0,13.8655851 C0,21.5104787 6.22013298,27.7311702 13.8655851,27.7311702 C21.5104787,27.7311702 27.7311702,21.5104787 27.7311702,13.8655851 C27.7311702,6.22013298 21.5115957,0 13.8655851,0 Z M21.2183777,20.1371011 C21.2183777,20.7268883 20.7291223,21.2038564 20.1242553,21.2038564 L7.5125266,21.2038564 C6.90933511,21.2038564 6.41952128,20.7268883 6.41952128,20.1371011 L6.41952128,7.37848404 C6.41952128,6.78925532 6.90933511,6.31172872 7.5125266,6.31172872 L20.1242553,6.31172872 C20.7285638,6.31172872 21.2183777,6.78981383 21.2183777,7.37848404 L21.2183777,20.1371011 Z" id="Shape"></path>
                        <path d="M9.80242021,8.81162234 C9.03837766,8.81162234 8.53795213,9.31316489 8.53795213,9.97332447 C8.53795213,10.6184043 9.02329787,11.1350266 9.77281915,11.1350266 L9.78734043,11.1350266 C10.5670213,11.1350266 11.052367,10.6184043 11.052367,9.97332447 C11.0372872,9.3137234 10.5675798,8.81162234 9.80242021,8.81162234 Z" id="Shape"></path>
                    </g>
                </g>
            </g>
        </g>
    </g>
</svg>