<?xml version="1.0" encoding="UTF-8"?>
<svg width="24px" height="24px" viewBox="0 0 24 24" version="1.1" xmlns="http://www.w3.org/2000/svg" xmlns:xlink="http://www.w3.org/1999/xlink">
    <!-- Generator: Sketch 52.6 (67491) - http://www.bohemiancoding.com/sketch -->
    <title>126341</title>
    <desc>Created with Sketch.</desc>
    <g id="mobile" stroke="none" stroke-width="1" fill="none" fill-rule="evenodd">
        <g id="hic_guide_template" transform="translate(-245.000000, -15.000000)" fill="#40A9BC" fill-rule="nonzero">
            <g id="126341" transform="translate(245.000000, 15.000000)">
                <path d="M18.502435,15.7625735 C17.7073354,14.9776239 16.7147271,14.9776239 15.9246919,15.7625735 C15.3220369,16.360148 14.7193818,16.9577226 14.1268554,17.5654255 C13.9647969,17.7325438 13.8280601,17.7679931 13.6305513,17.6565809 C13.240598,17.4438849 12.8253231,17.2717024 12.4505628,17.0387496 C10.7033696,15.9398202 9.23977875,14.5269109 7.94331074,12.9367549 C7.30014106,12.1467412 6.72787198,11.3010213 6.32779005,10.3489534 C6.2467608,10.1565141 6.26195378,10.0299093 6.41894796,9.87291942 C7.02160301,9.29053746 7.60906508,8.69296292 8.20159147,8.09538839 C9.02707696,7.26486107 9.02707696,6.29253641 8.19652714,5.4569449 C7.72554462,4.98091095 7.25456211,4.51500538 6.78357959,4.03897143 C6.29740408,3.5528091 5.81629291,3.06158258 5.32505307,2.58048444 C4.52995355,1.80566322 3.53734523,1.80566322 2.74731004,2.58554863 C2.13959066,3.18312316 1.55719292,3.79589027 0.939344881,4.38333642 C0.367075798,4.92520485 0.0784090921,5.58861386 0.0176371541,6.36343508 C-0.0785850811,7.62441863 0.230338937,8.81450351 0.66587116,9.97420323 C1.55719292,12.3746297 2.91443287,14.5066541 4.56033952,16.4614319 C6.78357959,19.1049395 9.43728755,21.1964504 12.5417207,22.7055793 C13.9394753,23.3841809 15.3878731,23.9057926 16.9628792,23.9918838 C18.0466454,24.0526541 18.9886105,23.7791878 19.7431954,22.9334679 C20.2597568,22.3561501 20.8421546,21.8294743 21.389102,21.2774775 C22.1993945,20.4570785 22.2044589,19.4644971 21.3992307,18.6542265 C20.4370083,17.6869661 19.4697216,16.7247698 18.502435,15.7625735 Z" id="Shape"></path>
                <path d="M17.2222987,12 L19,11.6898734 C18.7205781,10.021097 17.9497591,8.50984529 16.7790778,7.30872011 C15.5409498,6.04360056 13.9752237,5.24613221 12.2505162,5 L12,6.82630098 C13.3344804,7.01828411 14.5485203,7.63361463 15.5072264,8.61322082 C16.4129387,9.53867792 17.0055058,10.7102672 17.2222987,12 Z" id="Shape"></path>
                <path d="M20.1345669,4.02761001 C17.9848612,1.82226057 15.2649285,0.429680759 12.2624054,0 L12,1.92062123 C14.5937763,2.29335634 16.9453322,3.49956859 18.8023549,5.39948231 C20.5634987,7.20621225 21.7190917,9.48921484 22.137931,12 L24,11.6738568 C23.510513,8.76445211 22.1732548,6.12424504 20.1345669,4.02761001 Z" id="Shape"></path>
            </g>
        </g>
    </g>
</svg>