<?xml version="1.0" encoding="UTF-8"?>
<svg width="29px" height="28px" viewBox="0 0 29 28" version="1.1" xmlns="http://www.w3.org/2000/svg" xmlns:xlink="http://www.w3.org/1999/xlink">
    <!-- Generator: Sketch 52.6 (67491) - http://www.bohemiancoding.com/sketch -->
    <title>69480</title>
    <desc>Created with Sketch.</desc>
    <g id="desktop" stroke="none" stroke-width="1" fill="none" fill-rule="evenodd">
        <g id="hic_guide_template" transform="translate(-1167.000000, -7031.000000)" fill="#000000" fill-rule="nonzero">
            <g id="Group-18" transform="translate(0.000000, 6586.000000)">
                <g id="Group-10" transform="translate(1132.000000, 445.000000)">
                    <g id="69480" transform="translate(35.691489, 0.000000)">
                        <path d="M13.8655851,0 C6.22013298,0 0,6.22013298 0,13.8655851 C0,21.5104787 6.22013298,27.7311702 13.8655851,27.7311702 C21.5104787,27.7311702 27.7311702,21.5104787 27.7311702,13.8655851 C27.7311702,6.22013298 21.5115957,0 13.8655851,0 Z M20.0510904,10.6921277 C20.057234,10.8295213 20.0605851,10.9680319 20.0605851,11.1065426 C20.0605851,15.3238564 16.851383,20.185133 10.9797606,20.185133 C9.17744681,20.185133 7.49968085,19.6584574 6.08776596,18.7525532 C6.33742021,18.7821543 6.59154255,18.797234 6.84901596,18.797234 C8.34470745,18.797234 9.72031915,18.2867553 10.812766,17.431117 C9.41648936,17.4054255 8.2374734,16.482766 7.83143617,15.2143883 C8.02579787,15.25125 8.22630319,15.2719149 8.4312766,15.2719149 C8.72226064,15.2719149 9.00486702,15.2339362 9.27239362,15.1607713 C7.81244681,14.8681117 6.71273936,13.5785106 6.71273936,12.0314362 C6.71273936,12.0180319 6.71273936,12.0040691 6.71329787,11.9912234 C7.14335106,12.2297074 7.63539894,12.3738032 8.15816489,12.39 C7.3025266,11.8186436 6.73898936,10.84125 6.73898936,9.73428191 C6.73898936,9.14896277 6.89593085,8.60050532 7.17071809,8.12912234 C8.74404255,10.0604521 11.0964894,11.3305053 13.7482979,11.4645479 C13.6935638,11.2305319 13.6661968,10.9875798 13.6661968,10.7368085 C13.6661968,8.97470745 15.094867,7.54547872 16.8569681,7.54547872 C17.7751596,7.54547872 18.6034309,7.93308511 19.186516,8.55303191 C19.9142553,8.41005319 20.5956383,8.14531915 21.2139096,7.77837766 C20.97375,8.52398936 20.4694149,9.14896277 19.8086968,9.5443883 C20.4548936,9.46731383 21.0714894,9.29640957 21.6417287,9.04228723 C21.2161436,9.6812234 20.6749468,10.2436436 20.0510904,10.6921277 Z" id="Shape"></path>
                    </g>
                </g>
            </g>
        </g>
    </g>
</svg>