<?xml version="1.0" encoding="UTF-8"?>
<svg width="23px" height="19px" viewBox="0 0 23 19" version="1.1" xmlns="http://www.w3.org/2000/svg" xmlns:xlink="http://www.w3.org/1999/xlink">
    <!-- Generator: Sketch 52.6 (67491) - http://www.bohemiancoding.com/sketch -->
    <title>8800</title>
    <desc>Created with Sketch.</desc>
    <g id="mobile" stroke="none" stroke-width="1" fill="none" fill-rule="evenodd">
        <g id="hic_guide_template_-_social_media_widget_fixed" transform="translate(-85.000000, -671.000000)" fill="#FFFFFF" fill-rule="nonzero">
            <g id="Group-8" transform="translate(0.000000, 607.000000)">
                <g id="8800" transform="translate(85.000000, 64.000000)">
                    <path d="M23,2.22701634 C22.1534722,2.60211928 21.2451601,2.8565098 20.2908105,2.9700817 C21.2652663,2.38655065 22.0111879,1.46098856 22.364719,0.361498366 C21.4506569,0.901885621 20.441701,1.29427614 19.3666389,1.50698856 C18.5057549,0.588604575 17.2812304,0.0165735294 15.9230278,0.0165735294 C13.3173382,0.0165735294 11.2046078,2.12930392 11.2046078,4.73356536 C11.2046078,5.1029183 11.2462859,5.46366503 11.3267859,5.80862745 C7.40603758,5.61169935 3.92939216,3.73325327 1.60252124,0.878885621 C1.19577451,1.57452288 0.964383987,2.38508497 0.964383987,3.25032843 C0.964383987,4.88734967 1.79798366,6.33176471 3.06275817,7.1768268 C2.28951471,7.15097059 1.56227124,6.93825817 0.925599673,6.58468954 L0.925599673,6.64361765 C0.925599673,8.92881046 2.55254902,10.8360065 4.70981373,11.2700752 C4.31456699,11.3764314 3.89778595,11.4353595 3.46661111,11.4353595 C3.16193627,11.4353595 2.86729575,11.4051814 2.57840523,11.3476814 C3.17914869,13.2232712 4.92109804,14.5871863 6.98497222,14.6245801 C5.37095098,15.8893546 3.3358268,16.6410261 1.12538399,16.6410261 C0.744531046,16.6410261 0.369390523,16.6180261 3.75816993e-05,16.576348 C2.08833987,17.9173007 4.56756699,18.6991503 7.23218464,18.6991503 C15.9116029,18.6991503 20.6559167,11.5101095 20.6559167,5.2754183 L20.6400948,4.66460294 C21.567085,4.0034281 22.3690408,3.17272222 23,2.22701634 Z" id="Shape"></path>
                </g>
            </g>
        </g>
    </g>
</svg>