<?xml version="1.0" encoding="UTF-8"?>
<svg width="28px" height="28px" viewBox="0 0 28 28" version="1.1" xmlns="http://www.w3.org/2000/svg" xmlns:xlink="http://www.w3.org/1999/xlink">
    <!-- Generator: Sketch 52.6 (67491) - http://www.bohemiancoding.com/sketch -->
    <title>Group 9</title>
    <desc>Created with Sketch.</desc>
    <g id="desktop" stroke="none" stroke-width="1" fill="none" fill-rule="evenodd">
        <g id="hic_guide_template" transform="translate(-1239.000000, -7031.000000)">
            <g id="Group-18" transform="translate(0.000000, 6586.000000)">
                <g id="Group-10" transform="translate(1132.000000, 445.000000)">
                    <g id="Group-9" transform="translate(107.074468, 0.000000)">
                        <circle id="Oval-2" fill="#000000" cx="13.962766" cy="13.962766" r="13.962766"></circle>
                        <g id="25178" transform="translate(4.787234, 7.180851)" fill="#FFFFFF" fill-rule="nonzero">
                            <path d="M19.1242146,5.23555103 C19.1172581,4.8511885 19.0868143,4.36520944 19.0335938,3.77806267 C18.980074,3.19057929 18.9035156,2.66555436 18.8039561,2.20295047 C18.6900349,1.68334857 18.4426321,1.24550366 18.06186,0.889565326 C17.6810879,0.533552194 17.2378948,0.327177527 16.732318,0.270142121 C15.1518575,0.0923038564 12.7635888,0.0032912234 9.56743684,0.0032912234 C6.37124751,0.0032912234 3.98294132,0.0923038564 2.40259309,0.270142121 C1.89709109,0.327140126 1.45565575,0.533552194 1.07847407,0.889565326 C0.701142786,1.24539146 0.455535239,1.68323637 0.341614029,2.20295047 C0.234948471,2.66570396 0.154762301,3.19069149 0.101392121,3.77806267 C0.048096742,4.36520944 0.0178025266,4.8510015 0.0107338763,5.23555103 C0.003515625,5.61995096 0,6.15380236 0,6.83725482 C0,7.52063248 0.003515625,8.05463348 0.0107712766,8.43895861 C0.0178399269,8.82358295 0.0481341423,9.3093002 0.101429521,9.89640957 C0.154799701,10.4838556 0.231358045,11.0088805 0.331029754,11.4715592 C0.444950964,11.9913107 0.692278923,12.4290808 1.07312583,12.7848695 C1.45404754,13.1408078 1.89727809,13.3472199 2.40263049,13.4042179 C3.98297872,13.5822432 6.37113531,13.6712184 9.56747424,13.6712184 C12.7639254,13.6712184 15.1518949,13.5822432 16.7323554,13.4042179 C17.2379322,13.3472573 17.6791805,13.1408078 18.0565118,12.7848695 C18.4338431,12.4290434 18.679301,11.9910489 18.7932222,11.4715592 C18.8999626,11.0088805 18.980074,10.4838556 19.0335938,9.89640957 C19.0868143,9.3093376 19.1170337,8.82335854 19.1242146,8.43895861 C19.131358,8.05463348 19.1349485,7.52063248 19.1349485,6.83725482 C19.1349485,6.15380236 19.1313954,5.61995096 19.1242146,5.23555103 Z M13.3475191,7.41389212 L7.88046044,10.830743 C7.78075133,10.9019157 7.65961187,10.9374834 7.51730386,10.9374834 C7.4106009,10.9374834 7.30027011,10.9089096 7.1863863,10.8519864 C6.95151263,10.7240027 6.8341132,10.5245844 6.8341132,10.2541431 L6.8341132,3.42040392 C6.8341132,3.1500374 6.95155003,2.95061918 7.1863863,2.82252327 C7.42847822,2.69420296 7.65976147,2.70138381 7.88046044,2.84387882 L13.3475565,6.26076712 C13.5610372,6.38156998 13.6677776,6.57388215 13.6677776,6.83729222 C13.6677776,7.10059009 13.5609998,7.29297706 13.3475191,7.41389212 Z" id="Shape"></path>
                        </g>
                    </g>
                </g>
            </g>
        </g>
    </g>
</svg>