<?xml version="1.0" encoding="UTF-8"?>
<svg width="172px" height="34px" viewBox="0 0 172 34" version="1.1" xmlns="http://www.w3.org/2000/svg" xmlns:xlink="http://www.w3.org/1999/xlink">
    <!-- Generator: Sketch 52.6 (67491) - http://www.bohemiancoding.com/sketch -->
    <title>Group 13</title>
    <desc>Created with Sketch.</desc>
    <g id="desktop" stroke="none" stroke-width="1" fill="none" fill-rule="evenodd">
        <g id="hic_guide_template" transform="translate(-1246.000000, -15.000000)">
            <g id="Group-13" transform="translate(1246.000000, 15.000000)">
                <path d="M35.6,0 L169.6,0 C170.704569,-2.02906125e-16 171.6,0.8954305 171.6,2 L171.6,20.8 C171.6,21.9045695 170.704569,22.8 169.6,22.8 L27.6,22.8 L33.6,15.6 L33.6,2 C33.6,0.8954305 34.4954305,2.02906125e-16 35.6,0 Z" id="Rectangle-4" fill="#79CA1B"></path>
                <g id="126341" transform="translate(0.000000, 6.000000)" fill="#40A9BC" fill-rule="nonzero">
                    <path d="M20.3526785,17.3388309 C19.478069,16.4753863 18.3861998,16.4753863 17.5171611,17.3388309 C16.8542406,17.9961628 16.19132,18.6534948 15.539541,19.321968 C15.3612766,19.5057982 15.2108661,19.5447924 14.9936064,19.422239 C14.5646578,19.1882734 14.1078554,18.9988726 13.6956191,18.7426246 C11.7737065,17.5338022 10.1637566,15.979602 8.73764181,14.2304304 C8.03015516,13.3614153 7.40065917,12.4311234 6.96056906,11.3838487 C6.87143688,11.1721655 6.88814916,11.0329003 7.06084275,10.8602114 C7.72376331,10.2195912 8.36997158,9.56225921 9.02175062,8.90492723 C9.92978466,7.99134718 9.92978466,6.92179005 9.01617986,6.00263939 C8.49809909,5.47900204 7.98001832,4.96650592 7.46193754,4.44286857 C6.92714449,3.90809001 6.3979222,3.36774083 5.85755838,2.83853288 C4.98294891,1.98622954 3.89107975,1.98622954 3.02204104,2.84410349 C2.35354972,3.50143548 1.71291221,4.17547929 1.03327937,4.82167006 C0.403783377,5.41772533 0.0862500013,6.14747525 0.0194008695,6.99977859 C-0.0864435892,8.38686049 0.253372831,9.69595386 0.732458275,10.9716236 C1.71291221,13.6120927 3.20587615,15.9573196 5.01637347,18.107575 C7.46193754,21.0154335 10.3810163,23.3160954 13.7958928,24.9761372 C15.3334228,25.722599 16.9266605,26.2963718 18.6591671,26.3910722 C19.85131,26.4579195 20.8874715,26.1571066 21.7175149,25.2268147 C22.2857325,24.5917651 22.92637,24.0124217 23.5280122,23.4052252 C24.419334,22.5027864 24.4249047,21.4109468 23.5391537,20.5196492 C22.4807092,19.4556627 21.4166938,18.3972468 20.3526785,17.3388309 Z" id="Shape"></path>
                    <path d="M18.9445286,13.2 L20.9,12.8588608 C20.5926359,11.0232068 19.744735,9.36082982 18.4569855,8.03959212 C17.0950447,6.64796062 15.372746,5.77074543 13.4755678,5.5 L13.2,7.50893108 C14.6679284,7.72011252 16.0033723,8.39697609 17.0579491,9.4745429 C18.0542326,10.4925457 18.7060564,11.781294 18.9445286,13.2 Z" id="Shape"></path>
                    <path d="M22.1480235,4.43037101 C19.7833474,2.00448663 16.7914214,0.472648835 13.4886459,0 L13.2,2.11268335 C16.0531539,2.52269198 18.6398654,3.84952545 20.6825904,5.93943054 C22.6198486,7.92683348 23.8910008,10.4381363 24.3517241,13.2 L26.4,12.8412425 C25.8615643,9.64089733 24.3905803,6.73666954 22.1480235,4.43037101 Z" id="Shape"></path>
                </g>
                <text id="1300-761-491" font-family="ProximaNova-Bold, Proxima Nova" font-size="19.2" font-weight="bold" letter-spacing="0.720000029" fill="#FFFFFF">
                    <tspan x="40.8" y="19">1300 761 491</tspan>
                </text>
                <text id="MONDAY-FRIDAY-9AM-8P" font-family="ProximaNova-Semibold, Proxima Nova" font-size="7.8" font-weight="500" letter-spacing="0.839999986" fill="#969696">
                    <tspan x="31.2" y="33.2">MONDAY-FRIDAY 9AM-8PM AES</tspan>
                    <tspan x="166.08" y="33.2">T</tspan>
                </text>
            </g>
        </g>
    </g>
</svg>