<?xml version="1.0" encoding="UTF-8"?>
<svg width="123px" height="35px" viewBox="0 0 123 35" version="1.1" xmlns="http://www.w3.org/2000/svg" xmlns:xlink="http://www.w3.org/1999/xlink">
    <!-- Generator: Sketch 53.2 (72643) - https://sketchapp.com -->
    <title>aui-header-logo Clipped</title>
    <desc>Created with Sketch.</desc>
    <g id="Page-1" stroke="none" stroke-width="1" fill="none" fill-rule="evenodd">
        <g id="Desktop-step1" transform="translate(-747.000000, -283.000000)">
            <g id="Body" transform="translate(162.000000, 128.000000)">
                <g id="Logos" transform="translate(0.000000, 104.000000)">
                    <g id="Logo" transform="translate(569.000000, 16.000000)">
                        <g id="Logo-5" transform="translate(16.000000, 35.000000)">
                            <g id="aui-header-logo-Clipped">
                                <g id="aui-header-logo">
                                    <g id="Group">
                                        <path d="M102.774665,15.1764921 C102.534957,12.7494519 100.182826,11.2662607 96.6021925,9.84299635 C92.9915956,8.41973203 88.2873325,4.7042631 86.654324,0.38952497 C86.4895249,-0.104872107 86.2947625,-0.179780755 86.1149818,0.464433617 C85.8902558,1.15359318 85.6205847,2.65176614 85.7554202,3.88026797 C86.0250913,6.06760049 87.4183922,7.73057247 88.9764921,8.71936662 C89.5457978,9.07892813 90.0102314,9.37856273 90.4746651,9.58830694 C90.8342266,9.75310596 90.699391,9.99281364 90.3398295,9.82801462 C88.5570036,8.9590743 86.1299635,7.56577345 85.0662607,5.72302071 C85.0662607,5.72302071 84.8714981,5.318514 84.8714981,5.96272838 C84.9014616,6.62192448 85.0962241,11.2962241 89.1862363,12.3599269 C89.3510354,12.4198538 89.3510354,12.4647991 89.1862363,12.524726 C88.2873325,12.6895249 87.1637028,12.524726 86.3097442,11.9853836 C86.0700365,11.8205847 86.1149818,12.1202193 86.2048722,12.3749087 C87.0588307,14.9517661 88.9165652,15.8207065 93.0365408,15.5510354 C93.2762485,15.5210718 93.3062119,15.7158343 93.0365408,15.790743 C91.4484775,16.1952497 90.7443362,16.2252131 88.5869672,16.0304507 C88.4221681,16.0004872 88.2873325,16.1053593 88.4221681,16.3900122 C89.1113276,17.618514 91.8979294,18.337637 93.9204629,17.9181486 C94.3549331,17.8432399 95.5085262,17.5885506 95.7032886,17.4836784 C95.8980512,17.3788064 95.9729599,17.5136419 95.8081608,17.618514 C95.5834348,17.7533495 94.0103532,19.1466505 90.2649209,18.9518879 C90.1600487,18.9518879 89.9652862,18.9818514 90.1600487,19.1915956 C91.0589524,20.0904994 92.5421437,21.3489646 94.4298416,20.61486 C94.4298416,20.61486 94.6695493,20.5848965 94.5347138,20.7496955 C94.2051157,21.1542022 93.7107187,21.4388551 93.0365408,21.5736906 C92.8417783,21.5437271 92.8118149,21.7085262 92.9766139,21.8433617 C93.1414129,21.9482339 94.3399513,22.8021925 95.6583435,22.547503 C95.6583435,22.547503 91.9428746,26.3678441 87.6281364,29.0046285 C87.6281364,29.0046285 86.9389768,29.4390986 87.7929355,29.2293544 C87.7929355,29.2293544 88.4221681,29.2593179 91.4634592,27.6712545 C92.4222899,27.1468941 91.8230208,28.4952497 90.204994,29.6188795 C90.204994,29.6188795 89.4409256,30.083313 90.2799026,30.083313 C90.2799026,30.083313 93.9504263,29.9484775 95.0440926,28.6600487 C96.3774665,27.1019488 93.6807552,26.9371498 97.0366626,22.9669914 C100.347625,19.0118149 103.029354,17.6484775 102.774665,15.1764921" id="Path" fill="#E37221"></path>
                                        <path d="M108.932156,8.13507918 C108.767357,8.10511571 108.527649,8.03020706 108.437759,7.77551766 C108.302923,7.41595615 108.497686,7.07137637 108.842265,6.92155907 C109.201827,6.7867235 109.606334,6.86163216 109.741169,7.25115712 C109.816078,7.47588307 109.741169,7.71559074 109.711206,7.7904994 C109.651279,7.8953715 109.57637,8.01522534 109.441535,8.06017052 C109.291717,8.1500609 109.096955,8.1500609 108.932156,8.13507918" id="Path" fill="#E37221"></path>
                                        <path d="M122.580512,14.906821 C121.591717,15.8057247 117.876248,17.1990255 114.295615,16.0753958 C110.78989,14.9817296 110.490256,16.1053593 110.415347,16.3151035 C110.35542,16.4499391 110.220585,16.4799026 110.220585,16.3151035 C110.190621,16.0753958 110.115713,14.682095 110.085749,14.1577345 C110.055786,13.6183922 110.490256,13.0640682 110.78989,12.2700365 C111.089525,11.4760049 111.688794,9.39354446 112.048356,9.12387333 C112.587698,8.68940317 114.370524,7.17624848 114.77503,6.66686967 C115.179537,6.15749087 115.479172,5.67807552 115.838733,4.88404385 C114.115834,4.44957369 111.82363,5.78294762 111.38916,6.03763703 C111.38916,6.03763703 109.007065,4.94397077 106.789769,5.60316687 C104.572473,6.26236297 103.838368,8.12009745 103.703532,8.82423874 C103.343971,10.4872107 102.879537,11.1164434 102.280268,11.4460414 C101.710962,11.7756395 101.5162,11.416078 101.710962,11.6857491 C101.905725,11.9853836 102.864555,12.8842875 103.793423,11.9853836 C105.59123,10.3224117 105.216687,9.0639464 106.28039,7.70060901 C107.344093,6.33727162 108.168088,6.38221681 109.261754,6.24738124 C110.35542,6.14250913 110.819854,6.44214372 110.759927,6.65188795 C110.685018,6.87661389 110.595128,7.14628502 110.26553,7.61071863 C110.160658,7.7455542 109.965895,7.94031668 109.801096,8.04518879 C109.636297,8.1500609 109.441535,8.26991473 108.977101,8.43471376 C108.512667,8.59951278 108.01827,8.65943971 107.613764,8.83922046 C105.726066,9.70816078 105.696102,10.4272838 105.651157,10.861754 C105.980755,10.8317905 106.819732,10.9366626 107.598782,10.4272838 C108.36285,9.90292326 108.302923,9.55834348 108.752375,9.13885506 C109.201827,8.71936662 109.651279,8.56954933 110.640073,7.98526188 C111.598904,7.41595615 113.186967,6.75676005 114.819976,5.872838 C114.295615,6.77174178 111.314251,8.65943971 110.849817,8.91412911 C110.385384,9.18380024 110.774909,9.40852618 111.254324,9.30365408 C111.089525,9.49841657 110.819854,9.7680877 110.819854,9.7680877 C110.759927,10.3673569 109.48648,13.0790499 109.426553,13.183922 C109.366626,13.2887942 109.291717,13.2887942 109.351644,14.5172959 C109.381608,15.0416565 109.381608,15.7757613 109.381608,15.7757613 C109.456516,18.787089 107.898417,20.390134 105.411449,22.0680877 C102.834592,23.7909867 100.961876,23.8209501 97.7258222,27.8360536 C97.7258222,27.8360536 96.8269183,29.0046285 99.0442144,27.0719854 C99.7783191,26.4127893 101.396346,25.4090133 102.100487,25.0494519 C104.647381,23.8209501 104.392692,24.9445798 104.557491,25.2142509 C104.782217,25.5738124 105.291596,23.491352 105.756029,24.0906212 C106.115591,24.5250913 106.28039,24.8846529 107.284166,25.1093788 C107.478928,25.1393422 107.553837,25.1693057 107.508892,25.0045067 C107.433983,24.7797807 107.433983,24.375274 107.538855,24.0157125 C107.643727,23.716078 107.763581,23.5812423 107.92838,23.9108405 C108.287941,24.7048722 108.782339,25.0045067 109.816078,25.2292326 C110.01084,25.2591961 110.040804,25.1693057 109.92095,25.0344702 C109.726188,24.8097442 109.351644,24.3453106 109.216809,24.0007309 C109.081973,23.6112058 109.186845,23.5362972 109.411571,23.8059683 C109.905968,24.4651644 111.299269,24.824726 112.527771,24.824726 C112.752497,24.824726 112.797442,24.7198538 112.632643,24.6 C112.093301,24.270402 111.314251,23.8059683 110.804872,23.2666261 C110.640073,23.101827 110.7,22.9070645 110.864799,23.0419001 C111.988429,23.9707674 113.741291,24.1954933 115.344336,23.5362972 C115.703898,23.4014616 115.614007,23.2666261 115.284409,23.2366626 C114.220706,23.101827 113.456638,22.8471376 112.437881,22.2478684 C112.198173,22.0830694 112.333009,21.9781973 112.542753,22.0531059 C115.628989,23.2816078 117.052253,22.2928137 118.550427,20.5998782 C118.85006,20.2403167 118.745189,20.165408 118.385628,20.3002436 C117.321925,20.5249696 116.093423,20.3302071 116.093423,20.3302071 C115.763825,20.3002436 115.823752,20.1354446 116.093423,20.1054811 C119.644093,19.8657734 122.625457,15.5660171 122.925092,14.9667479 C122.985019,14.7719854 122.745311,14.7719854 122.580512,14.906821" id="Path" fill="#E37221"></path>
                                        <path d="M102.774665,15.1764921 C102.534957,12.7494519 100.182826,11.2662607 96.6021925,9.84299635 C92.9915956,8.41973203 88.2873325,4.7042631 86.654324,0.38952497 C86.4895249,-0.104872107 86.2947625,-0.179780755 86.1149818,0.464433617 C85.8902558,1.15359318 85.6205847,2.65176614 85.7554202,3.88026797 C86.0250913,6.06760049 87.4183922,7.73057247 88.9764921,8.71936662 C89.5457978,9.07892813 90.0102314,9.37856273 90.4746651,9.58830694 C90.8342266,9.75310596 90.699391,9.99281364 90.3398295,9.82801462 C88.5570036,8.9590743 86.1299635,7.56577345 85.0662607,5.72302071 C85.0662607,5.72302071 84.8714981,5.318514 84.8714981,5.96272838 C84.9014616,6.62192448 85.0962241,11.2962241 89.1862363,12.3599269 C89.3510354,12.4198538 89.3510354,12.4647991 89.1862363,12.524726 C88.2873325,12.6895249 87.1637028,12.524726 86.3097442,11.9853836 C86.0700365,11.8205847 86.1149818,12.1202193 86.2048722,12.3749087 C87.0588307,14.9517661 88.9165652,15.8207065 93.0365408,15.5510354 C93.2762485,15.5210718 93.3062119,15.7158343 93.0365408,15.790743 C91.4484775,16.1952497 90.7443362,16.2252131 88.5869672,16.0304507 C88.4221681,16.0004872 88.2873325,16.1053593 88.4221681,16.3900122 C89.1113276,17.618514 91.8979294,18.337637 93.9204629,17.9181486 C94.3549331,17.8432399 95.5085262,17.5885506 95.7032886,17.4836784 C95.8980512,17.3788064 95.9729599,17.5136419 95.8081608,17.618514 C95.5834348,17.7533495 94.0103532,19.1466505 90.2649209,18.9518879 C90.1600487,18.9518879 89.9652862,18.9818514 90.1600487,19.1915956 C91.0589524,20.0904994 92.5421437,21.3489646 94.4298416,20.61486 C94.4298416,20.61486 94.6695493,20.5848965 94.5347138,20.7496955 C94.2051157,21.1542022 93.7107187,21.4388551 93.0365408,21.5736906 C92.8417783,21.5437271 92.8118149,21.7085262 92.9766139,21.8433617 C93.1414129,21.9482339 94.3399513,22.8021925 95.6583435,22.547503 C95.6583435,22.547503 91.9428746,26.3678441 87.6281364,29.0046285 C87.6281364,29.0046285 86.9389768,29.4390986 87.7929355,29.2293544 C87.7929355,29.2293544 88.4221681,29.2593179 91.4634592,27.6712545 C92.4222899,27.1468941 91.8230208,28.4952497 90.204994,29.6188795 C90.204994,29.6188795 89.4409256,30.083313 90.2799026,30.083313 C90.2799026,30.083313 93.9504263,29.9484775 95.0440926,28.6600487 C96.3774665,27.1019488 93.6807552,26.9371498 97.0366626,22.9669914 C100.347625,19.0118149 103.029354,17.6484775 102.774665,15.1764921" id="Path" fill="#E37221"></path>
                                        <path d="M108.932156,8.13507918 C108.767357,8.10511571 108.527649,8.03020706 108.437759,7.77551766 C108.302923,7.41595615 108.497686,7.07137637 108.842265,6.92155907 C109.201827,6.7867235 109.606334,6.86163216 109.741169,7.25115712 C109.816078,7.47588307 109.741169,7.71559074 109.711206,7.7904994 C109.651279,7.8953715 109.57637,8.01522534 109.441535,8.06017052 C109.291717,8.1500609 109.096955,8.1500609 108.932156,8.13507918" id="Path" fill="#E37221"></path>
                                        <path d="M122.580512,14.906821 C121.591717,15.8057247 117.876248,17.1990255 114.295615,16.0753958 C110.78989,14.9817296 110.490256,16.1053593 110.415347,16.3151035 C110.35542,16.4499391 110.220585,16.4799026 110.220585,16.3151035 C110.190621,16.0753958 110.115713,14.682095 110.085749,14.1577345 C110.055786,13.6183922 110.490256,13.0640682 110.78989,12.2700365 C111.089525,11.4760049 111.688794,9.39354446 112.048356,9.12387333 C112.587698,8.68940317 114.370524,7.17624848 114.77503,6.66686967 C115.179537,6.15749087 115.479172,5.67807552 115.838733,4.88404385 C114.115834,4.44957369 111.82363,5.78294762 111.38916,6.03763703 C111.38916,6.03763703 109.007065,4.94397077 106.789769,5.60316687 C104.572473,6.26236297 103.838368,8.12009745 103.703532,8.82423874 C103.343971,10.4872107 102.879537,11.1164434 102.280268,11.4460414 C101.710962,11.7756395 101.5162,11.416078 101.710962,11.6857491 C101.905725,11.9853836 102.864555,12.8842875 103.793423,11.9853836 C105.59123,10.3224117 105.216687,9.0639464 106.28039,7.70060901 C107.344093,6.33727162 108.168088,6.38221681 109.261754,6.24738124 C110.35542,6.14250913 110.819854,6.44214372 110.759927,6.65188795 C110.685018,6.87661389 110.595128,7.14628502 110.26553,7.61071863 C110.160658,7.7455542 109.965895,7.94031668 109.801096,8.04518879 C109.636297,8.1500609 109.441535,8.26991473 108.977101,8.43471376 C108.512667,8.59951278 108.01827,8.65943971 107.613764,8.83922046 C105.726066,9.70816078 105.696102,10.4272838 105.651157,10.861754 C105.980755,10.8317905 106.819732,10.9366626 107.598782,10.4272838 C108.36285,9.90292326 108.302923,9.55834348 108.752375,9.13885506 C109.201827,8.71936662 109.651279,8.56954933 110.640073,7.98526188 C111.598904,7.41595615 113.186967,6.75676005 114.819976,5.872838 C114.295615,6.77174178 111.314251,8.65943971 110.849817,8.91412911 C110.385384,9.18380024 110.774909,9.40852618 111.254324,9.30365408 C111.089525,9.49841657 110.819854,9.7680877 110.819854,9.7680877 C110.759927,10.3673569 109.48648,13.0790499 109.426553,13.183922 C109.366626,13.2887942 109.291717,13.2887942 109.351644,14.5172959 C109.381608,15.0416565 109.381608,15.7757613 109.381608,15.7757613 C109.456516,18.787089 107.898417,20.390134 105.411449,22.0680877 C102.834592,23.7909867 100.961876,23.8209501 97.7258222,27.8360536 C97.7258222,27.8360536 96.8269183,29.0046285 99.0442144,27.0719854 C99.7783191,26.4127893 101.396346,25.4090133 102.100487,25.0494519 C104.647381,23.8209501 104.392692,24.9445798 104.557491,25.2142509 C104.782217,25.5738124 105.291596,23.491352 105.756029,24.0906212 C106.115591,24.5250913 106.28039,24.8846529 107.284166,25.1093788 C107.478928,25.1393422 107.553837,25.1693057 107.508892,25.0045067 C107.433983,24.7797807 107.433983,24.375274 107.538855,24.0157125 C107.643727,23.716078 107.763581,23.5812423 107.92838,23.9108405 C108.287941,24.7048722 108.782339,25.0045067 109.816078,25.2292326 C110.01084,25.2591961 110.040804,25.1693057 109.92095,25.0344702 C109.726188,24.8097442 109.351644,24.3453106 109.216809,24.0007309 C109.081973,23.6112058 109.186845,23.5362972 109.411571,23.8059683 C109.905968,24.4651644 111.299269,24.824726 112.527771,24.824726 C112.752497,24.824726 112.797442,24.7198538 112.632643,24.6 C112.093301,24.270402 111.314251,23.8059683 110.804872,23.2666261 C110.640073,23.101827 110.7,22.9070645 110.864799,23.0419001 C111.988429,23.9707674 113.741291,24.1954933 115.344336,23.5362972 C115.703898,23.4014616 115.614007,23.2666261 115.284409,23.2366626 C114.220706,23.101827 113.456638,22.8471376 112.437881,22.2478684 C112.198173,22.0830694 112.333009,21.9781973 112.542753,22.0531059 C115.628989,23.2816078 117.052253,22.2928137 118.550427,20.5998782 C118.85006,20.2403167 118.745189,20.165408 118.385628,20.3002436 C117.321925,20.5249696 116.093423,20.3302071 116.093423,20.3302071 C115.763825,20.3002436 115.823752,20.1354446 116.093423,20.1054811 C119.644093,19.8657734 122.625457,15.5660171 122.925092,14.9667479 C122.985019,14.7719854 122.745311,14.7719854 122.580512,14.906821" id="Path" fill="#E37221"></path>
                                        <path d="M21.3190013,15.6409256 C21.3190013,15.6409256 20.8845311,15.7757613 20.1504263,15.7757613 C19.116687,15.7757613 18.4574908,15.3712545 18.2028015,14.4423874 L18.2028015,14.3375152 C17.9031668,14.9967114 17.1390986,15.8356882 15.4461632,15.8356882 C13.3637028,15.8356882 12.6895249,14.5023143 12.6895249,12.7194884 L12.6895249,7.02643118 L15.4161998,7.02643118 L15.4161998,11.970402 C15.4161998,12.8992691 15.8057247,13.3337393 16.4349573,13.3337393 C17.7683313,13.3337393 17.9181486,11.970402 17.9181486,11.745676 L17.9181486,7.04141291 L20.6298416,7.04141291 L20.6298416,12.8393422 C20.6298416,13.3337393 20.7946407,13.573447 21.3339829,13.573447 L21.3339829,15.6409256 L21.3190013,15.6409256 Z" id="Path" fill="#454444"></path>
                                        <path d="M37.9037759,14.9667479 C37.9037759,14.9667479 36.9749087,15.8356882 35.5516443,15.8356882 C32.8699147,15.8356882 31.8661389,14.3824604 31.8661389,11.8205847 L31.8661389,9.22874543 L30.5777101,9.22874543 L30.5777101,7.10133983 L31.8661389,7.10133983 L31.8661389,4.38964677 L34.5778319,4.38964677 L34.5778319,7.10133983 L37.454324,7.10133983 L37.454324,9.22874543 L34.5778319,9.22874543 L34.5778319,11.7157125 C34.5778319,12.8842875 34.9823386,13.4386115 35.8662607,13.4386115 C36.6602923,13.4386115 37.124726,13.0341048 37.124726,13.0341048 L37.9037759,14.9667479 Z" id="Path" fill="#454444"></path>
                                        <path d="M39.0873325,15.7008527 L39.0873325,9.8729598 C39.0873325,9.43848965 38.9225335,9.16881851 38.3831912,9.16881851 L38.3831912,7.0863581 C38.3831912,7.0863581 38.7427528,6.95152253 39.506821,6.95152253 C40.5255785,6.95152253 41.1248478,7.38599269 41.4244824,8.23995128 L41.4244824,8.37478684 C41.66419,7.71559074 42.2934226,6.92155907 43.9114494,6.92155907 C44.9002436,6.92155907 45.3946407,7.31108405 45.3946407,7.31108405 L44.2710109,9.69317905 C44.2710109,9.69317905 43.9114494,9.39354446 43.1024361,9.39354446 C42.1436053,9.39354446 41.8439708,10.1875761 41.8140073,10.7269184 L41.8140073,15.7008527 L39.0873325,15.7008527 Z" id="Path" fill="#454444"></path>
                                        <path d="M54.3986602,15.6409256 C54.3986602,15.6409256 53.96419,15.7757613 53.2300853,15.7757613 C52.2113276,15.7757613 51.5671132,15.3862363 51.3124239,14.457369 L51.3124239,14.3824604 C51.1176614,14.7719854 50.4884288,15.8057247 48.7655298,15.8057247 C47.1025579,15.8057247 45.2598051,14.4423874 45.2598051,11.3711328 C45.2598051,8.1500609 47.0126675,6.92155907 48.9003654,6.92155907 C50.1887942,6.92155907 50.9828259,7.58075517 51.2824604,7.85042631 L51.2824604,7.04141291 L53.6645554,7.04141291 L53.6645554,12.8393422 C53.6645554,13.3337393 53.8293544,13.573447 54.3686967,13.573447 L54.3686967,15.6559074 L54.3986602,15.6559074 L54.3986602,15.6409256 Z M50.9528624,10.6669915 C50.9228988,10.2774665 50.5633374,9.33361754 49.4696711,9.33361754 C48.5707674,9.33361754 47.9115712,9.99281364 47.9115712,11.356151 C47.9115712,12.8393422 48.7355664,13.408648 49.4696711,13.408648 C50.7580999,13.408648 50.9228988,12.075274 50.9228988,12.1501827 L50.9228988,10.6669915 L50.9528624,10.6669915 Z" id="Shape" fill="#454444" fill-rule="nonzero"></path>
                                        <path d="M58.9531059,15.6409256 C58.9531059,15.6409256 58.5485993,15.7757613 57.7845311,15.7757613 C56.3013398,15.7757613 55.5372716,15.011693 55.5372716,13.3487211 L55.5372716,3.13118149 L58.2789282,3.13118149 L58.2789282,12.8693057 C58.2789282,13.3637028 58.4437271,13.6034104 58.9830694,13.6034104 L58.9830694,15.6559074 L58.9531059,15.6559074 L58.9531059,15.6409256 Z" id="Path" fill="#454444"></path>
                                        <path d="M61.5599269,5.96272838 C60.7359318,5.96272838 60.0767357,5.39342266 60.0767357,4.53946407 C60.0767357,3.71546894 60.7359318,3.11619976 61.5599269,3.11619976 C62.383922,3.11619976 63.0580999,3.71546894 63.0580999,4.53946407 C63.0580999,5.3634592 62.3689404,5.96272838 61.5599269,5.96272838 Z" id="Path" fill="#454444"></path>
                                        <path d="M63.657369,15.6409256 C63.657369,15.6409256 63.2528624,15.7757613 62.4887942,15.7757613 C61.0056029,15.7757613 60.2415347,15.011693 60.2415347,13.3487211 L60.2415347,7.04141291 L62.9532277,7.04141291 L62.9532277,12.8393422 C62.9532277,13.3337393 63.1180268,13.573447 63.657369,13.573447 L63.657369,15.6409256 Z" id="Path" fill="#454444"></path>
                                        <path d="M73.7700365,15.6409256 C73.7700365,15.6409256 73.3355664,15.7757613 72.6014616,15.7757613 C71.5827041,15.7757613 70.9384897,15.3862363 70.6838002,14.457369 L70.6838002,14.3824604 C70.4890377,14.7719854 69.8598051,15.8057247 68.1369063,15.8057247 C66.4739342,15.8057247 64.6311814,14.4423874 64.6311814,11.3711328 C64.6311814,8.1500609 66.3840439,6.92155907 68.2717418,6.92155907 C69.5601705,6.92155907 70.3542022,7.58075517 70.6538368,7.85042631 L70.6538368,7.04141291 L73.0359318,7.04141291 L73.0359318,12.8393422 C73.0359318,13.3337393 73.2007309,13.573447 73.7400731,13.573447 L73.7400731,15.6559074 L73.7700365,15.6559074 L73.7700365,15.6409256 Z M70.3542022,10.6669915 C70.3242387,10.2774665 69.9646773,9.33361754 68.8710109,9.33361754 C67.9721072,9.33361754 67.312911,9.99281364 67.312911,11.356151 C67.312911,12.8393422 68.1369063,13.408648 68.8710109,13.408648 C70.1594397,13.408648 70.3242387,12.075274 70.3242387,12.1501827 L70.3242387,10.6669915 L70.3542022,10.6669915 Z" id="Shape" fill="#454444" fill-rule="nonzero"></path>
                                        <path d="M83.942631,15.6409256 C83.942631,15.6409256 83.5381242,15.7757613 82.774056,15.7757613 C81.2908647,15.7757613 80.5267966,15.011693 80.5267966,13.3487211 L80.5267966,10.7568819 C80.5267966,9.93288673 80.0323995,9.42350791 79.3582217,9.42350791 C78.3694275,9.42350791 78.0697929,10.2175396 78.0398295,10.7568819 L78.0398295,15.7008527 L75.3281364,15.7008527 L75.3281364,9.8729598 C75.3281364,9.43848965 75.1633374,9.16881851 74.6239951,9.16881851 L74.6239951,7.0863581 C74.6239951,7.0863581 75.0584653,6.95152253 75.8225335,6.95152253 C76.8412911,6.95152253 77.4405603,7.31108405 77.680268,8.12009745 L77.680268,8.28489646 C77.9199756,7.62570036 78.5791717,6.92155907 80.167235,6.92155907 C82.3845311,6.92155907 83.2235079,8.47965896 83.2235079,10.3673569 L83.2235079,12.8243606 C83.2235079,13.3187577 83.4182704,13.5584653 83.9276492,13.5584653 L83.942631,15.6409256 Z" id="Path" fill="#454444"></path>
                                        <path d="M3.05627284,15.7008527 L4.01510354,12.7194884 L8.22496955,12.7194884 L9.2587089,15.7008527 L12.2700365,15.7008527 L7.6406821,3.13118149 L4.64433617,3.13118149 L0,15.7008527 L3.05627284,15.7008527 Z M6.14250913,6.38221681 L7.53580999,10.5621194 L4.74920828,10.5621194 L6.14250913,6.38221681 Z" id="Shape" fill="#454444" fill-rule="nonzero"></path>
                                        <path d="M25.4689404,16.0004872 C25.6637028,16.0304507 25.8584653,16.0304507 26.0682095,16.0304507 C28.7799026,16.0304507 30.0533495,14.906821 30.0533495,13.0490864 C30.0533495,10.0677223 25.154324,11.0565164 25.154324,9.52838002 C25.154324,9.2587089 25.3940317,9.00401949 26.2180268,9.00401949 C27.2367844,9.00401949 27.9708892,9.57332521 28.2705238,9.8729598 L29.7986602,8.38976857 C29.3941535,7.86540804 28.3154689,6.96650427 25.9783191,6.96650427 C23.326553,7.04141291 22.3677223,8.38976857 22.3677223,9.58830694 C22.3677223,12.8992691 26.9671132,12.0153471 26.9671132,13.1989038 C26.9671132,13.5584653 26.7274056,13.9629719 25.9333739,13.9629719 C24.3453106,13.9629719 23.4464068,12.7045067 23.4464068,12.7045067 L21.9482339,14.127771 C21.9482339,14.127771 22.217905,14.7869672 23.1168088,15.2963459 C23.9108405,15.7757613 24.8097442,15.9255785 25.4689404,16.0004872 Z" id="Path" fill="#454444"></path>
                                        <path d="M64.9457978,20.0755176 C64.1218027,20.0755176 63.4626066,19.5062119 63.4626066,18.6522534 C63.4626066,17.8282582 64.1218027,17.2289891 64.9457978,17.2289891 C65.7697929,17.2289891 66.4439708,17.8282582 66.4439708,18.6522534 C66.4439708,19.5062119 65.7697929,20.0755176 64.9457978,20.0755176 Z" id="Path" fill="#454444"></path>
                                        <path d="M67.0282582,29.7836784 C67.0282582,29.7836784 66.6237515,29.918514 65.8596833,29.918514 C64.3764921,29.918514 63.6124239,29.1544458 63.6124239,27.4914738 L63.6124239,21.1691839 L66.3241169,21.1691839 L66.3241169,26.9671132 C66.3241169,27.4615103 66.488916,27.701218 67.0282582,27.701218 L67.0282582,29.7836784 Z" id="Path" fill="#454444"></path>
                                        <path d="M49.2299635,17.2589524 L52.1514007,17.2589524 L52.1514007,24.6449451 C52.1514007,28.6600487 49.9041413,29.9784409 47.2074299,29.9784409 C44.4957369,29.9784409 42.1735688,28.6600487 42.2035323,24.6449451 L42.2334957,17.2589524 L45.095006,17.2589524 L45.095006,24.8546894 C45.095006,26.2180268 45.5894031,27.3416565 47.1774665,27.3416565 C48.7655298,27.3416565 49.2,26.2180268 49.2,24.8546894 L49.2,17.2589524 L49.2299635,17.2589524 Z" id="Path" fill="#454444"></path>
                                        <path d="M62.6236297,29.7836784 C62.6236297,29.7836784 62.219123,29.918514 61.4550549,29.918514 C59.9718636,29.918514 59.2077954,29.1544458 59.2077954,27.4914738 L59.2077954,24.8996346 C59.2077954,24.0756394 58.7133983,23.5662607 58.0392204,23.5662607 C57.0803898,23.5662607 56.7507918,24.3602923 56.7208283,24.8996346 L56.7208283,29.8735688 L54.0091353,29.8735688 L54.0091353,24.045676 C54.0091353,23.6112058 53.8443362,23.3415347 53.304994,23.3415347 L53.304994,21.2590744 C53.304994,21.2590744 53.739464,21.1242387 54.5035323,21.1242387 C55.5222899,21.1242387 56.1215591,21.4838002 56.3612667,22.2928137 L56.3612667,22.4576126 C56.6009745,21.7984166 57.2601705,21.0942753 58.8482339,21.0942753 C61.0655298,21.0942753 61.9045067,22.6523752 61.9045067,24.5400731 L61.9045067,26.9970767 C61.9045067,27.4914738 62.0992691,27.7311814 62.608648,27.7311814 L62.6236297,29.7836784 Z" id="Path" fill="#454444"></path>
                                        <path d="M74.8637028,23.2965896 L71.3429964,23.2965896 L71.3429964,25.7835566 C71.3429964,26.9521316 71.747503,27.5064556 72.6314251,27.5064556 C73.4254567,27.5064556 73.8898904,27.1019488 73.8898904,27.1019488 L74.683922,29.0645554 C74.683922,29.0645554 73.7550549,29.9334957 72.3317905,29.9334957 C69.6500609,29.9334957 68.646285,28.480268 68.646285,25.9183922 L68.646285,23.326553 L67.3578563,23.326553 L67.3578563,21.1691839 L68.646285,21.1691839 L68.646285,18.4574908 L71.3579781,18.4574908 L71.3579781,21.1691839 L75.0285019,21.1691839 L76.0622412,21.1691839 C77.5454324,21.1691839 78.3095006,21.9332521 78.3095006,23.5962241 L78.3095006,26.0831912 C78.3095006,27.0120585 78.7140073,27.4465287 79.3282582,27.4465287 C80.4818514,27.4465287 80.781486,26.3228988 80.781486,25.8884288 L80.781486,21.1542022 L83.4482339,21.1542022 L83.4482339,30.0084044 C83.4482339,32.5552984 81.7852618,34.2482339 79.2084044,34.2482339 C76.3319123,34.2482339 75.3281364,32.3305725 75.3281364,32.3305725 L76.7214372,30.8773447 C76.7214372,30.8773447 77.3806334,31.8361754 78.8038977,31.8361754 C79.837637,31.8361754 80.8863581,31.3118149 80.8863581,29.9784409 L80.8863581,28.6900122 C80.4968332,29.3192448 79.7177832,29.8885506 78.2945189,29.8885506 C76.2120585,29.8885506 75.5378806,28.5551766 75.5378806,26.7723508 L75.5378806,23.9857491 C75.5828259,23.5812423 75.4180268,23.2965896 74.8637028,23.2965896 Z" id="Path" fill="#454444"></path>
                                    </g>
                                </g>
                            </g>
                        </g>
                    </g>
                </g>
            </g>
        </g>
    </g>
</svg>