<?xml version="1.0" encoding="UTF-8"?>
<svg width="106px" height="53px" viewBox="0 0 106 53" version="1.1" xmlns="http://www.w3.org/2000/svg" xmlns:xlink="http://www.w3.org/1999/xlink">
    <!-- Generator: Sketch 53.2 (72643) - https://sketchapp.com -->
    <title>nib-logo.3c438715 Clipped</title>
    <desc>Created with Sketch.</desc>
    <g id="Page-1" stroke="none" stroke-width="1" fill="none" fill-rule="evenodd">
        <g id="Desktop-step1" transform="translate(-397.000000, -274.000000)" fill="#009623" fill-rule="nonzero">
            <g id="Body" transform="translate(162.000000, 128.000000)">
                <g id="Logos" transform="translate(0.000000, 104.000000)">
                    <g id="Logo" transform="translate(211.000000, 16.000000)">
                        <g id="Logo-4" transform="translate(24.000000, 26.000000)">
                            <g id="nib-logo.3c438715-Clipped">
                                <g id="nib-logo.3c438715">
                                    <g id="Shape">
                                        <path d="M0,14.0356697 L13.6225179,14.0356697 L13.6225179,19.9134257 C16.9886046,15.3988259 20.6465867,12.9568302 26.3099439,12.9568302 C36.202606,12.9568302 40.861931,18.7668684 40.861931,29.0897951 L40.861931,51.5989873 L25.9510641,51.5989873 L25.9510641,31.7415449 C25.9510641,28.0136448 24.9458096,24.7157648 20.7174826,24.7157648 C16.1292978,24.7157648 14.9118448,27.6535427 14.9118448,32.4588155 L14.9118448,51.5989873 L0,51.5989873 L0,14.0356697 Z M44.7377344,51.6006986 L59.6532462,51.6006986 L59.6532462,14.037381 L44.7377344,14.037381 L44.7377344,51.6006986 Z M44.7377344,10.5153233 L59.6532462,10.5153233 L59.6532462,0 L44.7377344,0 L44.7377344,10.5153233 Z M84.6650623,41.9380812 C79.7888938,41.9380812 78.3572863,36.8487362 78.3572863,32.8335856 C78.3572863,28.9643828 80.1487515,24.5182343 84.6650623,24.5182343 C89.4674015,24.5182343 90.9765056,29.1066635 90.9765056,33.1215694 C90.9765056,37.2049268 89.5429422,41.9380812 84.6650623,41.9380812 Z M78.7137214,0 L63.8062771,0 L63.8062771,51.615611 L77.2099956,51.615611 L77.2099956,46.3111337 L77.3530097,46.3111337 C79.216593,49.8989534 82.6638433,52.691028 88.8941228,52.691028 C101.156174,52.691028 105.884683,43.7315021 105.884683,32.616742 C105.884683,21.2914946 99.1459092,12.9734541 89.5429422,12.9734541 C85.0970383,12.9734541 81.6541884,14.4106844 78.7137214,17.8496227 L78.7137214,0 Z"></path>
                                    </g>
                                </g>
                            </g>
                        </g>
                    </g>
                </g>
            </g>
        </g>
    </g>
</svg>