<?xml version="1.0" encoding="UTF-8"?>
<svg width="56px" height="56px" viewBox="0 0 56 56" version="1.1" xmlns="http://www.w3.org/2000/svg" xmlns:xlink="http://www.w3.org/1999/xlink">
    <!-- Generator: Sketch 54.1 (76490) - https://sketchapp.com -->
    <title>Shape</title>
    <desc>Created with Sketch.</desc>
    <defs>
        <linearGradient x1="49.9204067%" y1="93.0214826%" x2="49.9204067%" y2="39.1958321%" id="linearGradient-1">
            <stop stop-color="#05708A" offset="0%"></stop>
            <stop stop-color="#60C8D8" offset="100%"></stop>
        </linearGradient>
    </defs>
    <g id="Symbols" stroke="none" stroke-width="1" fill="none" fill-rule="evenodd">
        <g id="Header-desktop-default" transform="translate(-162.000000, -16.000000)" fill="url(#linearGradient-1)" fill-rule="nonzero">
            <g id="Header">
                <g id="logo_hic-3" transform="translate(162.000000, 16.000000)">
                    <path d="M50.1582734,17.2028777 L42.3827338,17.2028777 C40.4489209,16.9208633 38.9985612,15.3496403 38.7568345,13.3755396 L38.7568345,5.84172662 C38.7568345,5.64028777 38.7568345,5.43884892 38.7165468,5.27769784 C38.4345324,2.49784173 36.0978417,0.362589928 33.2776978,0.362589928 L31.142446,0.362589928 L29.2892086,0.362589928 L26.5093525,0.362589928 L22.5611511,0.362589928 C19.7410072,0.362589928 17.4043165,2.49784173 17.1223022,5.27769784 C17.0820144,5.47913669 17.0820144,5.64028777 17.0820144,5.84172662 L17.0820144,13.3755396 C16.8805755,15.3093525 15.3899281,16.8805755 13.4561151,17.2028777 L5.72086331,17.2028777 C2.69928058,17.2028777 0.241726619,19.6604317 0.241726619,22.6820144 L0.241726619,23.7697842 L0.241726619,27.3956835 L0.241726619,28.7654676 L0.241726619,31.6258993 L0.241726619,33.5194245 C0.241726619,36.5410072 2.69928058,38.9985612 5.72086331,38.9985612 L13.4964029,38.9985612 C15.4302158,39.2805755 16.8805755,40.8517986 17.1223022,42.8258993 L17.1223022,50.3597122 C17.1223022,50.5611511 17.1223022,50.7625899 17.1625899,50.923741 C17.4446043,53.7035971 19.781295,55.8388489 22.6014388,55.8388489 L26.5899281,55.8388489 L29.3697842,55.8388489 L31.2230216,55.8388489 L33.3582734,55.8388489 C36.1784173,55.8388489 38.5151079,53.7035971 38.7971223,50.923741 C38.8374101,50.7223022 38.8374101,50.5611511 38.8374101,50.3597122 L38.8374101,42.8258993 C39.0388489,40.8920863 40.5294964,39.3208633 42.4633094,38.9985612 L50.2388489,38.9985612 C53.2604317,38.9985612 55.7179856,36.5410072 55.7179856,33.5194245 L55.7179856,31.6258993 L55.7179856,28.7654676 L55.7179856,27.3956835 L55.7179856,23.7697842 L55.7179856,22.6820144 C55.6374101,19.7007194 53.1798561,17.2028777 50.1582734,17.2028777 Z M38.7165468,29.5309353 C38.2733813,31.505036 37.1453237,33.2776978 35.694964,34.6071942 L27.8791367,41.5769784 L20.1841727,34.6071942 C18.7338129,33.2776978 17.6057554,31.505036 17.1625899,29.5309353 C16.8,28.0805755 16.9611511,27.2748201 16.9611511,27.2748201 C17.2431655,24.0115108 19.5395683,21.3122302 22.7223022,21.3122302 C25.0992806,21.3122302 26.9928058,22.7625899 27.8791367,24.8978417 C28.7654676,22.7625899 30.8201439,21.3122302 33.1568345,21.3122302 C36.3395683,21.3122302 38.6359712,24.0517986 38.9179856,27.2748201 C38.9179856,27.2345324 39.0791367,28.0402878 38.7165468,29.5309353 Z" id="Shape"></path>
                </g>
            </g>
        </g>
    </g>
</svg>