<?xml version="1.0" encoding="UTF-8"?>
<svg width="220px" height="51px" viewBox="0 0 220 51" version="1.1" xmlns="http://www.w3.org/2000/svg" xmlns:xlink="http://www.w3.org/1999/xlink">
    <!-- Generator: Sketch 52.6 (67491) - http://www.bohemiancoding.com/sketch -->
    <title>logo_hic</title>
    <desc>Created with Sketch.</desc>
    <defs>
        <linearGradient x1="49.9204067%" y1="93.0214826%" x2="49.9204067%" y2="39.1958321%" id="linearGradient-1">
            <stop stop-color="#05708A" offset="0%"></stop>
            <stop stop-color="#60C8D8" offset="100%"></stop>
        </linearGradient>
    </defs>
    <g id="desktop" stroke="none" stroke-width="1" fill="none" fill-rule="evenodd">
        <g id="hic_guide_template" transform="translate(-175.000000, -6818.000000)" fill-rule="nonzero">
            <g id="Group-18" transform="translate(0.000000, 6586.000000)">
                <g id="logo_hic" transform="translate(175.000000, 232.000000)">
                    <g id="Group" transform="translate(60.399334, 11.374101)" fill="#414042">
                        <polygon id="Shape" points="10.469218 9.94316547 4.2828619 9.94316547 4.2828619 15.8870504 1.5374376 15.8870504 1.5374376 0.330215827 4.2828619 0.330215827 4.2828619 7.44820144 10.469218 7.44820144 10.469218 0.330215827 13.2146423 0.330215827 13.2146423 15.8870504 10.469218 15.8870504"></polygon>
                        <path d="M18.7420965,12.1446043 C19.1081531,13.1719424 20.0232945,14.0892086 21.1214642,14.0892086 C22.7321131,14.0892086 23.391015,12.7316547 23.391015,12.7316547 L25.5507488,13.9057554 C25.5507488,13.9057554 24.2695507,16.4374101 21.0848586,16.4374101 C18.2296173,16.4374101 15.9234609,14.1625899 15.9234609,11.2640288 C15.9234609,8.40215827 18.1930116,6.09064748 21.0848586,6.09064748 C23.8302829,6.09064748 25.9900166,8.36546763 25.9900166,11.1172662 L24.9650582,12.1446043 L18.7420965,12.1446043 Z M18.8153078,10.0532374 L23.4276206,10.0532374 C22.9883527,9.02589928 22.2562396,8.32877698 21.1580699,8.32877698 C19.9866889,8.32877698 19.2911814,9.02589928 18.8153078,10.0532374 Z" id="Shape"></path>
                        <path d="M36.093178,10.4201439 L36.093178,15.8870504 L33.5673877,15.8870504 L33.5673877,14.9697842 L33.3477537,14.9697842 C33.3477537,14.9697842 32.5424293,16.3273381 30.7121464,16.3273381 C28.625624,16.3273381 27.2712146,14.9697842 27.2712146,13.1352518 C27.2712146,11.2640288 28.7354409,9.94316547 31.1514143,9.94316547 C32.5058236,9.94316547 33.530782,10.3834532 33.530782,10.3834532 C33.530782,9.20935252 32.6156406,8.29208633 31.5906822,8.29208633 C30.4193012,8.29208633 29.6505824,9.09928058 29.6505824,9.09928058 L28.1863561,7.37482014 C28.1863561,7.37482014 29.3577371,6.01726619 31.6272879,6.01726619 C34.1530782,6.05395683 36.093178,7.99856115 36.093178,10.4201439 Z M31.18802,12.2546763 C30.3826955,12.2546763 29.906822,12.694964 29.906822,13.1719424 C29.906822,13.6489209 30.3460899,14.0892086 31.3710483,14.0892086 C33.0915141,14.0892086 33.530782,12.3647482 33.530782,12.3647482 C33.530782,12.3647482 32.5424293,12.2546763 31.18802,12.2546763 Z" id="Shape"></path>
                        <polygon id="Shape" points="38.9484193 0.330215827 41.4742097 0.330215827 41.4742097 15.8870504 38.9484193 15.8870504"></polygon>
                        <path d="M43.5241265,6.4942446 L44.9883527,6.4942446 L44.9883527,3.04532374 L47.5141431,3.04532374 L47.5141431,6.4942446 L49.8935108,6.4942446 L49.8935108,8.76906475 L47.5141431,8.76906475 L47.5141431,12.5482014 C47.5141431,13.4654676 48.063228,14.0158273 48.7953411,14.0158273 C49.344426,14.0158273 49.8202995,13.5755396 49.8202995,13.5755396 L50.625624,15.7402878 C50.625624,15.7402878 49.8202995,16.2906475 48.5391015,16.2906475 C46.5990017,16.2906475 44.9883527,14.676259 44.9883527,12.5115108 L44.9883527,8.7323741 L43.5241265,8.7323741 L43.5241265,6.4942446 Z" id="Shape"></path>
                        <path d="M52.8951747,0.330215827 L55.4209651,0.330215827 L55.4209651,7.44820144 L55.640599,7.44820144 C55.640599,7.44820144 56.4459235,6.09064748 58.2762063,6.09064748 C60.2163062,6.09064748 62.046589,7.92517986 62.046589,10.2 L62.046589,15.923741 L59.5207987,15.923741 L59.5207987,10.2 C59.5207987,9.17266187 58.7154742,8.36546763 57.5806988,8.36546763 C56.4093178,8.36546763 55.4209651,9.39280576 55.4209651,10.3100719 L55.4209651,15.923741 L52.8951747,15.923741 L52.8951747,0.330215827 Z" id="Shape"></path>
                        <polygon id="Shape" points="69.7703827 0.330215827 72.515807 0.330215827 72.515807 15.8870504 69.7703827 15.8870504"></polygon>
                        <path d="M75.9567388,6.4942446 L78.4825291,6.4942446 L78.4825291,7.41151079 L78.7021631,7.41151079 C78.7021631,7.41151079 79.5074875,6.05395683 81.3377704,6.05395683 C83.2778702,6.05395683 85.1081531,7.88848921 85.1081531,10.1633094 L85.1081531,15.8870504 L82.5823627,15.8870504 L82.5823627,10.1633094 C82.5823627,9.13597122 81.7770383,8.32877698 80.6422629,8.32877698 C79.4708819,8.32877698 78.4825291,9.35611511 78.4825291,10.2733813 L78.4825291,15.8870504 L75.9567388,15.8870504 L75.9567388,6.4942446 Z" id="Shape"></path>
                        <path d="M92.0998336,13.0618705 C92.0998336,11.7776978 87.3044925,12.5115108 87.3044925,8.95251799 C87.3044925,7.59496403 88.7687188,6.09064748 90.9650582,6.09064748 C93.4908486,6.09064748 94.7354409,7.70503597 94.7354409,7.70503597 L93.014975,9.31942446 C93.014975,9.31942446 92.3194676,8.40215827 91.1846922,8.40215827 C90.3793677,8.40215827 90.0133111,8.76906475 90.0133111,9.20935252 C90.0133111,10.4935252 94.8086522,9.75971223 94.8086522,13.318705 C94.8086522,14.9330935 93.344426,16.4007194 90.9284526,16.4007194 C88.1830283,16.4007194 86.6821963,14.5661871 86.6821963,14.5661871 L88.4026622,12.9517986 C88.4026622,12.9517986 89.3178037,14.1258993 90.672213,14.1258993 C91.6239601,14.052518 92.0998336,13.6122302 92.0998336,13.0618705 Z" id="Shape"></path>
                        <path d="M106.1198,15.8870504 L103.59401,15.8870504 L103.59401,14.9697842 L103.374376,14.9697842 C103.374376,14.9697842 102.569052,16.3273381 100.738769,16.3273381 C98.7986689,16.3273381 96.968386,14.4928058 96.968386,12.2179856 L96.968386,6.4942446 L99.4941764,6.4942446 L99.4941764,12.2179856 C99.4941764,13.2453237 100.299501,14.052518 101.434276,14.052518 C102.569052,14.052518 103.59401,13.0251799 103.59401,12.1079137 L103.59401,6.4942446 L106.1198,6.4942446 L106.1198,15.8870504 Z" id="Shape"></path>
                        <path d="M111.610649,10.6402878 L111.610649,15.923741 L109.084859,15.923741 L109.084859,6.53093525 L111.610649,6.53093525 L111.610649,7.44820144 L111.830283,7.44820144 C111.830283,7.44820144 112.635607,6.09064748 114.209651,6.09064748 C114.758735,6.09064748 115.234609,6.31079137 115.234609,6.31079137 L114.795341,8.69568345 C114.795341,8.69568345 114.356073,8.47553957 113.770383,8.47553957 C112.635607,8.43884892 111.610649,9.5028777 111.610649,10.6402878 Z" id="Shape"></path>
                        <path d="M124.642263,10.4201439 L124.642263,15.8870504 L122.116473,15.8870504 L122.116473,14.9697842 L121.896839,14.9697842 C121.896839,14.9697842 121.091514,16.3273381 119.261231,16.3273381 C117.174709,16.3273381 115.8203,14.9697842 115.8203,13.1352518 C115.8203,11.2640288 117.284526,9.94316547 119.700499,9.94316547 C121.054908,9.94316547 122.079867,10.3834532 122.079867,10.3834532 C122.079867,9.20935252 121.164725,8.29208633 120.139767,8.29208633 C118.968386,8.29208633 118.199667,9.09928058 118.199667,9.09928058 L116.735441,7.37482014 C116.735441,7.37482014 117.906822,6.01726619 120.176373,6.01726619 C122.702163,6.05395683 124.642263,7.99856115 124.642263,10.4201439 Z M119.737105,12.2546763 C118.93178,12.2546763 118.455907,12.694964 118.455907,13.1719424 C118.455907,13.6489209 118.895175,14.0892086 119.920133,14.0892086 C121.640599,14.0892086 122.079867,12.3647482 122.079867,12.3647482 C122.079867,12.3647482 121.091514,12.2546763 119.737105,12.2546763 Z" id="Shape"></path>
                        <path d="M127.387687,6.4942446 L129.913478,6.4942446 L129.913478,7.41151079 L130.133111,7.41151079 C130.133111,7.41151079 130.938436,6.05395683 132.768719,6.05395683 C134.708819,6.05395683 136.539101,7.88848921 136.539101,10.1633094 L136.539101,15.8870504 L134.013311,15.8870504 L134.013311,10.1633094 C134.013311,9.13597122 133.207987,8.32877698 132.073211,8.32877698 C130.90183,8.32877698 129.913478,9.35611511 129.913478,10.2733813 L129.913478,15.8870504 L127.387687,15.8870504 L127.387687,6.4942446 Z" id="Shape"></path>
                        <path d="M146.019967,12.4748201 L148.1797,13.6489209 C148.1797,13.6489209 146.935108,16.4007194 143.71381,16.4007194 C140.858569,16.4007194 138.552413,14.1258993 138.552413,11.2273381 C138.552413,8.36546763 140.821963,6.05395683 143.71381,6.05395683 C146.788686,6.05395683 148.069884,8.58561151 148.069884,8.58561151 L145.91015,9.75971223 C145.91015,9.75971223 145.214642,8.40215827 143.750416,8.40215827 C142.505824,8.40215827 141.224626,9.64964029 141.224626,11.2640288 C141.224626,12.8784173 142.505824,14.1258993 143.750416,14.1258993 C145.324459,14.052518 146.019967,12.4748201 146.019967,12.4748201 Z" id="Shape"></path>
                        <path d="M152.169717,12.1446043 C152.535774,13.1719424 153.450915,14.0892086 154.549085,14.0892086 C156.159734,14.0892086 156.818636,12.7316547 156.818636,12.7316547 L158.978369,13.9057554 C158.978369,13.9057554 157.733777,16.4374101 154.512479,16.4374101 C151.657238,16.4374101 149.351082,14.1625899 149.351082,11.2640288 C149.351082,8.40215827 151.620632,6.09064748 154.512479,6.09064748 C157.257903,6.09064748 159.417637,8.36546763 159.417637,11.1172662 L158.392679,12.1446043 L152.169717,12.1446043 Z M152.31614,10.0532374 L156.891847,10.0532374 C156.452579,9.02589928 155.720466,8.32877698 154.622296,8.32877698 C153.414309,8.32877698 152.755408,9.02589928 152.31614,10.0532374 Z" id="Shape"></path>
                        <path d="M8.01663894,24.3625899 L7.32113145,24.8028777 C7.32113145,24.8028777 6.36938436,23.2618705 4.61231281,23.2618705 C2.81863561,23.2618705 1.13477537,24.9129496 1.13477537,26.9676259 C1.13477537,29.0223022 2.78202995,30.6733813 4.61231281,30.6733813 C6.5890183,30.6733813 7.57737105,28.8755396 7.57737105,28.8755396 L8.27287854,29.3158273 C8.27287854,29.3158273 7.1014975,31.5172662 4.64891847,31.5172662 C2.34276206,31.5172662 0.292845258,29.4625899 0.292845258,26.9676259 C0.292845258,24.4726619 2.34276206,22.4179856 4.64891847,22.4179856 C6.88186356,22.4546763 8.01663894,24.3625899 8.01663894,24.3625899 Z" id="Shape"></path>
                        <path d="M14.7886855,22.4546763 C17.0948419,22.4546763 19.1447587,24.5093525 19.1447587,27.0043165 C19.1447587,29.4992806 17.0948419,31.5539568 14.7886855,31.5539568 C12.4825291,31.5539568 10.4326123,29.4992806 10.4326123,27.0043165 C10.469218,24.5093525 12.4825291,22.4546763 14.7886855,22.4546763 Z M14.7886855,23.2618705 C12.9950083,23.2618705 11.3111481,24.9129496 11.3111481,26.9676259 C11.3111481,29.0223022 12.9584027,30.6733813 14.7886855,30.6733813 C16.6189684,30.6733813 18.266223,29.0223022 18.266223,26.9676259 C18.266223,24.9496403 16.6189684,23.2618705 14.7886855,23.2618705 Z" id="Shape"></path>
                        <polygon id="Shape" points="30.1630616 22.4546763 30.1630616 31.3338129 29.3211314 31.3338129 29.3211314 24.8395683 29.2479201 24.8395683 26.2462562 29.0223022 23.2445923 24.8395683 23.171381 24.8395683 23.171381 31.3338129 22.3294509 31.3338129 22.3294509 22.4546763 22.5124792 22.4546763 26.2096506 27.5913669 29.906822 22.4546763"></polygon>
                        <path d="M35.9833611,28.618705 L34.81198,28.618705 L34.81198,31.3338129 L33.9700499,31.3338129 L33.9700499,22.7482014 L35.9467554,22.7482014 C37.9966722,22.7482014 39.3510815,24.0690647 39.3510815,25.7201439 C39.3876872,27.2611511 38.0332779,28.618705 35.9833611,28.618705 Z M35.9833611,27.7381295 C37.5207987,27.7381295 38.4725458,26.7841727 38.4725458,25.6467626 C38.4725458,24.5093525 37.5207987,23.5553957 35.9833611,23.5553957 L34.81198,23.5553957 L34.81198,27.8115108 L35.9833611,27.7381295 Z" id="Shape"></path>
                        <path d="M48.0266223,31.2971223 L47.1480865,31.2971223 L46.5990017,29.6827338 L42.5723794,29.6827338 L42.0232945,31.2971223 L41.1447587,31.2971223 L44.6222962,22.1978417 L44.6955075,22.1978417 L48.0266223,31.2971223 Z M42.828619,28.8388489 L46.2329451,28.8388489 L44.5856905,24.2892086 L44.5124792,24.2892086 L42.828619,28.8388489 Z" id="Shape"></path>
                        <path d="M56.9950083,31.2971223 L55.9700499,31.2971223 L53.9933444,27.8115108 L51.797005,27.8115108 L51.797005,31.2971223 L50.9550749,31.2971223 L50.9550749,22.7115108 L53.5174709,22.7115108 C55.3843594,22.7115108 56.5191348,23.8856115 56.5191348,25.2798561 C56.5191348,27.1510791 54.7986689,27.5913669 54.7986689,27.5913669 L54.7986689,27.6647482 L56.9950083,31.2971223 Z M53.5174709,27.0043165 C54.8352745,27.0043165 55.6039933,26.2338129 55.6039933,25.2798561 C55.6039933,24.3258993 54.8352745,23.5553957 53.5174709,23.5553957 L51.797005,23.5553957 L51.797005,27.0410072 L53.5174709,27.0043165 Z" id="Shape"></path>
                        <polygon id="Shape" points="59.9234609 22.7115108 60.765391 22.7115108 60.765391 31.2971223 59.9234609 31.2971223"></polygon>
                        <path d="M69.2945092,23.8856115 L68.5990017,24.3258993 C68.5990017,24.3258993 67.9400998,23.2985612 66.8785358,23.2985612 C65.8169717,23.2985612 65.1580699,23.9589928 65.1580699,24.7661871 C65.1580699,26.747482 69.4409318,26.1971223 69.4409318,29.0223022 C69.4409318,30.3431655 68.2329451,31.5906475 66.5856905,31.5906475 C64.5357737,31.5906475 63.7304493,29.7928058 63.7304493,29.7928058 L64.4259567,29.352518 C64.4259567,29.352518 65.0848586,30.7834532 66.6222962,30.7834532 C67.8302829,30.7834532 68.5990017,30.0129496 68.5990017,29.0589928 C68.5990017,26.9676259 64.3161398,27.5179856 64.3161398,24.8028777 C64.3161398,23.628777 65.4875208,22.4913669 66.9517471,22.4913669 C68.4891847,22.4546763 69.2945092,23.8856115 69.2945092,23.8856115 Z" id="Shape"></path>
                        <path d="M76.249584,22.4546763 C78.5557404,22.4546763 80.6056572,24.5093525 80.6056572,27.0043165 C80.6056572,29.4992806 78.5557404,31.5539568 76.249584,31.5539568 C73.9434276,31.5539568 71.8935108,29.4992806 71.8935108,27.0043165 C71.8935108,24.5093525 73.9434276,22.4546763 76.249584,22.4546763 Z M76.249584,23.2618705 C74.4559068,23.2618705 72.7720466,24.9129496 72.7720466,26.9676259 C72.7720466,29.0223022 74.4193012,30.6733813 76.249584,30.6733813 C78.0432612,30.6733813 79.7271215,29.0223022 79.7271215,26.9676259 C79.6905158,24.9496403 78.0432612,23.2618705 76.249584,23.2618705 Z" id="Shape"></path>
                        <polygon id="Shape" points="89.5374376 31.5539568 84.6688852 24.8395683 84.5956739 24.8395683 84.5956739 31.3338129 83.7537438 31.3338129 83.7537438 22.4546763 83.936772 22.4546763 88.8053245 29.1690647 88.8785358 29.1690647 88.8785358 22.7115108 89.7204659 22.7115108 89.7204659 31.5906475"></polygon>
                    </g>
                    <path d="M45.5740433,15.6669065 L38.5091514,15.6669065 C36.7520799,15.4100719 35.4342762,13.9791367 35.2146423,12.181295 L35.2146423,5.32014388 C35.2146423,5.13669065 35.2146423,4.95323741 35.1780366,4.80647482 C34.921797,2.27482014 32.7986689,0.330215827 30.2362729,0.330215827 L28.296173,0.330215827 L26.6123128,0.330215827 L24.0865225,0.330215827 L20.4991681,0.330215827 C17.936772,0.330215827 15.8136439,2.27482014 15.5574043,4.80647482 C15.5207987,4.98992806 15.5207987,5.13669065 15.5207987,5.32014388 L15.5207987,12.181295 C15.3377704,13.942446 13.9833611,15.3733813 12.2262895,15.6669065 L5.19800333,15.6669065 C2.45257903,15.6669065 0.219633943,17.905036 0.219633943,20.6568345 L0.219633943,21.647482 L0.219633943,24.9496403 L0.219633943,26.1971223 L0.219633943,28.8021583 L0.219633943,30.5266187 C0.219633943,33.2784173 2.45257903,35.5165468 5.19800333,35.5165468 L12.2628952,35.5165468 C14.0199667,35.7733813 15.3377704,37.2043165 15.5574043,39.0021583 L15.5574043,45.8633094 C15.5574043,46.0467626 15.5574043,46.2302158 15.59401,46.3769784 C15.8502496,48.9086331 17.9733777,50.8532374 20.5357737,50.8532374 L24.1597338,50.8532374 L26.6855241,50.8532374 L28.3693844,50.8532374 L30.3094842,50.8532374 C32.8718802,50.8532374 34.9950083,48.9086331 35.2512479,46.3769784 C35.2878536,46.1935252 35.2878536,46.0467626 35.2878536,45.8633094 L35.2878536,39.0021583 C35.4708819,37.2410072 36.8252912,35.8100719 38.5823627,35.5165468 L45.6472546,35.5165468 C48.3926789,35.5165468 50.625624,33.2784173 50.625624,30.5266187 L50.625624,28.8021583 L50.625624,26.1971223 L50.625624,24.9496403 L50.625624,21.647482 L50.625624,20.6568345 C50.5524126,17.9417266 48.3194676,15.6669065 45.5740433,15.6669065 Z M35.1780366,26.8942446 C34.7753744,28.6920863 33.750416,30.3064748 32.4326123,31.5172662 L25.3311148,37.8647482 L18.3394343,31.5172662 C17.0216306,30.3064748 15.9966722,28.6920863 15.59401,26.8942446 C15.2645591,25.5733813 15.4109817,24.8395683 15.4109817,24.8395683 C15.6672213,21.8676259 17.7537438,19.4093525 20.6455907,19.4093525 C22.8053245,19.4093525 24.5257903,20.7302158 25.3311148,22.6748201 C26.1364393,20.7302158 28.0033278,19.4093525 30.1264559,19.4093525 C33.0183028,19.4093525 35.1048253,21.9043165 35.3610649,24.8395683 C35.3610649,24.8028777 35.5074875,25.5366906 35.1780366,26.8942446 Z" id="Shape" fill="url(#linearGradient-1)"></path>
                </g>
            </g>
        </g>
    </g>
</svg>