<?xml version="1.0" encoding="UTF-8"?>
<svg width="25px" height="25px" viewBox="0 0 25 25" version="1.1" xmlns="http://www.w3.org/2000/svg" xmlns:xlink="http://www.w3.org/1999/xlink">
    <!-- Generator: Sketch 54.1 (76490) - https://sketchapp.com -->
    <title>Arrow-right</title>
    <desc>Created with Sketch.</desc>
    <g id="Page-1" stroke="none" stroke-width="1" fill="none" fill-rule="evenodd">
        <g id="Desktop-/-Dekstop-Step0-Landing" transform="translate(-1298.000000, -695.000000)">
            <g id="Partner" transform="translate(0.000000, 672.000000)">
                <g id="Arrow-right" transform="translate(1298.000000, 23.000000)">
                    <circle id="Oval" fill="#C1C1C1" cx="12.5" cy="12.5" r="12.5"></circle>
                    <path d="M14.7697528,8.15039292 C14.5923313,7.94986903 14.2970423,7.94986903 14.1134172,8.15039292 C13.9359956,8.34414235 13.9359956,8.66660645 14.1134172,8.85990425 L17.4414153,12.494174 L6.45947632,12.494174 C6.20347646,12.4946256 6,12.7168277 6,12.996387 C6,13.2759462 6.20347646,13.5053744 6.45947632,13.5053744 L17.4414153,13.5053744 L14.1134172,17.1328697 C13.9359956,17.3333936 13.9359956,17.6563093 14.1134172,17.8496071 C14.2970423,18.050131 14.5927448,18.050131 14.7697528,17.8496071 L18.8856019,13.3549815 C19.069227,13.161232 19.069227,12.838768 18.8856019,12.6454701 L14.7697528,8.15039292 Z" id="Path" fill="#FFFFFF"></path>
                </g>
            </g>
        </g>
    </g>
</svg>