<?xml version="1.0" encoding="UTF-8"?>
<svg width="16px" height="17px" viewBox="0 0 16 17" version="1.1" xmlns="http://www.w3.org/2000/svg" xmlns:xlink="http://www.w3.org/1999/xlink">
    <!-- Generator: Sketch 55 (78076) - https://sketchapp.com -->
    <title>calendar-8</title>
    <desc>Created with Sketch.</desc>
    <g id="Page-1" stroke="none" stroke-width="1" fill="none" fill-rule="evenodd">
        <g id="Desktop-/-Desktop-Step10" transform="translate(-360.000000, -450.000000)" fill="#FFFFFF">
            <g id="Group-3" transform="translate(352.000000, 184.000000)">
                <g id="Group-4" transform="translate(0.000000, 96.000000)">
                    <g id="Points">
                        <g id="Point" transform="translate(0.000000, 162.000000)">
                            <g id="Icon" transform="translate(0.000000, 0.500000)">
                                <g id="calendar-8" transform="translate(8.000000, 8.000000)">
                                    <path d="M12.0625,7.1875 C11.717322,7.1875 11.4375,6.90767797 11.4375,6.5625 C11.4375,6.21732203 11.717322,5.9375 12.0625,5.9375 C12.407678,5.9375 12.6875,6.21732203 12.6875,6.5625 C12.6875,6.90767797 12.407678,7.1875 12.0625,7.1875 Z M9.63238515,10.7040735 C9.30665428,10.4382217 9.20727173,9.98303015 9.39259182,9.60559819 C9.57777327,9.22816622 9.998867,9.02843085 10.4083176,9.12351651 C10.8177682,9.21860222 11.107738,9.58355937 11.1075994,10.0039601 C11.1075994,9.58355937 11.3974305,9.21874082 11.8068811,9.12365515 C12.2164703,9.02856945 12.6374255,9.22830486 12.8226069,9.60559819 C13.007927,9.98303015 12.908683,10.4382217 12.5829522,10.7040735 L11.4168357,11.7896582 C11.2426044,11.9518306 10.9727329,11.9518306 10.7985016,11.7896582 L9.63238515,10.7040735 Z M9.34375,7.1875 C8.99857203,7.1875 8.71875,6.90767797 8.71875,6.5625 C8.71875,6.21732203 8.99857203,5.9375 9.34375,5.9375 C9.68892797,5.9375 9.96875,6.21732203 9.96875,6.5625 C9.96875,6.90767797 9.68892797,7.1875 9.34375,7.1875 Z M15.375,11 C15.0298125,11 14.75,10.7201875 14.75,10.375 L14.75,3.75 C14.75,3.06075 14.18925,2.5 13.5,2.5 L12.6875,2.5 L12.6875,3.125 C12.6875,3.4701875 12.4076875,3.75 12.0625,3.75 C11.7173125,3.75 11.4375,3.4701875 11.4375,3.125 L11.4375,2.5 L8.59375,2.5 L8.59375,3.125 C8.59375,3.4701875 8.3139375,3.75 7.96875,3.75 C7.6235625,3.75 7.34375,3.4701875 7.34375,3.125 L7.34375,2.5 L4.53125,2.5 L4.53125,3.125 C4.53125,3.4701875 4.2514375,3.75 3.90625,3.75 C3.5610625,3.75 3.28125,3.4701875 3.28125,3.125 L3.28125,2.5 L2.5,2.5 C1.81075,2.5 1.25,3.06075 1.25,3.75 L1.25,13.5 C1.25,14.18925 1.81075,14.75 2.5,14.75 L13.5,14.75 C14.18925,14.75 14.75,14.18925 14.75,13.5 C14.75,13.1548125 15.0298125,12.875 15.375,12.875 C15.7201875,12.875 16,13.1548125 16,13.5 C16,14.8785 14.8785,16 13.5,16 L2.5,16 C1.1215,16 0,14.8785 0,13.5 L0,3.75 C0,2.3715 1.1215,1.25 2.5,1.25 L3.28125,1.25 L3.28125,0.625 C3.28125,0.2798125 3.5610625,0 3.90625,0 C4.2514375,0 4.53125,0.2798125 4.53125,0.625 L4.53125,1.25 L7.34375,1.25 L7.34375,0.625 C7.34375,0.2798125 7.6235625,0 7.96875,0 C8.3139375,0 8.59375,0.2798125 8.59375,0.625 L8.59375,1.25 L11.4375,1.25 L11.4375,0.625 C11.4375,0.2798125 11.7173125,0 12.0625,0 C12.4076875,0 12.6875,0.2798125 12.6875,0.625 L12.6875,1.25 L13.5,1.25 C14.8785,1.25 16,2.3715 16,3.75 L16,10.375 C16,10.7201875 15.7201875,11 15.375,11 Z M3.90625,12.625 C3.56107203,12.625 3.28125,12.345178 3.28125,12 C3.28125,11.654822 3.56107203,11.375 3.90625,11.375 C4.25142797,11.375 4.53125,11.654822 4.53125,12 C4.53125,12.345178 4.25142797,12.625 3.90625,12.625 Z M3.90625,7.1875 C3.56107203,7.1875 3.28125,6.90767797 3.28125,6.5625 C3.28125,6.21732203 3.56107203,5.9375 3.90625,5.9375 C4.25142797,5.9375 4.53125,6.21732203 4.53125,6.5625 C4.53125,6.90767797 4.25142797,7.1875 3.90625,7.1875 Z M3.90625,9.90625 C3.56107203,9.90625 3.28125,9.62642797 3.28125,9.28125 C3.28125,8.93607203 3.56107203,8.65625 3.90625,8.65625 C4.25142797,8.65625 4.53125,8.93607203 4.53125,9.28125 C4.53125,9.62642797 4.25142797,9.90625 3.90625,9.90625 Z M6.625,9.90625 C6.27982203,9.90625 6,9.62642797 6,9.28125 C6,8.93607203 6.27982203,8.65625 6.625,8.65625 C6.97017797,8.65625 7.25,8.93607203 7.25,9.28125 C7.25,9.62642797 6.97017797,9.90625 6.625,9.90625 Z M6.625,7.1875 C6.27982203,7.1875 6,6.90767797 6,6.5625 C6,6.21732203 6.27982203,5.9375 6.625,5.9375 C6.97017797,5.9375 7.25,6.21732203 7.25,6.5625 C7.25,6.90767797 6.97017797,7.1875 6.625,7.1875 Z M6.625,12.625 C6.27982203,12.625 6,12.345178 6,12 C6,11.654822 6.27982203,11.375 6.625,11.375 C6.97017797,11.375 7.25,11.654822 7.25,12 C7.25,12.345178 6.97017797,12.625 6.625,12.625 Z" id="Combined-Shape"></path>
                                </g>
                            </g>
                        </g>
                    </g>
                </g>
            </g>
        </g>
    </g>
</svg>