<?xml version="1.0" encoding="UTF-8"?>
<svg width="131px" height="120px" viewBox="0 0 131 120" version="1.1" xmlns="http://www.w3.org/2000/svg" xmlns:xlink="http://www.w3.org/1999/xlink">
    <!-- Generator: Sketch 54.1 (76490) - https://sketchapp.com -->
    <title>family</title>
    <desc>Created with Sketch.</desc>
    <g id="Symbols" stroke="none" stroke-width="1" fill="none" fill-rule="evenodd">
        <g id="Lifestage-/-Family" transform="translate(-15.000000, -20.000000)" fill="#35869A">
            <g id="family" transform="translate(15.000000, 20.000000)">
                <g id="Combined-Shape-2" opacity="0.64" transform="translate(24.066128, 30.736851)">
                    <path d="M16.248,11.3668085 C17.0693617,12.0329362 17.195234,13.2388085 16.5291064,14.0601702 C15.036,15.9010213 12.899234,16.956766 10.6662128,16.956766 C8.43319149,16.956766 6.29617021,15.9010213 4.80331915,14.0601702 C4.13719149,13.2388085 4.26306383,12.0329362 5.08442553,11.3668085 C5.90553191,10.7009362 7.11165957,10.8265532 7.77778723,11.6479149 C8.55140426,12.6015319 9.57702128,13.1269787 10.6662128,13.1269787 C11.7554043,13.1269787 12.7810213,12.6017872 13.5546383,11.6479149 C14.2210213,10.8262979 15.4266383,10.7006809 16.248,11.3668085 Z M1.91489362,-3.55271368e-15 C2.97242553,-3.55271368e-15 3.82978723,0.857361702 3.82978723,1.91489362 L3.82978723,4.1027234 C3.82978723,5.16025532 2.97242553,6.01761702 1.91489362,6.01761702 C0.857361702,6.01761702 4.56523708e-13,5.16025532 4.56523708e-13,4.1027234 L4.56523708e-13,1.91489362 C4.56523708e-13,0.857361702 0.857361702,-3.55271368e-15 1.91489362,-3.55271368e-15 Z M19.4175319,-3.55271368e-15 C20.4750638,-3.55271368e-15 21.3324255,0.857361702 21.3324255,1.91489362 L21.3324255,4.1027234 C21.3324255,5.16025532 20.4750638,6.01761702 19.4175319,6.01761702 C18.3597447,6.01761702 17.5026383,5.16025532 17.5026383,4.1027234 L17.5026383,1.91489362 C17.5026383,0.857361702 18.36,-3.55271368e-15 19.4175319,-3.55271368e-15 Z M79.6948085,22.3057021 C80.5161702,22.9718298 80.6417872,24.1777021 79.9756596,24.9990638 C78.4828085,26.8399149 76.3460426,27.8956596 74.1130213,27.8956596 C71.88,27.8956596 69.7429787,26.8401702 68.250383,24.9990638 C67.5842553,24.1777021 67.7098723,22.9718298 68.531234,22.3057021 C69.3525957,21.6395745 70.5587234,21.7654468 71.2245957,22.5868085 C71.9982128,23.5404255 73.0238298,24.0658723 74.1130213,24.0658723 C75.2019574,24.0658723 76.2278298,23.5404255 77.0014468,22.5868085 C77.6675745,21.7651915 78.8734468,21.6395745 79.6948085,22.3057021 Z M65.3617021,10.9391489 C66.419234,10.9391489 67.2765957,11.7965106 67.2765957,12.8540426 L67.2765957,15.0418723 C67.2765957,16.0994043 66.419234,16.956766 65.3617021,16.956766 C64.3041702,16.956766 63.4468085,16.0994043 63.4468085,15.0418723 L63.4468085,12.8540426 C63.4468085,11.7965106 64.3041702,10.9391489 65.3617021,10.9391489 Z M82.8643404,10.9391489 C83.9218723,10.9391489 84.779234,11.7965106 84.779234,12.8540426 L84.779234,15.0418723 C84.779234,16.0994043 83.9218723,16.956766 82.8643404,16.956766 C81.8065532,16.956766 80.9494468,16.0994043 80.9494468,15.0418723 L80.9494468,12.8540426 C80.9494468,11.7965106 81.8068085,10.9391489 82.8643404,10.9391489 Z M49.0654468,55.1231489 C49.8865532,55.7892766 50.0124255,56.9954043 49.3465532,57.816766 C47.8534468,59.6573617 45.7166809,60.7131064 43.4836596,60.7131064 C41.2506383,60.7131064 39.1138723,59.6571064 37.620766,57.8165106 C36.9546383,56.9951489 37.0805106,55.7892766 37.9018723,55.1231489 C38.7229787,54.4570213 39.9291064,54.5828936 40.595234,55.4042553 C41.3688511,56.3581277 42.3947234,56.8833191 43.4836596,56.8833191 C44.5725957,56.8833191 45.5982128,56.3581277 46.3720851,55.4042553 C47.0382128,54.5826383 48.2440851,54.4570213 49.0654468,55.1231489 Z M36.9551489,49.7826383 C35.8975824,49.7826383 35.0402553,48.9253112 35.0402553,47.8677447 C35.0402553,46.8101781 35.8975824,45.9528511 36.9551489,45.9528511 C38.0127155,45.9528511 38.8700426,46.8101781 38.8700426,47.8677447 C38.8700426,48.9253112 38.0127155,49.7826383 36.9551489,49.7826383 Z M49.9764255,49.7826383 C48.918859,49.7826383 48.0615319,48.9253112 48.0615319,47.8677447 C48.0615319,46.8101781 48.918859,45.9528511 49.9764255,45.9528511 C51.0339921,45.9528511 51.8913191,46.8101781 51.8913191,47.8677447 C51.8913191,48.9253112 51.0339921,49.7826383 49.9764255,49.7826383 Z" id="Combined-Shape"></path>
                </g>
                <path d="M125.393872,79.5434043 L110.392085,73.5426383 C110.310894,73.5102128 110.23583,73.4688511 110.159745,73.4290213 C120.521362,71.0714043 125.428596,67.128766 125.646383,66.9502979 C126.164426,66.5257021 126.423064,65.8613617 126.32834,65.1982979 C126.306638,65.0466383 124.15966,49.8446809 124.15966,34.8398298 C124.15966,20.5138723 112.504596,8.85880851 98.1786383,8.85880851 C83.8526809,8.85880851 72.1978723,20.513617 72.1978723,34.8398298 C72.1978723,38.7651064 72.0196596,43.5661277 71.729617,48.1110638 L67.5492766,50.2013617 L55.2786383,44.0662979 C55.2434043,44.0486809 55.206383,44.0359149 55.170383,44.0205957 C55.7540426,42.3194043 56.1357447,40.5255319 56.2759149,38.664 C58.8426383,37.8709787 60.7128511,35.4758298 60.7128511,32.652 C60.7128511,30.7501277 59.8631489,29.0440851 58.5250213,27.8895319 L58.5250213,15.1491064 C58.5250213,11.6295319 56.7467234,8.33642553 53.8304681,6.35770213 C52.842383,2.68621277 49.5436596,0.107234043 45.6709787,0.107234043 L28.1683404,0.107234043 C18.6679149,0.107234043 10.9386383,7.83651064 10.9386383,17.3369362 L10.9386383,27.8892766 C9.60051064,29.0435745 8.75080851,30.7498723 8.75080851,32.6517447 C8.75080851,35.4755745 10.6210213,37.8707234 13.1877447,38.6637447 C13.6713191,45.0924255 16.9843404,50.7408511 21.8777872,54.3760851 L21.8777872,59.6688511 L6.04187234,64.4195745 C2.42808511,65.5039149 0,68.7671489 0,72.5402553 L0,93.9107234 C0,94.9682553 0.857361702,95.825617 1.91489362,95.825617 L2.18782979,95.825617 L2.18782979,117.976851 C2.18782979,119.034383 3.04519149,119.891745 4.1027234,119.891745 C5.16025532,119.891745 6.01761702,119.034383 6.01761702,117.976851 L6.01761702,95.825617 L13.1269787,95.825617 L13.1269787,117.976851 C13.1269787,119.034383 13.9843404,119.891745 15.0418723,119.891745 C16.0994043,119.891745 16.956766,119.034383 16.956766,117.976851 L16.956766,84.9589787 C16.956766,83.2794894 16.4642553,81.6531064 15.5328511,80.256 L12.2596596,75.3462128 C11.6729362,74.4661277 10.4839149,74.2286809 9.60434043,74.8148936 C8.72425532,75.4013617 8.48655319,76.590383 9.0732766,77.4704681 L12.3464681,82.3805106 C12.8571064,83.1464681 13.127234,84.0380426 13.127234,84.9589787 L13.127234,91.9958298 L4.1027234,91.9958298 L3.82978723,91.9958298 L3.82978723,72.5402553 C3.82978723,70.4714043 5.16102128,68.682383 7.14280851,68.0877447 L13.7165106,66.1156596 C16.0057021,75.7008511 24.6995745,82.6986383 34.7323404,82.6986383 C38.3366809,82.6986383 41.8371064,81.8098723 44.9716596,80.1186383 C46.1172766,81.6814468 47.9650213,82.6986383 50.0468936,82.6986383 L50.3198298,82.6986383 L50.3198298,82.9715745 C50.3198298,89.3910638 53.8514043,94.9978723 59.0711489,97.9618723 L59.0711489,101.085191 C59.0711489,101.202638 58.9960851,101.306809 58.8845106,101.344085 L51.7414468,103.725191 C48.2739574,104.881021 45.9441702,108.113362 45.9441702,111.768511 L45.9441702,117.976851 C45.9441702,119.034383 46.8015319,119.891745 47.8590638,119.891745 C48.9165957,119.891745 49.7739574,119.034383 49.7739574,117.976851 L49.7739574,111.768511 C49.7739574,109.764511 51.0513191,107.992085 52.9524255,107.358638 L55.0529362,106.658298 C57.8318298,110.802638 62.5054468,113.328511 67.5492766,113.328511 C72.5984681,113.328511 77.2677447,110.80417 80.0461277,106.658553 L82.1461277,107.358638 C84.047234,107.99234 85.3245957,109.764511 85.3245957,111.768511 L85.3245957,117.976851 C85.3245957,119.034383 86.1819574,119.891745 87.2394894,119.891745 C88.2970213,119.891745 89.154383,119.034383 89.154383,117.976851 L89.154383,111.768511 C89.154383,108.113362 86.8245957,104.881021 83.3571064,103.725447 L76.2140426,101.34434 C76.1024681,101.307064 76.0274043,101.203149 76.0274043,101.085447 L76.0274043,97.9621277 C79.9355745,95.7428936 82.8937021,92.0417872 84.1345532,87.6265532 C87.7531915,91.4129362 92.807234,93.6382979 98.178383,93.6382979 C106.658043,93.6382979 114.098298,88.1568511 116.661191,80.1758298 L123.970723,83.0994894 C125.745957,83.8095319 126.892851,85.5038298 126.892851,87.4154043 L126.892851,96.3717447 L126.619915,96.3717447 L119.783489,96.3717447 L119.783489,93.9109787 C119.783489,92.8534468 118.926128,91.9960851 117.868596,91.9960851 C116.811064,91.9960851 115.953702,92.8534468 115.953702,93.9109787 L115.953702,117.977106 C115.953702,119.034638 116.811064,119.892 117.868596,119.892 C118.926128,119.892 119.783489,119.034638 119.783489,117.977106 L119.783489,100.201532 L124.705021,100.201532 L124.705021,117.977106 C124.705021,119.034638 125.562383,119.892 126.619915,119.892 C127.677447,119.892 128.534809,119.034638 128.534809,117.977106 L128.534809,100.201532 L128.807745,100.201532 C129.315574,100.201532 129.802468,99.9998298 130.161702,99.6408511 C130.520936,99.281617 130.722638,98.7947234 130.722638,98.2866383 L130.722638,87.4154043 C130.723404,83.9282553 128.631574,80.838383 125.393872,79.5434043 Z M76.0279149,34.8395745 C76.0279149,22.6253617 85.9649362,12.6883404 98.1791489,12.6883404 C110.393362,12.6883404 120.330128,22.6253617 120.330128,34.8395745 C120.330128,47.6982128 121.878638,60.696766 122.381872,64.5788936 C120.665872,65.7015319 116.27234,68.1740426 108.845362,69.7988936 L108.845362,66.7516596 C109.862553,66.1751489 110.83634,65.5171915 111.751915,64.7772766 C115.519915,61.7315745 118.182638,57.4659574 119.248851,52.7665532 C119.604255,51.2006809 119.784511,49.5857872 119.784511,47.9668085 C119.784511,37.1435745 111.957191,35.5897021 104.387489,34.0868936 C99.5708936,33.1307234 94.590383,32.1418723 90.6242553,28.9690213 C90.0495319,28.5091915 89.2621277,28.4195745 88.5985532,28.7384681 C87.9349787,29.0573617 87.5131915,29.7280851 87.5131915,30.4644255 C87.5131915,30.515234 87.4297021,35.5537021 80.2123404,37.3580426 C79.1862128,37.6146383 78.5624681,38.6542979 78.8190638,39.6804255 C79.0754043,40.7065532 80.1153191,41.3297872 81.1411915,41.0737021 C87.1820426,39.5634894 89.646383,36.1746383 90.6513191,33.6285957 C94.8038298,36.0893617 99.4554894,37.0125957 103.641702,37.8436596 C111.732511,39.4498723 115.954723,40.6297021 115.954723,47.9670638 C115.954723,49.3013617 115.806383,50.6310638 115.514043,51.9194043 C114.637021,55.7834043 112.446128,59.292 109.344255,61.799234 C106.152766,64.3789787 102.29183,65.742383 98.1791489,65.742383 C94.4300426,65.742383 90.8619574,64.5924255 87.8338723,62.4194043 C86.7245106,59.3915745 84.9426383,56.6213617 82.5914043,54.3388085 L82.5914043,45.779234 C82.5914043,45.1154043 82.2477447,44.4990638 81.683234,44.1502979 C81.1187234,43.8015319 80.4140426,43.769617 79.8201702,44.0665532 L75.6857872,46.133617 C75.9125106,42.1457872 76.0279149,38.3542979 76.0279149,34.8395745 Z M78.761617,48.8770213 L78.761617,55.8071489 L71.831234,52.3422128 L78.761617,48.8770213 Z M56.3374468,48.8770213 L63.2675745,52.3422128 L56.3374468,55.8071489 L56.3374468,48.8770213 Z M45.9441702,69.8445957 L45.9441702,71.663234 C44.5731064,72.8471489 43.7563404,74.5797447 43.7563404,76.4078298 C41.0290213,78.0191489 37.9307234,78.8688511 34.7320851,78.8688511 C26.4025532,78.8688511 19.1961702,73.007234 17.3933617,65.0126809 L22.1241702,63.5933617 C23.291234,69.4881702 28.5,73.9473191 34.7323404,73.9473191 C39.6811915,73.9473191 43.9828085,71.1344681 46.1300426,67.0251064 C46.007234,67.9549787 45.9441702,68.8965957 45.9441702,69.8445957 Z M25.7080851,61.0902128 L25.7080851,56.6545532 C28.4558298,57.9234894 31.5125106,58.6325106 34.7323404,58.6325106 C37.9519149,58.6325106 41.0088511,57.923234 43.7565957,56.6548085 L43.7565957,61.0930213 C43.7565957,66.0689362 39.7085106,70.1172766 34.7323404,70.1172766 C29.7645957,70.1172766 25.7221277,66.0822128 25.7085957,61.1175319 C25.7085957,61.1083404 25.7080851,61.0991489 25.7080851,61.0902128 Z M34.7323404,54.8027234 C24.9306383,54.8027234 16.956766,46.8288511 16.956766,37.0274043 C16.956766,35.9698723 16.0994043,35.1125106 15.0418723,35.1125106 C13.6851064,35.1125106 12.5811064,34.0085106 12.5811064,32.6517447 C12.5811064,31.2949787 13.6848511,30.1909787 15.0418723,30.1909787 L19.4175319,30.1909787 C20.2417021,30.1909787 20.9734468,29.6637447 21.2341277,28.8817021 L22.9917447,23.6088511 C27.3921702,23.5095319 41.033617,22.8908936 48.7154043,19.0498723 C49.6613617,18.576766 50.0448511,17.4268085 49.5717447,16.4808511 C49.0988936,15.5348936 47.9489362,15.1514043 47.0027234,15.6245106 C38.760766,19.7453617 21.7754043,19.7979574 21.6048511,19.7979574 C20.7806809,19.7982128 20.0489362,20.3254468 19.7885106,21.1074894 L18.0372766,26.3614468 L15.0418723,26.3614468 C14.9504681,26.3614468 14.8595745,26.3645106 14.7689362,26.3683404 L14.7689362,17.3369362 C14.7689362,9.94825532 20.7801702,3.93702128 28.1688511,3.93702128 L45.6714894,3.93702128 C47.9581277,3.93702128 49.8791489,5.58510638 50.2399149,7.85540426 C50.3315745,8.43242553 50.681617,8.93591489 51.1904681,9.22289362 C53.3525106,10.4422979 54.6957447,12.7128511 54.6957447,15.1488511 L54.6957447,26.3678298 C54.6051064,26.3637447 54.5144681,26.3609362 54.4228085,26.3609362 L52.2349787,26.3609362 C51.1774468,26.3609362 50.3200851,27.2182979 50.3200851,28.2758298 C50.3200851,29.3333617 51.1774468,30.1907234 52.2349787,30.1907234 L54.4228085,30.1907234 C55.7795745,30.1907234 56.8835745,31.2944681 56.8835745,32.6514894 C56.8835745,34.0085106 55.7798298,35.1122553 54.4228085,35.1122553 C53.3652766,35.1122553 52.5079149,35.969617 52.5079149,37.0271489 C52.5079149,46.8285957 44.5340426,54.8027234 34.7323404,54.8027234 Z M47.5861277,61.0935319 L47.5861277,54.3760851 C49.4910638,52.9608511 51.156,51.2417872 52.5076596,49.2880851 L52.5076596,54.3385532 C50.363234,56.4204255 48.6916596,58.9074894 47.5725957,61.6261277 C47.58,61.4491915 47.5861277,61.272 47.5861277,61.0935319 Z M76.2250213,105.384511 C74.1168511,107.959915 70.9498723,109.498468 67.5495319,109.498468 C64.1532766,109.498468 60.9842553,107.958894 58.8753191,105.384255 L60.0957447,104.977532 C61.7737021,104.418383 62.9011915,102.854043 62.9011915,101.085447 L62.9011915,99.5591489 C64.3810213,99.9745532 65.9389787,100.201532 67.5497872,100.201532 C69.1605957,100.201532 70.7185532,99.9745532 72.198383,99.5591489 L72.198383,101.085447 C72.1981277,102.853787 73.3253617,104.418128 75.0035745,104.977277 L76.2250213,105.384511 Z M82.8645957,78.8688511 C81.8070638,78.8688511 80.9497021,79.7262128 80.9497021,80.7837447 L80.9497021,82.6876596 C80.9497021,82.7042553 80.9494468,82.7208511 80.9497021,82.7374468 L80.9497021,82.9715745 C80.9494468,90.3602553 74.9382128,96.3714894 67.5495319,96.3714894 C60.1608511,96.3714894 54.1498723,90.3602553 54.1498723,82.9715745 L54.1498723,80.7837447 C54.1498723,79.7262128 53.2925106,78.8688511 52.2349787,78.8688511 L50.0471489,78.8688511 C48.690383,78.8688511 47.586383,77.7651064 47.586383,76.4080851 C47.586383,75.5348936 48.0485106,74.7446809 48.822383,74.2942979 C48.995234,74.1937021 49.145617,74.0662979 49.2758298,73.9222979 C54.0094468,73.7851915 69.3538723,72.894383 79.4387234,67.1315745 C80.3568511,66.6068936 80.676,65.4372766 80.1513191,64.5188936 C79.6266383,63.6005106 78.4565106,63.281617 77.5386383,63.8062979 C68.7040851,68.8544681 54.8218723,69.8652766 49.7742128,70.067234 L49.7742128,69.8445957 C49.7742128,66.2831489 50.8526809,62.8340426 52.8068936,59.9262128 C52.9598298,60.1685106 53.1643404,60.3788936 53.4160851,60.534383 C53.7237447,60.7243404 54.072766,60.8203404 54.4228085,60.8203404 C54.7154043,60.8203404 55.008766,60.7531915 55.2791489,60.6181277 L67.5497872,54.4828085 L79.8204255,60.6181277 C80.0908085,60.7531915 80.3841702,60.8203404 80.676766,60.8203404 C81.0270638,60.8203404 81.3760851,60.7243404 81.6834894,60.534383 C81.9349787,60.3788936 82.1394894,60.1682553 82.2924255,59.9262128 C84.2466383,62.8340426 85.3251064,66.2831489 85.3251064,69.8445957 L85.3251064,72.6393191 C85.3251064,73.3210213 85.6874043,73.9514043 86.2769362,74.2942979 C87.0510638,74.7449362 87.5131915,75.5348936 87.5131915,76.4080851 C87.5131915,77.7648511 86.4091915,78.8688511 85.0524255,78.8688511 L82.8645957,78.8688511 L82.8645957,78.8688511 Z M98.1791489,89.808 C92.8777021,89.808 87.959234,87.1090213 85.0960851,82.697617 C88.5444255,82.6738723 91.3427234,79.8620426 91.3427234,76.4083404 C91.3427234,74.5802553 90.5259574,72.8474043 89.1548936,71.6634894 L89.1548936,69.8448511 C89.1548936,69.0740426 89.1132766,68.3075745 89.0318298,67.5482553 C91.871234,68.8794894 94.9713191,69.5716596 98.1791489,69.5716596 C100.514043,69.5716596 102.823149,69.1848511 105.015574,68.453617 L105.015574,71.2577872 C105.015574,73.8449362 106.56766,76.1377021 108.969702,77.0984681 L113.098979,78.7501277 C111.12,85.2934468 105.076596,89.808 98.1791489,89.808 Z" id="Shape"></path>
            </g>
        </g>
    </g>
</svg>