<?xml version="1.0" encoding="UTF-8"?>
<svg width="34px" height="34px" viewBox="0 0 34 34" version="1.1" xmlns="http://www.w3.org/2000/svg" xmlns:xlink="http://www.w3.org/1999/xlink">
    <!-- Generator: Sketch 54.1 (76490) - https://sketchapp.com -->
    <title>Group</title>
    <desc>Created with Sketch.</desc>
    <g id="Page-1" stroke="none" stroke-width="1" fill="none" fill-rule="evenodd">
        <g id="Tablet" transform="translate(-23.000000, -27.000000)">
            <g id="Header">
                <g id="Group" transform="translate(24.000000, 28.000000)">
                    <rect id="Rectangle" stroke="#EFEFEF" fill="#FFFFFF" x="0" y="0" width="32" height="32" rx="2"></rect>
                    <g id="Caca-/-Asset-/-Icon-/-Navigation-/-Menu" fill="#272833">
                        <path d="M5.33333333,24 L26.6666667,24 C27.4,24 28,23.4 28,22.6666667 C28,21.9333333 27.4,21.3333333 26.6666667,21.3333333 L5.33333333,21.3333333 C4.6,21.3333333 4,21.9333333 4,22.6666667 C4,23.4 4.6,24 5.33333333,24 Z M5.33333333,17.3333333 L26.6666667,17.3333333 C27.4,17.3333333 28,16.7333333 28,16 C28,15.2666667 27.4,14.6666667 26.6666667,14.6666667 L5.33333333,14.6666667 C4.6,14.6666667 4,15.2666667 4,16 C4,16.7333333 4.6,17.3333333 5.33333333,17.3333333 Z M4,9.33333333 C4,10.0666667 4.6,10.6666667 5.33333333,10.6666667 L26.6666667,10.6666667 C27.4,10.6666667 28,10.0666667 28,9.33333333 C28,8.6 27.4,8 26.6666667,8 L5.33333333,8 C4.6,8 4,8.6 4,9.33333333 Z" id="🎨-Icon-Color"></path>
                    </g>
                </g>
            </g>
        </g>
    </g>
</svg>