<?xml version="1.0" encoding="UTF-8"?>
<svg width="18px" height="18px" viewBox="0 0 18 18" version="1.1" xmlns="http://www.w3.org/2000/svg" xmlns:xlink="http://www.w3.org/1999/xlink">
    <!-- Generator: Sketch 55.2 (78181) - https://sketchapp.com -->
    <title>Caca / Asset / Icon / Object Sign / Help / Filled</title>
    <desc>Created with Sketch.</desc>
    <g id="Page-1" stroke="none" stroke-width="1" fill="none" fill-rule="evenodd" opacity="0.2">
        <g id="Desktop" transform="translate(-487.000000, -442.000000)" fill="#272833">
            <g id="Hero-Section" transform="translate(0.000000, 88.000000)">
                <g id="Content" transform="translate(162.000000, 109.000000)">
                    <g id="Form" transform="translate(0.000000, 225.000000)">
                        <g id="Textfield" transform="translate(0.000000, 1.000000)">
                            <g id="Caca-/-Asset-/-Icon-/-Object-Sign-/-Help-/-Filled" transform="translate(325.000000, 19.000000)">
                                <path d="M9,0.666666667 C4.4,0.666666667 0.666666667,4.4 0.666666667,9 C0.666666667,13.6 4.4,17.3333333 9,17.3333333 C13.6,17.3333333 17.3333333,13.6 17.3333333,9 C17.3333333,4.4 13.6,0.666666667 9,0.666666667 Z M9,14.8333333 C8.53976271,14.8333333 8.16666667,14.4602373 8.16666667,14 C8.16666667,13.5397627 8.53976271,13.1666667 9,13.1666667 C9.46023729,13.1666667 9.83333333,13.5397627 9.83333333,14 C9.83333333,14.4602373 9.46023729,14.8333333 9,14.8333333 Z M11.5583333,8.375 L10.8083333,9.14166667 C10.2083333,9.75 9.83333333,10.25 9.83333333,11.5 L8.16666667,11.5 L8.16666667,11.0833333 C8.16666667,10.1666667 8.54166667,9.33333333 9.14166667,8.725 L10.175,7.675 C10.4833333,7.375 10.6666667,6.95833333 10.6666667,6.5 C10.6666667,5.58333333 9.91666667,4.83333333 9,4.83333333 C8.08333333,4.83333333 7.33333333,5.58333333 7.33333333,6.5 L5.66666667,6.5 C5.66666667,4.65833333 7.15833333,3.16666667 9,3.16666667 C10.8416667,3.16666667 12.3333333,4.65833333 12.3333333,6.5 C12.3333333,7.23333333 12.0333333,7.9 11.5583333,8.375 Z" id="🎨-Icon-Color"></path>
                            </g>
                        </g>
                    </g>
                </g>
            </g>
        </g>
    </g>
</svg>