<?xml version="1.0" encoding="UTF-8"?>
<svg width="18px" height="17px" viewBox="0 0 18 17" version="1.1" xmlns="http://www.w3.org/2000/svg" xmlns:xlink="http://www.w3.org/1999/xlink">
    <!-- Generator: Sketch 55.2 (78181) - https://sketchapp.com -->
    <title>Caca / Asset / Icon / Action / Star / Filled</title>
    <desc>Created with Sketch.</desc>
    <g id="Page-1" stroke="none" stroke-width="1" fill="none" fill-rule="evenodd">
        <g id="Desktop" transform="translate(-165.000000, -966.000000)" fill="#FFCC3C">
            <g id="Testimonial-Section" transform="translate(0.000000, 923.000000)">
                <g id="Group-7" transform="translate(108.000000, 40.000000)">
                    <g id="Group-6">
                        <g id="Testi" transform="translate(54.000000, 0.000000)">
                            <g id="Group-4">
                                <g id="Caca-/-Asset-/-Icon-/-Action-/-Star-/-Filled">
                                    <path d="M16.15,19.78 C16.91,20.24 17.84,19.56 17.64,18.7 L16.54,13.98 L20.21,10.8 C20.88,10.22 20.52,9.12 19.64,9.05 L14.81,8.64 L12.92,4.18 C12.58,3.37 11.42,3.37 11.08,4.18 L9.19,8.63 L4.36,9.04 C3.48,9.11 3.12,10.21 3.79,10.79 L7.46,13.97 L6.36,18.69 C6.16,19.55 7.09,20.23 7.85,19.77 L12,17.27 L16.15,19.78 Z" id="🎨-Icon-Color"></path>
                                </g>
                            </g>
                        </g>
                    </g>
                </g>
            </g>
        </g>
    </g>
</svg>