<?xml version="1.0" encoding="UTF-8"?>
<svg width="120px" height="54px" viewBox="0 0 120 54" version="1.1" xmlns="http://www.w3.org/2000/svg" xmlns:xlink="http://www.w3.org/1999/xlink">
    <!-- Generator: Sketch 54.1 (76490) - https://sketchapp.com -->
    <title>Assets / Logo / LIC Provider / AIA</title>
    <desc>Created with Sketch.</desc>
    <defs>
        <polygon id="path-1" points="0.000101440112 0.0684720759 34.4893846 0.0684720759 34.4893846 27.8837313 0.000101440112 27.8837313"></polygon>
    </defs>
    <g id="Assets-/-Logo-/-LIC-Provider-/-AIA" stroke="none" stroke-width="1" fill="none" fill-rule="evenodd">
        <g id="Group-12" transform="translate(42.000000, 8.000000)">
            <polygon id="Fill-1" fill="#D31046" points="16.1081826 36.9571689 18.3543203 36.9571689 18.3543203 25.789627 16.1081826 25.789627"></polygon>
            <g id="Group-11" transform="translate(0.000000, 0.185128)">
                <path d="M8.98521012,30.2963068 C8.38975666,29.9818425 7.73369273,29.4850396 7.56834535,29.2603497 L10.4969214,26.6472524 C10.6224535,26.5371899 10.8260946,26.4740434 11.0185772,26.5805555 C11.2108062,26.686814 11.2683734,26.8904551 11.243267,27.0558025 L10.6206783,30.9308148 C10.342986,30.9128091 9.57077316,30.6282696 8.98521012,30.2963068 M12.0355143,24.7219191 C11.6508027,24.5111772 10.5050366,23.9413374 9.17515673,25.1005443 L2.0208392,31.1382598 L3.83357401,32.5774414 L6.05283007,30.6067136 C7.09462002,31.6015875 7.74409034,31.9119942 8.02051465,32.0588288 C8.29313495,32.2125106 8.90481883,32.5921502 10.3041852,32.9332426 L9.84060386,35.8646082 L12.0299351,36.6152651 L13.2586285,27.3347628 C13.5178079,25.5899928 12.4202259,24.9324073 12.0355143,24.7219191" id="Fill-2" fill="#D31046"></path>
                <path d="M23.8060924,30.9308148 L23.1835037,27.0558025 C23.1583973,26.8904551 23.2159645,26.686814 23.4084471,26.5805555 C23.6006762,26.4740434 23.8043172,26.5371899 23.9298493,26.6472524 L26.8584254,29.2603497 C26.693078,29.4850396 26.037014,29.9818425 25.4415606,30.2963068 C24.8562511,30.6282696 24.0840383,30.9128091 23.8060924,30.9308148 M21.1683959,27.3347628 L22.3968356,36.6152651 L24.5861668,35.8646082 L24.1225855,32.9332426 C25.5222055,32.5921502 26.1336358,32.2125106 26.4062561,32.0588288 C26.6826804,31.9119942 27.3321507,31.6018411 28.3739406,30.6067136 L30.5934503,32.5774414 L32.4059315,31.1382598 L25.251614,25.1005443 C23.9217341,23.9413374 22.775968,24.5114308 22.3912564,24.7219191 C22.0065448,24.9324073 20.9089628,25.5899928 21.1683959,27.3347628" id="Fill-4" fill="#D31046"></path>
                <path d="M13.67362,14.9460594 C13.1187425,14.7875592 12.7015701,14.7558591 12.4056185,14.6924591 C12.109667,14.629059 12.5532139,14.4386052 12.7013165,14.4175564 C12.849419,14.3965076 13.9906203,14.037156 14.3920695,13.7625068 C14.7935188,13.4878577 16.1462227,12.7270569 16.3364229,12.4311054 C16.5266231,12.1351538 17.181419,12.3043052 17.2661215,12.3043052 C17.2661215,12.3043052 17.3082192,12.409803 17.1393214,12.5789543 C16.9704236,12.7481057 16.9704236,12.9380523 16.9070235,13.149555 C16.8436235,13.3610576 16.7168233,13.530209 16.4842719,13.678058 C16.2517204,13.8259069 15.4485683,14.3118051 15.5543196,14.988157 C15.660071,15.664509 16.3153741,16.467661 16.7168233,16.6789101 C17.1182726,16.8901591 18.6525543,18.0805588 18.914777,18.3273119 C19.273875,18.6653611 19.5064264,19.2993618 19.7389779,19.9967626 C19.9712757,20.6941633 20.7110277,21.0324661 21.2182283,21.0324661 C21.7254289,21.0324661 22.528581,21.0111637 22.8455813,21.4973154 C22.8455813,21.4973154 22.7611324,21.5817643 22.5496298,21.5607155 C22.3383808,21.5396667 21.5352287,21.8145694 21.3239796,21.9200671 C21.112477,22.0255648 20.3306273,22.0679161 19.6755778,22.004516 C19.0202747,21.9411159 18.5554254,21.9408623 18.3018251,22.215765 C18.0482248,22.4906677 17.8156733,22.6806143 17.3718728,22.7229656 C16.9280724,22.7653168 14.3497183,22.6174679 13.8214689,22.3215163 C13.2128282,21.980424 14.3710207,21.9621647 14.5612209,21.8987647 C14.7514211,21.8353646 16.0828226,21.6241156 16.463223,21.4339153 C16.7710938,21.2802336 17.6254731,20.229314 18.027176,20.1025139 C18.4286252,19.9757137 18.386274,19.3204106 18.0058736,19.1091616 C17.6254731,18.8979125 17.4565753,19.2570105 17.1606238,18.8555613 C16.8646723,18.454112 17.1393214,18.2849607 16.8646723,17.8835114 C16.5900232,17.4820622 15.6390221,16.8059638 15.2162705,16.2140608 C14.7935188,15.6221577 14.1174204,15.0728595 13.67362,14.9460594" id="Fill-6" fill="#D31046"></path>
                <g id="Group-10">
                    <mask id="mask-2" fill="white">
                        <use xlink:href="#path-1"></use>
                    </mask>
                    <g id="Clip-9"></g>
                    <path d="M31.0980895,17.0382617 C30.685989,16.7212613 29.6081878,15.4532599 29.0692872,15.2947597 C28.5303867,15.1362596 26.9770849,14.0901584 26.5015844,13.8682582 C26.0260839,13.6463579 25.4554832,12.8855571 25.3603831,12.5051567 C25.265283,12.1247562 24.3776821,10.9201549 23.9021815,10.8250548 C23.426681,10.7299547 21.2710786,9.77895364 20.9540783,9.65215349 C20.6370779,9.52535335 19.5275767,8.82795258 19.0520762,8.44755216 C18.5765756,8.06715174 18.0850983,8.0354517 17.9265981,8.09885177 C17.7680979,8.16225184 17.2768742,9.04985283 17.086674,9.33515314 C16.8964738,9.62045346 15.0578717,10.7616547 14.8359715,10.8250548 C14.6140712,10.8884549 14.0117706,11.2688553 13.6947702,11.5541556 C13.294589,11.9140144 13.1875697,12.4100566 12.6803691,12.7270569 C12.2041078,13.0247836 10.0492662,14.5022589 9.66886575,14.7558591 C9.28846533,15.0094594 8.68616466,15.8653604 8.24236417,15.8336603 C7.79856368,15.8019603 6.24526196,15.1362596 5.89656157,14.7558591 C5.54786119,14.3754587 4.85046041,14.0267583 4.85046041,14.0267583 C4.13226442,14.0267583 1.84783309,16.1734847 0.881869617,17.113581 C1.28458686,8.67072041 8.45538841,1.94498736 17.2446669,1.94498736 C25.8186388,1.94498736 32.849453,8.34585845 33.5630842,16.4963179 C32.9209683,17.5862919 31.4952275,17.34385 31.0980895,17.0382617 M17.2446669,0.0683452757 C7.72070839,0.0683452757 0.000101440112,7.78895223 0.000101440112,17.3126572 C0.000101440112,21.2792192 1.34240773,24.9300488 3.59311022,27.8434089 L4.14646603,27.422686 C2.86451661,25.7671834 1.90768275,23.86087 1.36675335,21.7935205 C1.37005016,21.5711131 1.84834029,21.6687492 2.12425739,21.7298669 C2.40955771,21.7932669 4.37495989,22.4272677 5.13576073,22.3004675 C5.89656157,22.1736674 6.94266273,21.824967 7.70346358,21.4762666 C8.46426442,21.1275662 9.44696551,21.0641661 9.76396586,21.0958662 C10.0809662,21.1275662 9.60546568,20.7471658 9.32016537,20.6203656 C9.03486505,20.4935655 8.27406421,20.6203656 7.48156333,20.6203656 C6.68906245,20.6203656 8.93976495,18.3379631 9.12996516,18.211163 C9.32016537,18.0843628 9.51036558,17.9575627 9.2567653,17.9575627 C9.00316502,17.9575627 7.51326336,18.7817636 7.0060628,18.9402638 C6.49886224,19.098764 5.42106105,19.0670639 4.85046041,19.098764 C4.27985978,19.130464 2.88505824,20.049765 2.47295778,20.2399652 C2.06085732,20.4301654 1.12557949,20.6797081 1.12557949,20.6797081 C1.12557949,20.6797081 1.33150292,17.9258627 2.25105753,16.6261612 C3.17035855,15.3264598 4.43835996,14.0267583 4.91386048,14.2486586 C5.38936101,14.4705588 4.91386048,14.9143593 5.13576073,15.1362596 C5.35766098,15.3581598 5.67466133,15.3264598 5.67466133,15.8336603 C5.67466133,16.3408609 5.80146147,16.5944612 5.13576073,17.323562 C4.47005999,18.0526628 4.24815975,18.5598634 4.88216045,18.3379631 C5.51616115,18.1160629 7.03776284,17.6405623 7.44986329,17.5137622 C7.86196375,17.3869621 8.7178647,16.467661 9.19336523,16.2140608 C9.66886575,15.9604605 11.8244681,13.7731581 12.2682686,13.5512578 C12.7120691,13.3293576 13.50457,12.7270569 13.7264702,12.3783565 C13.9483705,12.0296561 14.4872711,11.3005553 14.9627716,11.046955 C15.4382721,10.7933548 16.9598738,9.87405374 17.2451741,9.43025325 C17.5304745,8.98645276 17.9108749,8.22565191 18.1010751,8.25735195 C18.2912753,8.28905198 18.8618759,8.5743523 19.1154762,8.85965262 C19.3690765,9.14495293 19.3056764,9.46195328 19.4641766,9.71555357 C19.6226768,9.96915385 19.9713772,10.3495543 20.4468777,10.5080544 C20.9223782,10.6665546 22.2220797,11.6809557 21.9367793,11.8077559 C21.7032135,11.9114784 20.8272781,11.2688553 20.4468777,11.2371553 C20.0664773,11.2054552 19.812877,11.2371553 19.9079771,11.4590555 C20.0030772,11.6809557 21.1125784,12.6319568 21.3661787,12.9806572 C21.619779,13.3293576 21.619779,14.1535585 21.8416792,14.8192592 C22.0635795,15.48496 22.57078,15.54836 22.6341801,16.5944612 C22.6975802,17.6405623 23.6168812,18.6232634 23.9972816,18.9402638 C24.3776821,19.2572641 24.9165826,19.7327647 25.233583,19.7644647 C25.5505834,19.7961647 25.4871833,19.5742645 25.9943838,19.7644647 C26.5015844,19.9546649 26.4064843,19.7644647 26.1845841,19.3523642 C25.9626838,18.9402638 26.4064843,18.8134636 26.4064843,18.8134636 C27.5159855,18.7500636 27.959786,19.9546649 27.928086,20.969066 C27.896386,21.9834672 27.1989852,21.7298669 26.8185848,22.5223678 C26.4381843,23.3148686 26.8185848,23.0929684 27.008785,22.9344682 C27.1989852,22.775968 28.5303867,22.8076681 29.1960874,22.744268 C29.8617881,22.6808679 30.4323888,21.824967 30.685989,21.6030667 C30.9395893,21.3811665 31.1614896,21.3811665 31.3833898,21.5079666 C31.6052901,21.6347668 31.3516898,22.3321675 31.4784899,22.4272677 C31.6052901,22.5223678 32.3026908,22.0151672 32.5562911,21.824967 C32.8098914,21.6347668 33.1585918,21.6347668 33.1585918,21.6347668 C33.1608742,21.6296948 33.1626494,21.6248764 33.1646782,21.6198044 C32.6283136,23.7705883 31.6443445,25.7514601 30.3109142,27.4622476 L30.8647772,27.8837313 C33.1342462,24.9635241 34.4894861,21.2974784 34.4894861,17.3126572 C34.4894861,7.78895223 26.7688791,0.0683452757 17.2446669,0.0683452757" id="Fill-8" fill="#D31046" mask="url(#mask-2)"></path>
                </g>
            </g>
        </g>
    </g>
</svg>