<?xml version="1.0" encoding="UTF-8"?>
<svg width="181px" height="56px" viewBox="0 0 181 56" version="1.1" xmlns="http://www.w3.org/2000/svg" xmlns:xlink="http://www.w3.org/1999/xlink">
    <!-- Generator: Sketch 54.1 (76490) - https://sketchapp.com -->
    <title>Logo</title>
    <desc>Created with Sketch.</desc>
    <defs>
        <linearGradient x1="50.002807%" y1="-232.622222%" x2="50.002807%" y2="-1695.79911%" id="linearGradient-1">
            <stop stop-color="#087B3E" offset="0%"></stop>
            <stop stop-color="#398941" offset="27%"></stop>
            <stop stop-color="#7FB547" offset="83%"></stop>
            <stop stop-color="#95C949" offset="100%"></stop>
        </linearGradient>
        <linearGradient x1="50.0091228%" y1="-33.2017673%" x2="50.0091228%" y2="-1487.881%" id="linearGradient-2">
            <stop stop-color="#087B3E" offset="0%"></stop>
            <stop stop-color="#398941" offset="27%"></stop>
            <stop stop-color="#7FB547" offset="83%"></stop>
            <stop stop-color="#95C949" offset="100%"></stop>
        </linearGradient>
        <linearGradient x1="50.0015329%" y1="201.847803%" x2="50.0015329%" y2="25.4038585%" id="linearGradient-3">
            <stop stop-color="#087B3E" offset="0%"></stop>
            <stop stop-color="#398941" offset="27%"></stop>
            <stop stop-color="#7FB547" offset="83%"></stop>
            <stop stop-color="#95C949" offset="100%"></stop>
        </linearGradient>
        <linearGradient x1="50.0197014%" y1="405.028986%" x2="50.0197014%" y2="106.793478%" id="linearGradient-4">
            <stop stop-color="#087B3E" offset="0%"></stop>
            <stop stop-color="#398941" offset="27%"></stop>
            <stop stop-color="#7FB547" offset="83%"></stop>
            <stop stop-color="#95C949" offset="100%"></stop>
        </linearGradient>
        <linearGradient x1="50.000461%" y1="73.9954442%" x2="50.000461%" y2="-9.33869906%" id="linearGradient-5">
            <stop stop-color="#087B3E" offset="0%"></stop>
            <stop stop-color="#398941" offset="27%"></stop>
            <stop stop-color="#7FB547" offset="83%"></stop>
            <stop stop-color="#95C949" offset="100%"></stop>
        </linearGradient>
        <linearGradient x1="49.993511%" y1="113.982355%" x2="49.993511%" y2="-12.3116226%" id="linearGradient-6">
            <stop stop-color="#087B3E" offset="0%"></stop>
            <stop stop-color="#398941" offset="27%"></stop>
            <stop stop-color="#7FB547" offset="83%"></stop>
            <stop stop-color="#95C949" offset="100%"></stop>
        </linearGradient>
    </defs>
    <g id="Symbols" stroke="none" stroke-width="1" fill="none" fill-rule="evenodd">
        <g id="Sections-/-Header-/-Desktop-/-LIC" transform="translate(-162.000000, -16.000000)">
            <g id="Assets-/-Logo-/-LIC" transform="translate(162.000000, 16.000000)">
                <g id="LIC-logo-01-3" transform="translate(0.000000, 0.583333)">
                    <polygon id="Path" fill="#414042" fill-rule="nonzero" points="61.8281341 27.5878623 61.8281341 30.0274004 53.1843388 30.0274004 53.1843388 14.787817 55.8949366 14.787817 55.8949366 27.5878623"></polygon>
                    <path d="M65.0808514,17.7393569 C64.2977899,17.7393569 63.6351993,17.0767663 63.6351993,16.2937047 C63.6351993,15.5106431 64.2977899,14.8480525 65.0808514,14.8480525 C65.863913,14.8480525 66.5265036,15.5106431 66.5265036,16.2937047 C66.5566214,17.0466486 65.863913,17.7393569 65.0808514,17.7393569 Z M63.8460236,20.8716033 L66.3156793,20.8716033 L66.3156793,30.0876359 L63.8460236,30.0876359 L63.8460236,20.8716033 Z" id="Shape" fill="#414042" fill-rule="nonzero"></path>
                    <path d="M68.1227446,20.8716033 L69.5683967,20.8716033 L69.5683967,17.5887681 C69.5683967,15.4504076 71.1345199,13.8842844 73.0620562,13.8842844 C74.2968841,13.8842844 75.0799457,14.4565217 75.0799457,14.4565217 L74.2968841,16.5948822 C74.2968841,16.5948822 73.8451178,16.1431159 73.2728804,16.1431159 C72.6102899,16.1431159 72.0380525,16.7153533 72.0380525,17.5887681 L72.0380525,20.8414855 L74.4173551,20.8414855 L74.4173551,23.0701993 L72.0380525,23.0701993 L72.0380525,30.0274004 L69.5985145,30.0274004 L69.5985145,23.0701993 L68.1528623,23.0701993 L68.1227446,20.8716033 L68.1227446,20.8716033 Z" id="Path" fill="#414042" fill-rule="nonzero"></path>
                    <path d="M78.332663,26.3831522 C78.6639583,27.4071558 79.5674909,28.2805707 80.7119656,28.2805707 C82.2780888,28.2805707 82.9406793,26.9252717 82.9406793,26.9252717 L85.0790399,28.0396286 C85.0790399,28.0396286 83.844212,30.5092844 80.7119656,30.5092844 C77.9110145,30.5092844 75.652183,28.2805707 75.652183,25.4495018 C75.652183,22.6485507 77.8808967,20.3897192 80.7119656,20.3897192 C83.4225634,20.3897192 85.5308062,22.618433 85.5308062,25.3290308 L84.5068025,26.3530344 L78.332663,26.3831522 Z M78.4531341,24.3351449 L82.9406793,24.3351449 C82.488913,23.3111413 81.8263225,22.6485507 80.7119656,22.6485507 C79.5976087,22.6485507 78.8747826,23.3111413 78.4531341,24.3351449 Z" id="Shape" fill="#414042" fill-rule="nonzero"></path>
                    <rect id="Rectangle" fill="#414042" x="92.5482428" y="14.787817" width="2.71059783" height="15.2697011"></rect>
                    <path d="M98.6019112,20.8716033 L101.071567,20.8716033 L101.071567,21.7751359 L101.312509,21.7751359 C101.312509,21.7751359 102.095571,20.419837 103.902636,20.419837 C105.800054,20.419837 107.60712,22.2269022 107.60712,24.4556159 L107.60712,30.0876359 L105.107346,30.0876359 L105.107346,24.4556159 C105.107346,23.4316123 104.324284,22.6485507 103.209928,22.6485507 C102.095571,22.6485507 101.071567,23.6725543 101.071567,24.5459692 L101.071567,30.0274004 L98.6019112,30.0274004 L98.6019112,20.8716033 L98.6019112,20.8716033 Z" id="Path" fill="#414042" fill-rule="nonzero"></path>
                    <path d="M114.44385,27.256567 C114.44385,26.0217391 109.74548,26.6843297 109.74548,23.220788 C109.74548,21.8654891 111.191132,20.419837 113.329493,20.419837 C115.799149,20.419837 117.033976,21.9859601 117.033976,21.9859601 L115.347382,23.5520833 C115.347382,23.5520833 114.684792,22.6485507 113.540317,22.6485507 C112.757255,22.6485507 112.42596,22.979846 112.42596,23.4316123 C112.42596,24.6664402 117.12433,24.0038496 117.12433,27.4673913 C117.12433,29.0335145 115.678678,30.4791667 113.299375,30.4791667 C110.588777,30.4791667 109.143125,28.6721014 109.143125,28.6721014 L110.829719,27.1059783 C110.829719,27.1059783 111.733252,28.2203351 113.058433,28.2203351 C113.992083,28.2504529 114.44385,27.7986866 114.44385,27.256567 L114.44385,27.256567 Z" id="Path" fill="#414042" fill-rule="nonzero"></path>
                    <path d="M128.237781,30.0274004 L125.768125,30.0274004 L125.768125,29.1238678 L125.527183,29.1238678 C125.527183,29.1238678 124.744121,30.4791667 122.937056,30.4791667 C121.039638,30.4791667 119.232572,28.6721014 119.232572,26.4433877 L119.232572,20.78125 L121.702228,20.78125 L121.702228,26.4132699 C121.702228,27.4372736 122.48529,28.2203351 123.599647,28.2203351 C124.714004,28.2203351 125.738007,27.1963315 125.738007,26.3229167 L125.738007,20.8716033 L128.207663,20.8716033 L128.237781,30.0274004 L128.237781,30.0274004 Z" id="Path" fill="#414042" fill-rule="nonzero"></path>
                    <path d="M133.628859,24.8772645 L133.628859,30.0274004 L131.159203,30.0274004 L131.159203,20.8113678 L133.628859,20.8113678 L133.628859,21.7149004 L133.869801,21.7149004 C133.869801,21.7149004 134.652862,20.3596014 136.249103,20.3596014 C136.821341,20.3596014 137.273107,20.6005435 137.273107,20.6005435 L136.821341,22.979846 C136.821341,22.979846 136.369574,22.738904 135.797337,22.738904 C134.652862,22.7690217 133.628859,23.7930254 133.628859,24.8772645 L133.628859,24.8772645 Z" id="Path" fill="#414042" fill-rule="nonzero"></path>
                    <path d="M146.428904,24.6664402 L146.428904,30.0575181 L143.959248,30.0575181 L143.959248,29.1539855 L143.718306,29.1539855 C143.718306,29.1539855 142.935245,30.5092844 141.128179,30.5092844 C139.11029,30.5092844 137.785109,29.1539855 137.785109,27.3469203 C137.785109,25.5097373 139.230761,24.1845562 141.610063,24.1845562 C142.965362,24.1845562 143.989366,24.6363225 143.989366,24.6363225 C143.989366,23.5219656 143.085833,22.618433 142.091947,22.618433 C140.977591,22.618433 140.194529,23.4014946 140.194529,23.4014946 L138.748877,21.7149004 C138.748877,21.7149004 139.863234,20.3596014 142.091947,20.3596014 C144.531486,20.419837 146.428904,22.3172554 146.428904,24.6664402 L146.428904,24.6664402 Z M141.579946,26.4735054 C140.796884,26.4735054 140.345118,26.9252717 140.345118,27.377038 C140.345118,27.8288043 140.796884,28.2805707 141.79077,28.2805707 C143.477364,28.2805707 143.92913,26.5939764 143.92913,26.5939764 C143.92913,26.5939764 142.935245,26.4735054 141.579946,26.4735054 Z" id="Shape" fill="#414042" fill-rule="nonzero"></path>
                    <path d="M149.109384,20.8716033 L151.57904,20.8716033 L151.57904,21.7751359 L151.819982,21.7751359 C151.819982,21.7751359 152.603043,20.419837 154.410109,20.419837 C156.307527,20.419837 158.114592,22.2269022 158.114592,24.4556159 L158.114592,30.0876359 L155.644937,30.0876359 L155.644937,24.4556159 C155.644937,23.4316123 154.861875,22.6485507 153.747518,22.6485507 C152.633161,22.6485507 151.609158,23.6725543 151.609158,24.5459692 L151.609158,30.0274004 L149.139502,30.0274004 L149.109384,20.8716033 L149.109384,20.8716033 Z" id="Path" fill="#414042" fill-rule="nonzero"></path>
                    <path d="M167.420978,26.6843297 L169.559339,27.7986866 C169.559339,27.7986866 168.324511,30.5092844 165.192264,30.5092844 C162.391313,30.5092844 160.132482,28.2805707 160.132482,25.4495018 C160.132482,22.618433 162.361196,20.3897192 165.192264,20.3897192 C168.20404,20.3897192 169.468986,22.859375 169.468986,22.859375 L167.330625,23.9737319 C167.330625,23.9737319 166.668034,22.618433 165.192264,22.618433 C163.957437,22.618433 162.722609,23.8532609 162.722609,25.4193841 C162.722609,26.9855072 163.957437,28.2203351 165.192264,28.2203351 C166.758388,28.2504529 167.420978,26.6843297 167.420978,26.6843297 Z" id="Path" fill="#414042" fill-rule="nonzero"></path>
                    <path d="M173.504764,26.3831522 C173.83606,27.4071558 174.739592,28.2805707 175.884067,28.2805707 C177.45019,28.2805707 178.112781,26.9252717 178.112781,26.9252717 L180.251141,28.0396286 C180.251141,28.0396286 179.016313,30.5092844 175.884067,30.5092844 C173.083116,30.5092844 170.824284,28.2805707 170.824284,25.4495018 C170.824284,22.6485507 173.052998,20.3897192 175.884067,20.3897192 C178.594665,20.3897192 180.702908,22.618433 180.702908,25.3290308 L179.678904,26.3530344 L173.504764,26.3831522 Z M173.595118,24.3351449 L178.082663,24.3351449 C177.630897,23.3111413 176.968306,22.6485507 175.853949,22.6485507 C174.709475,22.6786685 174.046884,23.3111413 173.595118,24.3351449 Z" id="Shape" fill="#414042" fill-rule="nonzero"></path>
                    <path d="M59.509067,36.6834239 L58.8163587,37.1351902 C58.8163587,37.1351902 57.8827083,35.6293025 56.1961141,35.6293025 C54.4191667,35.6293025 52.8229257,37.2556612 52.8229257,39.2735507 C52.8229257,41.2914402 54.4492844,42.9177989 56.1961141,42.9177989 C58.1537681,42.9177989 59.0874185,41.1408514 59.0874185,41.1408514 L59.7801268,41.5926178 C59.7801268,41.5926178 58.6657699,43.7309783 56.1961141,43.7309783 C53.9372826,43.7309783 51.9193931,41.7130888 51.9193931,39.243433 C51.9193931,36.7737772 53.9372826,34.7558877 56.1961141,34.7558877 C58.3947101,34.8462409 59.509067,36.6834239 59.509067,36.6834239 L59.509067,36.6834239 Z" id="Path" fill="#414042" fill-rule="nonzero"></path>
                    <path d="M66.1650906,34.8462409 C68.4239221,34.8462409 70.4418116,36.8641304 70.4418116,39.3337862 C70.4418116,41.803442 68.4239221,43.8213315 66.1650906,43.8213315 C63.9062591,43.8213315 61.8883696,41.803442 61.8883696,39.3337862 C61.8883696,36.8641304 63.9062591,34.8462409 66.1650906,34.8462409 Z M66.1650906,35.6293025 C64.3881431,35.6293025 62.7919022,37.2556612 62.7919022,39.2735507 C62.7919022,41.2914402 64.4182609,42.9177989 66.1650906,42.9177989 C67.9119203,42.9177989 69.538279,41.2914402 69.538279,39.2735507 C69.538279,37.2556612 67.942038,35.6293025 66.1650906,35.6293025 Z" id="Shape" fill="#414042" fill-rule="nonzero"></path>
                    <polygon id="Path" fill="#414042" fill-rule="nonzero" points="81.2540851 34.8462409 81.2540851 43.520154 80.4409058 43.520154 80.4409058 37.1351902 80.3806703 37.1351902 77.4291304 41.2613225 74.4775906 37.1351902 74.4173551 37.1351902 74.4173551 43.520154 73.6041757 43.520154 73.6041757 34.8462409 73.7848822 34.8462409 77.4291304 39.845788 81.0733786 34.8462409 81.2540851 34.8462409"></polygon>
                    <path d="M86.9764583,40.8697917 L85.8621014,40.8697917 L85.8621014,43.4900362 L85.0489221,43.4900362 L85.0489221,35.0570652 L87.0065761,35.0570652 C89.0244656,35.0570652 90.3496467,36.3822464 90.3496467,37.9483696 C90.319529,39.5446105 88.9943478,40.8697917 86.9764583,40.8697917 L86.9764583,40.8697917 Z M86.9764583,40.0566123 C88.482346,40.0566123 89.4159964,39.122962 89.4159964,37.9784873 C89.4159964,36.8641304 88.482346,35.9003623 86.9764583,35.9003623 L85.8621014,35.9003623 L85.8621014,40.0264946 L86.9764583,40.0566123 L86.9764583,40.0566123 Z" id="Shape" fill="#414042" fill-rule="nonzero"></path>
                    <path d="M98.7525,43.520154 L97.8790851,43.520154 L97.3068478,41.9540308 L93.3614221,41.9540308 L92.7891848,43.520154 L91.9157699,43.520154 L95.2889583,34.6052989 L95.3491938,34.6052989 L98.7525,43.520154 L98.7525,43.520154 Z M93.6625996,41.1107337 L97.0056703,41.1107337 L95.3793116,36.6231884 L95.3190761,36.6231884 L93.6625996,41.1107337 L93.6625996,41.1107337 Z" id="Shape" fill="#414042" fill-rule="nonzero"></path>
                    <path d="M107.546884,43.520154 L106.52288,43.520154 L104.565226,40.1469656 L102.426866,40.1469656 L102.426866,43.520154 L101.613687,43.520154 L101.613687,35.087183 L104.143578,35.087183 C105.950643,35.087183 107.095118,36.2015399 107.095118,37.6170743 C107.095118,39.4241395 105.408524,39.8759058 105.408524,39.8759058 L105.408524,39.9361413 L107.546884,43.520154 Z M104.173696,39.3036685 C105.498877,39.3036685 106.251821,38.5507246 106.251821,37.6170743 C106.251821,36.6834239 105.498877,35.9304801 104.173696,35.9304801 L102.487101,35.9304801 L102.487101,39.3036685 L104.173696,39.3036685 Z" id="Shape" fill="#414042" fill-rule="nonzero"></path>
                    <rect id="Rectangle" fill="#414042" x="110.438188" y="35.087183" width="1" height="8.43297101"></rect>
                    <path d="M119.714457,36.2316576 L119.021748,36.6834239 C119.021748,36.6834239 118.389275,35.6594203 117.335154,35.6594203 C116.281033,35.6594203 115.64856,36.2918931 115.64856,37.1050725 C115.64856,39.0627264 119.865045,38.4904891 119.865045,41.2312047 C119.865045,42.5563859 118.660335,43.761096 117.033976,43.761096 C115.016087,43.761096 114.202908,41.9841486 114.202908,41.9841486 L114.895616,41.5323822 C114.895616,41.5323822 115.528089,42.9177989 117.033976,42.9177989 C118.238687,42.9177989 118.99163,42.1648551 118.99163,41.2312047 C118.99163,39.1530797 114.775145,39.725317 114.775145,37.1050725 C114.775145,35.9907156 115.91962,34.8462409 117.365272,34.8462409 C118.871159,34.8462409 119.714457,36.2316576 119.714457,36.2316576 Z" id="Path" fill="#414042" fill-rule="nonzero"></path>
                    <path d="M126.460833,34.8462409 C128.719665,34.8462409 130.737554,36.8641304 130.737554,39.3337862 C130.737554,41.803442 128.719665,43.8213315 126.460833,43.8213315 C124.202002,43.8213315 122.184112,41.803442 122.184112,39.3337862 C122.184112,36.8641304 124.23212,34.8462409 126.460833,34.8462409 Z M126.460833,35.6293025 C124.683886,35.6293025 123.087645,37.2556612 123.087645,39.2735507 C123.087645,41.2914402 124.714004,42.9177989 126.460833,42.9177989 C128.237781,42.9177989 129.834022,41.2914402 129.834022,39.2735507 C129.864139,37.285779 128.237781,35.6293025 126.460833,35.6293025 Z" id="Shape" fill="#414042" fill-rule="nonzero"></path>
                    <polygon id="Path" fill="#414042" fill-rule="nonzero" points="139.562056 43.761096 134.773333 37.1351902 134.713098 37.1351902 134.713098 43.520154 133.899918 43.520154 133.899918 34.8462409 134.080625 34.8462409 138.869348 41.442029 138.929583 41.442029 138.929583 35.087183 139.742763 35.087183 139.742763 43.761096"></polygon>
                    <path d="M23.2472917,50.1460598 L23.2472917,52.4048913 L28.9696649,52.4048913 C28.9696649,52.4048913 28.6684873,50.1460598 26.7710688,50.1460598 C25.5362409,50.1460598 23.2472917,50.1460598 23.2472917,50.1460598 Z" id="Path" fill="url(#linearGradient-1)" fill-rule="nonzero"></path>
                    <path d="M23.2472917,45.6585145 L23.2472917,47.917346 L28.9696649,47.917346 C28.9696649,47.917346 28.4877808,45.71875 26.0783605,45.6585145 C25.1145924,45.6283967 23.2472917,45.6585145 23.2472917,45.6585145 L23.2472917,45.6585145 Z" id="Path" fill="url(#linearGradient-2)" fill-rule="nonzero"></path>
                    <path d="M15.5371467,23.1906703 C17.344212,24.9977355 18.7898641,25.8109149 20.2355163,25.8109149 C21.4703442,25.8109149 22.7051721,25.178442 23.9701178,23.9436141 L29.7828442,18.1308877 C35.8063949,12.107337 33.6981522,9.72803442 32.011558,7.77038043 L31.4092029,7.0776721 L31.0176721,7.4692029 C30.9574366,7.52943841 25.8073007,12.7398098 22.2835236,16.2033514 L22.0124638,16.4744112 C21.4101087,17.0767663 20.7475181,17.7694746 20.024692,17.7694746 C19.6331612,17.7694746 19.2416304,17.5586504 18.8199819,17.1370018 L9.45336051,7.77038043 L9.09194746,8.13179348 C8.33900362,8.85461957 7.07405797,10.0593297 7.07405797,12.0169837 C7.04394022,13.8541667 8.1582971,15.8720562 10.4171286,18.1610054 L15.5371467,23.1906703 Z" id="Path" fill="url(#linearGradient-3)" fill-rule="nonzero"></path>
                    <path d="M25.7470652,1.74682971 C25.2651812,0.572237319 24.7832971,0 24.301413,0 L24.0002355,0 L16.3804438,7.52943841 L19.9343388,11.0833333 L25.2350634,5.7826087 C26.259067,4.87907609 26.4397736,3.43342391 25.7470652,1.74682971 Z" id="Path" fill="url(#linearGradient-4)" fill-rule="nonzero"></path>
                    <path d="M2.28533514,15.6913496 L2.13474638,15.5407609 L1.9239221,15.5407609 C1.35168478,15.5407609 0.598740942,17.0165308 0.448152174,17.3779438 C-0.184320652,18.9139493 -0.696322464,22.0160779 2.94792572,25.6302083 L16.4406793,39.1831975 C16.4707971,40.7192029 16.5912681,46.9535779 16.4406793,51.5314764 C16.3503261,53.8806612 18.7898641,54.9046649 20.0849275,55.1154891 L20.6872826,55.2058424 L20.6571649,33.9427083 L2.28533514,15.6913496 Z" id="Path" fill="url(#linearGradient-5)" fill-rule="nonzero"></path>
                    <path d="M40.444529,16.865942 C40.444529,16.8358243 39.6313496,15.0588768 38.9988768,15.0588768 L38.7880525,15.0588768 L23.9098822,29.9370471 L23.9098822,41.2312047 C23.9098822,38.6109601 25.8073007,37.7375453 27.6143659,35.5991848 C27.6746014,35.5088315 34.7823913,28.4612772 37.9146377,25.298913 C41.5890036,21.5643116 41.0468841,18.4019475 40.444529,16.865942 Z" id="Path" fill="url(#linearGradient-6)" fill-rule="nonzero"></path>
                </g>
            </g>
        </g>
    </g>
</svg>