<?xml version="1.0" encoding="UTF-8"?>
<svg width="120px" height="54px" viewBox="0 0 120 54" version="1.1" xmlns="http://www.w3.org/2000/svg" xmlns:xlink="http://www.w3.org/1999/xlink">
    <!-- Generator: Sketch 54.1 (76490) - https://sketchapp.com -->
    <title>Assets / Logo / LIC Provider / TAL</title>
    <desc>Created with Sketch.</desc>
    <g id="Assets-/-Logo-/-LIC-Provider-/-TAL" stroke="none" stroke-width="1" fill="none" fill-rule="evenodd">
        <g id="logo-primary" transform="translate(23.000000, 13.000000)" fill="#80C342" fill-rule="nonzero">
            <path d="M49.7795455,23.5916667 L39.1689394,0 L31.4931818,0 L19.4151515,27.0909091 L27.7681818,27.0909091 L35.3310606,8.80454545 L38.4916667,16.480303 L34.0893939,16.480303 L31.7189394,22.2371212 L40.8621212,22.2371212 L42.8939394,27.0909091 L47.4090909,27.0909091 C48.8765152,27.0909091 50.005303,25.9621212 50.005303,24.6075758 C50.005303,24.2689394 49.8924242,24.0431818 49.7795455,23.7045455 L49.7795455,23.5916667 L49.7795455,23.5916667 Z M25.2848485,5.19242424 L27.5424242,0.112878788 L0,0.112878788 L0,6.77272727 L8.57878788,6.77272727 L8.57878788,27.0909091 L16.480303,27.0909091 L16.480303,6.77272727 L22.9143939,6.77272727 C23.930303,6.77272727 24.9462121,6.09545455 25.2848485,5.19242424 Z M59.6,20.5439394 L59.6,0.225757576 L51.6984848,0.225757576 L51.6984848,27.0909091 L68.7431818,27.0909091 C69.8719697,27.0909091 70.775,26.4136364 71.2265152,25.6234848 L73.4840909,20.6568182 L59.6,20.6568182 L59.6,20.5439394 Z" id="Shape"></path>
        </g>
    </g>
</svg>