<?xml version="1.0" encoding="UTF-8"?>
<svg width="17px" height="20px" viewBox="0 0 17 20" version="1.1" xmlns="http://www.w3.org/2000/svg" xmlns:xlink="http://www.w3.org/1999/xlink">
    <!-- Generator: Sketch 53.1 (72631) - https://sketchapp.com -->
    <title>stopwatch</title>
    <desc>Created with Sketch.</desc>
    <g id="Page-1" stroke="none" stroke-width="1" fill="none" fill-rule="evenodd">
        <g id="01-Desktop" transform="translate(-360.000000, -527.000000)" fill="#FFFFFF" fill-rule="nonzero">
            <g id="Body" transform="translate(0.000000, 84.000000)">
                <g id="Steps" transform="translate(352.000000, 388.000000)">
                    <g id="Point" transform="translate(0.000000, 49.000000)">
                        <g id="Group-3">
                            <g id="stopwatch" transform="translate(8.000000, 6.000000)">
                                <path d="M14.7859729,6.06606335 L15.7619005,4.74778281 C15.9849774,4.44651584 15.9215385,4.02144796 15.6202715,3.79837104 L14.6633484,3.08995475 C14.518733,2.98289593 14.3372851,2.93773756 14.1593665,2.9641629 C13.9813575,2.99076923 13.8211765,3.08687783 13.7140271,3.23158371 L12.8508597,4.39764706 C12.2786425,4.03936652 11.6606335,3.74859729 11.0076018,3.53628959 L11.0076018,2.29257919 C11.0076018,1.02841629 9.97909502,0 8.71493213,0 L7.92705882,0 C6.66289593,0 5.63447964,1.02841629 5.63447964,2.29257919 L5.63447964,3.57303167 C5.63447964,3.58678733 5.63574661,3.60027149 5.63656109,3.61375566 C2.39321267,4.77330317 0.0647058824,7.88778281 0.0647058824,11.538914 C0.0647058824,16.1758371 3.8199095,19.9483258 8.43574661,19.9483258 C13.0515837,19.9483258 16.8067873,16.1758371 16.8067873,11.538914 C16.8067873,9.45067873 16.0448869,7.53800905 14.7859729,6.06606335 Z M8.43574661,13.1408145 C7.55502262,13.1408145 6.83855204,12.4222624 6.83855204,11.5390045 C6.83855204,10.8890498 7.22714932,10.3295023 7.78307692,10.0786425 C7.76651584,10.02 7.75710407,9.95828054 7.75710407,9.89429864 L7.75710407,6.12841629 C7.75710407,5.75348416 8.06099548,5.44968326 8.4358371,5.44968326 C8.81067873,5.44968326 9.11457014,5.75348416 9.11457014,6.12841629 L9.11457014,9.89429864 C9.11457014,9.95828054 9.10506787,10.0199095 9.08859729,10.0786425 C9.64452489,10.3295023 10.0331222,10.8891403 10.0331222,11.5390045 C10.0329412,12.4222624 9.31647059,13.1408145 8.43574661,13.1408145 Z" id="Shape"></path>
                            </g>
                        </g>
                    </g>
                </g>
            </g>
        </g>
    </g>
</svg>