<svg id="Capa_1" data-name="Capa 1" xmlns="http://www.w3.org/2000/svg" width="25" height="25" viewBox="0 0 25 25"><defs><style>.cls-1{fill:#838383;}</style></defs><title>Icon-inactive</title><path class="cls-1" d="M22.18,12.1h-.31l0-.07A9.86,9.86,0,0,0,13,5.77a2.67,2.67,0,0,1-2.37-2.65A2.1,2.1,0,0,1,12.74,1a1.63,1.63,0,0,1,1.62,1.62A1.26,1.26,0,0,1,13.11,3.9,1,1,0,0,1,12.16,3a.26.26,0,1,0-.51,0,1.47,1.47,0,0,0,1.46,1.46,1.77,1.77,0,0,0,1.77-1.77A2.14,2.14,0,0,0,12.74.5a2.62,2.62,0,0,0-2.62,2.62A3.21,3.21,0,0,0,11.58,5.8,9.8,9.8,0,0,0,3.16,12l0,.07H2.82a2.58,2.58,0,0,0,0,5.16h.08l0,.09A9.91,9.91,0,0,0,12.5,24.5a9.91,9.91,0,0,0,9.62-7.15l0-.09h.09a2.58,2.58,0,0,0-.05-5.16Zm0,4.64h-.24a.26.26,0,0,0-.25.2,9.31,9.31,0,0,1-9.19,7,9.32,9.32,0,0,1-9.19-7,.26.26,0,0,0-.25-.21H2.82a2.06,2.06,0,1,1,0-4.12h.49a.25.25,0,0,0,.24-.18,9.32,9.32,0,0,1,9-6.17l.57,0,.25,0h0a9.24,9.24,0,0,1,8.1,6.13.27.27,0,0,0,.25.18h.49a2.06,2.06,0,1,1,0,4.12Z"/><path class="cls-1" d="M15.64,15.34a.79.79,0,1,0,.79.79A.79.79,0,0,0,15.64,15.34Z"/><path class="cls-1" d="M10.49,16.13a.79.79,0,1,0-1.58,0,.79.79,0,0,0,1.58,0Z"/><path class="cls-1" d="M15,19.65l-.15.09a4.41,4.41,0,0,1-4.64,0L10,19.65a.22.22,0,0,0-.13,0,.25.25,0,0,0-.22.12.24.24,0,0,0,0,.2.21.21,0,0,0,.11.15l.15.1a4.92,4.92,0,0,0,2.59.73,5,5,0,0,0,2.59-.73l.14-.1a.25.25,0,0,0,.09-.35A.26.26,0,0,0,15,19.65Z"/></svg>