<svg id="Capa_1" data-name="Capa 1" xmlns="http://www.w3.org/2000/svg" width="25" height="25" viewBox="0 0 25 25"><defs><style>.cls-1{fill:#5cb85c;opacity:0.5;}.cls-2{fill:#13708c;}</style></defs><title>Icon-active</title><path class="cls-1" d="M11.63,4.34S6.92,7.48,10,9.75c1.31,1,2.4,4.15.78,5.58s-1.69,1.33-1.69,1.33L10,13.34l-.94-1.56-1.65-.69L7,10.25l.28-2.47S9.25,4.88,11.63,4.34Z"/><path class="cls-2" d="M14.7,19.89a7.48,7.48,0,0,1,2.93-3.21c1.76-1.23,3.58-2.49,3.63-7.41A8.55,8.55,0,0,0,18.89,3,8.86,8.86,0,0,0,12.5.5,8.77,8.77,0,0,0,3.74,9.26v9.18c0,3.74,1.79,6.06,4.66,6.06,4.12,0,5.52-3,6.28-4.57Zm-.7-.28c-.78,1.64-2,4.13-5.6,4.13-2.48,0-3.9-1.93-3.9-5.3V9.26a8,8,0,0,1,8-8,8.14,8.14,0,0,1,5.86,2.28A7.83,7.83,0,0,1,20.5,9.26c-.05,4.53-1.55,5.58-3.3,6.8h0A8.35,8.35,0,0,0,14,19.57Z"/><path class="cls-2" d="M15.91,6.13a4.81,4.81,0,0,1,.83,1.16.39.39,0,0,0,.51.17A.39.39,0,0,0,17.42,7a5.46,5.46,0,0,0-1-1.35,6,6,0,0,0-4.33-1.7A5.63,5.63,0,0,0,7.87,6a5.53,5.53,0,0,0-1.35,4.43c.12.69.71,1,1.34,1.24A2.76,2.76,0,0,1,9.47,13c.37.86.35,1.59-.82,3.23a.37.37,0,0,0,.08.52.39.39,0,0,0,.53-.08c1-1.41,1.51-2.57.91-4a3.48,3.48,0,0,0-2-1.73c-.53-.24-.85-.41-.9-.69A4.77,4.77,0,0,1,8.45,6.5a4.86,4.86,0,0,1,3.67-1.84A5.26,5.26,0,0,1,15.91,6.13Z"/><path class="cls-2" d="M17.67,9.14a.38.38,0,0,0-.38.38c0,1.77-.36,2.68-1.33,3.36a.36.36,0,0,0-.16.24.43.43,0,0,0,.06.29.38.38,0,0,0,.31.16.34.34,0,0,0,.22-.07h0c1.46-1,1.66-2.52,1.66-4A.38.38,0,0,0,17.67,9.14Z"/></svg>