<svg id="Capa_1" data-name="Capa 1" xmlns="http://www.w3.org/2000/svg" width="25" height="25" viewBox="0 0 25 25"><defs><style>.cls-1{fill:#5cb85c;opacity:0.5;}.cls-2{fill:#13708c;}</style></defs><title>Icon-active</title><path class="cls-1" d="M12.9,11.75a3,3,0,0,0-2.73,3.17,3,3,0,0,0,2.73,3.16,3,3,0,0,0,2.73-3.16A3,3,0,0,0,12.9,11.75Zm-.18,4a.85.85,0,1,1,.84-.84A.84.84,0,0,1,12.72,15.79Z"/><path class="cls-2" d="M12.5,13.59a1.28,1.28,0,1,0,1.28,1.28A1.28,1.28,0,0,0,12.5,13.59Zm0,1.9a.62.62,0,1,1,.62-.62A.62.62,0,0,1,12.5,15.49Z"/><path class="cls-2" d="M12.5,7.61a.33.33,0,0,0,.33-.33V4.44a.33.33,0,1,0-.66,0V7.28A.33.33,0,0,0,12.5,7.61Z"/><path class="cls-2" d="M6.63,8.05a.35.35,0,0,0,.24.1h0a.34.34,0,0,0,.23-.1.33.33,0,0,0,0-.47l-2-2A.33.33,0,0,0,4.62,6Z"/><path class="cls-2" d="M18.13,8.15a.35.35,0,0,0,.24-.1l2-2a.33.33,0,0,0,0-.47.3.3,0,0,0-.23-.1.33.33,0,0,0-.24.1l-2,2a.33.33,0,0,0,0,.47A.34.34,0,0,0,18.13,8.15Z"/><path class="cls-2" d="M24.42,15.05C21,11.17,16.53,8.85,12.5,8.85S4,11.17.58,15.05h0a.33.33,0,0,0,0,.47.34.34,0,0,0,.47,0l.31-.35L1.52,15l.1.15a13.18,13.18,0,0,0,21.76,0l.1-.15.13.13.31.35a.34.34,0,0,0,.47,0A.33.33,0,0,0,24.42,15.05ZM23,14.62a12.06,12.06,0,0,1-4.46,4.09,12.56,12.56,0,0,1-12,0,12.06,12.06,0,0,1-4.46-4.09L2,14.52l.09-.08a19.94,19.94,0,0,1,4.05-3.09A12.85,12.85,0,0,1,12.5,9.51a12.85,12.85,0,0,1,6.37,1.84,19.94,19.94,0,0,1,4.05,3.09l.09.08Z"/><path class="cls-2" d="M15.15,12.36l0,0-.05-.05a3.44,3.44,0,0,0-1-.7h0l-.1-.05h0l-.06,0-.06,0h0l-.11,0h0a3.76,3.76,0,0,0-1.19-.2,3.7,3.7,0,0,0-1.36.26l-.06,0-.05,0h0a3.42,3.42,0,0,0-1.09.75,3.63,3.63,0,0,0-1.07,2.46v.12a3.42,3.42,0,0,0,.2,1.19v0a.49.49,0,0,0,0,.11h0l0,.06,0,.06h0l0,.1,0,0a3.44,3.44,0,0,0,.7,1,3.25,3.25,0,0,0,1,.7l0,0,.1,0h0l.06,0,.06,0h0l.11,0h0a3.64,3.64,0,0,0,2.38,0h0l.11,0h0l.06,0,0,0h0l.1,0,0,0a3.44,3.44,0,0,0,1-.7,3.6,3.6,0,0,0,.78-1.15l0-.05,0-.05h0v0h0a3.63,3.63,0,0,0-.75-3.79Zm.1,3.67h0a3,3,0,0,1-1.44,1.52h0l-.09,0h0l0,0,0,0h0l-.09,0h0a3,3,0,0,1-1.94,0h0l-.09,0h0l0,0,0,0h0l-.09,0h0a3,3,0,0,1-1.37-1.38l0,0,0-.09h0l0,0,0,0h0l0-.09v0a3,3,0,0,1,.72-3.08,3.13,3.13,0,0,1,1-.66h0a3,3,0,0,1,2.09,0h0l.08,0h0l0,0,0,0h0l.09,0h0a3,3,0,0,1,1.68,2.68A2.9,2.9,0,0,1,15.25,16Z"/></svg>