<svg id="Capa_1" data-name="Capa 1" xmlns="http://www.w3.org/2000/svg" width="25" height="25" viewBox="0 0 25 25"><defs><style>.cls-1{fill:#838383;}</style></defs><title>Icon-inactive</title><path class="cls-1" d="M19.94,13.07a3.08,3.08,0,0,0-3.05,2.69l0,.15h-4.8V13.13l.1,0a1.52,1.52,0,0,0,.94-.69l5.24-8.86a1.47,1.47,0,0,0,0-1.5,1.46,1.46,0,0,0-1.29-.75h-1l0-.07A1.26,1.26,0,0,0,14.87.5c-.63,0-2.06.47-2.06,1.25S14.24,3,14.87,3a1.26,1.26,0,0,0,1.24-1.08l0-.14h.94a1,1,0,0,1,.87.51,1,1,0,0,1,0,1L12.7,12.17a1,1,0,0,1-1.74,0L5.58,3.31a1,1,0,0,1,.86-1.52H7.53l0,.14A1.26,1.26,0,0,0,8.79,3c.63,0,2.06-.47,2.06-1.26S9.42.5,8.79.5a1.26,1.26,0,0,0-1.13.72l0,.07-.09,0H6.44A1.48,1.48,0,0,0,5.17,3.56l5.38,8.86a1.51,1.51,0,0,0,.92.68l.09,0,0,.11v2.68H7.78a4.3,4.3,0,1,0,4.29,4.29V16.39h4.8l0,.15a3.08,3.08,0,1,0,3.05-3.47ZM14.87,2.53c-.48,0-1.48-.39-1.58-.73V1.72c.1-.35,1.1-.74,1.58-.74a.78.78,0,1,1,0,1.55ZM8.79,1c.48,0,1.48.39,1.58.73v.08c-.1.35-1.1.74-1.58.74A.78.78,0,0,1,8.79,1Zm2.8,19.22a3.82,3.82,0,1,1-3.81-3.81h3.81Zm8.35-1.45a2.6,2.6,0,1,1,2.6-2.6A2.61,2.61,0,0,1,19.94,18.75Z"/><path class="cls-1" d="M19.94,14.69a1.46,1.46,0,1,0,1.46,1.46A1.47,1.47,0,0,0,19.94,14.69Zm0,2.44a1,1,0,1,1,1-1A1,1,0,0,1,19.94,17.13Z"/></svg>