<svg id="Capa_1" data-name="Capa 1" xmlns="http://www.w3.org/2000/svg" width="25" height="25" viewBox="0 0 25 25"><defs><style>.cls-1{fill:#5cb85c;opacity:0.5;}.cls-2{fill:#13708c;}</style></defs><title>Icon-active</title><polygon class="cls-1" points="19.4 17.31 20.54 18.35 24.25 14.9 24.02 12.63 19.4 17.31"/><ellipse class="cls-1" cx="15.42" cy="22.08" rx="2.28" ry="1.75"/><path class="cls-2" d="M4.84,7.9l2.05,2-.31.62a1.56,1.56,0,0,0-.08,1.18,1.54,1.54,0,0,0,.77.89,1.58,1.58,0,0,0,1.26,0l1.17-.47-.23-.56-1.16.47a.94.94,0,0,1-1.22-.53.92.92,0,0,1,0-.76l.28-.55a.72.72,0,0,0-.14-.82l-2-2,.6-.59a.32.32,0,0,0,0-.43l-1.4-1.4.19-.19a.3.3,0,0,0,0-.42L1,.59a.31.31,0,0,0-.43,0A.31.31,0,0,0,.5.8V6.05a.3.3,0,0,0,.11.23l1.21,1a.31.31,0,0,0,.41,0l.19-.19,1.4,1.4a.29.29,0,0,0,.42,0ZM2,6.66l-.89-.75V1.56L4,4.64ZM4,7.85,2.84,6.66,4,5.48,5.22,6.67Z"/><path class="cls-2" d="M24.31,12.22a.3.3,0,0,0-.33.07l-5.64,5.64a.3.3,0,0,0,0,.43l.39.39L17,20.46l-.07,0a3.75,3.75,0,0,0-2-.56h-.05c-1.72,0-3.13,1-3.13,2.32s1.41,2.32,3.13,2.32,3.13-1,3.13-2.32a1.93,1.93,0,0,0-.5-1.25l-.07-.07,1.68-1.68.39.39a.29.29,0,0,0,.42,0l4.44-4.44a.27.27,0,0,0,.09-.21V12.5A.3.3,0,0,0,24.31,12.22ZM14.92,23.89c-1.37,0-2.52-.78-2.52-1.71s1.15-1.71,2.52-1.71,2.52.78,2.52,1.71S16.29,23.89,14.92,23.89Zm9-9.1-4.13,4.14L19,18.15l4.91-4.92Z"/><path class="cls-2" d="M12.5,13.21a1.11,1.11,0,0,1,1.11.94l.79,4.75.6-.1-.79-4.75a1.73,1.73,0,0,0-3.42,0L9.57,21.36a1.1,1.1,0,0,1-2.18,0l-1-7.66a.26.26,0,0,0,0-.12l-.22-.36A11.68,11.68,0,0,1,4.63,9.71L4,9.84a12,12,0,0,0,1.53,3.67l.19.31v0l1,7.57a1.71,1.71,0,0,0,3.38.05l1.22-7.31a1.12,1.12,0,0,1,1.11-.94Z"/><path class="cls-2" d="M8.71,2.72h0a4.41,4.41,0,0,1,1.72.35,5.26,5.26,0,0,0,4.12,0,4.38,4.38,0,0,1,5.75,2.31,4.21,4.21,0,0,1,.36,1.72,11.5,11.5,0,0,1-1.75,6.09l-.22.36a.31.31,0,0,0-.05.12L18.34,16l.6.08.3-2.25.19-.31A12,12,0,0,0,21.27,7.1a5,5,0,0,0-5-5,4.93,4.93,0,0,0-2,.41,4.69,4.69,0,0,1-3.64,0,5,5,0,0,0-5.6,1.16l.45.41A4.4,4.4,0,0,1,8.71,2.72Z"/></svg>