<svg id="Capa_1" data-name="Capa 1" xmlns="http://www.w3.org/2000/svg" width="25" height="25" viewBox="0 0 25 25"><defs><style>.cls-1{fill:#5cb85c;opacity:0.5;}.cls-2{fill:#13708c;}</style></defs><title>Icon-active</title><path class="cls-1" d="M16,1.06A4.79,4.79,0,0,0,11.38,6,4.8,4.8,0,0,0,16,10.9,4.8,4.8,0,0,0,20.7,6,4.8,4.8,0,0,0,16,1.06Zm.14,8.07A3.11,3.11,0,1,1,19.29,6,3.1,3.1,0,0,1,16.18,9.13Z"/><path class="cls-2" d="M24.41,12.71,20.53,8.83l0-.07a5.57,5.57,0,1,0-1.66,1.84l.07,0,3.79,3.8a.3.3,0,0,0,.43,0l1.21-1.21A.3.3,0,0,0,24.41,12.71ZM15.73,11a5,5,0,0,1-4.94-4.94h0A4.94,4.94,0,1,1,15.73,11ZM23,13.71l-3.54-3.54.08-.07a7.32,7.32,0,0,0,.59-.66l.07-.09,3.58,3.57Z"/><path class="cls-2" d="M17.24,14.94l-.16.25a.24.24,0,0,0,0,.09L15.29,23A1.17,1.17,0,0,1,13,22.94l-1.21-7.26a1.74,1.74,0,0,0-.7-1.12,1.73,1.73,0,0,0-2.72,1.12L7.16,22.94A1.17,1.17,0,0,1,4.87,23L3.11,15.28a.29.29,0,0,0,0-.1l-.16-.24A11.85,11.85,0,0,1,1.11,8.6a5,5,0,0,1,5.05-5h0a5.05,5.05,0,0,1,2,.4,4.54,4.54,0,0,0,1.26.35l.07-.6a4.1,4.1,0,0,1-1.09-.3A5.65,5.65,0,0,0,1,6.37,5.53,5.53,0,0,0,.5,8.6a12.54,12.54,0,0,0,1.91,6.66l.13.2,1.74,7.68a1.78,1.78,0,0,0,.78,1.11,1.81,1.81,0,0,0,1.34.23A1.77,1.77,0,0,0,7.76,23L9,15.78a1.13,1.13,0,0,1,2.22,0L12.4,23a1.78,1.78,0,0,0,2,1.46,1.77,1.77,0,0,0,1.44-1.36l1.75-7.68.12-.2A12.75,12.75,0,0,0,19.2,12l-.59-.16A12,12,0,0,1,17.24,14.94Z"/></svg>