<svg id="Capa_1" data-name="Capa 1" xmlns="http://www.w3.org/2000/svg" width="25" height="25" viewBox="0 0 25 25"><defs><style>.cls-1{fill:#838383;}</style></defs><title>Icon-inactive</title><path class="cls-1" d="M12.12,6.12a.18.18,0,0,0-.18.18v7.81h-.76a6.66,6.66,0,0,1-2.81-.63l-.17-.07L7.78,6.29a.14.14,0,0,0-.06-.12.15.15,0,0,0-.13,0,.2.2,0,0,0-.12.06.21.21,0,0,0,0,.13l.42,7.09L4.32,14.86,4,15H4a2,2,0,0,1-.34,0H2.89A2.2,2.2,0,0,0,.82,16.46l-.31.87a.13.13,0,0,0,0,.06v1.44A.18.18,0,0,0,.64,19l1.7.41h9.78a.18.18,0,0,0,.18-.18V6.3A.18.18,0,0,0,12.12,6.12Zm-.18,12.94H2.41L.86,18.69V17.62L2.31,18h9.63Zm0-1.41H2.37L.92,17.27l.24-.69a1.83,1.83,0,0,1,1.73-1.23h.92l.14,0,.85.85a.17.17,0,0,0,.25,0,.19.19,0,0,0,0-.13.18.18,0,0,0,0-.12l-.69-.7,1.2-.5.89.9a.19.19,0,0,0,.26,0,.19.19,0,0,0,0-.13.18.18,0,0,0,0-.12l-.79-.79,1-.44.89.89a.18.18,0,0,0,.25,0,.19.19,0,0,0,0-.26L7.33,14,8,13.72l.12.06a7.11,7.11,0,0,0,3,.69h.76Z"/><path class="cls-1" d="M24.37,14.45l-2.09-3.62h0l-2.4-6.46a.19.19,0,0,0-.1-.1.17.17,0,0,0-.14,0,.18.18,0,0,0-.1.09.17.17,0,0,0,0,.14l2.36,6.35-.68.4a6.75,6.75,0,0,1-2.69.86l-.22,0L15.69,6.23a.18.18,0,0,0-.11-.1h-.06l-.07,0a.17.17,0,0,0-.09.23L18,12.28l-2.34,3a1.2,1.2,0,0,1-.24.26h0a2.83,2.83,0,0,1-.28.2l-.64.37a2.18,2.18,0,0,0-1.06,2.3l.17.91a.14.14,0,0,0,0,.06l0,0,.69,1.19a.18.18,0,0,0,.21.09l1.68-.5,0,0L24,15.75a1,1,0,0,0,.45-.58A1,1,0,0,0,24.37,14.45Zm-10.6,3.93a1.84,1.84,0,0,1,.89-1.92l.64-.37.15-.1.12-.08,1.16.31h0a.19.19,0,0,0,.18-.14.2.2,0,0,0,0-.13.24.24,0,0,0-.11-.09l-1-.25.79-1,1.23.33a.2.2,0,0,0,.13,0,.24.24,0,0,0,.09-.11.23.23,0,0,0,0-.14.18.18,0,0,0-.11-.08l-1.08-.29.69-.9,1.22.32a.18.18,0,0,0,.22-.12.22.22,0,0,0,0-.14.24.24,0,0,0-.11-.09l-1.07-.28.46-.59h.13a7.11,7.11,0,0,0,3-.92l.66-.38,1.59,2.75L15.36,18.7l-1.45.4Zm10.35-3.3h0a.59.59,0,0,1-.28.36L16.1,19.91l-1.53.45L14,19.44l1.44-.4h0l8.31-4.8.23.4A.59.59,0,0,1,24.12,15.08Z"/></svg>