<svg id="Capa_1" data-name="Capa 1" xmlns="http://www.w3.org/2000/svg" width="25" height="25" viewBox="0 0 25 25"><defs><style>.cls-1{fill:#838383;}</style></defs><title>Icon-inactive</title><path class="cls-1" d="M17.55,16.56h0a.38.38,0,0,0-.38.38v6.8H8.27v-3.1a.38.38,0,0,0-.38-.38H5.47a1.9,1.9,0,0,1-1.9-1.9V15.48a.38.38,0,0,0-.38-.38H1.45l1.9-4.35a.4.4,0,0,0,0-.15v-.55a6.9,6.9,0,0,1,6.9-6.9,7.15,7.15,0,0,1,2.11.32.34.34,0,0,0,.28,0,.38.38,0,0,0,.19-.22.41.41,0,0,0,0-.29.41.41,0,0,0-.22-.19,7.68,7.68,0,0,0-10,7.3v.49L.53,15.33a.36.36,0,0,0,0,.35.37.37,0,0,0,.32.17H2.82v2.51A2.64,2.64,0,0,0,5.47,21H7.52v3.11a.38.38,0,0,0,.37.38h9.66a.38.38,0,0,0,.37-.38V16.94a.4.4,0,0,0-.11-.27A.39.39,0,0,0,17.55,16.56Z"/><path class="cls-1" d="M19.35,5.11h-.07a4.25,4.25,0,0,0-1.76,8.08l.05,0v.85a1.51,1.51,0,0,0,1.51,1.51h.53a1.51,1.51,0,0,0,1.51-1.51v-.85l.05,0a4.25,4.25,0,0,0-1.82-8.08Zm1,9a.75.75,0,0,1-.75.76h-.53a.76.76,0,0,1-.75-.76v-.72h2Zm.33-1.48h-1v-.1s0,0,0-.05V10.54a.38.38,0,0,0-.76,0v2H18a3.49,3.49,0,0,1,1.28-6.71,3.48,3.48,0,0,1,3.54,3.49A3.53,3.53,0,0,1,20.69,12.58Z"/><path class="cls-1" d="M19.35,3.48a.37.37,0,0,0,.37-.38V.88A.37.37,0,0,0,19.35.5.38.38,0,0,0,19,.88V3.1A.38.38,0,0,0,19.35,3.48Z"/><path class="cls-1" d="M15.61,4.28h0a.37.37,0,0,0,.27.11.36.36,0,0,0,.26-.11.38.38,0,0,0,0-.54l-1.3-1.3a.4.4,0,0,0-.54,0,.39.39,0,0,0-.11.27.36.36,0,0,0,.12.27Z"/><path class="cls-1" d="M24.39,2.44a.39.39,0,0,0-.27-.11.43.43,0,0,0-.27.11L22.47,3.83a.37.37,0,0,0,0,.53.36.36,0,0,0,.27.12A.34.34,0,0,0,23,4.36L24.39,3a.39.39,0,0,0,.11-.27A.4.4,0,0,0,24.39,2.44Z"/><path class="cls-1" d="M5.08,10.27a.45.45,0,0,0-.14.33.44.44,0,0,0,.14.33.47.47,0,0,0,.33.14.48.48,0,0,0,.34-.14.44.44,0,0,0,.14-.33.45.45,0,0,0-.14-.33.48.48,0,0,0-.34-.14A.47.47,0,0,0,5.08,10.27Z"/></svg>