<?xml version="1.0" encoding="UTF-8"?>
<svg width="106px" height="66px" viewBox="0 0 106 66" version="1.1" xmlns="http://www.w3.org/2000/svg" xmlns:xlink="http://www.w3.org/1999/xlink">
    <!-- Generator: Sketch 53.2 (72643) - https://sketchapp.com -->
    <title>Logo-2</title>
    <desc>Created with Sketch.</desc>
    <g id="Page-1" stroke="none" stroke-width="1" fill="none" fill-rule="evenodd">
        <g id="Desktop-step1" transform="translate(-576.000000, -267.000000)" fill="#000000" fill-rule="nonzero">
            <g id="Body" transform="translate(162.000000, 128.000000)">
                <g id="Logos" transform="translate(0.000000, 104.000000)">
                    <g id="Logo" transform="translate(390.000000, 16.000000)">
                        <g id="Logo-2" transform="translate(24.000000, 19.000000)">
                            <g id="ahm-logo-Clipped">
                                <g id="ahm-logo">
                                    <g id="Shape">
                                        <path d="M43.7503756,33.958197 L43.7503756,44.0198851 L49.4100751,44.0198851 L49.4100751,31.7122846 C49.4100751,28.5680071 47.6133451,26.3220946 43.660539,26.3220946 C41.3247901,26.2322581 39.1687141,27.2204595 37.6414936,28.927353 L37.6414936,20.2132126 L32.161467,20.2132126 L32.161467,44.0198851 L37.6414936,44.0198851 L37.6414936,32.8801591 C38.2703492,32.0716305 39.4382236,31.2631021 40.9654441,31.2631021 C42.7621741,31.2631021 43.8402121,31.8919577 43.7503756,33.958197 Z M21.3810871,26.3220946 C18.6859921,26.3220946 15.7213875,27.2204595 13.475475,29.0171895 L15.5417145,32.8801591 C16.9790985,31.7122846 18.6859921,31.0834291 20.3928856,31.0834291 C22.638798,31.0834291 23.896509,31.981794 23.896509,33.5090147 L23.896509,35.3057445 C22.818471,33.958197 20.842068,33.2395051 18.5063191,33.2395051 C15.811224,33.2395051 12.57711,34.5870526 12.57711,38.809368 C12.57711,42.6723376 15.9010605,44.4690676 18.5063191,44.4690676 C20.5262962,44.5403132 22.482902,43.7576709 23.896509,42.3129916 L23.896509,44.1097216 L29.3765356,44.1097216 L29.3765356,33.2395051 C29.3765356,27.8493151 25.513566,26.2322581 21.2912505,26.2322581 L21.3810871,26.3220946 Z M23.896509,39.6178966 C23.3574901,40.426425 22.0997791,40.8756076 20.842068,40.8756076 C19.404684,40.8756076 18.0571365,40.246752 18.0571365,38.8992045 C18.0571365,37.4618206 19.404684,36.8329652 20.7522315,36.8329652 C22.0099426,36.8329652 23.3574901,37.2821475 23.896509,38.0906761 L23.896509,39.6178966 Z M74.2049492,26.3220946 C71.5098541,26.3220946 69.2639417,27.9391516 68.1859036,29.4663721 C67.4672117,27.4001325 65.8501547,26.3220946 63.3347326,26.3220946 C60.6396376,26.3220946 58.3937251,27.9391516 57.6750332,28.927353 L57.6750332,26.7712771 L52.1051701,26.7712771 L52.1051701,44.0198851 L57.6750332,44.0198851 L57.6750332,32.8801591 C58.2140521,32.161467 59.2022537,31.2631021 60.7294742,31.2631021 C62.4363677,31.2631021 62.9753867,32.161467 62.9753867,33.5090147 L62.9753867,44.0198851 L68.5452496,44.0198851 L68.5452496,32.8801591 C69.0842687,32.161467 70.1623066,31.2631021 71.5996906,31.2631021 C73.3065841,31.2631021 73.9354397,32.161467 73.9354397,33.5090147 L73.9354397,44.0198851 L79.3256298,44.0198851 L79.3256298,31.5326116 C79.3256298,27.9391516 77.3492267,26.3220946 74.2049492,26.3220946 Z M103.761158,60.8193107 C102.952629,62.0770216 101.245736,62.3465312 99.9880247,61.5380026 L99.8981882,61.4481662 C98.6404773,60.5498011 98.3709677,58.8429076 99.1794963,57.5851967 C99.9880247,56.3274857 101.784755,56.0579762 103.042466,56.8665046 C103.657271,57.2535029 104.089807,57.872311 104.242023,58.5826512 C104.394239,59.2929914 104.253242,60.0346997 103.850994,60.6396376 L103.761158,60.8193107 Z M104.120504,55.5189571 C102.309079,54.2280066 99.8256322,54.4572479 98.2811312,56.0579762 C98.0116217,56.3274857 97.5624392,56.4173222 97.3827663,56.0579762 C96.6640742,53.9019001 95.5860363,51.5661512 92.8909412,48.6015466 L102.054264,36.0244366 C103.132302,34.4972161 103.491648,31.3529386 101.874591,30.2749007 L90.3755192,46.0861246 L90.3755192,51.1169687 C93.5197967,52.7340257 95.7657093,55.2494476 97.2030933,60.2802916 C97.5366589,61.4239454 98.3108774,62.3882498 99.3554294,62.9610686 C100.399981,63.5338874 101.629302,63.6682984 102.772956,63.3347326 C103.671321,63.0652232 104.569686,62.5262042 105.108705,61.7176756 C106.517185,59.7258996 106.078485,56.974051 104.120504,55.5189571 Z M89.1178083,58.3937251 L89.1178083,62.5262042 L84.9853292,62.5262042 L84.9853292,65.2212991 L91.8129032,65.2212991 L91.8129032,58.4835616 L89.1178083,58.3937251 Z M70.0724701,65.2212991 L81.3020326,65.2212991 L81.3020326,62.5262042 L70.0724701,62.5262042 L70.0724701,65.2212991 Z M55.2494476,65.2212991 L66.3891737,65.2212991 L66.3891737,62.5262042 L55.2494476,62.5262042 L55.2494476,65.2212991 Z M40.3365885,65.2212991 L51.4763147,65.2212991 L51.4763147,62.5262042 L40.426425,62.5262042 L40.3365885,65.2212991 Z M25.4237295,65.2212991 L36.5634556,65.2212991 L36.5634556,62.5262042 L25.4237295,62.5262042 L25.4237295,65.2212991 Z M10.5108705,65.2212991 L21.6505966,65.2212991 L21.6505966,62.5262042 L10.5108705,62.5262042 L10.5108705,65.2212991 Z M0,58.3937251 L0,65.2212991 L6.82757401,65.2212991 L6.82757401,62.5262042 L2.69509501,62.5262042 L2.69509501,58.4835616 L0,58.3937251 Z M0,22.7286345 L2.69509501,22.7286345 L2.69509501,10.78038 L0,10.78038 L0,22.7286345 Z M0,38.629695 L2.69509501,38.629695 L2.69509501,26.6814406 L0,26.6814406 L0,38.629695 Z M0,54.5307557 L2.69509501,54.5307557 L2.69509501,42.5825011 L0,42.5825011 L0,54.5307557 Z M0,0 L0,6.82757401 L2.69509501,6.82757401 L2.69509501,2.69509501 L6.82757401,2.69509501 L6.82757401,0 L0,0 Z M70.0724701,2.69509501 L81.3020326,2.69509501 L81.3020326,0 L70.0724701,0 L70.0724701,2.69509501 Z M55.2494476,2.69509501 L66.3891737,2.69509501 L66.3891737,0 L55.2494476,0 L55.2494476,2.69509501 Z M40.3365885,2.69509501 L51.4763147,2.69509501 L51.4763147,0 L40.426425,0 L40.3365885,2.69509501 Z M25.4237295,2.69509501 L36.5634556,2.69509501 L36.5634556,0 L25.4237295,0 L25.4237295,2.69509501 Z M10.5108705,2.69509501 L21.6505966,2.69509501 L21.6505966,0 L10.5108705,0 L10.5108705,2.69509501 Z M84.9853292,0 L84.9853292,2.69509501 L89.1178083,2.69509501 L89.1178083,6.82757401 L91.8129032,6.82757401 L91.8129032,0 L84.9853292,0 Z"></path>
                                        <path d="M91.8129032,54.5307557 L89.1178083,54.5307557 L89.1178083,42.5825011 L91.8129032,42.5825011 L91.8129032,54.5307557 Z M91.8129032,38.629695 L89.1178083,38.629695 L89.1178083,26.6814406 L91.8129032,26.6814406 L91.8129032,38.629695 Z M91.8129032,22.7286345 L89.1178083,22.7286345 L89.1178083,10.78038 L91.8129032,10.78038 L91.8129032,22.7286345 Z"></path>
                                    </g>
                                </g>
                            </g>
                        </g>
                    </g>
                </g>
            </g>
        </g>
    </g>
</svg>