<?xml version="1.0" encoding="UTF-8"?>
<svg width="123px" height="20px" viewBox="0 0 123 20" version="1.1" xmlns="http://www.w3.org/2000/svg" xmlns:xlink="http://www.w3.org/1999/xlink">
    <!-- Generator: Sketch 53.2 (72643) - https://sketchapp.com -->
    <title>gmhba-logo Clipped</title>
    <desc>Created with Sketch.</desc>
    <g id="Page-1" stroke="none" stroke-width="1" fill="none" fill-rule="evenodd">
        <g id="Desktop-step1" transform="translate(-926.000000, -290.000000)" fill="#00A3E0" fill-rule="nonzero">
            <g id="Body" transform="translate(162.000000, 128.000000)">
                <g id="Logos" transform="translate(0.000000, 104.000000)">
                    <g id="Logo" transform="translate(748.000000, 16.000000)">
                        <g id="Logo-6" transform="translate(16.000000, 42.000000)">
                            <g id="gmhba-logo-Clipped">
                                <g id="gmhba-logo">
                                    <g id="Group">
                                        <path d="M19.160495,0.462022613 C19.2844221,1.0099598 19.4973542,6.71647989 19.4973542,9.55907789 C19.4973542,12.4078568 19.2844221,18.1329196 19.160495,18.6576784 C18.6116306,18.7819146 12.9048015,18.9945377 10.0622035,18.9945377 C7.21373367,18.9945377 1.48867086,18.7819146 0.96391206,18.6576784 C0.839675879,18.1088141 0.626743718,12.402294 0.626743718,9.56031407 C0.626743718,6.71122613 0.839675879,0.985236181 0.96391206,0.462022613 C1.51277639,0.336859297 7.21929648,0.124854271 10.0618945,0.124854271 C12.9106734,0.124854271 18.6357362,0.336859297 19.160495,0.462022613 Z M16.679789,9.57638442 C16.679789,9.17771608 16.6572286,8.73176381 16.6102538,8.23945478 C16.5626608,7.74652764 16.4921985,7.1955 16.3985577,6.58513568 L13.0352185,6.58513568 L13.0352185,3.26073619 C12.5432185,3.14298995 12.0379297,3.06078392 11.5221332,3.01380905 C11.0060276,2.96714322 10.5245352,2.94365577 10.079201,2.94365577 C9.60945227,2.94365577 9.12270603,2.96714322 8.61865326,3.01380905 C8.11367337,3.06078392 7.60343969,3.14298995 7.08764322,3.26073619 L7.08764322,6.58513568 L3.76046231,6.58513568 C3.64364322,7.07775377 3.56112815,7.58211558 3.51353518,8.09853015 C3.46748744,8.61525377 3.44338191,9.09551005 3.44338191,9.54177136 C3.44338191,10.0112111 3.46748744,10.4976482 3.51353518,11.001701 C3.56112815,11.507299 3.64364322,12.0169146 3.76046231,12.5330201 L7.08764322,12.5330201 L7.08764322,15.894505 C7.67421106,15.9875276 8.21380403,16.0579899 8.70642211,16.1052738 C9.19934925,16.1528668 9.64468342,16.1757362 10.0439698,16.1757362 C10.4426382,16.1757362 10.8888995,16.1528668 11.3818266,16.1052738 C11.8738266,16.0579899 12.4251633,15.9875276 13.0352185,15.894505 L13.0352185,12.5330201 L16.3985577,12.5330201 C16.4921985,11.9470703 16.5626608,11.4065502 16.6102538,10.9139322 C16.6572286,10.4213141 16.679789,9.97536181 16.679789,9.57638442 Z M35.5454548,8.60196482 C36.3659698,8.60196482 37.3403894,8.70796734 38.4662412,8.91904522 L38.4662412,17.8584874 C37.7857236,18.1177764 36.8347914,18.3990075 35.6156081,18.7037262 C34.3951885,19.0084447 32.9757437,19.161113 31.3569648,19.161113 C29.6674146,19.161113 28.2300452,18.9086231 27.0457839,18.4039522 C25.8599773,17.8998995 24.8923568,17.2141282 24.141995,16.345711 C23.390706,15.4779121 22.8449322,14.4568266 22.5046734,13.2833819 C22.1644146,12.1102462 21.9950577,10.8542864 21.9950577,9.51735678 C21.9950577,8.22709297 22.1999548,7.00729146 22.6106758,5.85640703 C23.0204698,4.70799498 23.6317613,3.71008793 24.4405326,2.86546734 C25.2505403,2.02053769 26.2537011,1.35238191 27.449706,0.859454773 C28.6466381,0.366527638 30.0311608,0.120218593 31.6035829,0.120218593 C32.4247161,0.120218593 33.3280553,0.214168342 34.3132914,0.402376885 C35.2985276,0.589967337 36.3780227,0.918482412 37.5511583,1.38730403 C37.5276709,1.78628141 37.480387,2.16177136 37.4105427,2.51284674 C37.3403894,2.86546734 37.2526207,3.22365075 37.1466181,3.58646985 C37.0406156,3.95145227 36.9117437,4.33806784 36.7596934,4.74847989 C36.6067161,5.15920101 36.4249975,5.62215075 36.2136106,6.13825628 C35.4156558,5.8103593 34.6770377,5.56992211 33.9968291,5.41694472 C33.3156934,5.26427638 32.7294346,5.18825126 32.2368165,5.18825126 C31.4623493,5.18825126 30.8056282,5.30599749 30.2657262,5.54025377 C29.7258242,5.77512815 29.2916156,6.0918995 28.9637185,6.49056784 C28.6345854,6.88985427 28.3947663,7.35249498 28.242098,7.88034423 C28.0891207,8.40850251 28.0134046,8.95458542 28.0134046,9.51735678 C28.0134046,11.0900879 28.3530452,12.2449899 29.0335628,12.9842262 C29.7137714,13.7231533 30.7107513,14.0927714 32.0257387,14.0927714 L32.6586633,14.0927714 L32.6586633,8.91904522 C33.2452311,8.80222613 33.7678266,8.72002011 34.2258317,8.67242714 C34.6822914,8.62607035 35.1226809,8.60196482 35.5454548,8.60196482 Z M64.0363342,1.56376885 C63.249196,1.0003794 62.3699623,0.630452262 61.3964698,0.454605528 C60.4220502,0.278449749 59.4785352,0.190680905 58.5634522,0.190680905 C57.5309322,0.190680905 56.6037965,0.307809046 55.7826633,0.542374372 C54.9606031,0.777248744 54.2457815,1.04735427 53.6357262,1.35238191 C52.8377714,0.882324121 51.9696633,0.572042714 51.031093,0.419065326 C50.0925227,0.266396985 49.1418995,0.190680905 48.1804597,0.190680905 C46.4201381,0.190680905 44.9657714,0.326042714 43.8158141,0.59553015 C42.6658568,0.865326633 41.6806207,1.14037688 40.8594874,1.42191709 L40.8594874,18.7037262 C41.4695427,18.8199271 42.0205703,18.8965703 42.5134975,18.9324196 C43.0064246,18.9679597 43.4520678,18.9852663 43.8516633,18.9852663 C44.2259171,18.9852663 44.6604346,18.9679597 45.1533619,18.9324196 C45.646289,18.8965703 46.1970075,18.8199271 46.8076809,18.7037262 L46.8076809,5.54025377 C46.8787613,5.49389698 47.0598619,5.44630403 47.3534548,5.39932914 C47.6464297,5.35266332 47.921789,5.32948493 48.1804597,5.32948493 C49.1418995,5.32948493 49.8224171,5.59897236 50.2220126,6.13825628 C50.6206809,6.67846734 50.820015,7.57037185 50.820015,8.81335176 L50.820015,18.7037262 C51.4297613,18.8199271 51.9817161,18.8965703 52.4746432,18.9324196 C52.9669522,18.9679597 53.4129046,18.9852663 53.8115729,18.9852663 C54.1867538,18.9852663 54.6215804,18.9679597 55.1141985,18.9324196 C55.6068165,18.8965703 56.1578442,18.8199271 56.7685176,18.7037262 L56.7685176,8.42611809 C56.7685176,7.3704196 56.662206,6.43215829 56.4514372,5.61071608 C56.5685654,5.56405025 56.7858242,5.50533165 57.1025954,5.43456031 C57.4190577,5.36409799 57.7417011,5.32948493 58.0702161,5.32948493 C59.0325829,5.32948493 59.7245352,5.59897236 60.146691,6.13825628 C60.5691558,6.67846734 60.7805427,7.57037185 60.7805427,8.81335176 L60.7805427,18.7037262 C61.390907,18.8199271 61.9419346,18.8965703 62.4348619,18.9324196 C62.9274799,18.9679597 63.3728141,18.9852663 63.7727185,18.9852663 C64.1466633,18.9852663 64.5817989,18.9679597 65.0744171,18.9324196 C65.5673442,18.8965703 66.1177538,18.8199271 66.7287362,18.7037262 L66.7287362,8.18011809 C66.7287362,6.44390201 66.4765553,5.04732663 65.9715754,3.99193718 C65.4669046,2.9362387 64.8216181,2.12623115 64.0363342,1.56376885 Z M83.4811507,0.22591206 C83.011402,0.22591206 82.5249648,0.249399498 82.0209121,0.296374372 C81.5156231,0.343967337 81.0053894,0.425246231 80.4892839,0.542374372 L80.4892839,6.73656784 L75.2803266,6.73656784 L75.2803266,0.542374372 C74.7873995,0.425246231 74.2830377,0.343967337 73.7672412,0.296374372 C73.2502086,0.249399498 72.7699522,0.22591206 72.3246181,0.22591206 C71.8545603,0.22591206 71.3678141,0.249399498 70.8634522,0.296374372 C70.3587815,0.343967337 69.8488568,0.425246231 69.3321332,0.542374372 L69.3321332,18.7037262 C69.9187011,18.7967487 70.4586031,18.8675201 70.9515302,18.9141859 C71.4444573,18.9614698 71.8894824,18.9849573 72.2887689,18.9849573 C72.6877462,18.9849573 73.1333894,18.9614698 73.6263165,18.9141859 C74.1192437,18.8675201 74.6702714,18.7967487 75.2803266,18.7037262 L75.2803266,12.0162965 L80.4892839,12.0162965 L80.4892839,18.7037262 C81.0758518,18.7967487 81.6157538,18.8675201 82.1083718,18.9141859 C82.6016081,18.9614698 83.0466332,18.9849573 83.4462286,18.9849573 C83.8442789,18.9849573 84.2905403,18.9614698 84.7834674,18.9141859 C85.2763945,18.8675201 85.827113,18.7967487 86.4374773,18.7037262 L86.4374773,0.542374372 C85.9448593,0.425246231 85.4395703,0.343967337 84.9243919,0.296374372 C84.4076683,0.249399498 83.9271031,0.22591206 83.4811507,0.22591206 Z M105.126987,10.6438266 C105.760839,11.3005477 106.076683,12.2273744 106.076683,13.4239975 C106.076683,15.5829874 105.279347,17.0787663 103.684055,17.9119522 C102.087837,18.7445201 99.7295126,19.161113 96.6097011,19.161113 C95.7876407,19.161113 94.7143266,19.1314447 93.3891407,19.0730352 C92.0633367,19.0146256 90.7075553,18.8906985 89.3239597,18.7037262 L89.3239597,0.612836683 C89.7927815,0.542374372 90.3323744,0.478092965 90.9430478,0.419683417 C91.5531031,0.360964824 92.174902,0.30811809 92.8078266,0.260216081 C93.4419874,0.214477387 94.0576055,0.178628141 94.6562262,0.155140703 C95.2545377,0.132271357 95.776515,0.120218593 96.2224674,0.120218593 C99.1553066,0.120218593 101.349528,0.537120603 102.803894,1.36999749 C104.25857,2.20225628 104.985754,3.49839196 104.985754,5.25871357 C104.985754,6.15 104.77993,6.9077789 104.370136,7.52865075 C103.959106,8.15075879 103.401897,8.68478894 102.697892,9.12981407 C103.684055,9.48212563 104.492827,9.98710553 105.126987,10.6438266 Z M95.201691,7.51103518 L96.9258542,7.51103518 C97.8183769,7.51103518 98.4163793,7.31819095 98.721407,6.93064824 C99.0261256,6.54341458 99.178485,6.13825628 99.178485,5.7161005 C99.178485,5.31805025 99.0199447,4.94812311 98.7037914,4.60786432 C98.386711,4.26791458 97.8063242,4.09732161 96.9620126,4.09732161 C96.7030326,4.09732161 96.4041859,4.10350251 96.0636181,4.11462815 C95.7233593,4.12760804 95.4365654,4.14398744 95.201691,4.16809297 L95.201691,7.51103518 Z M99.7418744,13.0367638 C99.7418744,12.8021985 99.7007714,12.5738141 99.6188744,12.3509925 C99.5363593,12.1278619 99.3895628,11.9340905 99.178485,11.7702965 C98.9680251,11.6055754 98.6741231,11.4705226 98.2986332,11.3654472 C97.9231432,11.2597538 97.429907,11.206907 96.8207789,11.206907 L95.201691,11.206907 L95.201691,14.8320075 C95.2718442,14.8320075 95.4597437,14.8440603 95.7650804,14.8672387 C96.0691809,14.8907262 96.479902,14.9021608 96.9969346,14.9021608 C97.9815528,14.9021608 98.6858668,14.7380577 99.1077136,14.4098518 C99.5307965,14.0810276 99.7418744,13.6239498 99.7418744,13.0367638 Z M122.865874,7.65226885 L122.865874,17.9641809 C121.973661,18.2228518 120.894475,18.4799773 119.62739,18.7380302 C118.359995,18.9960829 117.023065,19.1258819 115.614746,19.1258819 C114.394945,19.1258819 113.274965,19.0143165 112.254188,18.791804 C111.232794,18.5686734 110.359432,18.2104899 109.63194,17.7181809 C108.90352,17.2255628 108.335186,16.5744046 107.924774,15.7643969 C107.514053,14.9550075 107.309156,13.9638995 107.309156,12.7904548 C107.309156,11.6411156 107.554538,10.6911106 108.048083,9.94013066 C108.54101,9.18915075 109.174244,8.5902211 109.94902,8.14457789 C110.722869,7.69986181 111.579234,7.38803518 112.518113,7.21218844 C113.456374,7.03634171 114.371148,6.94826381 115.263053,6.94826381 L117.410299,6.94826381 C117.386193,6.52610804 117.269065,6.17379648 117.057987,5.89256533 C116.847219,5.61040703 116.577113,5.39407538 116.249216,5.24140703 C115.920083,5.0887387 115.556028,4.98335427 115.157359,4.92401758 C114.758382,4.86622613 114.34797,4.83624874 113.925814,4.83624874 C113.362734,4.83624874 112.705394,4.90114824 111.954724,5.03002011 C111.203126,5.15889196 110.429276,5.36409799 109.63194,5.64625628 C109.420553,5.2472789 109.238216,4.88384171 109.086166,4.5543995 C108.932879,4.22588442 108.816369,3.89211558 108.734472,3.55216583 C108.651957,3.21190703 108.593548,2.85990452 108.558008,2.49615829 C108.523394,2.1327211 108.505779,1.71612815 108.505779,1.24607035 C109.63194,0.871816583 110.752229,0.589967337 111.866955,0.402376885 C112.981063,0.214168342 113.983915,0.120218593 114.875819,0.120218593 C116.096239,0.120218593 117.198603,0.266706031 118.183839,0.56060804 C119.170002,0.85389196 120.008133,1.30509799 120.701322,1.91515326 C121.392965,2.52613568 121.927304,3.30554773 122.302176,4.25586181 C122.677048,5.20617588 122.865874,6.33820854 122.865874,7.65226885 Z M117.410299,10.6781307 L115.404286,10.6781307 C114.581917,10.6781307 113.890583,10.8542864 113.326884,11.206907 C112.764113,11.5582915 112.482573,12.0515276 112.482573,12.6850703 C112.482573,13.1545101 112.587957,13.5238191 112.799035,13.7945427 C113.01104,14.0640302 113.274965,14.2686181 113.591118,14.4098518 C113.907889,14.5504674 114.247839,14.6437989 114.611894,14.6913919 C114.975332,14.7383668 115.310337,14.7618542 115.614746,14.7618542 C115.825824,14.7618542 116.131161,14.7383668 116.530138,14.6913919 C116.929116,14.6437989 117.22209,14.5977513 117.410299,14.5504674 L117.410299,10.6781307 Z" id="GMHBA"></path>
                                        <path d="M16.1278342,11.0072638 C16.0793141,11.5045176 16.0088518,12.0502914 15.915211,12.6411859 L12.5212764,12.6411859 L12.5212764,16.0326482 C11.9047311,16.126289 11.3496859,16.1970603 10.8524322,16.2452714 C10.3551784,16.2931734 9.90459046,16.3160427 9.50190452,16.3160427 C9.09983668,16.3160427 8.65048493,16.2931734 8.15292211,16.2452714 C7.65566835,16.1970603 7.11082161,16.126289 6.51961809,16.0326482 L6.51961809,12.6411859 L3.16153266,12.6411859 C3.04347738,12.1201357 2.96096231,11.6052663 2.91336934,11.0953417 C2.86515829,10.5869623 2.84259799,10.0968166 2.84259799,9.62243216 C2.84259799,9.17215326 2.86515829,8.68757035 2.91336934,8.16652011 C2.96096231,7.64516081 3.04347738,7.13616332 3.16153266,6.63952764 L6.51961809,6.63952764 L6.51961809,3.28391458 C7.03943216,3.1658593 7.5549196,3.08396231 8.06391709,3.03544221 C8.57260553,2.98846734 9.06398744,2.96467086 9.53775377,2.96467086 C9.98741458,2.96467086 10.4726156,2.98846734 10.9939749,3.03544221 C11.514098,3.08396231 12.0240227,3.1658593 12.5212764,3.28391458 L12.5212764,6.63952764 L15.915211,6.63952764 C16.0088518,7.25452764 16.0793141,7.8105 16.1278342,8.30775377 C16.174809,8.80500754 16.1986055,9.25559548 16.1986055,9.65735427 C16.1986055,10.0603492 16.174809,10.51001 16.1278342,11.0072638 M18.7009447,0.460786432 C18.1718593,0.334386934 12.3948769,0.119909548 9.52013819,0.119909548 C6.65250754,0.119909548 0.893758793,0.334386934 0.339949749,0.460786432 C0.214786432,0.988944724 0.000309045227,6.76592714 0.000309045227,9.64066583 C0.000309045227,12.5092236 0.214786432,18.2679724 0.339949749,18.8208542 C0.869344221,18.9463266 6.64694472,19.160804 9.52013819,19.160804 C12.388696,19.160804 18.1468266,18.9463266 18.7009447,18.8208542 C18.8273442,18.2917689 19.0408945,12.5147864 19.0408945,9.64004773 C19.0408945,6.77210804 18.8273442,1.01366834 18.7009447,0.460786432" id="+"></path>
                                    </g>
                                </g>
                            </g>
                        </g>
                    </g>
                </g>
            </g>
        </g>
    </g>
</svg>