<?xml version="1.0" encoding="UTF-8"?>
<svg width="127px" height="120px" viewBox="0 0 127 120" version="1.1" xmlns="http://www.w3.org/2000/svg" xmlns:xlink="http://www.w3.org/1999/xlink">
    <!-- Generator: Sketch 54.1 (76490) - https://sketchapp.com -->
    <title>couple</title>
    <desc>Created with Sketch.</desc>
    <g id="Symbols" stroke="none" stroke-width="1" fill="none" fill-rule="evenodd">
        <g id="Lifestage-/-Couple" transform="translate(-17.000000, -20.000000)" fill="#35869A">
            <g id="couple" transform="translate(17.000000, 20.000000)">
                <path d="M60.8232099,63.7054321 L47.5311111,59.7177778 L47.5311111,54.3338272 C52.4434568,50.6962963 55.7669136,45.0291358 56.2387654,38.5795062 C58.8046914,37.8071605 60.6792593,35.4222222 60.6792593,32.6079012 C60.6792593,30.7861728 59.8604938,29.0595062 58.4879012,27.885679 L58.4879012,15.077037 C58.4879012,11.5654321 56.7093827,8.28074074 53.7945679,6.31234568 C52.82,2.65111111 49.5360494,0.077037037 45.6790123,0.077037037 L28.1481481,0.077037037 C18.668642,0.077037037 10.9567901,7.78888889 10.9567901,17.2683951 L10.9567901,27.885679 C9.58419753,29.0595062 8.7654321,30.7859259 8.7654321,32.6079012 C8.7654321,35.4222222 10.64,37.8071605 13.2059259,38.5795062 C13.6777778,45.0291358 17.0009877,50.6962963 21.9135802,54.3338272 L21.9135802,59.7177778 L6.00469136,64.4903704 C2.41308642,65.5679012 0,68.8111111 0,72.5609877 L0,93.9659259 C0,94.988642 0.829135802,95.8177778 1.85185185,95.8177778 L2.19135802,95.8177778 L2.19135802,118.070864 C2.19135802,119.09358 3.02049383,119.922716 4.04320988,119.922716 C5.06592593,119.922716 5.89506173,119.09358 5.89506173,118.070864 L5.89506173,95.8177778 L13.1481481,95.8177778 L13.1481481,118.070864 C13.1481481,119.09358 13.977284,119.922716 15,119.922716 C16.022716,119.922716 16.8518519,119.09358 16.8518519,118.070864 L16.8518519,83.0091358 C16.8518519,82.7214815 16.7849383,82.4380247 16.6562963,82.1809877 L12.2735802,73.4155556 C11.8162963,72.5007407 10.7041975,72.1298765 9.7891358,72.5874074 C8.87432099,73.0446914 8.50345679,74.157037 8.96098765,75.0718519 L13.1481481,83.4464198 L13.1481481,92.1140741 L4.04320988,92.1140741 L3.7037037,92.1140741 L3.7037037,72.5609877 C3.7037037,70.4595062 5.0562963,68.6417284 7.0691358,68.0377778 L13.7192593,66.042716 C15.98,75.6488889 24.6802469,82.6693827 34.7224691,82.6693827 C39.885679,82.6693827 44.8817284,80.8167901 48.7901235,77.4525926 C52.2612346,74.4649383 54.682716,70.4560494 55.7212346,66.0412346 L59.7587654,67.2528395 C59.9362963,67.3061728 60.1153086,67.331358 60.2916049,67.331358 C61.0881481,67.331358 61.8239506,66.8133333 62.0646914,66.0111111 C62.3585185,65.0316049 61.802716,63.9992593 60.8232099,63.7054321 Z M16.8518519,36.9906173 C16.8518519,35.9679012 16.022716,35.1387654 15,35.1387654 C13.6044444,35.1387654 12.4691358,34.0034568 12.4691358,32.6079012 C12.4691358,31.7096296 12.9441975,30.8967901 13.74,30.4335802 C13.7809877,30.4096296 13.8182716,30.3814815 13.857037,30.3548148 C14.2093827,30.1758025 14.6002469,30.077037 15,30.077037 L17.8032099,30.077037 C19.5464198,30.077037 21.0879012,28.9659259 21.6390123,27.3123457 L22.9148148,23.4851852 C27.2683951,23.3891358 40.9888889,22.7797531 48.6985185,18.9246914 C49.6133333,18.4674074 49.9841975,17.3550617 49.5266667,16.4402469 C49.0693827,15.5254321 47.957284,15.1545679 47.0422222,15.6120988 C38.7728395,19.7466667 21.7449383,19.7992593 21.5738272,19.7992593 C20.7767901,19.7995062 20.0691358,20.3093827 19.817284,21.0654321 L18.1254321,26.1412346 C18.0790123,26.28 17.9498765,26.3733333 17.8032099,26.3733333 L15,26.3733333 C14.8866667,26.3733333 14.7735802,26.3782716 14.6604938,26.3844444 L14.6604938,17.2683951 C14.6604938,9.83135802 20.7111111,3.78074074 28.1481481,3.78074074 L45.6790123,3.78074074 C48.0019753,3.78074074 49.9538272,5.45481481 50.32,7.76123457 C50.408642,8.31925926 50.7471605,8.80641975 51.2392593,9.08395062 C53.425679,10.317037 54.7837037,12.6133333 54.7837037,15.077037 L54.7837037,28.8330864 C54.7837037,29.4923457 55.134321,30.1019753 55.7041975,30.4335802 C56.5,30.8967901 56.9750617,31.7096296 56.9750617,32.6079012 C56.9750617,34.0034568 55.8397531,35.1387654 54.4441975,35.1387654 C53.4214815,35.1387654 52.5923457,35.9679012 52.5923457,36.9906173 C52.5923457,46.8444444 44.5758025,54.8609877 34.7219753,54.8609877 C24.8681481,54.8609877 16.8518519,46.8441975 16.8518519,36.9906173 Z M43.8271605,56.5444444 L43.8271605,61.0955556 C43.8271605,66.1160494 39.742716,70.2004938 34.7222222,70.2004938 C29.7096296,70.2004938 25.6308642,66.1288889 25.6177778,61.1192593 C25.6177778,61.1103704 25.617284,61.1014815 25.617284,61.0928395 L25.617284,56.5444444 C28.3854321,57.8385185 31.4701235,58.5646914 34.7222222,58.5646914 C37.974321,58.5646914 41.0590123,57.8387654 43.8271605,56.5444444 Z M46.3735802,74.645679 C43.137037,77.4316049 38.9990123,78.9659259 34.7222222,78.9659259 C26.3271605,78.9659259 19.0676543,73.0432099 17.2780247,64.9753086 L22.1459259,63.5150617 C23.2804938,69.4244444 28.4869136,73.9041975 34.7222222,73.9041975 C40.9577778,73.9041975 46.1639506,69.4244444 47.2985185,63.5148148 L52.1661728,64.9753086 C51.3362963,68.7165432 49.3076543,72.1204938 46.3735802,74.645679 Z" id="Shape"></path>
                <g id="Combined-Shape-2" opacity="0.64" transform="translate(24.104938, 30.756049)">
                    <path d="M16.1666667,11.3708642 C16.9609877,12.0150617 17.0824691,13.1809877 16.4382716,13.9755556 C14.9553086,15.8034568 12.8338272,16.8520988 10.617284,16.8520988 C8.40074074,16.8520988 6.27925926,15.8034568 4.79679012,13.9755556 C4.15259259,13.1812346 4.27407407,12.0150617 5.06839506,11.3708642 C5.86271605,10.7266667 7.0291358,10.8481481 7.67308642,11.6424691 C8.46074074,12.6138272 9.50641975,13.148642 10.6175309,13.148642 C11.728642,13.148642 12.774321,12.6138272 13.5619753,11.6424691 C14.2061728,10.8481481 15.3723457,10.7264198 16.1666667,11.3708642 Z M1.85185185,3.55271368e-15 C2.8745679,3.55271368e-15 3.7037037,0.829382716 3.7037037,1.85185185 L3.7037037,4.04320988 C3.7037037,5.06592593 2.8745679,5.89506173 1.85185185,5.89506173 C0.829135802,5.89506173 -1.61648472e-13,5.06592593 -1.61648472e-13,4.04320988 L-1.61648472e-13,1.85185185 C-1.61648472e-13,0.829135802 0.829135802,3.55271368e-15 1.85185185,3.55271368e-15 Z M19.382716,3.55271368e-15 C20.4054321,3.55271368e-15 21.2345679,0.829382716 21.2345679,1.85185185 L21.2345679,4.04320988 C21.2345679,5.06592593 20.4054321,5.89506173 19.382716,5.89506173 C18.36,5.89506173 17.5308642,5.06592593 17.5308642,4.04320988 L17.5308642,1.85185185 C17.5308642,0.829135802 18.36,3.55271368e-15 19.382716,3.55271368e-15 Z M75.3333333,22.3271605 C76.1276543,22.971358 76.2491358,24.1377778 75.6049383,24.9318519 C74.1219753,26.76 72.0009877,27.8083951 69.7844444,27.8083951 C67.5679012,27.8083951 65.4461728,26.76 63.9634568,24.9318519 C63.3192593,24.1375309 63.4407407,22.971358 64.2350617,22.3271605 C65.0293827,21.682963 66.1958025,21.8044444 66.8397531,22.5987654 C67.6274074,23.5701235 68.6730864,24.1049383 69.7841975,24.1049383 C70.8953086,24.1049383 71.9409877,23.5701235 72.728642,22.5987654 C73.3728395,21.8044444 74.5390123,21.682716 75.3333333,22.3271605 Z M61.0185185,10.9567901 C62.0412346,10.9567901 62.8703704,11.785679 62.8703704,12.808642 L62.8703704,15 C62.8703704,16.022716 62.0412346,16.8518519 61.0185185,16.8518519 C59.9958025,16.8518519 59.1666667,16.022716 59.1666667,15 L59.1666667,12.808642 C59.1666667,11.7859259 59.9958025,10.9567901 61.0185185,10.9567901 Z M78.5493827,10.9567901 C79.5720988,10.9567901 80.4012346,11.7861728 80.4012346,12.808642 L80.4012346,15 C80.4012346,16.022716 79.5720988,16.8518519 78.5493827,16.8518519 C77.5266667,16.8518519 76.6975309,16.022716 76.6975309,15 L76.6975309,12.808642 C76.6975309,11.7859259 77.5266667,10.9567901 78.5493827,10.9567901 Z" id="Combined-Shape"></path>
                </g>
                <path d="M121.12321,79.6367901 L106.097037,73.6261728 C105.969383,73.5750617 105.847901,73.5140741 105.73284,73.4451852 C115.910123,71.3958025 120.676296,69.4696296 120.88716,69.3832099 C121.660988,69.0661728 122.12642,68.2696296 122.022716,67.4397531 C122.000988,67.2654321 119.845679,49.8491358 119.845679,34.7990123 C119.845679,20.4864198 108.201481,8.84222222 93.8888889,8.84222222 C79.5762963,8.84222222 67.9320988,20.4866667 67.9320988,34.7995062 C67.9320988,49.8424691 65.7767901,67.2659259 65.7550617,67.4402469 C65.651358,68.2701235 66.1165432,69.0664198 66.8906173,69.3837037 C67.1014815,69.4701235 71.8676543,71.3960494 82.0449383,73.445679 C81.9298765,73.5145679 81.8083951,73.5755556 81.6807407,73.6266667 L66.6548148,79.637037 C63.437284,80.9239506 61.3582716,83.9948148 61.3582716,87.4602469 L61.3582716,92.114321 L56.2962963,92.114321 L56.2962963,83.4466667 L60.4834568,75.0720988 C60.9409877,74.157284 60.5701235,73.0449383 59.6553086,72.5876543 C58.7404938,72.1301235 57.6281481,72.5009877 57.1708642,73.4158025 L52.7881481,82.1812346 C52.6595062,82.4385185 52.5925926,82.7217284 52.5925926,83.0093827 L52.5925926,118.071111 C52.5925926,119.093827 53.4217284,119.922963 54.4444444,119.922963 C55.4671605,119.922963 56.2962963,119.093827 56.2962963,118.071111 L56.2962963,95.8180247 L61.3580247,95.8180247 L61.3580247,98.3498765 C61.3580247,98.8412346 61.5533333,99.3123457 61.9007407,99.6597531 C62.2479012,100.006914 62.7187654,100.201728 63.2098765,100.201728 C63.2101235,100.201728 63.2103704,100.201728 63.2108642,100.201728 L63.5493827,100.201728 L63.5493827,118.071111 C63.5493827,119.093827 64.3785185,119.922963 65.4012346,119.922963 C66.4239506,119.922963 67.2530864,119.093827 67.2530864,118.071111 L67.2530864,100.200741 L72.3148148,100.200741 L72.3148148,118.071111 C72.3148148,119.093827 73.1439506,119.922963 74.1666667,119.922963 C75.1893827,119.922963 76.0185185,119.093827 76.0185185,118.071111 L76.0185185,93.9661728 C76.0185185,92.9434568 75.1893827,92.114321 74.1666667,92.114321 C73.1439506,92.114321 72.3148148,92.9434568 72.3148148,93.9661728 L72.3148148,96.497037 L65.0617284,96.497037 L65.0617284,87.46 C65.0617284,85.5177778 66.2269136,83.7967901 68.0301235,83.0755556 L75.417037,80.1207407 C77.9550617,88.1241975 85.4004938,93.6264198 93.8888889,93.6264198 C102.377284,93.6264198 109.822716,88.1239506 112.360741,80.1207407 L119.747654,83.0755556 C121.550864,83.7967901 122.716049,85.5180247 122.716049,87.46 L122.716049,96.497037 L115.462963,96.497037 L115.462963,93.9661728 C115.462963,92.9434568 114.633827,92.114321 113.611111,92.114321 C112.588395,92.114321 111.759259,92.9434568 111.759259,93.9661728 L111.759259,118.071111 C111.759259,119.093827 112.588395,119.922963 113.611111,119.922963 C114.633827,119.922963 115.462963,119.093827 115.462963,118.071111 L115.462963,100.200741 L120.524691,100.200741 L120.524691,118.071111 C120.524691,119.093827 121.353827,119.922963 122.376543,119.922963 C123.399259,119.922963 124.228395,119.093827 124.228395,118.071111 L124.228395,100.200741 L124.567901,100.200741 C125.590617,100.200741 126.419753,99.3716049 126.419753,98.3488889 L126.419753,87.46 C126.419753,83.9945679 124.340741,80.9239506 121.12321,79.6367901 Z M71.6355556,34.7992593 C71.6358025,22.528642 81.6185185,12.5461728 93.8888889,12.5461728 C106.159259,12.5461728 116.141975,22.5288889 116.141975,34.7992593 C116.141975,47.5128395 117.654074,61.8666667 118.174321,66.4283951 C116.122716,67.1254321 111.63284,68.4990123 104.506173,69.9133333 L104.506173,66.7251852 C105.534321,66.1449383 106.517778,65.4809877 107.441975,64.7338272 C111.204691,61.6925926 113.86321,57.4330864 114.928148,52.7404938 C115.282963,51.1767901 115.462963,49.5641975 115.462963,47.9474074 C115.462963,37.1609877 107.649877,35.6098765 100.094321,34.1098765 C95.2622222,33.1506173 90.265679,32.1585185 86.2802469,28.9703704 C85.8444444,28.6214815 85.2735802,28.4891358 84.7281481,28.6083951 C84.182716,28.7274074 83.7195062,29.0871605 83.4681481,29.5859259 C83.4577778,29.6064198 82.4202469,31.6488889 80.6654321,33.6377778 C79.1792593,35.3222222 76.8451852,37.3301235 74.1664198,37.3301235 C73.2548148,37.3301235 72.3888889,37.5283951 71.6076543,37.8817284 C71.625679,36.8479012 71.6355556,35.8182716 71.6355556,34.7992593 Z M93.8888889,65.8180247 C89.7540741,65.8180247 85.8725926,64.4469136 82.6639506,61.8533333 C79.545679,59.3328395 77.342963,55.8054321 76.4612346,51.9207407 C76.1674074,50.625679 76.0185185,49.288642 76.0185185,47.9474074 C76.0185185,46.9246914 75.1893827,46.0955556 74.1666667,46.0955556 C72.7711111,46.0955556 71.6358025,44.9602469 71.6358025,43.5646914 C71.6358025,42.1691358 72.7711111,41.0338272 74.1666667,41.0338272 C79.7822222,41.0338272 83.8553086,35.9488889 85.6945679,33.1039506 C90.0133333,35.8844444 94.9528395,36.8651852 99.3730864,37.742963 C107.512099,39.3587654 111.759259,40.5464198 111.759259,47.9476543 C111.759259,49.2891358 111.610123,50.6259259 111.316543,51.9209877 C110.435062,55.805679 108.232099,59.3330864 105.113827,61.8535802 C101.905185,64.4471605 98.0237037,65.8180247 93.8888889,65.8180247 Z M69.6034568,66.4283951 C69.9311111,63.5548148 70.6523457,56.7960494 71.1412346,49.0098765 C71.5291358,49.2261728 71.94,49.4059259 72.3728395,49.5362963 C72.4518519,50.617284 72.6111111,51.6898765 72.8496296,52.7404938 C73.9145679,57.4330864 76.5733333,61.6925926 80.3358025,64.7338272 C81.26,65.4809877 82.2434568,66.1449383 83.2716049,66.7251852 L83.2716049,69.9133333 C76.1437037,68.4987654 71.6538272,67.1251852 69.6034568,66.4283951 Z M93.8888889,89.922963 C86.9308642,89.922963 80.8375309,85.3548148 78.8651852,78.7417284 L83.0560494,77.0654321 C85.4367901,76.1130864 86.9753086,73.8409877 86.9753086,71.2767901 L86.9753086,68.3767901 C89.1901235,69.1259259 91.5264198,69.5219753 93.8888889,69.5219753 C96.251358,69.5219753 98.5876543,69.1259259 100.802469,68.3767901 L100.802469,71.2767901 C100.802469,73.8409877 102.340741,76.1130864 104.721481,77.0654321 L108.912593,78.7419753 C106.940247,85.354321 100.84716,89.922963 93.8888889,89.922963 Z" id="Shape"></path>
            </g>
        </g>
    </g>
</svg>