<?xml version="1.0" encoding="UTF-8"?>
<svg width="18px" height="18px" viewBox="0 0 18 18" version="1.1" xmlns="http://www.w3.org/2000/svg" xmlns:xlink="http://www.w3.org/1999/xlink">
    <!-- Generator: Sketch 54.1 (76490) - https://sketchapp.com -->
    <title>heart</title>
    <desc>Created with Sketch.</desc>
    <g id="Page-1" stroke="none" stroke-width="1" fill="none" fill-rule="evenodd">
        <g id="Desktop-Step8" transform="translate(-264.000000, -336.000000)" fill="#FFFFFF" fill-rule="nonzero">
            <g id="Group-3" transform="translate(257.000000, 192.000000)">
                <g id="Group-4" transform="translate(0.000000, 136.000000)">
                    <g id="Points">
                        <g id="Point">
                            <g id="Icon" transform="translate(0.000000, 1.000000)">
                                <g id="heart" transform="translate(7.000000, 7.000000)">
                                    <path d="M14.1115088,1.01715789 C14.6653684,1.63961404 14.970386,2.4717193 14.970386,3.3602807 C14.970386,4.92347368 13.962386,6.09003509 12.8730526,7.11782456 C12.3119649,7.64715789 11.6654035,8.19287719 10.9167368,8.82480702 C10.4859649,9.18835088 10.0405614,9.56431579 9.56726316,9.97449123 C9.46835088,10.0601754 9.34547368,10.1030526 9.22263158,10.1030526 C9.09975439,10.1030526 8.97687719,10.0601754 8.878,9.97449123 C8.40463158,9.56421053 7.95915789,9.18824561 7.52838596,8.82463158 C6.36263158,7.84070175 5.35589474,6.99098246 4.65403509,6.16431579 C3.84964912,5.21680702 3.47494737,4.32582456 3.47494737,3.36024561 C3.47494737,2.4717193 3.78,1.63957895 4.33382456,1.01712281 C4.9174386,0.36122807 5.72649123,-5.87085935e-13 6.61189474,-5.87085935e-13 C7.60017544,-5.87085935e-13 8.45684211,0.467298246 9.08933333,1.35133333 C9.13677193,1.41761404 9.18112281,1.48385965 9.22266667,1.54950877 C9.26424561,1.48389474 9.30859649,1.41761404 9.35603509,1.35133333 C9.98849123,0.467298246 10.8451579,-5.87085935e-13 11.8334386,-5.87085935e-13 C12.7188421,-5.87085935e-13 13.5278596,0.36122807 14.1115088,1.01715789 Z M12.1508421,6.35231579 C13.4225263,5.15245614 13.918,4.31357895 13.918,3.3602807 C13.918,2.04463158 13.0218246,1.05245614 11.8334386,1.05245614 C10.2676491,1.05245614 9.73494737,2.9105614 9.72975439,2.92933333 C9.66659649,3.15729825 9.45915789,3.31512281 9.22263158,3.31512281 C8.98610526,3.31512281 8.77866667,3.15729825 8.71550877,2.92933333 C8.71452632,2.92596491 8.56964912,2.42449123 8.21673684,1.94077193 C7.78673684,1.35133333 7.24677193,1.05245614 6.61185965,1.05245614 C5.4234386,1.05245614 4.52729825,2.04459649 4.52736842,3.3602807 C4.52736842,4.9145614 5.91249123,6.08361404 8.20719298,8.02042105 C8.53494737,8.29708772 8.87119298,8.58087719 9.22266667,8.88217544 C9.57407018,8.58084211 9.91021053,8.29712281 10.2379649,8.02052632 C10.9747018,7.39870175 11.6109825,6.86168421 12.1508421,6.35231579 Z M16.3843509,10.5981404 C17.2547719,10.5981404 17.9629474,11.3062807 17.9629474,12.1767018 C17.9629474,12.5209474 17.854,12.8481754 17.6478596,13.1230526 C17.6477895,13.1231228 17.6477544,13.123193 17.6477193,13.1232632 L15.1214386,16.4915789 C14.4295088,17.4141404 13.3279298,17.9649474 12.1747368,17.9649474 L7.47621053,17.9649474 C6.36901754,17.9649474 5.26719298,17.8130526 4.20129825,17.5134386 L3.88968421,17.4258596 C3.60014035,17.7559649 3.1757193,17.9649825 2.70315789,17.9649825 L0.528210526,17.9649825 C0.237578947,17.9649825 0.002,17.7293684 0.002,17.4387719 L0.002,11.124386 C0.002,10.8337544 0.237614035,10.5981754 0.528210526,10.5981754 L2.70315789,10.5981754 C3.23564912,10.5981754 3.70701754,10.8634386 3.99308772,11.2684561 C5.3802807,10.082 7.44575439,10.0926316 8.81989474,11.3018947 C9.07540351,11.5267368 9.40357895,11.6505614 9.74389474,11.6505614 L12.1747719,11.6505614 C12.8823509,11.6505614 13.4826316,12.1185263 13.6825263,12.761193 L15.2290877,11.1009123 C15.5267368,10.7814035 15.9478246,10.5981404 16.3843509,10.5981404 Z M3.22936842,16.3863158 L3.22936842,12.1767368 C3.22936842,11.8865614 2.99329825,11.6505263 2.70315789,11.6505263 L1.05438596,11.6505263 L1.05438596,16.9125263 L2.70315789,16.9125263 C2.99333333,16.9125263 3.22936842,16.6764561 3.22936842,16.3863158 Z M16.8058596,12.4917193 C16.8743509,12.400386 16.9105614,12.2914737 16.9105614,12.1767368 C16.9105614,11.8865614 16.6744912,11.6505263 16.3843509,11.6505263 C16.2367018,11.6505263 16.0998947,11.7100702 15.9991579,11.8182105 L13.6825614,14.3050877 C13.3849825,14.6245263 12.9639649,14.8077193 12.5274386,14.8077193 L8.43501754,14.8077193 C8.14438596,14.8077193 7.90880702,14.5721404 7.90880702,14.2815088 C7.90880702,13.9908772 8.14442105,13.7552982 8.43501754,13.7552982 L12.1748421,13.7552982 C12.4650175,13.7552982 12.7010526,13.5192281 12.7010526,13.2290877 C12.7010526,12.9389474 12.4649825,12.7028772 12.1748421,12.7028772 L9.74396491,12.7028772 C9.14750877,12.7028772 8.57252632,12.4858947 8.12477193,12.0918947 C7.13382456,11.2198947 5.63940351,11.2199649 4.64852632,12.0918947 L4.28182456,12.4145965 L4.28182456,16.3863509 C4.28182456,16.4051579 4.28105263,16.4237895 4.28038596,16.4424561 L4.48617544,16.5003158 C5.45936842,16.7738596 6.46540351,16.9125614 7.47631579,16.9125614 L12.1747368,16.9125614 C12.9984561,16.9125614 13.7852982,16.5191579 14.2795439,15.8601754 L16.8057895,12.4917895 C16.8058246,12.4917544 16.8058596,12.4917544 16.8058596,12.4917193 Z" id="Combined-Shape"></path>
                                </g>
                            </g>
                        </g>
                    </g>
                </g>
            </g>
        </g>
    </g>
</svg>