<?xml version="1.0" encoding="UTF-8"?>
<svg width="13px" height="18px" viewBox="0 0 13 18" version="1.1" xmlns="http://www.w3.org/2000/svg" xmlns:xlink="http://www.w3.org/1999/xlink">
    <!-- Generator: Sketch 54.1 (76490) - https://sketchapp.com -->
    <title>lock (1)</title>
    <desc>Created with Sketch.</desc>
    <g id="Page-1" stroke="none" stroke-width="1" fill="none" fill-rule="evenodd">
        <g id="Desktop-Step8" transform="translate(-267.000000, -448.000000)" fill="#FFFFFF" fill-rule="nonzero">
            <g id="Group-3" transform="translate(257.000000, 192.000000)">
                <g id="Group-4" transform="translate(0.000000, 136.000000)">
                    <g id="Points">
                        <g id="Point" transform="translate(0.000000, 112.000000)">
                            <g id="Icon" transform="translate(0.000000, 1.000000)">
                                <g id="lock-(1)" transform="translate(10.400000, 7.200000)">
                                    <path d="M11.5818801,7.656061 C11.8955519,7.65592236 12.1497606,7.91013105 12.149622,8.22380293 L12.149622,17.0322581 C12.1487903,17.3453755 11.8951361,17.5990297 11.5818801,17.6 L11.0141381,17.6 L11.0141381,15.3460812 L1.13548387,15.3460812 L1.13548387,16.4645161 L9.87865425,16.4645161 L9.87865425,17.6 L0.567741935,17.6 C0.254624487,17.5990297 0.000970263871,17.3453755 2.67026542e-15,17.0322581 L2.67026542e-15,8.22380293 C-0.000138608871,7.91013105 0.254208652,7.65592236 0.567741935,7.656061 L2.33916331,7.656061 L2.33916331,3.73578629 C2.33916331,1.67259325 4.01161796,0 6.074811,0 C8.13800403,0 9.81059729,1.67259325 9.81059729,3.73578629 L9.81059729,7.656061 L11.5818801,7.656061 Z M3.47464718,3.73578629 L3.47464718,7.656061 L8.67511342,7.656061 L8.67511342,3.73578629 C8.67511342,2.29965979 7.5109375,1.13548387 6.074811,1.13548387 C4.63882309,1.13548387 3.47464718,2.29965979 3.47464718,3.73578629 Z M11.0141381,14.2105973 L11.0141381,8.79154487 L1.13548387,8.79154487 L1.13548387,14.2105973 L11.0141381,14.2105973 Z M4.59959677,11.6161164 C4.27386591,11.3502646 4.17448336,10.8950731 4.35980345,10.5176411 C4.5449849,10.1402092 4.96607863,9.94047379 5.37552925,10.0355595 C5.78497984,10.1306452 6.0749496,10.4956023 6.074811,10.916003 C6.074811,10.4956023 6.36464215,10.1307838 6.77409274,10.0356981 C7.18368196,9.94061239 7.6046371,10.1403478 7.78981855,10.5176411 C7.9751386,10.8950731 7.87589465,11.3502646 7.55016382,11.6161164 L6.38404736,12.7017011 C6.20981602,12.8638735 5.93994457,12.8638735 5.7657132,12.7017011 L4.59959677,11.6161164 Z" id="Combined-Shape"></path>
                                </g>
                            </g>
                        </g>
                    </g>
                </g>
            </g>
        </g>
    </g>
</svg>