<?xml version="1.0" encoding="UTF-8"?>
<svg width="20px" height="20px" viewBox="0 0 20 20" version="1.1" xmlns="http://www.w3.org/2000/svg" xmlns:xlink="http://www.w3.org/1999/xlink">
    <!-- Generator: Sketch 54.1 (76490) - https://sketchapp.com -->
    <title>Icons / Marker</title>
    <desc>Created with Sketch.</desc>
    <g id="Page-1" stroke="none" stroke-width="1" fill="none" fill-rule="evenodd">
        <g id="Desktop-Step8" transform="translate(-770.000000, -450.000000)" fill="#000000">
            <g id="Group-3" transform="translate(257.000000, 192.000000)">
                <g id="Group-4" transform="translate(0.000000, 136.000000)">
                    <g id="Group-2" transform="translate(503.000000, 0.000000)">
                        <g id="Atoms-/-Textfield-/-Placeholder-/-Left-Icon" transform="translate(0.000000, 86.000000)">
                            <g id="Textfield" transform="translate(0.000000, 22.000000)">
                                <g id="Icons-/-phone" transform="translate(8.000000, 12.000000)">
                                    <g id="telephone" transform="translate(2.000000, 2.000000)">
                                        <path d="M19.4854297,14.7512891 L16.9991406,12.265 C16.3136719,11.5795703 15.1982812,11.5795703 14.5128516,12.265 L13.3827344,13.3951172 C12.8634375,13.9144141 12.0184375,13.9142578 11.4993359,13.3953125 L6.60089844,8.49269531 C6.08039062,7.9721875 6.0803125,7.12972656 6.60089844,6.60914062 C6.78292969,6.42710937 7.305625,5.90441406 7.73101562,5.47902344 C8.41347656,4.79660156 8.42300781,3.6846875 7.73035156,2.99210938 L5.24472656,0.514296875 C4.55925781,-0.171132812 3.44390625,-0.171132812 2.76027344,0.5125 C2.24871094,1.01960938 2.08371094,1.18320313 1.85433594,1.41058594 C-0.617539062,3.88242188 -0.617539062,7.90441406 1.85421875,10.3761719 L9.615625,18.1416406 C12.0932812,20.6193359 16.1034375,20.6195312 18.5812891,18.1416406 L19.4854297,17.2375391 C20.1708984,16.5520703 20.1708984,15.4367578 19.4854297,14.7512891 Z M3.58722656,1.34304687 C3.81570312,1.11457031 4.18742187,1.11453125 4.41664062,1.34367188 L6.90226562,3.82148437 C7.13128906,4.05050781 7.13128906,4.42117187 6.90226562,4.65023437 L6.48785156,5.06460937 L3.17496094,1.75171875 L3.58722656,1.34304687 Z M10.4445312,17.3130078 L2.68308594,9.54746094 C0.770664062,7.63503906 0.665546875,4.63210937 2.35980469,2.59410156 L5.66308594,5.89738281 C4.79511719,6.88132812 4.83128906,8.38066406 5.77195313,9.32132812 L10.6702344,14.2237109 C10.6702734,14.22375 10.6703516,14.2238281 10.6703906,14.2238672 C11.6100391,15.1635547 13.1092969,15.2020703 14.0944531,14.3329297 L17.3978125,17.6362891 C15.3662891,19.3276172 12.3701172,19.2385937 10.4445312,17.3130078 Z M18.6567187,16.4087891 L18.2423047,16.8232031 L14.9272656,13.508125 L15.3416016,13.09375 C15.5701172,12.8652734 15.941875,12.8652344 16.1703906,13.09375 L18.6566797,15.5800391 C18.8851953,15.8085547 18.8851953,16.1803516 18.6567187,16.4087891 Z" id="Shape" fill-rule="nonzero"></path>
                                    </g>
                                </g>
                            </g>
                        </g>
                    </g>
                </g>
            </g>
        </g>
    </g>
</svg>