<?xml version="1.0" encoding="UTF-8"?>
<svg width="75px" height="120px" viewBox="0 0 75 120" version="1.1" xmlns="http://www.w3.org/2000/svg" xmlns:xlink="http://www.w3.org/1999/xlink">
    <!-- Generator: Sketch 54.1 (76490) - https://sketchapp.com -->
    <title>grandmother-2</title>
    <desc>Created with Sketch.</desc>
    <g id="Symbols" stroke="none" stroke-width="1" fill="none" fill-rule="evenodd">
        <g id="Lifestage-/-Single" transform="translate(-43.000000, -20.000000)" fill="#35869A">
            <g id="grandmother-2" transform="translate(43.000000, 20.000000)">
                <g id="Combined-Shape-2" opacity="0.64" transform="translate(8.466536, 39.521484)">
                    <path d="M8.15627618,53.1210937 C9.18776056,54.4966406 9.75588556,56.2007812 9.75588556,57.9199219 L9.75588556,78.7207031 C9.75588556,79.6914844 8.96885431,80.4785156 7.99807306,80.4785156 C7.02729181,80.4785156 6.24026056,79.6914844 6.24026056,78.7207031 L6.24026056,57.9199219 C6.24026056,56.9564062 5.92197931,56.0013281 5.34377618,55.2304687 L0.351588683,48.5742187 C-0.230833192,47.7977344 -0.0733331917,46.6957031 0.703151183,46.1132812 C1.48010431,45.5308594 2.58166681,45.6883594 3.16408868,46.4648437 L8.15627618,53.1210937 Z M56.8945574,46.1132812 C57.6710418,46.6957031 57.8285418,47.7977344 57.2461199,48.5742187 L52.2539324,55.2304687 C51.6757293,56.0013281 51.3574481,56.9564062 51.3574481,57.9199219 L51.3574481,78.7207031 C51.3574481,79.6914844 50.5704168,80.4785156 49.5996356,80.4785156 C48.6288543,80.4785156 47.8418231,79.6914844 47.8418231,78.7207031 L47.8418231,57.9199219 C47.8418231,56.2007812 48.4099481,54.4966406 49.4414324,53.1210937 L54.4336199,46.4648437 C55.0160418,45.6883594 56.1180731,45.5308594 56.8945574,46.1132812 Z M36.3970574,13.1221875 C37.0134637,13.8721875 36.9051824,14.9798437 36.1551824,15.59625 C34.2096356,17.1953906 31.5970574,18.0761719 28.7988543,18.0761719 C26.0006512,18.0761719 23.3880731,17.1953906 21.4425262,15.59625 C20.6925262,14.9798437 20.5842449,13.8721875 21.2006512,13.1221875 C21.8170574,12.3721875 22.9249481,12.2636719 23.6747137,12.8803125 C24.9738543,13.948125 26.8415887,14.5605469 28.7988543,14.5605469 C30.7561199,14.5605469 32.6238543,13.948125 33.9229949,12.8803125 C34.6729949,12.2639062 35.7806512,12.3721875 36.3970574,13.1221875 Z M18.3984637,0 C19.3692449,0 20.1562762,0.78703125 20.1562762,1.7578125 L20.1562762,3.83789062 C20.1562762,4.80867187 19.3692449,5.59570312 18.3984637,5.59570312 C17.4276824,5.59570312 16.6406512,4.80867187 16.6406512,3.83789062 L16.6406512,1.7578125 C16.6406512,0.78703125 17.4276824,0 18.3984637,0 Z M39.1992449,0 C40.1700262,0 40.9570574,0.78703125 40.9570574,1.7578125 L40.9570574,3.83789062 C40.9570574,4.80867187 40.1700262,5.59570312 39.1992449,5.59570312 C38.2284637,5.59570312 37.4414324,4.80867187 37.4414324,3.83789062 L37.4414324,1.7578125 C37.4414324,0.78703125 38.2284637,0 39.1992449,0 Z" id="Combined-Shape"></path>
                </g>
                <path d="M67.9267969,76.7934375 C69.3902344,75.0070312 70.224375,72.7446094 70.224375,70.4003906 C70.224375,67.0392188 68.5230469,63.9201562 65.7796875,62.0653125 C65.9690625,61.3877344 66.0642188,60.6975 66.0642188,60 C66.0642188,56.6282813 63.9229688,53.6610937 60.8697656,52.5110156 C61.3699219,50.8448437 61.6980469,49.1050781 61.8335156,47.3123437 C65.9074219,42.7750781 68.1442969,36.9630469 68.1442969,30.8789062 C68.1442969,13.8522656 54.2920313,0 37.2653906,0 C20.23875,0 6.38648437,13.8522656 6.38648437,30.8789062 C6.38648437,36.9630469 8.62289063,42.774375 12.6967969,47.311875 C12.8313281,49.1088281 13.156875,50.8495312 13.6525781,52.5142969 C10.6040625,53.6664844 8.46679688,56.6315625 8.46679688,60.0002344 C8.46679688,60.6977344 8.5621875,61.3879688 8.75132812,62.0655469 C6.00773437,63.9203906 4.30664062,67.0394531 4.30664062,70.400625 C4.30664062,72.7448438 5.14007812,75.0077344 6.60375,76.7939063 C2.5621875,79.84125 0.146484375,84.6004688 0.146484375,89.7998438 L0.146484375,118.242188 C0.146484375,119.212969 0.933515625,120 1.90429688,120 C2.87507812,120 3.66210938,119.212969 3.66210938,118.242188 L3.66210938,89.7998438 C3.66210938,84.9192187 6.37382812,80.5314844 10.7392969,78.34875 L13.1142188,77.1614063 C19.0122656,84.5678906 27.7675781,88.7990625 37.265625,88.7990625 C46.7690625,88.7990625 55.520625,84.5695313 61.4182031,77.161875 L63.7919531,78.34875 C68.1571875,80.5314844 70.8691406,84.9192188 70.8691406,89.7998438 L70.8691406,118.242188 C70.8691406,119.212969 71.6561719,120 72.6269531,120 C73.5977344,120 74.3847656,119.212969 74.3847656,118.242188 L74.3847656,89.7998438 C74.3845313,84.6002344 71.9685937,79.8407812 67.9267969,76.7934375 Z M9.90210937,30.8789062 C9.90210937,15.7907812 22.1772656,3.515625 37.2653906,3.515625 C52.3535156,3.515625 64.6286719,15.7907812 64.6286719,30.8789062 C64.6286719,34.8178125 63.5336719,38.6245312 61.4913281,41.9285156 C59.5886719,34.479375 51.4192969,32.61 43.4864062,30.7947656 C37.993125,29.5378125 32.3128125,28.2379687 27.8402344,25.25625 C27.043125,24.7244531 25.9640625,24.9339844 25.4179688,25.7210156 C25.3872656,25.7653125 22.2569531,30.2032031 15.1661719,34.081875 C14.3144531,34.5478125 14.0015625,35.6158594 14.4675,36.4675781 C14.9334375,37.3192969 16.0014844,37.6317188 16.8532031,37.16625 C22.3689844,34.1489062 25.7074219,30.8278125 27.2641406,29.0336719 C32.0160937,31.7765625 37.6652344,33.069375 42.7021875,34.2217969 C44.3899219,34.6080469 45.9614062,34.9797656 47.4110156,35.3676563 C44.2321875,35.4679688 41.5155469,37.4303906 40.3197656,40.1992969 C39.395625,39.7610156 38.3545313,39.52125 37.2653906,39.52125 C36.17625,39.52125 35.1353906,39.7610156 34.2110156,40.1992969 C32.9833594,37.3563281 30.1532813,35.3610938 26.865,35.3610938 C22.455,35.3610938 18.8669531,38.9491406 18.8669531,43.3591406 C18.8669531,47.7691406 22.455,51.3571875 26.865,51.3571875 C31.0551563,51.3571875 34.5007031,48.1174219 34.8342188,44.0116406 C35.4145313,43.4036719 36.3067969,43.036875 37.2653906,43.036875 C38.2239844,43.036875 39.11625,43.4036719 39.6965625,44.0116406 C40.0300781,48.1174219 43.475625,51.3571875 47.6657813,51.3571875 C52.0757813,51.3571875 55.6638281,47.7691406 55.6638281,43.3591406 C55.6638281,40.87875 54.52875,38.6585156 52.7510156,37.1903906 C56.3625,38.8582031 58.3884375,41.2101563 58.3884375,45.4392188 C58.3884375,57.0867188 48.9126563,66.5625 37.2653906,66.5625 C25.9811719,66.5625 16.71375,57.7417969 16.1674219,46.4814844 C16.1439844,45.9996094 15.924375,45.5538281 15.5678906,45.2425781 C11.9132812,41.3123437 9.90210937,36.2167969 9.90210937,30.8789062 Z M52.1482031,43.359375 C52.1482031,45.8308594 50.1372656,47.8417969 47.6657812,47.8417969 C45.1945312,47.8417969 43.1838281,45.8313281 43.1833594,43.3603125 C43.1833594,43.3591406 43.1833594,43.3579687 43.1833594,43.3567969 C43.1847656,40.8864844 45.195,38.8769531 47.6657812,38.8769531 C50.1372656,38.8769531 52.1482031,40.8878906 52.1482031,43.359375 Z M31.3474219,43.3567969 C31.3474219,43.3579687 31.3474219,43.3591406 31.3474219,43.3603125 C31.3469531,45.8313281 29.33625,47.8417969 26.865,47.8417969 C24.3935156,47.8417969 22.3825781,45.8308594 22.3825781,43.359375 C22.3825781,40.8878906 24.3935156,38.8769531 26.865,38.8769531 C29.3357812,38.8769531 31.3457812,40.8864844 31.3474219,43.3567969 Z M49.179375,71.0423437 L50.4379687,71.6716406 C46.90875,75.0571875 42.2186719,76.9628906 37.2653906,76.9628906 C32.3196094,76.9628906 27.6227344,75.05625 24.0925781,71.671875 L25.3514062,71.0425781 C26.5603125,70.438125 27.493125,69.4673437 28.0474219,68.3010937 C30.8971875,69.4478906 34.0092187,70.078125 37.2653906,70.078125 C40.5201562,70.078125 43.629375,69.4432031 46.4763281,68.2917187 C47.030625,69.4621875 47.9671875,70.43625 49.179375,71.0423437 Z M9.661875,74.9566406 C8.48320312,73.741875 7.82226562,72.13125 7.82226562,70.4001563 C7.82203125,67.8501563 9.3328125,65.5122656 11.6709375,64.4439844 C12.1085156,64.2440625 12.4448437,63.87375 12.6021094,63.4192969 C12.7591406,62.9648438 12.7230469,62.465625 12.5025,62.0383594 C12.1572656,61.3699219 11.9821875,60.6841406 11.9821875,59.9997656 C11.9821875,58.1085938 13.1845312,56.4473438 14.8964062,55.8042188 C17.0275781,60.410625 20.5361719,64.2304687 24.8859375,66.7560937 C24.6623437,67.2419531 24.2798437,67.6476562 23.7794531,67.8977344 L9.661875,74.9566406 Z M37.2653906,85.2832031 C29.1002344,85.2832031 21.5542969,81.7532813 16.3378125,75.5491406 L20.7860156,73.3249219 C25.0485938,77.885625 30.9874219,80.4785156 37.2653906,80.4785156 C43.5525,80.4785156 49.4814844,77.8870312 53.7438281,73.3246875 L58.1936719,75.5496094 C52.978125,81.7546875 45.4352344,85.2832031 37.2653906,85.2832031 Z M64.8691406,74.9571094 L50.7513281,67.8982031 C50.2453125,67.6450781 49.8585937,67.2335156 49.6361719,66.7403906 C53.9807812,64.2072656 57.4846875,60.3839063 59.6179687,55.7985937 C61.3385156,56.4367969 62.5485937,58.1027344 62.5485937,60 C62.5485937,60.684375 62.3735156,61.3701562 62.0282812,62.0385937 C61.8077344,62.4658594 61.7716406,62.9648437 61.9286719,63.4195312 C62.0857031,63.8739844 62.4222656,64.2445312 62.8598437,64.4442187 C65.1979687,65.5125 66.70875,67.8503906 66.70875,70.400625 C66.70875,72.1314844 66.0478125,73.7423438 64.8691406,74.9571094 Z" id="Shape"></path>
            </g>
        </g>
    </g>
</svg>