<?xml version="1.0" encoding="UTF-8"?>
<svg width="96px" height="120px" viewBox="0 0 96 120" version="1.1" xmlns="http://www.w3.org/2000/svg" xmlns:xlink="http://www.w3.org/1999/xlink">
    <!-- Generator: Sketch 54.1 (76490) - https://sketchapp.com -->
    <title>grandmother</title>
    <desc>Created with Sketch.</desc>
    <g id="Symbols" stroke="none" stroke-width="1" fill="none" fill-rule="evenodd">
        <g id="Lifestage-/-Singleparent" transform="translate(-32.000000, -20.000000)" fill="#35869A">
            <g id="grandmother" transform="translate(32.000000, 20.000000)">
                <g id="Combined-Shape-2" opacity="0.64" transform="translate(8.378880, 39.521484)">
                    <path d="M8.15627618,53.1210937 C9.18776056,54.4966406 9.75588556,56.2007812 9.75588556,57.9199219 L9.75588556,78.7207031 C9.75588556,79.6914844 8.96885431,80.4785156 7.99807306,80.4785156 C7.02729181,80.4785156 6.24026056,79.6914844 6.24026056,78.7207031 L6.24026056,57.9199219 C6.24026056,56.9564062 5.92197931,56.0013281 5.34377618,55.2304687 L0.351588683,48.5742187 C-0.230833192,47.7975 -0.0733331917,46.6957031 0.703151183,46.1132812 C1.47986993,45.5308594 2.58166681,45.6883594 3.16408868,46.4648437 L8.15627618,53.1210937 Z M36.3970574,13.1221875 C37.0134637,13.8721875 36.9051824,14.9798437 36.1551824,15.59625 C34.2096356,17.1953906 31.5970574,18.0761719 28.7988543,18.0761719 C26.0006512,18.0761719 23.3880731,17.1953906 21.4425262,15.59625 C20.6925262,14.9798437 20.5842449,13.8721875 21.2006512,13.1221875 C21.8170574,12.3726562 22.9249481,12.2641406 23.6747137,12.8805469 C24.9738543,13.9483594 26.8413543,14.5607812 28.7988543,14.5607812 C30.7563543,14.5607812 32.6238543,13.9483594 33.9229949,12.8805469 C34.6727606,12.2639062 35.7806512,12.3721875 36.3970574,13.1221875 Z M18.3984637,0 C19.3692449,0 20.1562762,0.78703125 20.1562762,1.7578125 L20.1562762,3.83789062 C20.1562762,4.80867187 19.3692449,5.59570312 18.3984637,5.59570312 C17.4276824,5.59570312 16.6406512,4.80867187 16.6406512,3.83789062 L16.6406512,1.7578125 C16.6406512,0.78703125 17.4276824,0 18.3984637,0 Z M39.1992449,0 C40.1700262,0 40.9570574,0.78703125 40.9570574,1.7578125 L40.9570574,3.83789062 C40.9570574,4.80867187 40.1700262,5.59570312 39.1992449,5.59570312 C38.2284637,5.59570312 37.4414324,4.80867187 37.4414324,3.83789062 L37.4414324,1.7578125 C37.4414324,0.78703125 38.2284637,0 39.1992449,0 Z M69.4275262,48.234375 C70.1815106,48.8458594 70.2970574,49.9528125 69.6855731,50.7067969 C68.2781512,52.4421094 66.2641668,53.4375 64.1601824,53.4375 C62.0561981,53.4375 60.0422137,52.4421094 58.6347918,50.7067969 C58.0233074,49.9528125 58.1388543,48.8458594 58.8928387,48.234375 C59.6465887,47.623125 60.7537762,47.7384375 61.3652606,48.4924219 C62.1129168,49.4142188 63.1054949,49.921875 64.1601824,49.921875 C65.2148699,49.921875 66.2074481,49.4142188 66.9551043,48.4924219 C67.5668231,47.7382031 68.6737762,47.6228906 69.4275262,48.234375 Z M57.9187762,43.0371094 C56.9479631,43.0371094 56.1609637,42.2501099 56.1609637,41.2792969 C56.1609637,40.3084838 56.9479631,39.5214844 57.9187762,39.5214844 C58.8895892,39.5214844 59.6765887,40.3084838 59.6765887,41.2792969 C59.6765887,42.2501099 58.8895892,43.0371094 57.9187762,43.0371094 Z M70.3992449,43.0371094 C69.4284319,43.0371094 68.6414324,42.2501099 68.6414324,41.2792969 C68.6414324,40.3084838 69.4284319,39.5214844 70.3992449,39.5214844 C71.370058,39.5214844 72.1570574,40.3084838 72.1570574,41.2792969 C72.1570574,42.2501099 71.370058,43.0371094 70.3992449,43.0371094 Z" id="Combined-Shape"></path>
                </g>
                <path d="M88.8574219,84.9609375 L88.8574219,84.6386719 L89.1796875,84.6386719 C92.4428906,84.6386719 95.0976562,81.9839063 95.0976562,78.7207031 C95.0976562,76.9914844 94.3204688,75.3525 93.0175781,74.2382812 L93.0175781,72.4804688 C93.0175781,66.9304688 90.751875,61.6129688 86.7773438,57.7642969 L86.7773438,49.5996094 C86.7773438,48.9904688 86.461875,48.4246875 85.9436719,48.1042969 C85.4254687,47.7841406 84.778125,47.7550781 84.2334375,48.0274219 L72.5390625,53.8746094 L61.6359375,48.4230469 C61.6804688,48.0550781 61.7177344,47.685 61.7458594,47.3123438 C65.8197656,42.7750781 68.0566406,36.9630469 68.0566406,30.8789062 C68.0566406,13.8522656 54.204375,0 37.1777344,0 C20.1510938,0 6.29882812,13.8522656 6.29882812,30.8789062 C6.29882812,36.9630469 8.53523437,42.7746094 12.6091406,47.311875 C12.7436719,49.1088281 13.0692188,50.8495312 13.5649219,52.5140625 C10.5161719,53.66625 8.37890625,56.6313281 8.37890625,60 C8.37890625,60.6975 8.47429688,61.3879688 8.6634375,62.0653125 C5.92007813,63.9201562 4.21875,67.0394531 4.21875,70.4003906 C4.21875,72.744375 5.05195313,75.0077344 6.51445313,76.7948437 C2.47382813,79.8424219 0.05859375,84.6009375 0.05859375,89.7998438 L0.05859375,118.242188 C0.05859375,119.212969 0.845625,120 1.81640625,120 C2.7871875,120 3.57421875,119.212969 3.57421875,118.242188 L3.57421875,89.7996094 C3.57421875,84.9189844 6.2859375,80.53125 10.6514062,78.3485156 L13.0267969,77.1609375 C15.7600781,80.5839844 19.2311719,83.428125 23.1192187,85.4196094 C27.496875,87.661875 32.2267969,88.7985937 37.1779687,88.7985937 C42.9869531,88.7985937 48.6103125,87.185625 53.5042969,84.1305469 C54.2369531,84.4560938 55.0467188,84.6384375 55.8986719,84.6384375 L56.2209375,84.6384375 L56.2209375,84.9607031 C56.2209375,91.05375 59.58,96.3740625 64.54125,99.1764844 L64.54125,102.182109 C64.54125,102.321094 64.4526563,102.443906 64.3209375,102.487969 L57.5296875,104.751797 C54.2585156,105.842109 52.0607813,108.891562 52.0607813,112.339453 L52.0607813,118.242188 C52.0607813,119.212969 52.8478125,120 53.8185938,120 C54.789375,120 55.5764063,119.212969 55.5764063,118.242188 L55.5764063,112.339453 C55.5764063,110.407031 56.8080469,108.698203 58.6413281,108.086953 L60.6839063,107.406094 C63.3110156,111.3525 67.7489063,113.759531 72.5392969,113.759531 C77.3348438,113.759531 81.7680469,111.353906 84.3949219,107.406094 L86.4372656,108.086953 C88.2705469,108.697969 89.5021875,110.406797 89.5021875,112.339453 L89.5021875,118.242188 C89.5021875,119.212969 90.2892188,120 91.26,120 C92.2307812,120 93.0178125,119.212969 93.0178125,118.242188 L93.0178125,112.339453 C93.0178125,108.891562 90.8200781,105.842109 87.5489062,104.751797 L80.7576562,102.487969 C80.6259375,102.443906 80.5373437,102.321094 80.5373437,102.182109 L80.5373437,99.1764844 C85.4983594,96.3742969 88.8574219,91.0539844 88.8574219,84.9609375 Z M83.2617188,52.44375 L83.2617188,59.2357031 L76.4697656,55.8396094 L83.2617188,52.44375 Z M61.8164062,52.44375 L68.6083594,55.8398437 L61.8164062,59.2359375 L61.8164062,52.44375 Z M9.81445312,30.8789063 C9.81445312,15.7907813 22.0896094,3.515625 37.1777344,3.515625 C52.2658594,3.515625 64.5410156,15.7907813 64.5410156,30.8789063 C64.5410156,34.8178125 63.4460156,38.6245313 61.4036719,41.9285156 C59.5010156,34.479375 51.3316406,32.61 43.39875,30.7947656 C37.9054687,29.5378125 32.2251562,28.2379688 27.7525781,25.2560156 C26.9554687,24.7246875 25.8766406,24.93375 25.3303125,25.7210156 C25.2996094,25.7653125 22.1692969,30.2032031 15.0785156,34.081875 C14.2267969,34.5478125 13.9139062,35.6158594 14.3798437,36.4675781 C14.8455469,37.3192969 15.9138281,37.6321875 16.7655469,37.1660156 C22.2813281,34.1489063 25.6197656,30.8275781 27.1764844,29.0334375 C31.9284375,31.7763281 37.5775781,33.0691406 42.6145312,34.2215625 C44.3022656,34.6078125 45.87375,34.9795313 47.3233594,35.3674219 C44.1445312,35.4677344 41.4278906,37.4301563 40.2321094,40.1990625 C39.3079687,39.7607813 38.266875,39.5210156 37.1777344,39.5210156 C36.0885937,39.5210156 35.0477344,39.7607813 34.1233594,40.1990625 C32.8957031,37.3560938 30.065625,35.3608594 26.7773437,35.3608594 C22.3673437,35.3608594 18.7792969,38.9486719 18.7792969,43.3589063 C18.7792969,47.7691406 22.3673437,51.3569531 26.7773437,51.3569531 C30.9675,51.3569531 34.4130469,48.1171875 34.7465625,44.0114063 C35.326875,43.4034375 36.2191406,43.0366406 37.1777344,43.0366406 C38.1363281,43.0366406 39.0285937,43.4036719 39.6089062,44.0114063 C39.9424219,48.1171875 43.3879687,51.3569531 47.578125,51.3569531 C51.988125,51.3569531 55.5761719,47.7691406 55.5761719,43.3589063 C55.5761719,40.8785156 54.4413281,38.6582813 52.6633594,37.1901563 C56.2748437,38.8579688 58.3007812,41.2099219 58.3007812,45.4389844 C58.3007812,57.08625 48.825,66.5620313 37.1777344,66.5620313 C25.8935156,66.5620313 16.6260937,57.7413281 16.0797656,46.4810156 C16.0563281,45.999375 15.8369531,45.5535938 15.4804688,45.2423438 C11.825625,41.3125781 9.81445312,36.2172656 9.81445312,30.8789063 Z M52.0605469,43.359375 C52.0605469,45.8310938 50.0496094,47.8417969 47.578125,47.8417969 C45.106875,47.8417969 43.0961719,45.8315625 43.0957031,43.3603125 C43.0957031,43.3591406 43.0957031,43.3579687 43.0957031,43.3567969 C43.0971094,40.88625 45.1073437,38.8769531 47.5778906,38.8769531 C50.0496094,38.8769531 52.0605469,40.8876562 52.0605469,43.359375 Z M31.2597656,43.3603125 C31.2592969,45.8315625 29.2485938,47.8417969 26.7773438,47.8417969 C24.3058594,47.8417969 22.2949219,45.8310938 22.2949219,43.359375 C22.2949219,40.8876562 24.3058594,38.8769531 26.7773438,38.8769531 C29.248125,38.8769531 31.258125,40.88625 31.2595312,43.3567969 C31.2595312,43.3579687 31.2597656,43.3591406 31.2597656,43.3603125 Z M9.57375,74.9566406 C8.39507813,73.7421094 7.734375,72.13125 7.734375,70.4003906 C7.734375,67.8501562 9.24515625,65.5122656 11.5835156,64.4439844 C12.0208594,64.2440625 12.3574219,63.87375 12.5144531,63.4192969 C12.6714844,62.9648437 12.6353906,62.465625 12.4148438,62.0383594 C12.0696094,61.3701563 11.8945313,60.684375 11.8945313,59.9997656 C11.8945313,58.1083594 13.096875,56.4473437 14.80875,55.8042187 C16.9399219,60.410625 20.4485156,64.2304687 24.7982813,66.7560937 C24.5746875,67.2419531 24.1921875,67.6476562 23.6917969,67.8977344 L9.57375,74.9566406 Z M37.1777344,85.2832031 C29.004375,85.2832031 21.4638281,81.7558594 16.2485156,75.5500781 L20.698125,73.3251562 C24.9607031,77.8860937 30.8988281,80.4785156 37.1775,80.4785156 C42.118125,80.4785156 46.798125,78.9002344 50.6402344,76.0314844 C50.2148438,76.8532031 49.9802344,77.773125 49.9802344,78.7207031 C49.9802344,79.7946094 50.2692188,80.8014844 50.77125,81.6705469 C46.6457812,84.0377344 41.9840625,85.2832031 37.1777344,85.2832031 Z M52.2398437,69.5735156 C48.6007031,74.2694531 43.1107031,76.9628906 37.1777344,76.9628906 C32.23125,76.9628906 27.5346094,75.0564844 24.0046875,71.6721094 L25.26375,71.0425781 C26.4724219,70.438125 27.4038281,69.4666406 27.9585937,68.3008594 C30.8085937,69.4476563 33.9210937,70.078125 37.1777344,70.078125 C43.8428906,70.078125 49.8979687,67.4175 54.3377344,63.1028906 C53.3046094,65.1089063 52.6052344,67.2808594 52.2766406,69.530625 C52.2644531,69.5451563 52.2515625,69.5585156 52.2398437,69.5735156 Z M80.8917187,106.238672 C78.8758594,108.744141 75.8217188,110.244141 72.5390625,110.244141 C69.2601562,110.244141 66.2036719,108.743203 64.1871094,106.238438 L65.4323438,105.823359 C67.0019531,105.300234 68.0566406,103.836797 68.0566406,102.182344 L68.0566406,100.648359 C69.481875,101.056172 70.9844531,101.279297 72.5390625,101.279297 C74.0936719,101.279297 75.59625,101.056172 77.0214844,100.648359 L77.0214844,102.182344 C77.0214844,103.837031 78.0761719,105.300234 79.6457812,105.823359 L80.8917187,106.238672 Z M72.3400781,97.7622656 C65.3151563,97.6549219 59.7363281,91.7922656 59.7363281,84.7666406 L59.7363281,82.8808594 C59.7363281,81.9100781 58.9492969,81.1230469 57.9785156,81.1230469 L55.9699219,81.1230469 C54.7399219,81.1230469 53.6557031,80.2279688 53.5127344,79.0061719 C53.4,78.0426563 53.8633594,77.145 54.7024219,76.6567969 C54.7040625,76.6558594 54.7057031,76.6549219 54.7073438,76.6539844 C55.08375,76.4329688 55.4964844,76.2832031 55.9326563,76.265625 C57.853125,76.1880469 60.9260156,75.9965625 64.5133594,75.5233594 C72.5615625,74.4621094 79.0364063,72.5620313 83.76,69.8758594 C84.5404688,69.4319531 84.9114844,68.4719531 84.5625,67.6446094 C84.1441406,66.6527344 82.9720313,66.2765625 82.0671094,66.7942969 C73.6178906,71.6224219 60.3250781,72.5714063 55.5759375,72.7575 L55.5759375,72.4804688 C55.5759375,69.0496875 56.6252344,65.7283594 58.5239063,62.9374219 C58.6675781,63.1945313 58.8754688,63.4155469 59.1342188,63.5753906 C59.4166406,63.7497656 59.7370313,63.8378906 60.0583594,63.8378906 C60.3269531,63.8378906 60.59625,63.77625 60.8444531,63.6522656 L72.5388281,57.8050781 L84.2332031,63.6522656 C84.4814063,63.77625 84.7507031,63.8378906 85.0192969,63.8378906 C85.3408594,63.8378906 85.66125,63.7497656 85.9434375,63.5753906 C86.2021875,63.4155469 86.4100781,63.1945313 86.55375,62.9374219 C88.4524219,65.7285938 89.5017187,69.0496875 89.5017187,72.4804688 L89.5017187,75.1375781 C89.5017187,75.7771875 89.8603125,76.3464844 90.4082812,76.6764844 C91.2077344,77.1576563 91.655625,78.0154688 91.5717187,78.9417188 C91.4582812,80.1923438 90.3574219,81.1230469 89.1016406,81.1230469 C88.5032812,81.1230469 87.7635937,81.1230469 87.0989062,81.1230469 C86.128125,81.1230469 85.3413281,81.9100781 85.3413281,82.8808594 L85.3413281,84.9609375 C85.3417969,92.0866406 79.4901563,97.87125 72.3400781,97.7622656 Z" id="Shape"></path>
            </g>
        </g>
    </g>
</svg>