<?xml version="1.0" encoding="UTF-8"?>
<svg width="120px" height="54px" viewBox="0 0 120 54" version="1.1" xmlns="http://www.w3.org/2000/svg" xmlns:xlink="http://www.w3.org/1999/xlink">
    <!-- Generator: Sketch 54.1 (76490) - https://sketchapp.com -->
    <title>Assets / Logo / LIC Provider / AMP</title>
    <desc>Created with Sketch.</desc>
    <defs>
        <polygon id="path-1" points="0.00634609175 0.0703358502 45.6298804 0.0703358502 45.6298804 15.7009714 0.00634609175 15.7009714"></polygon>
        <polygon id="path-3" points="0.0554585538 0.0869582873 31.9359664 0.0869582873 31.9359664 21.0987455 0.0554585538 21.0987455"></polygon>
    </defs>
    <g id="Assets-/-Logo-/-LIC-Provider-/-AMP" stroke="none" stroke-width="1" fill="none" fill-rule="evenodd">
        <g id="amp-seeklogo.com" transform="translate(21.000000, 10.000000)">
            <g id="Group-3" transform="translate(0.000000, 14.067170)">
                <mask id="mask-2" fill="white">
                    <use xlink:href="#path-1"></use>
                </mask>
                <g id="Clip-2"></g>
                <path d="M37.8100147,8.29095734 C38.3226731,8.30766871 39.1451266,8.32522623 39.9611282,8.32522623 C42.267298,8.32522623 43.7029955,7.07462308 43.7029955,5.06248893 C43.7029955,2.83331843 41.799591,1.83920316 39.916071,1.83920316 L37.8100147,1.83920316 L37.8100147,8.29095734 Z M39.9307727,15.7009714 L33.8777647,15.7009714 L33.8777647,13.9373925 C33.8777647,13.9373925 35.4156342,13.9369694 35.4436628,13.9373925 C35.6848143,13.9392963 35.8865142,13.715385 35.8877835,13.491368 L35.8829181,1.83920316 L33.8777647,1.83920316 L33.8777647,0.0703358502 L39.8236296,0.0703358502 C43.2371923,0.0703358502 45.6298804,2.11303702 45.6298804,5.03826801 C45.6298804,8.10628607 43.3822005,10.0913436 39.916071,10.0913436 C39.1609918,10.0913436 38.3324038,10.0750553 37.8085339,10.0592958 C37.8078993,11.2568033 37.8085339,13.4190225 37.8085339,13.491368 C37.8085339,13.718135 37.980513,13.9363348 38.2531834,13.9373925 L39.9307727,13.9373925 L39.9307727,15.7009714 Z M5.59672408,8.57822376 L10.237621,8.57822376 L7.92521092,2.31283314 L5.59672408,8.57822376 Z M33.0368017,15.7009714 L27.1673015,15.7009714 L27.1673015,13.9373925 L29.1192535,13.9373925 L28.7640839,3.84689505 L24.1442349,13.7617115 L23.2461572,13.7617115 L18.6284235,3.84689505 L18.2753693,13.9373925 L20.2246771,13.9373925 L20.2246771,15.7009714 L10.5999828,15.7009714 L10.5999828,13.9373925 L12.2178131,13.9373925 L10.877307,10.3196971 L4.95143232,10.3196971 L3.61283003,13.9373925 L5.29888084,13.9373925 L5.29888084,15.7009714 L0,15.7009714 L0,13.9373925 L1.21654579,13.9373925 C1.46785102,13.9373925 1.68531043,13.7031159 1.7659058,13.491368 C1.84576079,13.2812066 6.1743242,1.83920316 6.1743242,1.83920316 L4.58399361,1.83920316 L4.58399361,0.0703358502 L7.92521092,0.0703358502 C9.04751724,0.0703358502 9.44626334,1.09184509 9.56895445,1.42522644 C9.56895445,1.42522644 14.0723527,13.3538693 14.136554,13.491368 C14.2375626,13.715385 14.4116571,13.9373925 14.688664,13.9373925 L15.9933147,13.9373925 C16.2643985,13.9373925 16.425695,13.715385 16.438493,13.491368 C16.4500217,13.2905142 16.9051423,3.13835391 16.9631033,1.83920316 L14.9042196,1.83920316 L14.9042196,0.0703358502 L17.8994691,0.0703358502 C18.6284235,0.0703358502 19.0766691,0.487591383 19.4996361,1.42522644 C19.9214397,2.36328457 23.7201044,10.6489535 23.7201044,10.6489535 C23.7201044,10.6489535 27.5752494,2.27401621 27.9611976,1.42522644 C28.3896645,0.485899092 28.7640839,0.0703358502 29.4944133,0.0703358502 L32.5140953,0.0703358502 L32.5140953,1.83920316 L30.4534136,1.83920316 L30.9637451,13.491368 C30.9748508,13.7112601 31.1814161,13.9392963 31.4085004,13.9392963 L33.0368017,13.9373925 L33.0368017,15.7009714 L33.0368017,15.7009714 Z" id="Fill-1" fill="#1C2643" mask="url(#mask-2)"></path>
            </g>
            <path d="M59.7746844,21.0987455 C60.0143551,20.6764131 60.1441327,20.0884477 59.9507884,19.2443117 C59.7585018,20.0874958 58.196094,21.001756 56.0023559,20.6993648 C54.7459355,20.5883082 53.3516991,19.8907669 52.2464215,19.1913218 C51.1454803,18.4958959 50.5878704,17.9919105 50.3621611,17.820566 C49.3275366,16.9548533 48.0232032,18.3083689 49.3656131,19.2644077 C50.9866165,20.5192415 53.8139061,21.7053261 55.8928858,21.8853436 C57.2219689,21.9995732 58.6939449,21.8084501 59.7627325,21.106255 L59.7746844,21.0987455" id="Fill-4" fill="#1892C5"></path>
            <g id="Group-10" transform="translate(46.432238, 0.000000)">
                <mask id="mask-4" fill="white">
                    <use xlink:href="#path-3"></use>
                </mask>
                <g id="Clip-6"></g>
                <path d="M12.7130198,14.9319308 C11.4546956,13.2849085 8.03542138,9.0656036 7.7094438,8.6622037 C7.71536681,8.69118419 7.74022234,8.81345222 7.76338558,8.90938398 C7.8873459,9.40088878 8.04769049,10.3777638 8.48345545,11.7691445 C9.37497558,12.8517877 10.3152548,13.9862574 10.737693,14.5020889 C13.8686431,18.3316379 13.886518,20.1355145 13.3424464,21.0987455 C13.8162879,20.7981523 14.2957351,20.312782 14.5127715,19.7789699 C15.0435163,18.465752 14.0081514,16.6336353 12.7130198,14.9319308" id="Fill-5" fill="#1B2541" mask="url(#mask-4)"></path>
                <path d="M17.628491,7.72879938 C17.6140007,7.67929986 17.6071258,7.60737749 17.6019432,7.51980142 C17.593799,7.36516832 17.5964432,7.15151656 17.6049047,6.88974028 C17.6252122,6.3771876 17.6758751,5.68958856 17.7369034,4.95798995 C17.8582195,3.50304265 18.0098911,2.03191281 18.0678521,1.33352541 C18.1668511,-0.412813268 20.1044187,-0.279862646 19.7244993,1.45399539 C19.6376636,1.80853038 19.3069265,3.32588092 18.9747086,4.79669345 C18.7974411,5.57514737 18.619962,6.33308226 18.4682904,6.89460562 C18.3935123,7.18070858 18.3249745,7.41858126 18.2669078,7.58146428 C18.2384562,7.6635404 18.2073603,7.73789544 18.1762645,7.79511603 C18.0678521,7.98835453 17.9032767,7.98676801 17.8276525,7.96709512 C17.7676819,7.94996067 17.663606,7.89274008 17.628491,7.72879938" id="Fill-7" fill="#1B2541" mask="url(#mask-4)"></path>
                <path d="M8.27964014,18.421964 C8.51592629,18.2073603 8.07709404,17.6989326 7.91748984,17.4900404 C7.27209231,16.6420968 4.94804774,13.7882593 1.62036876,12.6615107 C0.233536176,12.2225727 -0.555811869,13.7478559 0.644551386,14.2031879 C1.33183312,14.492464 2.75124231,14.9381711 4.14008449,15.7868551 C5.80826048,16.7398266 7.19350654,17.826489 7.73292434,18.2540041 C8.01014278,18.4699827 8.1314589,18.5534338 8.27964014,18.421964" id="Fill-8" fill="#1B2541" mask="url(#mask-4)"></path>
                <path d="M31.0437059,17.9701222 C29.7896124,17.7122594 28.9361688,17.6582118 26.5434807,17.6582118 C24.5521828,17.6582118 22.7633253,17.869854 21.2974839,18.1380821 C19.0048525,18.5565011 17.4155796,19.1464761 17.1239767,19.2589077 C17.0568139,19.7357107 16.9963145,20.2212925 16.9423727,20.716605 C18.2356004,20.2711093 19.3612913,19.8384117 20.5418759,19.5663759 C25.1153985,18.5203284 29.1681184,19.1565241 30.531259,19.3950314 C32.3239241,19.7066245 32.2945205,18.2273505 31.0437059,17.9701222" id="Fill-9" fill="#1B2541" mask="url(#mask-4)"></path>
            </g>
            <path d="M72.5727418,1.58959022 C67.5963482,3.36036135 64.1354013,8.02420995 62.6209065,16.3062828 C62.0854021,15.617203 60.3221405,12.709318 59.7929822,10.5065895 C59.2416126,8.20443895 59.4395049,5.91804786 60.3283809,2.88641406 C60.4271684,2.54488856 60.5457345,2.04862419 60.550071,2.00409578 C60.1583056,1.18132498 59.3075062,1.41020736 59.1379598,2.07178742 C58.0316245,5.81524118 57.9986248,8.68240543 58.4417935,10.531022 C58.8077515,12.0510167 59.6422626,13.7065005 60.4617546,15.0795832 C59.9183176,16.757913 59.1678922,18.0647848 58.2853624,18.0617175 C57.581475,18.0602367 56.6503976,16.1394863 55.7966367,14.1440635 C54.654446,11.4821953 54.3818813,9.64690561 54.1956236,8.90938398 C54.1719315,8.80964457 54.1684411,8.79155821 54.1416818,8.6622037 C54.1416818,8.6622037 54.1101629,8.62021373 54.0820285,8.58562753 C53.5253705,7.94171075 52.848454,8.33072618 52.8201082,8.97728716 C52.7888008,9.82163467 53.8702806,13.0677664 54.5139858,14.6168474 C55.8807225,17.9054979 56.9973173,19.590491 58.117191,19.5376069 C59.2873045,19.4812325 60.4046397,18.144534 61.2341797,16.3074462 C61.7315017,17.0598812 62.1507669,17.6339909 62.3600821,17.9096228 C62.3437938,18.0216314 62.1938145,19.0569962 62.0886809,20.1625912 C62.0158067,20.991285 62.8003951,20.8983147 63.3746107,20.716605 C64.4605327,10.7324046 68.3685618,4.5510997 73.6177316,2.85478937 C73.7661244,2.80528986 73.9579879,2.76530948 74.0606888,2.73717514 C73.9826319,1.60207086 73.4055606,1.31480444 72.5727418,1.58959022" id="Fill-11" fill="#1892C5"></path>
            <path d="M60.3283809,2.88641406 C60.3056407,2.96373062 60.2836409,3.04051833 60.2617469,3.11698873 C60.2542374,3.14300771 60.2465163,3.1699786 60.2386894,3.19673795 C60.2197569,3.26400652 60.2015648,3.33095779 60.1830554,3.39738022 C60.175017,3.42667801 60.1670844,3.45565849 60.1593633,3.48485052 C60.1404308,3.55402292 60.1218156,3.62298378 60.1040465,3.6910985 C60.0988639,3.71214637 60.0931524,3.73330001 60.0877582,3.75413634 C60.0674507,3.83198174 60.0475663,3.90982713 60.028528,3.98672061 C60.0272588,3.98968212 60.0268357,3.99264363 60.0258838,3.99581667 C60.0157301,4.0369605 60.0054706,4.0765178 59.9954226,4.1174501 C60.9056637,6.06834447 61.3919858,7.65031937 61.3936781,9.56514679 C61.3870147,10.6233576 61.2155645,12.0346226 60.9125386,13.4023112 C61.193882,13.9702864 61.4880234,14.5076946 61.7576265,14.9687382 C61.7666168,14.9426134 61.7758186,14.9163829 61.7839628,14.8900466 C62.4753695,12.7977402 62.9054229,10.8072885 62.9054229,9.4483787 C62.9054229,6.90856702 62.0114702,4.8394238 60.550071,2.00409578 C60.5483787,2.01541297 60.5404461,2.05645103 60.5265905,2.1167389 C60.4860812,2.29294872 60.4023128,2.63246463 60.3283809,2.88641406" id="Fill-12" fill="#1B2541"></path>
            <path d="M61.8958655,33.9185912 L61.8958655,33.9185912" id="Fill-13" fill="#1B2541"></path>
            <g id="Group-17" transform="translate(46.961079, 21.788248)">
                <path d="M15.2588603,4.28160234 C15.4895407,6.34609175 15.3598689,8.95666236 14.2737353,10.5449834 C14.4878102,11.1270257 14.7253655,11.6744819 14.9347866,12.1299198 C16.1031021,10.8726532 16.8439025,8.01395043 16.6651542,5.42294694 C16.3049078,2.33927519 15.9254115,-2.77525169 9.19569848,2.06205675 C7.05145985,3.55127294 5.04905637,5.777905 4.30032331,7.42693694 C4.87464461,7.41561975 5.44780246,7.3545915 6.03396981,7.21413133 C7.22925619,5.46282155 9.02509438,3.74461721 10.6455689,2.70079088 C13.186121,0.935519692 14.8581046,0.288218334 15.2588603,4.28160234" id="Fill-14" fill="#1B2541"></path>
                <path d="M22.9409101,8.80975034 C22.4727801,6.86922125 16.4029549,3.7323481 12.5453772,2.64632026 C9.2980821,1.73216574 4.46479285,1.42723603 1.21316121,2.76636716 C-0.61144594,3.47057181 -0.114123883,5.21659319 1.83328014,4.43887964 C5.23013152,3.03649913 8.26324607,2.9095773 11.2730916,3.72727122 C8.56828155,6.65292529 6.44435041,7.38410083 4.30032331,7.42693694 C3.79665516,8.51063788 4.0924888,9.05069029 5.56668592,8.74216446 C8.63798279,8.0922189 10.2548612,6.36534156 12.1737078,4.55353237 C12.2576878,4.47304277 12.3233698,4.40989916 12.3794269,4.35479393 C12.2697453,5.04620062 12.2060729,5.85046199 12.1737078,6.737011 C12.1132084,8.52745502 12.5449542,11.0607091 13.3422348,12.2887836 C13.6949718,12.8022882 14.2227551,12.9032968 14.9347866,12.1299198 C14.5167906,11.2161883 13.9966227,9.98398885 13.6929622,8.58023335 C13.4218783,7.31979376 13.331658,5.91476905 13.6529818,4.48541765 C16.5427804,5.4709657 18.5799817,6.4856 21.2431191,9.40712911 C22.1904848,10.5137817 23.2778876,9.98028696 22.9409101,8.80975034" id="Fill-16" fill="#1892C5"></path>
            </g>
            <path d="M65.2458616,26.2464836 C65.331005,26.343473 65.6311751,26.7205366 66.0367962,27.2303393 C67.9122778,28.2972231 69.4284649,29.4527407 69.8277398,30.3796931 C69.6166265,29.7274207 69.1084103,28.9222074 68.4233497,27.957813 C68.1423236,27.5635091 66.1794775,25.2512048 65.769943,24.7418252 C65.1856795,24.0149862 64.4899363,23.0541879 65.3597739,22.2149172 C64.8775767,22.4200018 64.4928978,22.690028 64.2436022,23.0326112 C63.966701,23.4096748 63.7688087,23.8737856 63.9626818,24.4646068 C64.2596789,25.0529952 64.6848671,25.5888169 65.2458616,26.2464836" id="Fill-18" fill="#1B2541"></path>
            <path d="M76.2107447,28.1332824 C75.1630049,27.04662 73.7287882,25.6818929 72.5665015,24.6769893 C73.8055759,24.2281091 75.0656982,23.5074046 76.237504,22.6949991 C75.738807,22.5312699 75.1103324,22.3679638 74.3999932,22.2202057 C73.3700225,22.9086508 72.3431191,23.4188766 71.3683594,23.6912297 C71.1000255,23.4799049 70.6799142,23.1580523 70.3353214,22.9133046 C70.097766,22.7417486 69.8551338,22.5737887 69.5993863,22.424021 C69.513291,22.3724061 69.4262438,22.3262912 69.3361293,22.2849358 C69.2046594,22.232369 69.043786,22.200427 68.9144315,22.2744647 C68.7568368,22.371983 68.785077,22.5554908 68.869903,22.6949991 C68.9261717,22.7812002 68.9904788,22.8583052 69.0580647,22.9366794 C69.2711876,23.1840712 69.5008103,23.4199343 69.7287408,23.656432 C69.9433445,23.879074 70.1245254,24.0656491 70.0017285,23.9405254 C68.8424033,24.0020825 66.9700947,23.5255967 66.8962685,21.8025271 C66.4991089,21.8651418 66.1288145,21.9491218 65.7909909,22.056265 C65.9238357,25.0702355 69.4837817,25.3716748 71.0897659,25.0762643 C71.3445615,25.3438578 71.5980879,25.6119802 71.8497104,25.883064 C72.5675592,26.6613064 73.3051866,27.545317 75.0652751,29.4557022 C76.3992236,30.7735739 77.5223761,29.4393081 76.2107447,28.1332824" id="Fill-19" fill="#1B2541"></path>
            <path d="M74.0606888,2.73717514 C74.0606888,2.7366463 73.8329699,2.78540544 73.6177316,2.85478937 C73.2554755,2.97145169 72.8941714,3.11392145 72.5443959,3.27236221 C72.584059,3.81516459 72.4391566,4.71958844 72.0295164,5.93148042 C70.8508356,9.42775391 68.2686109,14.6985004 64.0522675,16.4674735 C63.9401532,16.9856319 63.8374523,17.5190209 63.7434244,18.0661598 C68.2062076,16.4464256 70.3846094,12.7128083 71.8766813,10.0890167 C73.1989953,7.75926062 74.2087643,4.54422477 74.0606888,2.73717514" id="Fill-20" fill="#1B2541"></path>
            <path d="M66.0689497,20.5840774 C66.07794,20.5824909 66.0860841,20.5800582 66.0949687,20.5781544 C66.0860841,20.5800582 66.07794,20.5824909 66.0689497,20.5840774 Z M67.3876676,19.6546923 C67.6716552,19.112313 68.0949395,18.570251 68.6693665,18.0677463 C69.7003949,17.2043605 70.7028659,16.5747224 71.8369125,16.1152654 C72.9669399,15.6570776 74.2286487,15.3655804 75.7722297,15.1812265 C77.0761401,15.0515546 77.3474355,14.5788766 77.2712824,14.1901785 C77.1937543,13.8008457 76.7466721,13.4771951 75.8133736,13.5770402 C74.4148007,13.7000486 73.0800061,13.9938727 71.833951,14.4939447 C70.5881074,14.991161 69.4279361,15.688808 68.377129,16.617347 C67.7105779,17.2076393 67.1106606,17.9823914 66.6538478,18.820287 C66.3403509,19.4012717 66.1040647,20.0070062 65.9577873,20.6105195 C65.9638161,20.6092503 65.9699507,20.6077695 65.9756621,20.6063945 C63.918365,21.1079473 62.8948461,22.3014356 63.9626818,24.4646068 C63.7698664,23.8682857 63.9672299,23.4117902 64.2448714,23.0326112 C65.8782496,20.7846139 73.3183018,21.7352585 76.237504,22.6949991 C76.8918919,22.2252825 76.9266896,21.5076453 75.5150015,21.1981676 C72.5240884,20.4847611 69.3706097,20.1375241 67.0507958,20.4163291 C67.0576708,20.4152714 67.0647573,20.414531 67.0724783,20.4135791 C67.1501122,20.1620623 67.251015,19.9101225 67.3876676,19.6546923 L67.3876676,19.6546923 Z" id="Fill-21" fill="#1892C5"></path>
        </g>
    </g>
</svg>