<?xml version="1.0" encoding="UTF-8"?>
<svg width="62px" height="38px" viewBox="0 0 62 38" version="1.1" xmlns="http://www.w3.org/2000/svg" xmlns:xlink="http://www.w3.org/1999/xlink">
    <!-- Generator: Sketch 54.1 (76490) - https://sketchapp.com -->
    <title>ahm-logo</title>
    <desc>Created with Sketch.</desc>
    <g id="Page-1" stroke="none" stroke-width="1" fill="none" fill-rule="evenodd">
        <g id="Dekstop-Step1" transform="translate(-185.000000, -688.000000)" fill="#000000" fill-rule="nonzero">
            <g id="Partner" transform="translate(0.000000, 672.000000)">
                <g id="Stacked-Group" transform="translate(156.000000, 8.000000)">
                    <g id="Logo-2">
                        <g id="ahm-logo" transform="translate(29.000000, 8.000000)">
                            <path d="M25.3506849,19.6767123 L25.3506849,25.5068493 L28.630137,25.5068493 L28.630137,18.3753425 C28.630137,16.5534247 27.5890411,15.2520548 25.2986301,15.2520548 C23.9452055,15.2 22.6958904,15.7726027 21.8109589,16.7616438 L21.8109589,11.7123288 L18.6356164,11.7123288 L18.6356164,25.5068493 L21.8109589,25.5068493 L21.8109589,19.0520548 C22.1753425,18.5835616 22.8520548,18.1150685 23.7369863,18.1150685 C24.7780822,18.1150685 25.4027397,18.4794521 25.3506849,19.6767123 L25.3506849,19.6767123 Z M12.3890411,15.2520548 C10.8273973,15.2520548 9.10958904,15.7726027 7.80821918,16.8136986 L9.00547945,19.0520548 C9.83835616,18.3753425 10.8273973,18.0109589 11.8164384,18.0109589 C13.1178082,18.0109589 13.8465753,18.5315068 13.8465753,19.4164384 L13.8465753,20.4575342 C13.2219178,19.6767123 12.0767123,19.260274 10.7232877,19.260274 C9.16164384,19.260274 7.28767123,20.0410959 7.28767123,22.4876712 C7.28767123,24.7260274 9.21369863,25.7671233 10.7232877,25.7671233 C11.8937417,25.8084058 13.0274759,25.3549121 13.8465753,24.5178082 L13.8465753,25.5589041 L17.0219178,25.5589041 L17.0219178,19.260274 C17.0219178,16.1369863 14.7835616,15.2 12.3369863,15.2 L12.3890411,15.2520548 Z M13.8465753,22.9561644 C13.5342466,23.4246575 12.8054795,23.6849315 12.0767123,23.6849315 C11.2438356,23.6849315 10.4630137,23.3205479 10.4630137,22.539726 C10.4630137,21.7068493 11.2438356,21.3424658 12.0246575,21.3424658 C12.7534247,21.3424658 13.5342466,21.6027397 13.8465753,22.0712329 L13.8465753,22.9561644 Z M42.9972603,15.2520548 C41.4356164,15.2520548 40.1342466,16.1890411 39.509589,17.0739726 C39.0931507,15.8767123 38.1561644,15.2520548 36.6986301,15.2520548 C35.1369863,15.2520548 33.8356164,16.1890411 33.4191781,16.7616438 L33.4191781,15.5123288 L30.1917808,15.5123288 L30.1917808,25.5068493 L33.4191781,25.5068493 L33.4191781,19.0520548 C33.7315068,18.6356164 34.3041096,18.1150685 35.1890411,18.1150685 C36.1780822,18.1150685 36.490411,18.6356164 36.490411,19.4164384 L36.490411,25.5068493 L39.7178082,25.5068493 L39.7178082,19.0520548 C40.030137,18.6356164 40.6547945,18.1150685 41.4876712,18.1150685 C42.4767123,18.1150685 42.8410959,18.6356164 42.8410959,19.4164384 L42.8410959,25.5068493 L45.9643836,25.5068493 L45.9643836,18.2712329 C45.9643836,16.1890411 44.8191781,15.2520548 42.9972603,15.2520548 L42.9972603,15.2520548 Z M60.1232877,35.2410959 C59.6547945,35.969863 58.6657534,36.1260274 57.9369863,35.6575342 L57.8849315,35.6054795 C57.1561644,35.0849315 57,34.0958904 57.4684932,33.3671233 C57.9369863,32.6383562 58.9780822,32.4821918 59.7068493,32.9506849 C60.0630915,33.1749269 60.3137201,33.5334886 60.4019199,33.9450876 C60.4901196,34.3566866 60.4084204,34.7864615 60.1753425,35.1369863 L60.1232877,35.2410959 L60.1232877,35.2410959 Z M60.3315068,32.169863 C59.281896,31.4218356 57.8428897,31.554667 56.9479452,32.4821918 C56.7917808,32.6383562 56.5315068,32.690411 56.4273973,32.4821918 C56.0109589,31.2328767 55.3863014,29.8794521 53.8246575,28.1616438 L59.1342466,20.8739726 C59.7589041,19.9890411 59.9671233,18.1671233 59.030137,17.5424658 L52.3671233,26.7041096 L52.3671233,29.6191781 C54.1890411,30.5561644 55.490411,32.0136986 56.3232877,34.9287671 C56.5165687,35.591445 56.9651813,36.1502008 57.5704357,36.4821145 C58.1756901,36.8140282 58.888007,36.8919112 59.5506849,36.6986301 C60.0712329,36.5424658 60.5917808,36.230137 60.9041096,35.7616438 C61.7202383,34.6075306 61.466038,33.0130015 60.3315068,32.169863 L60.3315068,32.169863 Z M51.6383562,33.8356164 L51.6383562,36.230137 L49.2438356,36.230137 L49.2438356,37.7917808 L53.2,37.7917808 L53.2,33.8876712 L51.6383562,33.8356164 Z M40.6027397,37.7917808 L47.109589,37.7917808 L47.109589,36.230137 L40.6027397,36.230137 L40.6027397,37.7917808 Z M32.0136986,37.7917808 L38.4684932,37.7917808 L38.4684932,36.230137 L32.0136986,36.230137 L32.0136986,37.7917808 Z M23.3726027,37.7917808 L29.8273973,37.7917808 L29.8273973,36.230137 L23.4246575,36.230137 L23.3726027,37.7917808 Z M14.7315068,37.7917808 L21.1863014,37.7917808 L21.1863014,36.230137 L14.7315068,36.230137 L14.7315068,37.7917808 L14.7315068,37.7917808 Z M6.09041096,37.7917808 L12.5452055,37.7917808 L12.5452055,36.230137 L6.09041096,36.230137 L6.09041096,37.7917808 L6.09041096,37.7917808 Z M0,33.8356164 L0,37.7917808 L3.95616438,37.7917808 L3.95616438,36.230137 L1.56164384,36.230137 L1.56164384,33.8876712 L0,33.8356164 Z M0,13.169863 L1.56164384,13.169863 L1.56164384,6.24657534 L0,6.24657534 L0,13.169863 L0,13.169863 Z M0,22.3835616 L1.56164384,22.3835616 L1.56164384,15.460274 L0,15.460274 L0,22.3835616 Z M0,31.5972603 L1.56164384,31.5972603 L1.56164384,24.6739726 L0,24.6739726 L0,31.5972603 Z M0,0 L0,3.95616438 L1.56164384,3.95616438 L1.56164384,1.56164384 L3.95616438,1.56164384 L3.95616438,0 L0,0 Z M40.6027397,1.56164384 L47.109589,1.56164384 L47.109589,0 L40.6027397,0 L40.6027397,1.56164384 Z M32.0136986,1.56164384 L38.4684932,1.56164384 L38.4684932,0 L32.0136986,0 L32.0136986,1.56164384 Z M23.3726027,1.56164384 L29.8273973,1.56164384 L29.8273973,0 L23.4246575,0 L23.3726027,1.56164384 Z M14.7315068,1.56164384 L21.1863014,1.56164384 L21.1863014,0 L14.7315068,0 L14.7315068,1.56164384 Z M6.09041096,1.56164384 L12.5452055,1.56164384 L12.5452055,0 L6.09041096,0 L6.09041096,1.56164384 Z M49.2438356,0 L49.2438356,1.56164384 L51.6383562,1.56164384 L51.6383562,3.95616438 L53.2,3.95616438 L53.2,0 L49.2438356,0 Z" id="Shape"></path>
                            <path d="M53.2,31.5972603 L51.6383562,31.5972603 L51.6383562,24.6739726 L53.2,24.6739726 L53.2,31.5972603 Z M53.2,22.3835616 L51.6383562,22.3835616 L51.6383562,15.460274 L53.2,15.460274 L53.2,22.3835616 Z M53.2,13.169863 L51.6383562,13.169863 L51.6383562,6.24657534 L53.2,6.24657534 L53.2,13.169863 Z" id="Shape"></path>
                        </g>
                    </g>
                </g>
            </g>
        </g>
    </g>
</svg>