<?xml version="1.0" encoding="UTF-8"?>
<svg width="104px" height="29px" viewBox="0 0 104 29" version="1.1" xmlns="http://www.w3.org/2000/svg" xmlns:xlink="http://www.w3.org/1999/xlink">
    <!-- Generator: Sketch 54.1 (76490) - https://sketchapp.com -->
    <title>aui-header-logo</title>
    <desc>Created with Sketch.</desc>
    <g id="Page-1" stroke="none" stroke-width="1" fill="none" fill-rule="evenodd">
        <g id="Dekstop-Step1" transform="translate(-668.000000, -692.000000)">
            <g id="Partner" transform="translate(0.000000, 672.000000)">
                <g id="Stacked-Group" transform="translate(156.000000, 8.000000)">
                    <g id="Logo-5" transform="translate(504.000000, 0.000000)">
                        <g id="aui-header-logo" transform="translate(8.000000, 12.000000)">
                            <path d="M86.8989038,12.8321559 C86.6962241,10.7800244 84.70743,9.52594397 81.6799026,8.3225335 C78.6270402,7.11912302 74.6494519,3.97758831 73.2686967,0.329354446 C73.1293544,-0.0886723508 72.9646772,-0.152009744 72.8126675,0.392691839 C72.6226553,0.975395859 72.3946407,2.24214373 72.508648,3.28087698 C72.7366626,5.13032887 73.9147381,6.536419 75.2321559,7.37247259 C75.7135201,7.67649208 76.1062119,7.92984166 76.4989038,8.10718636 C76.8029233,8.24652862 76.688916,8.44920828 76.3848965,8.30986602 C74.8774665,7.57515225 72.825335,6.39707674 71.925944,4.83897686 C71.925944,4.83897686 71.7612667,4.49695493 71.7612667,5.04165652 C71.7866017,5.59902558 71.9512789,9.55127893 75.4095006,10.4506699 C75.5488429,10.5013398 75.5488429,10.5393423 75.4095006,10.5900122 C74.6494519,10.7293544 73.699391,10.5900122 72.9773447,10.1339829 C72.774665,9.99464068 72.8126675,10.2479903 72.8886724,10.4633374 C73.6107186,12.6421437 75.181486,13.3768575 78.6650426,13.1488429 C78.8677223,13.1235079 78.8930572,13.2881851 78.6650426,13.3515225 C77.3222899,13.6935445 76.7269184,13.7188794 74.9028015,13.5542022 C74.7634592,13.5288672 74.6494519,13.6175396 74.7634592,13.8582217 C75.3461632,14.8969549 77.7023143,15.5049939 79.4124239,15.1503045 C79.7797808,15.0869671 80.7551766,14.87162 80.9198538,14.7829476 C81.0845311,14.6942753 81.1478685,14.8082826 81.0085262,14.8969549 C80.818514,15.0109622 79.4884287,16.1890378 76.3215591,16.0243605 C76.2328867,16.0243605 76.0682095,16.0496955 76.2328867,16.2270402 C76.9929354,16.9870889 78.2470158,18.0511571 79.8431181,17.4304507 C79.8431181,17.4304507 80.0457978,17.4051157 79.9317905,17.544458 C79.653106,17.8864799 79.2350792,18.127162 78.6650426,18.2411693 C78.5003654,18.2158343 78.4750305,18.3551766 78.6143727,18.4691839 C78.753715,18.5578563 79.7671133,19.2799026 80.8818514,19.0645554 C80.8818514,19.0645554 77.7403167,22.2947625 74.0920828,24.5242387 C74.0920828,24.5242387 73.5093788,24.8915956 74.2314251,24.7142509 C74.2314251,24.7142509 74.7634592,24.7395859 77.3349574,23.3968331 C78.145676,22.9534714 77.6389769,24.0935445 76.2708892,25.0436054 C76.2708892,25.0436054 75.6248477,25.4362972 76.3342266,25.4362972 C76.3342266,25.4362972 79.4377588,25.3222899 80.3624848,24.2328867 C81.4898904,22.9154689 79.2097442,22.7761267 82.0472594,19.4192448 C84.8467722,16.0750305 87.1142509,14.9222899 86.8989038,12.8321559" id="Path" fill="#E37221"></path>
                            <path d="M92.1052375,6.87844093 C91.9658952,6.85310597 91.7632156,6.78976857 91.6872107,6.57442144 C91.5732034,6.27040195 91.7378806,5.97904994 92.0292326,5.85237515 C92.3332521,5.73836784 92.6752741,5.80170524 92.7892814,6.13105968 C92.8526188,6.32107186 92.7892814,6.52375152 92.7639464,6.58708892 C92.7132765,6.67576127 92.6499391,6.7771011 92.5359318,6.81510353 C92.409257,6.8911084 92.2445798,6.8911084 92.1052375,6.87844093" id="Path" fill="#E37221"></path>
                            <path d="M103.645311,12.6041413 C102.809257,13.36419 99.6677223,14.5422655 96.6401949,13.5922046 C93.6760049,12.6674787 93.4226553,13.6175396 93.3593179,13.7948843 C93.308648,13.9088916 93.1946407,13.9342266 93.1946407,13.7948843 C93.1693057,13.5922046 93.1059683,12.4141291 93.0806334,11.9707674 C93.0552984,11.5147381 93.4226553,11.0460414 93.6760049,10.374665 C93.9293544,9.70328867 94.4360536,7.94250914 94.7400731,7.71449452 C95.1961023,7.34713764 96.7035323,6.06772229 97.0455542,5.63702801 C97.3875761,5.20633374 97.6409257,4.80097442 97.9449452,4.12959805 C96.4881851,3.76224117 94.5500609,4.88964677 94.182704,5.10499391 C94.182704,5.10499391 92.1685749,4.18026797 90.2937881,4.73763703 C88.4190012,5.29500609 87.7982948,6.86577345 87.6842875,7.46114495 C87.380268,8.86723508 86.9875761,9.39926918 86.480877,9.67795371 C85.9995128,9.95663825 85.8348356,9.65261876 85.9995128,9.88063337 C86.16419,10.1339829 86.9749086,10.8940317 87.7602923,10.1339829 C89.2803898,8.72789281 88.9637028,7.6638246 89.8630938,6.51108404 C90.7624848,5.35834348 91.4591961,5.39634592 92.383922,5.28233861 C93.308648,5.19366626 93.7013398,5.44701583 93.6506699,5.62436054 C93.5873325,5.81437272 93.5113276,6.04238733 93.2326431,6.43507917 C93.1439708,6.54908648 92.9792935,6.7137637 92.8399513,6.80243605 C92.700609,6.8911084 92.5359318,6.99244823 92.14324,7.1317905 C91.7505481,7.27113276 91.3325213,7.32180268 90.9904994,7.47381242 C89.3943971,8.20852619 89.3690621,8.81656516 89.3310597,9.18392205 C89.6097442,9.15858709 90.319123,9.24725944 90.9778319,8.81656516 C91.6238733,8.37320341 91.5732034,8.0818514 91.9532278,7.727162 C92.3332521,7.37247259 92.7132765,7.24579781 93.5493301,6.75176614 C94.3600487,6.27040195 95.7028015,5.71303289 97.0835566,4.96565164 C96.6401949,5.72570037 94.1193666,7.32180268 93.7266748,7.53714982 C93.3339829,7.76516443 93.6633374,7.95517661 94.0686967,7.86650426 C93.9293544,8.03118149 93.7013398,8.2591961 93.7013398,8.2591961 C93.6506699,8.76589525 92.5739342,11.0587089 92.5232643,11.1473812 C92.4725944,11.2360536 92.409257,11.2360536 92.4599269,12.2747868 C92.4852619,12.7181486 92.4852619,13.3388551 92.4852619,13.3388551 C92.5485993,15.8850183 91.2311815,17.2404385 89.12838,18.6591961 C86.9495737,20.1159562 85.3661389,20.1412911 82.6299635,23.5361754 C82.6299635,23.5361754 81.8699147,24.5242387 83.7447016,22.890134 C84.365408,22.3327649 85.7334957,21.4840438 86.3288672,21.1800244 C88.4823386,20.1412911 88.2669915,21.091352 88.4063337,21.3193666 C88.5963459,21.6233861 89.0270402,19.8626066 89.419732,20.3693057 C89.7237515,20.7366626 89.8630938,21.0406821 90.7118149,21.2306943 C90.8764921,21.2560292 90.9398295,21.2813642 90.901827,21.1420219 C90.8384896,20.9520097 90.8384896,20.6099878 90.927162,20.3059683 C91.0158343,20.0526188 91.1171742,19.9386114 91.2565164,20.217296 C91.5605359,20.8886724 91.9785627,21.1420219 92.8526188,21.3320341 C93.017296,21.3573691 93.0426309,21.2813642 92.9412911,21.1673569 C92.7766139,20.9773447 92.4599269,20.5846529 92.3459196,20.2933009 C92.2319123,19.9639464 92.3205847,19.900609 92.5105968,20.1286236 C92.9286236,20.6859927 94.1066991,20.9900122 95.1454324,20.9900122 C95.3354446,20.9900122 95.373447,20.9013398 95.2341048,20.8 C94.7780755,20.5213155 94.1193666,20.1286236 93.6886724,19.6725944 C93.5493301,19.5332521 93.6,19.3685749 93.7393423,19.4825822 C94.6894032,20.2679659 96.1714982,20.4579781 97.5269184,19.900609 C97.8309379,19.7866017 97.754933,19.6725944 97.4762485,19.6472594 C96.5768575,19.5332521 95.9308161,19.317905 95.0694275,18.8112058 C94.8667479,18.6718636 94.9807552,18.5831912 95.1580999,18.6465286 C97.7676005,19.6852619 98.971011,18.8492083 100.237759,17.4177832 C100.491108,17.1137637 100.402436,17.0504263 100.098417,17.1644336 C99.1990256,17.3544458 98.1602923,17.1897686 98.1602923,17.1897686 C97.8816078,17.1644336 97.9322777,17.0250914 98.1602923,16.9997564 C101.162485,16.7970767 103.683313,13.1615104 103.936663,12.6548112 C103.987333,12.490134 103.784653,12.490134 103.645311,12.6041413" id="Path" fill="#E37221"></path>
                            <path d="M86.8989038,12.8321559 C86.6962241,10.7800244 84.70743,9.52594397 81.6799026,8.3225335 C78.6270402,7.11912302 74.6494519,3.97758831 73.2686967,0.329354446 C73.1293544,-0.0886723508 72.9646772,-0.152009744 72.8126675,0.392691839 C72.6226553,0.975395859 72.3946407,2.24214373 72.508648,3.28087698 C72.7366626,5.13032887 73.9147381,6.536419 75.2321559,7.37247259 C75.7135201,7.67649208 76.1062119,7.92984166 76.4989038,8.10718636 C76.8029233,8.24652862 76.688916,8.44920828 76.3848965,8.30986602 C74.8774665,7.57515225 72.825335,6.39707674 71.925944,4.83897686 C71.925944,4.83897686 71.7612667,4.49695493 71.7612667,5.04165652 C71.7866017,5.59902558 71.9512789,9.55127893 75.4095006,10.4506699 C75.5488429,10.5013398 75.5488429,10.5393423 75.4095006,10.5900122 C74.6494519,10.7293544 73.699391,10.5900122 72.9773447,10.1339829 C72.774665,9.99464068 72.8126675,10.2479903 72.8886724,10.4633374 C73.6107186,12.6421437 75.181486,13.3768575 78.6650426,13.1488429 C78.8677223,13.1235079 78.8930572,13.2881851 78.6650426,13.3515225 C77.3222899,13.6935445 76.7269184,13.7188794 74.9028015,13.5542022 C74.7634592,13.5288672 74.6494519,13.6175396 74.7634592,13.8582217 C75.3461632,14.8969549 77.7023143,15.5049939 79.4124239,15.1503045 C79.7797808,15.0869671 80.7551766,14.87162 80.9198538,14.7829476 C81.0845311,14.6942753 81.1478685,14.8082826 81.0085262,14.8969549 C80.818514,15.0109622 79.4884287,16.1890378 76.3215591,16.0243605 C76.2328867,16.0243605 76.0682095,16.0496955 76.2328867,16.2270402 C76.9929354,16.9870889 78.2470158,18.0511571 79.8431181,17.4304507 C79.8431181,17.4304507 80.0457978,17.4051157 79.9317905,17.544458 C79.653106,17.8864799 79.2350792,18.127162 78.6650426,18.2411693 C78.5003654,18.2158343 78.4750305,18.3551766 78.6143727,18.4691839 C78.753715,18.5578563 79.7671133,19.2799026 80.8818514,19.0645554 C80.8818514,19.0645554 77.7403167,22.2947625 74.0920828,24.5242387 C74.0920828,24.5242387 73.5093788,24.8915956 74.2314251,24.7142509 C74.2314251,24.7142509 74.7634592,24.7395859 77.3349574,23.3968331 C78.145676,22.9534714 77.6389769,24.0935445 76.2708892,25.0436054 C76.2708892,25.0436054 75.6248477,25.4362972 76.3342266,25.4362972 C76.3342266,25.4362972 79.4377588,25.3222899 80.3624848,24.2328867 C81.4898904,22.9154689 79.2097442,22.7761267 82.0472594,19.4192448 C84.8467722,16.0750305 87.1142509,14.9222899 86.8989038,12.8321559" id="Path" fill="#E37221"></path>
                            <path d="M92.1052375,6.87844093 C91.9658952,6.85310597 91.7632156,6.78976857 91.6872107,6.57442144 C91.5732034,6.27040195 91.7378806,5.97904994 92.0292326,5.85237515 C92.3332521,5.73836784 92.6752741,5.80170524 92.7892814,6.13105968 C92.8526188,6.32107186 92.7892814,6.52375152 92.7639464,6.58708892 C92.7132765,6.67576127 92.6499391,6.7771011 92.5359318,6.81510353 C92.409257,6.8911084 92.2445798,6.8911084 92.1052375,6.87844093" id="Path" fill="#E37221"></path>
                            <path d="M103.645311,12.6041413 C102.809257,13.36419 99.6677223,14.5422655 96.6401949,13.5922046 C93.6760049,12.6674787 93.4226553,13.6175396 93.3593179,13.7948843 C93.308648,13.9088916 93.1946407,13.9342266 93.1946407,13.7948843 C93.1693057,13.5922046 93.1059683,12.4141291 93.0806334,11.9707674 C93.0552984,11.5147381 93.4226553,11.0460414 93.6760049,10.374665 C93.9293544,9.70328867 94.4360536,7.94250914 94.7400731,7.71449452 C95.1961023,7.34713764 96.7035323,6.06772229 97.0455542,5.63702801 C97.3875761,5.20633374 97.6409257,4.80097442 97.9449452,4.12959805 C96.4881851,3.76224117 94.5500609,4.88964677 94.182704,5.10499391 C94.182704,5.10499391 92.1685749,4.18026797 90.2937881,4.73763703 C88.4190012,5.29500609 87.7982948,6.86577345 87.6842875,7.46114495 C87.380268,8.86723508 86.9875761,9.39926918 86.480877,9.67795371 C85.9995128,9.95663825 85.8348356,9.65261876 85.9995128,9.88063337 C86.16419,10.1339829 86.9749086,10.8940317 87.7602923,10.1339829 C89.2803898,8.72789281 88.9637028,7.6638246 89.8630938,6.51108404 C90.7624848,5.35834348 91.4591961,5.39634592 92.383922,5.28233861 C93.308648,5.19366626 93.7013398,5.44701583 93.6506699,5.62436054 C93.5873325,5.81437272 93.5113276,6.04238733 93.2326431,6.43507917 C93.1439708,6.54908648 92.9792935,6.7137637 92.8399513,6.80243605 C92.700609,6.8911084 92.5359318,6.99244823 92.14324,7.1317905 C91.7505481,7.27113276 91.3325213,7.32180268 90.9904994,7.47381242 C89.3943971,8.20852619 89.3690621,8.81656516 89.3310597,9.18392205 C89.6097442,9.15858709 90.319123,9.24725944 90.9778319,8.81656516 C91.6238733,8.37320341 91.5732034,8.0818514 91.9532278,7.727162 C92.3332521,7.37247259 92.7132765,7.24579781 93.5493301,6.75176614 C94.3600487,6.27040195 95.7028015,5.71303289 97.0835566,4.96565164 C96.6401949,5.72570037 94.1193666,7.32180268 93.7266748,7.53714982 C93.3339829,7.76516443 93.6633374,7.95517661 94.0686967,7.86650426 C93.9293544,8.03118149 93.7013398,8.2591961 93.7013398,8.2591961 C93.6506699,8.76589525 92.5739342,11.0587089 92.5232643,11.1473812 C92.4725944,11.2360536 92.409257,11.2360536 92.4599269,12.2747868 C92.4852619,12.7181486 92.4852619,13.3388551 92.4852619,13.3388551 C92.5485993,15.8850183 91.2311815,17.2404385 89.12838,18.6591961 C86.9495737,20.1159562 85.3661389,20.1412911 82.6299635,23.5361754 C82.6299635,23.5361754 81.8699147,24.5242387 83.7447016,22.890134 C84.365408,22.3327649 85.7334957,21.4840438 86.3288672,21.1800244 C88.4823386,20.1412911 88.2669915,21.091352 88.4063337,21.3193666 C88.5963459,21.6233861 89.0270402,19.8626066 89.419732,20.3693057 C89.7237515,20.7366626 89.8630938,21.0406821 90.7118149,21.2306943 C90.8764921,21.2560292 90.9398295,21.2813642 90.901827,21.1420219 C90.8384896,20.9520097 90.8384896,20.6099878 90.927162,20.3059683 C91.0158343,20.0526188 91.1171742,19.9386114 91.2565164,20.217296 C91.5605359,20.8886724 91.9785627,21.1420219 92.8526188,21.3320341 C93.017296,21.3573691 93.0426309,21.2813642 92.9412911,21.1673569 C92.7766139,20.9773447 92.4599269,20.5846529 92.3459196,20.2933009 C92.2319123,19.9639464 92.3205847,19.900609 92.5105968,20.1286236 C92.9286236,20.6859927 94.1066991,20.9900122 95.1454324,20.9900122 C95.3354446,20.9900122 95.373447,20.9013398 95.2341048,20.8 C94.7780755,20.5213155 94.1193666,20.1286236 93.6886724,19.6725944 C93.5493301,19.5332521 93.6,19.3685749 93.7393423,19.4825822 C94.6894032,20.2679659 96.1714982,20.4579781 97.5269184,19.900609 C97.8309379,19.7866017 97.754933,19.6725944 97.4762485,19.6472594 C96.5768575,19.5332521 95.9308161,19.317905 95.0694275,18.8112058 C94.8667479,18.6718636 94.9807552,18.5831912 95.1580999,18.6465286 C97.7676005,19.6852619 98.971011,18.8492083 100.237759,17.4177832 C100.491108,17.1137637 100.402436,17.0504263 100.098417,17.1644336 C99.1990256,17.3544458 98.1602923,17.1897686 98.1602923,17.1897686 C97.8816078,17.1644336 97.9322777,17.0250914 98.1602923,16.9997564 C101.162485,16.7970767 103.683313,13.1615104 103.936663,12.6548112 C103.987333,12.490134 103.784653,12.490134 103.645311,12.6041413" id="Path" fill="#E37221"></path>
                            <path d="M18.0258222,13.2248477 C18.0258222,13.2248477 17.6584653,13.3388551 17.0377588,13.3388551 C16.1637028,13.3388551 15.6063337,12.9968331 15.3909866,12.2114495 L15.3909866,12.1227771 C15.137637,12.6801462 14.4915956,13.389525 13.0601705,13.389525 C11.299391,13.389525 10.7293544,12.2621194 10.7293544,10.7546894 L10.7293544,5.9410475 L13.0348356,5.9410475 L13.0348356,10.1213155 C13.0348356,10.9066991 13.36419,11.274056 13.8962241,11.274056 C15.0236297,11.274056 15.1503045,10.1213155 15.1503045,9.93130329 L15.1503045,5.95371498 L17.4431181,5.95371498 L17.4431181,10.8560292 C17.4431181,11.274056 17.5824604,11.4767357 18.0384896,11.4767357 L18.0384896,13.2248477 L18.0258222,13.2248477 Z" id="Path" fill="#454444"></path>
                            <path d="M32.0487211,12.6548112 C32.0487211,12.6548112 31.2633374,13.389525 30.0599269,13.389525 C27.7924482,13.389525 26.9437272,12.1607795 26.9437272,9.99464068 L26.9437272,7.80316687 L25.854324,7.80316687 L25.854324,6.0043849 L26.9437272,6.0043849 L26.9437272,3.71157125 L29.2365408,3.71157125 L29.2365408,6.0043849 L31.6686967,6.0043849 L31.6686967,7.80316687 L29.2365408,7.80316687 L29.2365408,9.90596833 C29.2365408,10.8940317 29.5785627,11.3627284 30.325944,11.3627284 C30.9973203,11.3627284 31.3900122,11.0207065 31.3900122,11.0207065 L32.0487211,12.6548112 Z" id="Path" fill="#454444"></path>
                            <path d="M33.0494519,13.2755177 L33.0494519,8.34786845 C33.0494519,7.98051157 32.9101096,7.75249695 32.4540804,7.75249695 L32.4540804,5.99171742 C32.4540804,5.99171742 32.7580999,5.87771011 33.4041413,5.87771011 C34.2655298,5.87771011 34.772229,6.24506699 35.0255786,6.96711328 L35.0255786,7.08112058 C35.2282582,6.52375152 35.7602923,5.85237515 37.12838,5.85237515 C37.9644336,5.85237515 38.3824604,6.1817296 38.3824604,6.1817296 L37.4323995,8.19585871 C37.4323995,8.19585871 37.12838,7.94250914 36.4443362,7.94250914 C35.6336175,7.94250914 35.380268,8.61388551 35.354933,9.06991474 L35.354933,13.2755177 L33.0494519,13.2755177 Z" id="Path" fill="#454444"></path>
                            <path d="M45.9956151,13.2248477 C45.9956151,13.2248477 45.6282582,13.3388551 45.0075518,13.3388551 C44.1461632,13.3388551 43.6014616,13.0095006 43.3861145,12.2241169 L43.3861145,12.1607795 C43.2214373,12.490134 42.6894032,13.36419 41.2326431,13.36419 C39.826553,13.36419 38.2684531,12.2114495 38.2684531,9.61461632 C38.2684531,6.8911084 39.7505481,5.85237515 41.3466504,5.85237515 C42.4360536,5.85237515 43.10743,6.40974421 43.3607795,6.63775883 L43.3607795,5.95371498 L45.3749086,5.95371498 L45.3749086,10.8560292 C45.3749086,11.274056 45.5142509,11.4767357 45.9702801,11.4767357 L45.9702801,13.2375152 L45.9956151,13.2375152 L45.9956151,13.2248477 Z M43.082095,9.01924482 C43.05676,8.68989038 42.7527406,7.89183922 41.8280146,7.89183922 C41.0679659,7.89183922 40.5105968,8.44920828 40.5105968,9.60194884 C40.5105968,10.8560292 41.2073082,11.3373934 41.8280146,11.3373934 C42.9174178,11.3373934 43.05676,10.2099878 43.05676,10.2733252 L43.05676,9.01924482 L43.082095,9.01924482 Z" id="Shape" fill="#454444" fill-rule="nonzero"></path>
                            <path d="M49.8465286,13.2248477 C49.8465286,13.2248477 49.5045067,13.3388551 48.8584653,13.3388551 C47.6043849,13.3388551 46.9583435,12.6928136 46.9583435,11.2867235 L46.9583435,2.64750305 L49.2764921,2.64750305 L49.2764921,10.8813642 C49.2764921,11.299391 49.4158343,11.5020706 49.8718636,11.5020706 L49.8718636,13.2375152 L49.8465286,13.2375152 L49.8465286,13.2248477 Z" id="Path" fill="#454444"></path>
                            <path d="M52.0506699,5.04165652 C51.3539586,5.04165652 50.7965895,4.56029233 50.7965895,3.83824604 C50.7965895,3.14153471 51.3539586,2.63483557 52.0506699,2.63483557 C52.7473812,2.63483557 53.3174178,3.14153471 53.3174178,3.83824604 C53.3174178,4.53495737 52.7347138,5.04165652 52.0506699,5.04165652 Z" id="Path" fill="#454444"></path>
                            <path d="M53.8241169,13.2248477 C53.8241169,13.2248477 53.482095,13.3388551 52.8360536,13.3388551 C51.5819732,13.3388551 50.9359318,12.6928136 50.9359318,11.2867235 L50.9359318,5.95371498 L53.2287454,5.95371498 L53.2287454,10.8560292 C53.2287454,11.274056 53.3680877,11.4767357 53.8241169,11.4767357 L53.8241169,13.2248477 Z" id="Path" fill="#454444"></path>
                            <path d="M62.374665,13.2248477 C62.374665,13.2248477 62.0073082,13.3388551 61.3866017,13.3388551 C60.5252132,13.3388551 59.9805116,13.0095006 59.7651644,12.2241169 L59.7651644,12.1607795 C59.6004872,12.490134 59.0684531,13.36419 57.6116931,13.36419 C56.2056029,13.36419 54.647503,12.2114495 54.647503,9.61461632 C54.647503,6.8911084 56.1295981,5.85237515 57.7257004,5.85237515 C58.8151035,5.85237515 59.4864799,6.40974421 59.7398295,6.63775883 L59.7398295,5.95371498 L61.7539586,5.95371498 L61.7539586,10.8560292 C61.7539586,11.274056 61.8933009,11.4767357 62.3493301,11.4767357 L62.3493301,13.2375152 L62.374665,13.2375152 L62.374665,13.2248477 Z M59.4864799,9.01924482 C59.4611449,8.68989038 59.1571255,7.89183922 58.2323995,7.89183922 C57.4723508,7.89183922 56.9149817,8.44920828 56.9149817,9.60194884 C56.9149817,10.8560292 57.6116931,11.3373934 58.2323995,11.3373934 C59.3218027,11.3373934 59.4611449,10.2099878 59.4611449,10.2733252 L59.4611449,9.01924482 L59.4864799,9.01924482 Z" id="Shape" fill="#454444" fill-rule="nonzero"></path>
                            <path d="M70.9758831,13.2248477 C70.9758831,13.2248477 70.6338611,13.3388551 69.9878197,13.3388551 C68.7337393,13.3388551 68.0876979,12.6928136 68.0876979,11.2867235 L68.0876979,9.0952497 C68.0876979,8.39853837 67.6696711,7.96784409 67.0996346,7.96784409 C66.263581,7.96784409 66.0102314,8.63922046 65.9848965,9.0952497 L65.9848965,13.2755177 L63.6920828,13.2755177 L63.6920828,8.34786845 C63.6920828,7.98051157 63.5527406,7.75249695 63.0967113,7.75249695 L63.0967113,5.99171742 C63.0967113,5.99171742 63.4640682,5.87771011 64.1101096,5.87771011 C64.9714982,5.87771011 65.4781973,6.1817296 65.680877,6.86577345 L65.680877,7.00511571 C65.8835566,6.44774665 66.4409257,5.85237515 67.7836784,5.85237515 C69.6584653,5.85237515 70.3678441,7.16979294 70.3678441,8.76589525 L70.3678441,10.8433618 C70.3678441,11.2613886 70.5325213,11.4640682 70.9632156,11.4640682 L70.9758831,13.2248477 L70.9758831,13.2248477 Z" id="Path" fill="#454444"></path>
                            <path d="M2.58416565,13.2755177 L3.39488429,10.7546894 L6.9544458,10.7546894 L7.82850183,13.2755177 L10.374665,13.2755177 L6.46041413,2.64750305 L3.92691839,2.64750305 L0,13.2755177 L2.58416565,13.2755177 Z M5.19366626,5.39634592 L6.37174178,8.93057247 L4.01559074,8.93057247 L5.19366626,5.39634592 Z" id="Shape" fill="#454444" fill-rule="nonzero"></path>
                            <path d="M21.5347138,13.5288672 C21.699391,13.5542022 21.8640682,13.5542022 22.0414129,13.5542022 C24.3342266,13.5542022 25.4109622,12.6041413 25.4109622,11.0333739 C25.4109622,8.51254568 21.2686967,9.34859927 21.2686967,8.05651644 C21.2686967,7.82850183 21.4713764,7.61315469 22.1680877,7.61315469 C23.0294762,7.61315469 23.6501827,8.09451888 23.9035323,8.34786845 L25.1956151,7.09378806 C24.8535932,6.65042631 23.9415347,5.89037759 21.965408,5.89037759 C19.7232643,5.95371498 18.9125457,7.09378806 18.9125457,8.10718636 C18.9125457,10.9066991 22.8014616,10.1593179 22.8014616,11.1600487 C22.8014616,11.4640682 22.598782,11.8060901 21.9274056,11.8060901 C20.5846529,11.8060901 19.8246041,10.7420219 19.8246041,10.7420219 L18.5578563,11.9454324 C18.5578563,11.9454324 18.7858709,12.5028015 19.5459196,12.9334957 C20.217296,13.3388551 20.9773447,13.4655298 21.5347138,13.5288672 Z" id="Path" fill="#454444"></path>
                            <path d="M54.9135201,16.9744214 C54.2168088,16.9744214 53.6594397,16.4930572 53.6594397,15.771011 C53.6594397,15.0742996 54.2168088,14.5676005 54.9135201,14.5676005 C55.6102314,14.5676005 56.180268,15.0742996 56.180268,15.771011 C56.180268,16.4930572 55.6102314,16.9744214 54.9135201,16.9744214 Z" id="Path" fill="#454444"></path>
                            <path d="M56.6742996,25.1829476 C56.6742996,25.1829476 56.3322777,25.2969549 55.6862363,25.2969549 C54.4321559,25.2969549 53.7861145,24.6509135 53.7861145,23.2448234 L53.7861145,17.8991474 L56.0789281,17.8991474 L56.0789281,22.8014616 C56.0789281,23.2194884 56.2182704,23.4221681 56.6742996,23.4221681 L56.6742996,25.1829476 L56.6742996,25.1829476 Z" id="Path" fill="#454444"></path>
                            <path d="M41.625335,14.5929354 L44.0954933,14.5929354 L44.0954933,20.8380024 C44.0954933,24.2328867 42.1953715,25.3476248 39.9152253,25.3476248 C37.6224117,25.3476248 35.6589525,24.2328867 35.6842875,20.8380024 L35.7096224,14.5929354 L38.1291108,14.5929354 L38.1291108,21.0153471 C38.1291108,22.1680877 38.5471376,23.1181486 39.8898904,23.1181486 C41.2326431,23.1181486 41.6,22.1680877 41.6,21.0153471 L41.6,14.5929354 L41.625335,14.5929354 Z" id="Path" fill="#454444"></path>
                            <path d="M52.9500609,25.1829476 C52.9500609,25.1829476 52.608039,25.2969549 51.9619976,25.2969549 C50.7079172,25.2969549 50.0618758,24.6509135 50.0618758,23.2448234 L50.0618758,21.0533496 C50.0618758,20.3566382 49.643849,19.925944 49.0738124,19.925944 C48.2630938,19.925944 47.9844093,20.5973203 47.9590743,21.0533496 L47.9590743,25.2589525 L45.6662607,25.2589525 L45.6662607,20.3313033 C45.6662607,19.9639464 45.5269184,19.7359318 45.0708892,19.7359318 L45.0708892,17.9751523 C45.0708892,17.9751523 45.438246,17.8611449 46.0842875,17.8611449 C46.945676,17.8611449 47.4523752,18.1651644 47.6550548,18.8492083 L47.6550548,18.9885505 C47.8577345,18.4311815 48.4151035,17.83581 49.7578563,17.83581 C51.6326431,17.83581 52.3420219,19.1532278 52.3420219,20.7493301 L52.3420219,22.8267966 C52.3420219,23.2448234 52.5066991,23.447503 52.9373934,23.447503 L52.9500609,25.1829476 L52.9500609,25.1829476 Z" id="Path" fill="#454444"></path>
                            <path d="M63.299391,19.6979294 L60.3225335,19.6979294 L60.3225335,21.8007308 C60.3225335,22.7887942 60.6645554,23.2574909 61.4119367,23.2574909 C62.083313,23.2574909 62.4760049,22.9154689 62.4760049,22.9154689 L63.1473812,24.5749086 C63.1473812,24.5749086 62.3619976,25.3096224 61.1585871,25.3096224 C58.8911084,25.3096224 58.0423873,24.080877 58.0423873,21.9147381 L58.0423873,19.7232643 L56.9529842,19.7232643 L56.9529842,17.8991474 L58.0423873,17.8991474 L58.0423873,15.6063337 L60.335201,15.6063337 L60.335201,17.8991474 L63.4387333,17.8991474 L64.3127893,17.8991474 C65.5668697,17.8991474 66.2129111,18.5451888 66.2129111,19.9512789 L66.2129111,22.0540804 C66.2129111,22.8394641 66.554933,23.206821 67.0742996,23.206821 C68.0496955,23.206821 68.3030451,22.25676 68.3030451,21.8894032 L68.3030451,17.8864799 L70.5578563,17.8864799 L70.5578563,25.3729598 C70.5578563,27.5264312 69.1517661,28.9578563 66.9729598,28.9578563 C64.5408039,28.9578563 63.6920828,27.336419 63.6920828,27.336419 L64.8701583,26.1076736 C64.8701583,26.1076736 65.4275274,26.9183922 66.6309379,26.9183922 C67.5049939,26.9183922 68.3917174,26.4750305 68.3917174,25.3476248 L68.3917174,24.2582217 C68.062363,24.7902558 67.4036541,25.27162 66.2002436,25.27162 C64.4394641,25.27162 63.8694275,24.1442144 63.8694275,22.6367844 L63.8694275,20.2806334 C63.90743,19.9386114 63.7680877,19.6979294 63.299391,19.6979294 Z" id="Path" fill="#454444"></path>
                        </g>
                    </g>
                </g>
            </g>
        </g>
    </g>
</svg>