<?xml version="1.0" encoding="UTF-8"?>
<svg width="104px" height="17px" viewBox="0 0 104 17" version="1.1" xmlns="http://www.w3.org/2000/svg" xmlns:xlink="http://www.w3.org/1999/xlink">
    <!-- Generator: Sketch 54.1 (76490) - https://sketchapp.com -->
    <title>gmhba-logo</title>
    <desc>Created with Sketch.</desc>
    <g id="Page-1" stroke="none" stroke-width="1" fill="none" fill-rule="evenodd">
        <g id="Dekstop-Step1" transform="translate(-836.000000, -699.000000)" fill="#00A3E0" fill-rule="nonzero">
            <g id="Partner" transform="translate(0.000000, 672.000000)">
                <g id="Stacked-Group" transform="translate(156.000000, 8.000000)">
                    <g id="Logo-6" transform="translate(672.000000, 0.000000)">
                        <g id="gmhba-logo" transform="translate(8.000000, 19.000000)">
                            <path d="M16.2007437,0.390653266 C16.3055276,0.853949749 16.4855678,5.67897487 16.4855678,8.08247236 C16.4855678,10.491196 16.3055276,15.3318995 16.2007437,15.775598 C15.7366633,15.8806432 10.9113769,16.0604221 8.5078794,16.0604221 C6.09941709,16.0604221 1.25871357,15.8806432 0.815015075,15.775598 C0.709969849,15.3115176 0.529929648,10.4864925 0.529929648,8.08351759 C0.529929648,5.67453266 0.709969849,0.833045226 0.815015075,0.390653266 C1.27909548,0.284824121 6.1041206,0.105567839 8.50761809,0.105567839 C10.9163417,0.105567839 15.7570452,0.284824121 16.2007437,0.390653266 L16.2007437,0.390653266 Z M14.1032362,8.09710553 C14.1032362,7.7600201 14.0841608,7.38295477 14.0444422,6.96669347 C14.004201,6.54990955 13.9446231,6.084 13.8654472,5.5679196 L11.0216482,5.5679196 L11.0216482,2.75704523 C10.6056482,2.65748744 10.1784121,2.5879799 9.74229146,2.54826131 C9.30590955,2.50880402 8.89879397,2.48894472 8.52225126,2.48894472 C8.12506533,2.48894472 7.71350754,2.50880402 7.28731658,2.54826131 C6.86034171,2.5879799 6.42892462,2.65748744 5.99280402,2.75704523 L5.99280402,5.5679196 L3.17957789,5.5679196 C3.08080402,5.98444221 3.01103518,6.41089447 2.97079397,6.84753769 C2.9318593,7.28444221 2.91147739,7.69051256 2.91147739,8.0678392 C2.91147739,8.46476382 2.9318593,8.8760603 2.97079397,9.30225126 C3.01103518,9.72974874 3.08080402,10.1606432 3.17957789,10.5970251 L5.99280402,10.5970251 L5.99280402,13.4392563 C6.48876382,13.5179095 6.94500503,13.5774874 7.36152764,13.6174673 C7.77831156,13.6577085 8.15485427,13.6770452 8.49246231,13.6770452 C8.82954774,13.6770452 9.20687437,13.6577085 9.62365829,13.6174673 C10.0396583,13.5774874 10.5058291,13.5179095 11.0216482,13.4392563 L11.0216482,10.5970251 L13.8654472,10.5970251 C13.9446231,10.1015879 14.004201,9.64456281 14.0444422,9.2280402 C14.0841608,8.81151759 14.1032362,8.43445226 14.1032362,8.09710553 L14.1032362,8.09710553 Z M30.0546935,7.27320603 C30.7484623,7.27320603 31.5723618,7.36283417 32.5243015,7.54130653 L32.5243015,15.0998593 C31.9489045,15.3190955 31.1448643,15.5568844 30.1140101,15.8145327 C29.0821106,16.0721809 27.8819296,16.2012663 26.513206,16.2012663 C25.0846432,16.2012663 23.8693065,15.9877789 22.8679799,15.5610653 C21.8653467,15.1348744 21.047196,14.5550352 20.4127437,13.8207638 C19.7775075,13.0870151 19.3160402,12.2236583 19.0283417,11.2314774 C18.7406432,10.2395578 18.5974472,9.17760804 18.5974472,8.04719598 C18.5974472,6.95624121 18.7706935,5.92486432 19.1179698,4.95175879 C19.4644623,3.98074372 19.9813266,3.13698492 20.6651658,2.42283417 C21.3500503,1.70842211 22.1982513,1.14347739 23.2095075,0.726693467 C24.2215477,0.309909548 25.392201,0.101648241 26.7217286,0.101648241 C27.4160201,0.101648241 28.1798191,0.181085427 29.0128643,0.340221106 C29.8459095,0.498834171 30.7586533,0.776603015 31.7505729,1.17300503 C31.7307136,1.51035176 31.6907337,1.8278392 31.6316784,2.12468342 C31.5723618,2.42283417 31.4981508,2.72568844 31.4085226,3.03246231 C31.3188945,3.34106533 31.2099296,3.6679598 31.0813668,4.01497487 C30.9520201,4.36225126 30.7983719,4.75368844 30.6196382,5.19007035 C29.9449447,4.91282412 29.3204221,4.70952764 28.7452864,4.5801809 C28.1693668,4.45109548 27.6736683,4.38681407 27.2571457,4.38681407 C26.6023116,4.38681407 26.0470352,4.48637186 25.5905327,4.68444221 C25.1340302,4.88303518 24.7668945,5.15087437 24.4896482,5.4879598 C24.2113568,5.82556784 24.0085829,6.21674372 23.8794975,6.66305528 C23.7501508,7.10962814 23.6861307,7.57135678 23.6861307,8.04719598 C23.6861307,9.37698492 23.9733065,10.3534874 24.5487035,10.9785327 C25.1238392,11.6033166 25.9668141,11.9158392 27.0786734,11.9158392 L27.6138291,11.9158392 L27.6138291,7.54130653 C28.1097889,7.44253266 28.5516583,7.37302513 28.9389146,7.33278392 C29.3248643,7.29358794 29.6972261,7.27320603 30.0546935,7.27320603 L30.0546935,7.27320603 Z M54.1445427,1.32221106 C53.478995,0.845849246 52.7355779,0.533065327 51.9124623,0.38438191 C51.0885628,0.235437186 50.290794,0.161226131 49.5170653,0.161226131 C48.6440402,0.161226131 47.8601206,0.260261307 47.1658291,0.458592965 C46.4707538,0.65718593 45.8663518,0.885567839 45.3505327,1.14347739 C44.6758392,0.746030151 43.9418291,0.483678392 43.1482412,0.354331658 C42.3546533,0.225246231 41.5508744,0.161226131 40.7379497,0.161226131 C39.2495477,0.161226131 38.0198392,0.275678392 37.0475176,0.503537688 C36.075196,0.731658291 35.2421508,0.964221106 34.5478593,1.20227136 L34.5478593,15.8145327 C35.0636784,15.9127839 35.5295879,15.9775879 35.9463719,16.0078995 C36.3631558,16.0379497 36.7399598,16.0525829 37.0778291,16.0525829 C37.3942714,16.0525829 37.7616683,16.0379497 38.1784523,16.0078995 C38.5952362,15.9775879 39.0608844,15.9127839 39.5772261,15.8145327 L39.5772261,4.68444221 C39.6373266,4.64524623 39.7904523,4.60500503 40.0386935,4.56528643 C40.2864121,4.52582915 40.5192362,4.50623116 40.7379497,4.50623116 C41.5508744,4.50623116 42.1262714,4.73409045 42.4641407,5.19007035 C42.8012261,5.64683417 42.9697688,6.40096482 42.9697688,7.4519397 L42.9697688,15.8145327 C43.4853266,15.9127839 43.9520201,15.9775879 44.368804,16.0078995 C44.7850653,16.0379497 45.1621307,16.0525829 45.4992161,16.0525829 C45.8164422,16.0525829 46.1841005,16.0379497 46.6006231,16.0078995 C47.0171457,15.9775879 47.4830553,15.9127839 47.999397,15.8145327 L47.999397,7.12452261 C47.999397,6.2318995 47.9095075,5.43857286 47.7312965,4.7440201 C47.8303317,4.70456281 48.0140302,4.65491457 48.2818693,4.59507538 C48.5494472,4.53549749 48.8222513,4.50623116 49.1000201,4.50623116 C49.9137286,4.50623116 50.498794,4.73409045 50.8557387,5.19007035 C51.2129447,5.64683417 51.3916784,6.40096482 51.3916784,7.4519397 L51.3916784,15.8145327 C51.9077588,15.9127839 52.3736683,15.9775879 52.7904523,16.0078995 C53.2069749,16.0379497 53.5835176,16.0525829 53.9216482,16.0525829 C54.2378291,16.0525829 54.6057487,16.0379497 55.0222714,16.0078995 C55.4390553,15.9775879 55.9044422,15.9127839 56.4210452,15.8145327 L56.4210452,6.91652261 C56.4210452,5.44850251 56.2078191,4.26765829 55.7808442,3.37529648 C55.3541307,2.48267337 54.8085226,1.79778894 54.1445427,1.32221106 L54.1445427,1.32221106 Z M70.5856884,0.191015075 C70.1885025,0.191015075 69.777206,0.210874372 69.3510151,0.250592965 C68.9237789,0.290834171 68.4923618,0.359557789 68.0559799,0.458592965 L68.0559799,5.6959598 L63.6516583,5.6959598 L63.6516583,0.458592965 C63.2348744,0.359557789 62.8084221,0.290834171 62.3723015,0.250592965 C61.9351357,0.210874372 61.5290653,0.191015075 61.1525226,0.191015075 C60.7550754,0.191015075 60.3435176,0.210874372 59.9170653,0.250592965 C59.4903518,0.290834171 59.059196,0.359557789 58.6222915,0.458592965 L58.6222915,15.8145327 C59.1182513,15.8931859 59.5747538,15.9530251 59.9915377,15.9924824 C60.4083216,16.0324623 60.784603,16.0523216 61.1222111,16.0523216 C61.4595578,16.0523216 61.8363618,16.0324623 62.2531457,15.9924824 C62.6699296,15.9530251 63.1358392,15.8931859 63.6516583,15.8145327 L63.6516583,10.1601206 L68.0559799,10.1601206 L68.0559799,15.8145327 C68.5519397,15.8931859 69.0084422,15.9530251 69.4249648,15.9924824 C69.8420101,16.0324623 70.2182915,16.0523216 70.5561608,16.0523216 C70.8927236,16.0523216 71.2700503,16.0324623 71.6868342,15.9924824 C72.1036181,15.9530251 72.5692663,15.8931859 73.0853467,15.8145327 L73.0853467,0.458592965 C72.6688241,0.359557789 72.2415879,0.290834171 71.8059899,0.250592965 C71.3690854,0.210874372 70.9627538,0.191015075 70.5856884,0.191015075 L70.5856884,0.191015075 Z M88.8878593,8.99965829 C89.423799,9.55493467 89.6908543,10.338593 89.6908543,11.3503719 C89.6908543,13.1758593 89.0166834,14.4405829 87.6678191,15.1450653 C86.3181709,15.8490251 84.3241407,16.2012663 81.6862513,16.2012663 C80.9911759,16.2012663 80.0836583,16.1761809 78.9631759,16.126794 C77.8421709,16.077407 76.6958191,15.9726231 75.5259497,15.8145327 L75.5259497,0.518170854 C75.9223518,0.458592965 76.378593,0.404241206 76.8949347,0.354854271 C77.4107538,0.30520603 77.9365025,0.260522613 78.4716583,0.220020101 C79.0078593,0.181346734 79.5283819,0.151035176 80.0345327,0.131175879 C80.5404221,0.111839196 80.9817688,0.101648241 81.3588342,0.101648241 C83.8386332,0.101648241 85.6939095,0.454150754 86.9236181,1.15837186 C88.1535879,1.86207035 88.7684422,2.95798995 88.7684422,4.44639196 C88.7684422,5.2 88.5944121,5.84072362 88.2479196,6.36568844 C87.9003819,6.89169849 87.4292462,7.34323618 86.8339899,7.71951759 C87.6678191,8.01740704 88.3516583,8.44438191 88.8878593,8.99965829 L88.8878593,8.99965829 Z M80.4957387,6.35079397 L81.9535678,6.35079397 C82.7082211,6.35079397 83.2138492,6.18773869 83.4717588,5.8600603 C83.729407,5.53264322 83.8582312,5.19007035 83.8582312,4.83312563 C83.8582312,4.49656281 83.7241809,4.18377889 83.4568643,3.8960804 C83.1887638,3.60864322 82.6980302,3.46440201 81.9841407,3.46440201 C81.7651658,3.46440201 81.5124824,3.46962814 81.2245226,3.47903518 C80.9368241,3.49001005 80.6943317,3.5038593 80.4957387,3.52424121 L80.4957387,6.35079397 L80.4957387,6.35079397 Z M84.334593,11.0229548 C84.334593,10.8246231 84.2998392,10.6315176 84.230593,10.4431156 C84.1608241,10.2544523 84.0367035,10.0906131 83.8582312,9.9521206 C83.6802814,9.81284422 83.4317789,9.69865327 83.1142915,9.60980905 C82.796804,9.52044221 82.3797588,9.47575879 81.8647236,9.47575879 L80.4957387,9.47575879 L80.4957387,12.5408844 C80.5550553,12.5408844 80.7139296,12.5510754 80.9721005,12.5706734 C81.2292261,12.5905327 81.5765025,12.600201 82.0136683,12.600201 C82.846191,12.600201 83.4417085,12.4614472 83.798392,12.1839397 C84.1561206,11.9059095 84.334593,11.5194372 84.334593,11.0229548 L84.334593,11.0229548 Z M103.886593,6.47021106 L103.886593,15.1892261 C103.132201,15.4079397 102.219719,15.6253467 101.148362,15.8435377 C100.076744,16.0617286 98.9463317,16.1714774 97.7555578,16.1714774 C96.7241809,16.1714774 95.777206,16.0771457 94.9141106,15.889005 C94.0504925,15.7003417 93.3120402,15.3974874 92.6969246,14.9812261 C92.0810251,14.5647035 91.6004824,14.0141307 91.2534673,13.3292462 C90.906191,12.6448844 90.7329447,11.8068744 90.7329447,10.8146935 C90.7329447,9.84289447 90.9404221,9.03963819 91.3577286,8.40466332 C91.7745126,7.76968844 92.3099296,7.26327638 92.9650251,6.88647236 C93.6193367,6.51045226 94.3434171,6.24679397 95.1372663,6.09811055 C95.930593,5.94942714 96.7040603,5.87495477 97.458191,5.87495477 L99.2737487,5.87495477 C99.2533668,5.51801005 99.1543317,5.2201206 98.9758593,4.98233166 C98.7976482,4.74375879 98.5692663,4.56084422 98.2920201,4.43175879 C98.0137286,4.30267337 97.7059095,4.21356784 97.3688241,4.16339698 C97.0314774,4.11453266 96.6844623,4.08918593 96.3275176,4.08918593 C95.8514171,4.08918593 95.2956181,4.1440603 94.6609045,4.25302513 C94.025407,4.36198995 93.3710955,4.53549749 92.6969246,4.77407035 C92.518191,4.43672362 92.3640201,4.12942714 92.2354573,3.85087437 C92.1058492,3.57310553 92.0073367,3.29089447 91.9380905,3.00345729 C91.8683216,2.71575879 91.8189347,2.41813065 91.7888844,2.11057286 C91.7596181,1.80327638 91.7447236,1.45103518 91.7447236,1.05358794 C92.6969246,0.737145729 93.6441608,0.498834171 94.5866935,0.340221106 C95.5287035,0.181085427 96.3766432,0.101648241 97.1307739,0.101648241 C98.1626734,0.101648241 99.0947538,0.225507538 99.927799,0.47401005 C100.761628,0.72198995 101.470291,1.10349749 102.056402,1.61931658 C102.641206,2.1359196 103.093005,2.79493467 103.40997,3.59845226 C103.726935,4.40196985 103.886593,5.35913568 103.886593,6.47021106 L103.886593,6.47021106 Z M99.2737487,9.02866332 L97.577608,9.02866332 C96.8822714,9.02866332 96.2977286,9.17760804 95.8211055,9.47575879 C95.3452663,9.77286432 95.1072161,10.1899095 95.1072161,10.7255879 C95.1072161,11.1225126 95.1963216,11.4347739 95.374794,11.6636784 C95.5540503,11.8915377 95.777206,12.0645226 96.0445226,12.1839397 C96.3123618,12.3028342 96.599799,12.3817487 96.9076181,12.4219899 C97.2149146,12.4617085 97.4981709,12.4815678 97.7555578,12.4815678 C97.9340302,12.4815678 98.192201,12.4617085 98.5295477,12.4219899 C98.8668945,12.3817487 99.1146131,12.3428141 99.2737487,12.3028342 L99.2737487,9.02866332 L99.2737487,9.02866332 Z" id="GMHBA"></path>
                            <path d="M13.6365427,9.30695477 C13.5955176,9.72739698 13.5359397,10.1888643 13.4567638,10.6884824 L10.5870955,10.6884824 L10.5870955,13.5560603 C10.0657889,13.6352362 9.59648241,13.6950754 9.1760402,13.7358392 C8.75559799,13.7763417 8.37461307,13.7956784 8.03413065,13.7956784 C7.69417085,13.7956784 7.31423116,13.7763417 6.89352764,13.7358392 C6.47308543,13.6950754 6.01240201,13.6352362 5.51252261,13.5560603 L5.51252261,10.6884824 L2.67316583,10.6884824 C2.57334673,10.2479196 2.50357789,9.81258291 2.46333668,9.38142714 C2.42257286,8.95157789 2.40349749,8.53714573 2.40349749,8.1360402 C2.40349749,7.75531658 2.42257286,7.34558794 2.46333668,6.90502513 C2.50357789,6.46420101 2.57334673,6.03382915 2.67316583,5.61390955 L5.51252261,5.61390955 L5.51252261,2.77664322 C5.9520402,2.67682412 6.3878995,2.60757789 6.81827136,2.56655276 C7.24838191,2.52683417 7.6638593,2.50671357 8.06444221,2.50671357 C8.44464322,2.50671357 8.85489447,2.52683417 9.29571859,2.56655276 C9.73549749,2.60757789 10.1666533,2.67682412 10.5870955,2.77664322 L10.5870955,5.61390955 L13.4567638,5.61390955 C13.5359397,6.13390955 13.5955176,6.604 13.6365427,7.02444221 C13.6762613,7.44488442 13.6963819,7.82586935 13.6963819,8.16556784 C13.6963819,8.50631156 13.6762613,8.88651256 13.6365427,9.30695477 M15.8121809,0.38960804 C15.3648241,0.282733668 10.4802211,0.101386935 8.04954774,0.101386935 C5.62488442,0.101386935 0.755698492,0.282733668 0.287437186,0.38960804 C0.18160804,0.836180905 0.000261306533,5.72078392 0.000261306533,8.15145729 C0.000261306533,10.5769045 0.18160804,15.4460905 0.287437186,15.9135678 C0.735055276,16.0196583 5.6201809,16.201005 8.04954774,16.201005 C10.474995,16.201005 15.3436583,16.0196583 15.8121809,15.9135678 C15.9190553,15.4662111 16.0996181,10.581608 16.0996181,8.15093467 C16.0996181,5.72601005 15.9190553,0.857085427 15.8121809,0.38960804" id="+"></path>
                        </g>
                    </g>
                </g>
            </g>
        </g>
    </g>
</svg>