<?xml version="1.0" encoding="UTF-8"?>
<svg width="77px" height="38px" viewBox="0 0 77 38" version="1.1" xmlns="http://www.w3.org/2000/svg" xmlns:xlink="http://www.w3.org/1999/xlink">
    <!-- Generator: Sketch 54.1 (76490) - https://sketchapp.com -->
    <title>nib-logo.3c438715</title>
    <desc>Created with Sketch.</desc>
    <g id="Page-1" stroke="none" stroke-width="1" fill="none" fill-rule="evenodd">
        <g id="Dekstop-Step1" transform="translate(-514.000000, -688.000000)" fill="#009623">
            <g id="Partner" transform="translate(0.000000, 672.000000)">
                <g id="Stacked-Group" transform="translate(156.000000, 8.000000)">
                    <g id="Logo-4" transform="translate(336.000000, 0.000000)">
                        <g id="nib-logo.3c438715" transform="translate(22.000000, 8.000000)">
                            <path d="M0,10.1004352 L9.80312037,10.1004352 L9.80312037,14.3302222 C12.2254444,11.0813981 14.8578241,9.32407407 18.9333241,9.32407407 C26.0523426,9.32407407 29.4053148,13.5051296 29.4053148,20.9337778 L29.4053148,37.1319815 L18.6750648,37.1319815 L18.6750648,22.8420463 C18.6750648,20.1593519 17.9516574,17.7861111 14.9088426,17.7861111 C11.6070648,17.7861111 10.7309537,19.900213 10.7309537,23.358213 L10.7309537,37.1319815 L0,37.1319815 L0,10.1004352 Z M32.1944444,37.133213 L42.928037,37.133213 L42.928037,10.1016667 L32.1944444,10.1016667 L32.1944444,37.133213 L32.1944444,37.133213 Z M32.1944444,7.56710185 L42.928037,7.56710185 L42.928037,0 L32.1944444,0 L32.1944444,7.56710185 Z M60.9271944,30.1797407 C57.4181759,30.1797407 56.3879537,26.5173148 56.3879537,23.6279074 C56.3879537,20.8435278 57.6771389,17.643963 60.9271944,17.643963 C64.3830833,17.643963 65.4690741,20.9459167 65.4690741,23.8351481 C65.4690741,26.7736389 64.4374444,30.1797407 60.9271944,30.1797407 Z M56.6444537,0 L45.9166667,0 L45.9166667,37.1439444 L55.5623333,37.1439444 L55.5623333,33.3267037 L55.66525,33.3267037 C57.0063333,35.9085926 59.4870648,37.9178426 63.970537,37.9178426 C72.7946296,37.9178426 76.1973889,31.4703333 76.1973889,23.4718611 C76.1973889,15.3219167 71.3479907,9.33603704 64.4374444,9.33603704 C61.2380556,9.33603704 58.7604907,10.3703056 56.6444537,12.8450556 L56.6444537,0 L56.6444537,0 Z" id="Shape"></path>
                        </g>
                    </g>
                </g>
            </g>
        </g>
    </g>
</svg>