<?xml version="1.0" encoding="UTF-8"?>
<svg xmlns="http://www.w3.org/2000/svg" xmlns:xlink="http://www.w3.org/1999/xlink" width="104px" height="23px" version="1.1" viewBox="0 0 104 23">
<!--Generator: Sketch 54.1 (76490) - https://sketchapp.com-->
    <title>
        logo
    </title>
    <desc>
        Created with Sketch.
    </desc>
    <defs>
        <linearGradient id="linearGradient-1-ppcare" x1="83.3382685%" x2="5.09029369%" y1="49.5812604%" y2="50.2121752%">
            <stop offset="0%" stop-color="#F59030"/>
            <stop offset="62.91%" stop-color="#FAAE32"/>
            <stop offset="100%" stop-color="#FCBB33"/>
        </linearGradient>
        <linearGradient id="linearGradient-2-ppcare" x1="109.128155%" x2="-51.3706775%" y1="49.4853252%" y2="51.0241581%">
            <stop offset="0%" stop-color="#F59030"/>
            <stop offset="62.91%" stop-color="#FAAE32"/>
            <stop offset="100%" stop-color="#FCBB33"/>
        </linearGradient>
    </defs>
    <g id="Page-1" fill="none" fill-rule="evenodd" stroke="none" stroke-width="1">
        <g id="Dekstop-Step1" transform="translate(-1004.000000, -696.000000)">
            <g id="Partner" transform="translate(0.000000, 672.000000)">
                <g id="Stacked-Group" transform="translate(156.000000, 8.000000)">
                    <g id="Logo-7" transform="translate(840.000000, 0.000000)">
                        <g id="logo" transform="translate(8.000000, 16.000000)">
                            <g id="Group" transform="translate(0.000000, 0.685499)">
                                <path id="SVGID_1_" fill="url(#linearGradient-1-ppcare)" d="M1.03804143,3.44708098 L1.02824859,3.48625235 C-1.80188324,9.62636535 1.43954802,17.3920904 8.29453861,16.2169492 C12.0745763,15.5118644 17.7446328,7.23691149 13.9645951,3.93672316 C10.6546139,0.861770245 11.1442561,8.65687382 8.05951036,8.65687382 C4.38719397,8.65687382 4.04444444,1.43954802 2.60489642,1.43954802 C2.19359699,1.42975518 1.71374765,1.99774011 1.03804143,3.44708098"/>
                                <path id="SVGID_4_" fill="url(#linearGradient-2-ppcare)" d="M8.90169492,0.0783427495 L8.84293785,0.0783427495 C5.90508475,0.401506591 3.94651601,5.29792844 7.20753296,6.27721281 C9.42071563,6.96271186 10.7035782,5.10207156 10.9386064,3.24143126 C11.1442561,1.65499058 10.5762712,0.0587570621 9.18568738,0.0587570621 C9.09755179,0.0587570621 8.99962335,0.0685499058 8.90169492,0.0783427495"/>
                            </g>
                            <path id="Shape" fill="#651F76" fill-rule="nonzero" d="M62.7721281,0 L62.5370998,16.7751412 L58.7472693,16.7751412 L58.6591337,0.215442561 L62.7721281,0 Z M72.2026365,11.4282486 C72.5649718,14.9438795 75.4832392,17.4214689 80.0956685,16.8436911 L76.9815443,10.4979284 L79.8704331,4.7299435 C79.3612053,4.63201507 78.8617702,4.59284369 78.3917137,4.59284369 C74.2885122,4.59284369 71.8305085,7.93220339 72.2026365,11.4282486 L72.2026365,11.4282486 Z M90.8677966,4.58305085 L88.1845574,4.58305085 L88.213936,16.8241055 L91.9254237,16.8436911 L91.1517891,8.81355932 L94.4715631,8.8527307 C94.5988701,7.43276836 94.3834275,4.58305085 90.9167608,4.58305085 C90.906968,4.58305085 90.8873823,4.58305085 90.8677966,4.58305085 L90.8677966,4.58305085 Z M24.8444444,7.0606403 C24.8444444,7.0606403 26.0489642,6.94312618 26.0783427,5.91487759 C26.1077213,4.95517891 24.8150659,4.73973635 24.8150659,4.73973635 L24.8444444,7.0606403 Z M20.6531073,0.793220339 L26.5386064,1.18493409 C29.319774,1.49830508 31.0237288,5.25875706 29.8975518,7.63841808 C28.9770245,9.6165725 26.9596987,10.8015066 24.8836158,10.6741996 L24.8542373,16.8436911 L20.4964218,16.8436911 L20.6531073,0.793220339 Z M53.5766478,12.2116761 C53.5766478,12.2116761 54.7811676,12.1627119 54.693032,10.9483992 C54.6048964,9.73408663 53.566855,9.67532957 53.566855,9.67532957 L53.5766478,12.2116761 Z M53.7627119,4.79849341 C56.4851224,4.79849341 58.1107345,7.3740113 58.4926554,10.1258004 C58.9039548,13.0538606 56.7397363,16.6870056 53.5570621,17.1080979 L53.5962335,22.0632768 L49.9826742,22.0730697 L49.93371,4.83766478 L53.7627119,4.79849341 Z M67.100565,8.62749529 C66.2583804,8.96045198 66.5815443,10.1649718 66.5815443,10.1649718 L68.3932203,9.26403013 C68.3834275,9.25423729 67.8056497,8.35329567 67.100565,8.62749529 L67.100565,8.62749529 Z M62.8210923,11.8199623 C62.2629002,8.57853107 64.0451977,4.4165725 67.2474576,4.4165725 C67.3551789,4.4165725 67.4629002,4.42636535 67.5706215,4.42636535 C70.479096,4.69077213 72.5845574,7.67758945 71.9284369,10.4979284 L67.4335217,12.8677966 C67.4335217,12.8677966 69.3039548,13.7883239 71.7815443,13.2007533 C72.0655367,15.4237288 72.2222222,16.5596987 72.2222222,16.5596987 C68.5694915,18.2440678 63.5065913,15.786064 62.8210923,11.8199623 L62.8210923,11.8199623 Z M98.8783427,8.62749529 C98.0361582,8.96045198 98.359322,10.1649718 98.359322,10.1649718 L100.161205,9.26403013 C100.161205,9.25423729 99.5736347,8.35329567 98.8783427,8.62749529 L98.8783427,8.62749529 Z M94.5890772,11.8199623 C94.0308851,8.57853107 95.8131827,4.4165725 99.0154426,4.4165725 C99.1231638,4.4165725 99.2308851,4.42636535 99.3386064,4.42636535 C102.237288,4.69077213 104.352542,7.67758945 103.696422,10.4979284 L99.2015066,12.8677966 C99.2015066,12.8677966 101.07194,13.7883239 103.549529,13.2007533 C103.833522,15.4237288 103.990207,16.5596987 103.990207,16.5596987 C100.347269,18.2440678 95.2745763,15.786064 94.5890772,11.8199623 L94.5890772,11.8199623 Z M83.3077213,12.1137476 C83.2097928,13.0146893 84.1009416,13.0440678 84.1009416,13.0440678 L84.1499058,11.1736347 C84.140113,11.1736347 83.386064,11.3596987 83.3077213,12.1137476 L83.3077213,12.1137476 Z M79.5276836,5.83653484 C80.4580038,5.07269303 81.7114878,4.59284369 83.0041431,4.59284369 C83.9442561,4.59284369 84.9039548,4.84745763 85.765725,5.4252354 C87.1367232,6.32617702 87.8026365,7.46214689 87.8809793,9.11713748 L87.773258,16.7751412 L82.6026365,16.7751412 C80.3111111,16.7751412 79.0870056,14.1898305 79.3024482,11.8885122 C79.4591337,10.1453861 80.252354,8.96045198 81.8094162,8.19661017 L79.5276836,5.83653484 L79.5276836,5.83653484 Z M33.9126177,8.62749529 C33.0704331,8.96045198 33.3838041,10.1649718 33.3838041,10.1649718 L35.1954802,9.26403013 C35.1954802,9.25423729 34.6079096,8.35329567 33.9126177,8.62749529 L33.9126177,8.62749529 Z M29.633145,11.8199623 C29.0749529,8.57853107 30.8572505,4.4165725 34.0693032,4.4165725 C34.1770245,4.4165725 34.2847458,4.42636535 34.392467,4.42636535 C37.3009416,4.69077213 39.406403,7.67758945 38.7502825,10.4979284 L34.2553672,12.8677966 C34.2553672,12.8677966 36.1258004,13.7883239 38.6033898,13.2007533 C38.8873823,15.4237288 39.0440678,16.5596987 39.0440678,16.5596987 C35.3815443,18.2440678 30.3186441,15.786064 29.633145,11.8199623 L29.633145,11.8199623 Z M43.7544256,10.8112994 C43.7250471,11.2813559 44.0677966,11.7220339 44.4595104,11.7220339 C44.8512241,11.7220339 45.1645951,11.526177 45.1645951,10.8112994 C45.1645951,10.0964218 44.8512241,9.50885122 44.4595104,9.50885122 C44.0677966,9.50885122 43.793597,10.0964218 43.7544256,10.8112994 L43.7544256,10.8112994 Z M38.8971751,10.7525424 C38.8971751,7.26629002 41.3258004,4.44595104 44.3322034,4.44595104 C47.3288136,4.44595104 49.7672316,7.27608286 49.7672316,10.7525424 C49.7672316,14.2387947 47.3386064,17.0591337 44.3322034,17.0591337 C41.3258004,17.0689266 38.8971751,14.2387947 38.8971751,10.7525424 L38.8971751,10.7525424 Z"/>
                        </g>
                    </g>
                </g>
            </g>
        </g>
    </g>
</svg>
