<?xml version="1.0" encoding="UTF-8"?>
<svg width="48px" height="50px" viewBox="0 0 48 50" version="1.1" xmlns="http://www.w3.org/2000/svg" xmlns:xlink="http://www.w3.org/1999/xlink">
    <!-- Generator: Sketch 52.6 (67491) - http://www.bohemiancoding.com/sketch -->
    <title>Group 23</title>
    <desc>Created with Sketch.</desc>
    <g id="desktop" stroke="none" stroke-width="1" fill="none" fill-rule="evenodd">
        <g id="hic_guide_template" transform="translate(0.000000, -345.000000)">
            <g id="Group-3" transform="translate(-2.000000, 345.000000)">
                <g id="Group-23">
                    <rect id="Rectangle-9" fill="#4867AA" x="0" y="1.88293825e-13" width="50" height="49.6"></rect>
                    <g id="1051309" transform="translate(15.000000, 14.880000)" fill="#FFFFFF" fill-rule="nonzero">
                        <path d="M17.0703125,0 L2.9296875,0 C1.31439211,0 0,1.30387697 0,2.90625 L0,16.93375 C0,18.536123 1.31439211,19.84 2.9296875,19.84 L8.828125,19.84 L8.828125,12.82625 L6.484375,12.82625 L6.484375,9.33875 L8.828125,9.33875 L8.828125,6.975 C8.828125,5.05187989 10.4051209,3.4875 12.34375,3.4875 L15.8984375,3.4875 L15.8984375,6.975 L12.34375,6.975 L12.34375,9.33875 L15.8984375,9.33875 L15.3125,12.82625 L12.34375,12.82625 L12.34375,19.84 L17.0703125,19.84 C18.6856079,19.84 20,18.536123 20,16.93375 L20,2.90625 C20,1.30387697 18.6856079,0 17.0703125,0 Z" id="Shape"></path>
                    </g>
                </g>
            </g>
        </g>
    </g>
</svg>