<?xml version="1.0" encoding="UTF-8"?>
<svg width="48px" height="50px" viewBox="0 0 48 50" version="1.1" xmlns="http://www.w3.org/2000/svg" xmlns:xlink="http://www.w3.org/1999/xlink">
    <!-- Generator: Sketch 52.6 (67491) - http://www.bohemiancoding.com/sketch -->
    <title>Group 25</title>
    <desc>Created with Sketch.</desc>
    <g id="desktop" stroke="none" stroke-width="1" fill="none" fill-rule="evenodd">
        <g id="hic_guide_template" transform="translate(0.000000, -444.000000)">
            <g id="Group-3" transform="translate(-2.000000, 345.000000)">
                <g id="Group-25" transform="translate(0.000000, 99.000000)">
                    <rect id="Rectangle-9" fill="#DB5043" x="0" y="0.2" width="50" height="49.6"></rect>
                    <g id="733613" transform="translate(10.000000, 15.080000)" fill="#FFFFFF" fill-rule="nonzero">
                        <polygon id="Shape" points="26.09375 7.75 26.09375 3.875 24.140625 3.875 24.140625 7.75 20.234375 7.75 20.234375 9.6875 24.140625 9.6875 24.140625 13.5625 26.09375 13.5625 26.09375 9.6875 30 9.6875 30 7.75"></polygon>
                        <path d="M8.92857143,7.91607143 L8.92857143,11.4589286 L13.9803571,11.4589286 C13.2428571,13.5208714 11.2571429,15.0017857 8.92857143,15.0017857 C5.975,15.0017857 3.57142857,12.6174429 3.57142857,9.6875 C3.57142857,6.75755714 5.975,4.37321429 8.92857143,4.37321429 C10.2089286,4.37321429 11.4410714,4.82847143 12.3982143,5.65572857 L14.7446429,2.98441429 C13.1375,1.59561429 11.0732143,0.830357143 8.92857143,0.830357143 C4.00535714,0.830357143 0,4.80367143 0,9.6875 C0,14.5713286 4.00535714,18.5446429 8.92857143,18.5446429 C13.8517857,18.5446429 17.8571429,14.5713286 17.8571429,9.6875 L17.8571429,7.91607143 L8.92857143,7.91607143 Z" id="Shape"></path>
                    </g>
                </g>
            </g>
        </g>
    </g>
</svg>