<?xml version="1.0" encoding="UTF-8"?>
<svg width="32px" height="31px" viewBox="0 0 32 31" version="1.1" xmlns="http://www.w3.org/2000/svg" xmlns:xlink="http://www.w3.org/1999/xlink">
    <!-- Generator: Sketch 52.6 (67491) - http://www.bohemiancoding.com/sketch -->
    <title>Group 15</title>
    <desc>Created with Sketch.</desc>
    <g id="desktop" stroke="none" stroke-width="1" fill="none" fill-rule="evenodd">
        <g id="hic_guide_template" transform="translate(-573.000000, -5027.000000)" fill="#FFFFFF">
            <g id="Group-20" transform="translate(528.000000, 4839.000000)">
                <g id="Group-15" transform="translate(45.000000, 188.000000)">
                    <g id="711134" fill-rule="nonzero">
                        <path d="M30.7848125,0.0468125 L1.2151875,0.0468125 C0.544,0.0468125 0,0.5908125 0,1.262 L0,21.231625 C0,21.9028125 0.544,22.4468125 1.2151875,22.4468125 L13.1645625,22.4468125 L13.1645625,29.7379375 C13.1645625,30.21025 13.438375,30.64 13.8665625,30.8396875 C14.030625,30.9158125 14.205625,30.953125 14.37975,30.953125 C14.6600625,30.953125 14.9379375,30.8559375 15.1615,30.668375 L24.9490625,22.4468125 L30.7848125,22.4468125 C31.456,22.4468125 32,21.9028125 32,21.231625 L32,1.262 C32,0.5908125 31.456,0.0468125 30.7848125,0.0468125 Z M29.569625,20.016875 L24.5063125,20.016875 C24.2203125,20.016875 23.9436875,20.11775 23.7245625,20.301625 L15.5949375,27.1305625 L15.5949375,21.231625 C15.5949375,20.5604375 15.0509375,20.0164375 14.37975,20.0164375 L2.430375,20.0164375 L2.430375,2.4771875 L29.569625,2.4771875 L29.569625,20.016875 Z" id="Shape"></path>
                    </g>
                    <path d="M13.7285714,11.1739923 L15.3828571,11.1739923 L15.3828571,15.5854208 L10.9714286,15.5854208 L10.9714286,12.2470425 C10.9714286,8.60064071 12.4418901,6.64830502 15.3828571,6.38997683 L15.3828571,8.04426255 C14.2799945,8.35226924 13.7285714,9.23653324 13.7285714,10.6970811 L13.7285714,11.1739923 Z M20.3457143,11.1739923 L22,11.1739923 L22,15.5854208 L17.5885714,15.5854208 L17.5885714,12.2470425 C17.5885714,8.60064071 19.0590329,6.64830502 22,6.38997683 L22,8.04426255 C20.8971373,8.35226924 20.3457143,9.23653324 20.3457143,10.6970811 L20.3457143,11.1739923 Z" id="“"></path>
                </g>
            </g>
        </g>
    </g>
</svg>