<?xml version="1.0" encoding="UTF-8"?>
<svg width="20px" height="20px" viewBox="0 0 20 20" version="1.1" xmlns="http://www.w3.org/2000/svg" xmlns:xlink="http://www.w3.org/1999/xlink">
    <!-- Generator: Sketch 52.6 (67491) - http://www.bohemiancoding.com/sketch -->
    <title>25325</title>
    <desc>Created with Sketch.</desc>
    <g id="mobile" stroke="none" stroke-width="1" fill="none" fill-rule="evenodd">
        <g id="hic_guide_template_-_social_media_widget_fixed" transform="translate(-214.000000, -670.000000)" fill="#FFFFFF" fill-rule="nonzero">
            <g id="Group-8" transform="translate(0.000000, 607.000000)">
                <g id="25325" transform="translate(214.000000, 63.000000)">
                    <rect id="Rectangle-path" x="0.247107062" y="6.23667426" width="4.29230068" height="12.8898405"></rect>
                    <path d="M18.6260592,7.41407745 C17.7244191,6.42984055 16.5318907,5.93763098 15.0492027,5.93763098 C14.5029157,5.93763098 14.0063326,6.00482916 13.5596811,6.13931663 C13.1131663,6.27371298 12.7360364,6.4622779 12.4281093,6.70510251 C12.1203645,6.94792711 11.875262,7.17334852 11.693303,7.38136674 C11.5202733,7.57895216 11.3510706,7.80911162 11.1859681,8.06947608 L11.1859681,6.23658314 L6.90646925,6.23658314 L6.91958998,6.86100228 C6.92838269,7.27735763 6.93271071,8.56063781 6.93271071,10.7110251 C6.93271071,12.8615945 6.92405467,15.666697 6.90665148,19.1266059 L11.1859681,19.1266059 L11.1859681,11.9335763 C11.1859681,11.4914351 11.2333941,11.1403189 11.3289749,10.8799544 C11.5112073,10.4374943 11.7862415,10.0670615 12.1549886,9.76801822 C12.5236902,9.46861048 12.9809567,9.31904328 13.527426,9.31904328 C14.2729385,9.31904328 14.8215945,9.57699317 15.1728474,10.0929385 C15.5239636,10.6088383 15.6995444,11.3220957 15.6995444,12.2326196 L15.6995444,19.1261959 L19.978861,19.1261959 L19.978861,11.7386788 C19.9785421,9.8394533 19.5279727,8.39799544 18.6260592,7.41407745 Z" id="Shape"></path>
                    <path d="M2.41927107,0.0322551253 C1.69963554,0.0322551253 1.11653759,0.242687927 0.669840547,0.663143508 C0.223189066,1.08369021 0,1.61462415 0,2.25644647 C0,2.88929385 0.216765376,3.41840547 0.650341686,3.84318907 C1.08378132,4.26801822 1.65617312,4.4805467 2.36719818,4.4805467 L2.39321185,4.4805467 C3.12168565,4.4805467 3.70924829,4.26820046 4.1557631,3.84318907 C4.6022779,3.41840547 4.82118451,2.88947608 4.81257403,2.25644647 C4.803918,1.6146697 4.58264237,1.08369021 4.14920273,0.663143508 C3.71580866,0.242505695 3.13895216,0.0322551253 2.41927107,0.0322551253 Z" id="Shape"></path>
                </g>
            </g>
        </g>
    </g>
</svg>