<?xml version="1.0" encoding="UTF-8"?>
<svg width="48px" height="51px" viewBox="0 0 48 51" version="1.1" xmlns="http://www.w3.org/2000/svg" xmlns:xlink="http://www.w3.org/1999/xlink">
    <!-- Generator: Sketch 52.6 (67491) - http://www.bohemiancoding.com/sketch -->
    <title>Group 26</title>
    <desc>Created with Sketch.</desc>
    <g id="desktop" stroke="none" stroke-width="1" fill="none" fill-rule="evenodd">
        <g id="hic_guide_template" transform="translate(0.000000, -493.000000)">
            <g id="Group-3" transform="translate(-2.000000, 345.000000)">
                <g id="Group-26" transform="translate(0.000000, 148.000000)">
                    <rect id="Rectangle-9" fill="#0274B3" x="0" y="0.8" width="50" height="49.6"></rect>
                    <g id="25325" transform="translate(15.000000, 15.680000)" fill="#FFFFFF" fill-rule="nonzero">
                        <polygon id="Rectangle-path" points="0.262551253 6.57345467 4.82312073 6.57345467 4.82312073 20.1593466 0.262551253 20.1593466"></polygon>
                        <path d="M19.7901879,7.81443763 C18.8321953,6.77705194 17.5651338,6.25826305 15.9897779,6.25826305 C15.4093479,6.25826305 14.8817284,6.32908993 14.4071612,6.47083973 C13.9327392,6.61249349 13.5320387,6.81124091 13.2048662,7.06717804 C12.8778872,7.32311517 12.6174658,7.56070934 12.4241344,7.77996055 C12.2402904,7.98821558 12.0605125,8.23080364 11.8850911,8.50522779 L11.8850911,6.57335863 L7.33812358,6.57335863 L7.35206435,7.2314964 C7.36140661,7.67033494 7.36600513,9.02291226 7.36600513,11.2894204 C7.36600513,13.5561206 7.35680809,16.5126987 7.3383172,20.1594426 L11.8850911,20.1594426 L11.8850911,12.5779894 C11.8850911,12.1119726 11.9354812,11.7418961 12.0370359,11.467472 C12.2306577,11.001119 12.5228815,10.6106828 12.9146754,10.2954912 C13.3064208,9.97991544 13.7922665,9.82227162 14.3728901,9.82227162 C15.1649972,9.82227162 15.7479442,10.0941508 16.1211503,10.6379572 C16.4942113,11.1817155 16.6807659,11.9334888 16.6807659,12.893181 L16.6807659,20.1590105 L21.2275399,20.1590105 L21.2275399,12.3725675 C21.227201,10.3707838 20.748471,8.8514872 19.7901879,7.81443763 Z" id="Shape"></path>
                        <path d="M2.57047551,0.0339969021 C1.80586276,0.0339969021 1.18632118,0.255793075 0.711705581,0.698953257 C0.237138383,1.14220948 0,1.70181385 0,2.37829458 C0,3.04531572 0.230313212,3.60299936 0.690988041,4.05072128 C1.15151765,4.49849121 1.75968394,4.72249622 2.51514806,4.72249622 L2.54278759,4.72249622 C3.316791,4.72249622 3.94107631,4.49868328 4.41549829,4.05072128 C4.88992027,3.60299936 5.12250854,3.04550779 5.11335991,2.37829458 C5.10416287,1.70186187 4.86905752,1.14220948 4.4085279,0.698953257 C3.9480467,0.255601002 3.33513667,0.0339969021 2.57047551,0.0339969021 Z" id="Shape"></path>
                    </g>
                </g>
            </g>
        </g>
    </g>
</svg>