<?xml version="1.0" encoding="UTF-8"?>
<svg width="48px" height="50px" viewBox="0 0 48 50" version="1.1" xmlns="http://www.w3.org/2000/svg" xmlns:xlink="http://www.w3.org/1999/xlink">
    <!-- Generator: Sketch 52.6 (67491) - http://www.bohemiancoding.com/sketch -->
    <title>Group 27</title>
    <desc>Created with Sketch.</desc>
    <g id="desktop" stroke="none" stroke-width="1" fill="none" fill-rule="evenodd">
        <g id="hic_guide_template" transform="translate(0.000000, -543.000000)">
            <g id="Group-3" transform="translate(-2.000000, 345.000000)">
                <g id="Group-27" transform="translate(0.000000, 198.000000)">
                    <rect id="Rectangle-9" fill="#3C3C3C" x="0" y="0.4" width="50" height="49.6"></rect>
                    <g id="37572" transform="translate(15.000000, 16.520000)" fill="#FFFFFF" fill-rule="nonzero">
                        <path d="M16.9400324,14.48 C17.3472265,14.48 17.7000557,14.334223 18,14.0463776 L12.8677626,8.48149771 C12.7446275,8.57710146 12.6252747,8.67006639 12.5125325,8.75846687 C12.1284591,9.06528323 11.8167407,9.30470269 11.5773773,9.47626167 C11.3380467,9.64821291 11.019619,9.82348051 10.6221271,10.0024211 C10.224372,10.1815756 9.85381585,10.2708675 9.51006392,10.2708675 L9.5,10.2708675 L9.48993608,10.2708675 C9.14615126,10.2708675 8.77559509,10.1816112 8.37787292,10.0024211 C7.98015075,9.82348051 7.66172305,9.64821291 7.42262273,9.47626167 C7.18329219,9.30470269 6.87173822,9.06531889 6.4874675,8.75846687 C6.38038213,8.67334708 6.26162129,8.57995424 6.13322409,8.48 L1,14.0463776 C1.29991139,14.334223 1.65297081,14.48 2.06013202,14.48 L16.9400324,14.48 Z" id="Shape"></path>
                        <path d="M1.12864528,5.3811351 C0.704153671,5.11882068 0.327720462,4.81839739 0,4.48 L0,12.48 L5,7.8455765 C3.99971645,7.19829841 2.71090075,6.3777614 1.12864528,5.3811351 Z" id="Shape"></path>
                        <path d="M17.8822135,5.38111232 C16.3596948,6.33586549 15.0656721,7.15779692 14,7.84734462 L19,12.48 L19,4.48 C18.6794219,4.81158265 18.3068749,5.11179618 17.8822135,5.38111232 Z" id="Shape"></path>
                        <path d="M16.392713,0.48 L1.60705824,0.48 C1.09123094,0.48 0.694654396,0.654183007 0.41683839,1.00218954 C0.138793622,1.35035948 0,1.78578431 0,2.30797386 C0,2.72977124 0.184186685,3.18679739 0.552396653,3.67918301 C0.920606621,4.17137255 1.31241183,4.55797386 1.7276162,4.83918301 C1.95523513,5 2.64165406,5.47718954 3.78687301,6.27058824 C4.40508797,6.69898693 4.94271309,7.07238562 5.40471578,7.39460784 C5.79851449,7.66898693 6.13812912,7.90660131 6.41852688,8.10379085 C6.45071706,8.12637255 6.50133899,8.1625817 6.56852987,8.21062092 C6.64091694,8.26261438 6.73252008,8.32859477 6.84552887,8.41019608 C7.06314759,8.5675817 7.24393552,8.69480392 7.38792532,8.79199346 C7.53171904,8.88921569 7.70593821,8.99781046 7.91032138,9.11839869 C8.11454114,9.23882353 8.30715937,9.32937908 8.48794729,9.38960784 C8.66876789,9.44980392 8.83615686,9.48 8.99014686,9.48 L9.00014706,9.48 L9.01014726,9.48 C9.16410458,9.48 9.33152623,9.44980392 9.51237951,9.38960784 C9.69313476,9.32937908 9.88558958,9.23901961 10.0899727,9.11839869 C10.2941598,8.99781046 10.4681502,8.88898693 10.6124015,8.79199346 C10.7563913,8.69480392 10.9371792,8.56761438 11.1548306,8.41019608 C11.2676106,8.32859477 11.3592138,8.2625817 11.4316008,8.21078431 C11.4988244,8.16254902 11.5494137,8.12656863 11.5817999,8.10379085 C11.8002357,7.95179739 12.1406346,7.7151634 12.5982908,7.39738562 C13.4310525,6.81879085 14.6574823,5.96718954 16.2827435,4.83918301 C16.7715441,4.49777778 17.1799183,4.08578431 17.5081274,3.60379085 C17.8357484,3.12179739 18,2.61620915 18,2.08718954 C18,1.64519608 17.8407485,1.26699346 17.5229316,0.951993464 C17.2047554,0.637385621 16.8279831,0.48 16.392713,0.48 Z" id="Shape"></path>
                    </g>
                </g>
            </g>
        </g>
    </g>
</svg>