<?xml version="1.0" encoding="UTF-8"?>
<svg width="12px" height="12px" viewBox="0 0 12 12" version="1.1" xmlns="http://www.w3.org/2000/svg" xmlns:xlink="http://www.w3.org/1999/xlink">
    <!-- Generator: Sketch 52.6 (67491) - http://www.bohemiancoding.com/sketch -->
    <title>128444</title>
    <desc>Created with Sketch.</desc>
    <g id="tablet" stroke="none" stroke-width="1" fill="none" fill-rule="evenodd" opacity="0.187723214">
        <g id="hic_guide_template" transform="translate(-705.000000, -814.000000)" fill="#000000" fill-rule="nonzero">
            <g id="Group-2" transform="translate(34.000000, 798.000000)">
                <g id="128444" transform="translate(671.000000, 16.000000)">
                    <path d="M11.5,5 L7.25,5 C7.1,5 7,4.9 7,4.75 L7,0.5 C7,0.2 6.8,0 6.5,0 L5.5,0 C5.2,0 5,0.2 5,0.5 L5,4.75 C5,4.9 4.9,5 4.75,5 L0.5,5 C0.2,5 0,5.2 0,5.5 L0,6.5 C0,6.8 0.2,7 0.5,7 L4.75,7 C4.9,7 5,7.1 5,7.25 L5,11.5 C5,11.8 5.2,12 5.5,12 L6.5,12 C6.8,12 7,11.8 7,11.5 L7,7.25 C7,7.1 7.1,7 7.25,7 L11.5,7 C11.8,7 12,6.8 12,6.5 L12,5.5 C12,5.2 11.8,5 11.5,5 Z" id="Shape"></path>
                </g>
            </g>
        </g>
    </g>
</svg>