<?xml version="1.0" encoding="UTF-8"?>
<svg width="48px" height="51px" viewBox="0 0 48 51" version="1.1" xmlns="http://www.w3.org/2000/svg" xmlns:xlink="http://www.w3.org/1999/xlink">
    <!-- Generator: Sketch 52.6 (67491) - http://www.bohemiancoding.com/sketch -->
    <title>Group 24</title>
    <desc>Created with Sketch.</desc>
    <g id="desktop" stroke="none" stroke-width="1" fill="none" fill-rule="evenodd">
        <g id="hic_guide_template" transform="translate(0.000000, -394.000000)">
            <g id="Group-3" transform="translate(-2.000000, 345.000000)">
                <g id="Group-24" transform="translate(0.000000, 49.000000)">
                    <rect id="Rectangle-9" fill="#1DA1F2" x="0" y="0.6" width="50" height="49.6"></rect>
                    <g id="8800" transform="translate(13.750000, 15.480000)" fill="#FFFFFF" fill-rule="nonzero">
                        <path d="M23.75,2.28123935 C22.8758681,2.66547523 21.9379371,2.92605961 20.9524673,3.04239673 C21.9586989,2.44465797 22.728944,1.49656046 23.0940033,0.370300065 C22.1501348,0.923844575 21.1082782,1.32578895 19.9981597,1.54368046 C19.1092034,0.602935817 17.8447488,0.0169770588 16.4422569,0.0169770588 C13.7515993,0.0169770588 11.5699755,2.18114784 11.5699755,4.84881739 C11.5699755,5.22716327 11.6130127,5.5966934 11.6961377,5.9500549 C7.64753881,5.74833203 4.05752451,3.82414987 1.65477737,0.900284575 C1.23476716,1.61285908 0.995831291,2.4431566 0.995831291,3.32946686 C0.995831291,5.00634601 1.85661356,6.48592941 3.16263072,7.35156693 C2.36417279,7.32508118 1.61321487,7.10718967 0.955782271,6.74501242 L0.955782271,6.80537529 C0.955782271,9.14620758 2.63578431,11.0998397 4.86339461,11.544477 C4.4552594,11.6534227 4.02488766,11.7137856 3.57965278,11.7137856 C3.26504289,11.7137856 2.96079453,11.6828727 2.66248366,11.6239727 C3.28281658,13.5452292 5.08156863,14.9423525 7.21274306,14.9806568 C5.54609069,16.2762258 3.44460376,17.046199 1.16208129,17.046199 C0.768809232,17.046199 0.381435866,17.022639 3.88071895e-05,16.9799461 C2.15643791,18.353548 4.7165094,19.154434 7.46801675,19.154434 C16.4304596,19.154434 21.3294792,11.7903556 21.3294792,5.40386327 L21.3131413,4.77817588 C22.2703595,4.10090288 23.0984661,3.24997111 23.75,2.28123935 Z" id="Shape"></path>
                    </g>
                </g>
            </g>
        </g>
    </g>
</svg>