<?xml version="1.0" encoding="UTF-8"?>
<svg width="14px" height="20px" viewBox="0 0 14 20" version="1.1" xmlns="http://www.w3.org/2000/svg" xmlns:xlink="http://www.w3.org/1999/xlink">
    <!-- Generator: Sketch 53.1 (72631) - https://sketchapp.com -->
    <title>form</title>
    <desc>Created with Sketch.</desc>
    <g id="Page-1" stroke="none" stroke-width="1" fill="none" fill-rule="evenodd">
        <g id="01-Desktop" transform="translate(-361.000000, -478.000000)" fill="#FFFFFF" fill-rule="nonzero">
            <g id="Body" transform="translate(0.000000, 84.000000)">
                <g id="Steps" transform="translate(352.000000, 388.000000)">
                    <g id="Point">
                        <g id="Group-3">
                            <g id="form" transform="translate(9.000000, 6.000000)">
                                <path d="M4.07022026,3.95938326 L4.07022026,3.10070485 C4.07022026,2.94555066 4.19647577,2.81938326 4.35154185,2.81938326 L9.64255507,2.81938326 C9.79770925,2.81938326 9.92387665,2.94563877 9.92387665,3.10070485 L9.92387665,3.95938326 C9.92387665,4.11453744 9.79762115,4.24070485 9.64255507,4.24070485 L4.35162996,4.24070485 C4.19647577,4.24079295 4.07022026,4.11453744 4.07022026,3.95938326 Z M8.62035242,1.49779736 C8.55268722,0.660792952 7.85127753,0 6.99709251,0 C6.14290749,0 5.4414978,0.660792952 5.3738326,1.49779736 L8.62035242,1.49779736 Z M13.9479295,4.87524229 L13.9479295,18.2085463 C13.9479295,19.1882819 13.150837,19.9853744 12.1711013,19.9853744 L1.8230837,19.9853744 C0.843348018,19.9853744 0.0462555066,19.1882819 0.0462555066,18.2085463 L0.0462555066,4.87524229 C0.0462555066,3.89550661 0.843348018,3.0984141 1.8230837,3.0984141 L2.74872247,3.0984141 C2.74872247,3.09920705 2.74863436,3.1 2.74863436,3.10070485 L2.74863436,3.95938326 C2.74863436,4.84325991 3.4677533,5.56229075 4.35154185,5.56229075 L9.64255507,5.56229075 C10.5264317,5.56229075 11.2454626,4.84325991 11.2454626,3.95938326 L11.2454626,3.10070485 C11.2454626,3.09991189 11.2453744,3.09911894 11.2453744,3.0984141 L12.1710132,3.0984141 C13.150837,3.0984141 13.9479295,3.89550661 13.9479295,4.87524229 Z M4.7738326,12.6386784 C4.46317181,12.4472247 4.05603524,12.5437885 3.8645815,12.8544493 L3.23973568,13.8680176 L2.91718062,13.6139207 C2.63066079,13.3881057 2.21497797,13.437533 1.9892511,13.7242291 C1.76343612,14.0110132 1.81286344,14.4264317 2.09955947,14.6522467 L3.00449339,15.3649339 C3.12185022,15.4573568 3.2660793,15.5065198 3.41330396,15.5065198 C3.45171806,15.5065198 3.49039648,15.5031718 3.52881057,15.4963877 C3.71427313,15.4634361 3.87700441,15.3528634 3.97585903,15.192511 L4.98960352,13.5479295 C5.18114537,13.2372687 5.08449339,12.8302203 4.7738326,12.6386784 Z M4.7738326,7.88096916 C4.46317181,7.68942731 4.05603524,7.7861674 3.8645815,8.09674009 L3.23973568,9.11030837 L2.91718062,8.85621145 C2.63066079,8.63048458 2.21497797,8.67982379 1.9892511,8.96651982 C1.76343612,9.25330396 1.81286344,9.66872247 2.09955947,9.89453744 L3.00449339,10.6072247 C3.12185022,10.6996476 3.2660793,10.7488106 3.41330396,10.7488106 C3.45171806,10.7488106 3.49039648,10.7454626 3.52881057,10.7386784 C3.71427313,10.7057269 3.87700441,10.5951542 3.97585903,10.4348018 L4.98960352,8.79030837 C5.18114537,8.47955947 5.08449339,8.07251101 4.7738326,7.88096916 Z M11.6174449,14.845815 C11.6174449,14.480793 11.321674,14.185022 10.956652,14.185022 L6.63947137,14.185022 C6.27453744,14.185022 5.97867841,14.480793 5.97867841,14.845815 C5.97867841,15.210837 6.27453744,15.5066079 6.63947137,15.5066079 L10.956652,15.5066079 C11.321674,15.5066079 11.6174449,15.210837 11.6174449,14.845815 Z M11.6174449,10.0881057 C11.6174449,9.7230837 11.321674,9.42731278 10.956652,9.42731278 L6.63947137,9.42731278 C6.27453744,9.42731278 5.97867841,9.7230837 5.97867841,10.0881057 C5.97867841,10.4531278 6.27453744,10.7488987 6.63947137,10.7488987 L10.956652,10.7488987 C11.321674,10.7488987 11.6174449,10.4531278 11.6174449,10.0881057 Z" id="Shape"></path>
                            </g>
                        </g>
                    </g>
                </g>
            </g>
        </g>
    </g>
</svg>