<?xml version="1.0" encoding="UTF-8"?>
<svg width="57px" height="72px" viewBox="0 0 57 72" version="1.1" xmlns="http://www.w3.org/2000/svg" xmlns:xlink="http://www.w3.org/1999/xlink">
    <!-- Generator: Sketch 53.1 (72631) - https://sketchapp.com -->
    <title>idea-2</title>
    <desc>Created with Sketch.</desc>
    <g id="Page-1" stroke="none" stroke-width="1" fill="none" fill-rule="evenodd">
        <g id="01-Desktop" transform="translate(-368.000000, -320.000000)" fill-rule="nonzero">
            <g id="Body" transform="translate(0.000000, 84.000000)">
                <g id="Save-up" transform="translate(352.000000, 192.000000)">
                    <g id="Group-2" transform="translate(16.000000, 40.000000)">
                        <g id="idea-2" transform="translate(0.000000, 4.000000)">
                            <ellipse id="Oval" fill="#FB9943" cx="27.8578125" cy="29.25" rx="18.1296875" ry="18.45"></ellipse>
                            <g id="Group" fill="#FFFFFF">
                                <path d="M27.451,25.5483871 C26.683504,25.5483871 26.036,26.0802581 26.036,26.7096774 C26.036,27.3390968 26.683504,27.8709677 27.451,27.8709677 L29.149,27.8709677 C31.177544,27.8709677 32.828,29.4340645 32.828,31.3548387 C32.828,33.1850323 31.326968,34.6726452 29.432,34.812 L29.432,37.1612903 L27.168,37.1612903 L27.168,34.812 C25.273032,34.6726452 23.772,33.183871 23.772,31.3548387 L26.036,31.3548387 C26.036,31.9842581 26.683504,32.516129 27.451,32.516129 L29.149,32.516129 C29.916496,32.516129 30.564,31.9842581 30.564,31.3548387 C30.564,30.7254194 29.916496,30.1935484 29.149,30.1935484 L27.451,30.1935484 C25.422456,30.1935484 23.772,28.6304516 23.772,26.7096774 C23.772,24.8794839 25.273032,23.391871 27.168,23.2525161 L27.168,20.9032258 L29.432,20.9032258 L29.432,23.2525161 C31.326968,23.391871 32.828,24.8806452 32.828,26.7096774 L30.564,26.7096774 C30.564,26.0802581 29.916496,25.5483871 29.149,25.5483871 L27.451,25.5483871 Z M27.168,6.96774194 L29.432,6.96774194 L29.432,12.7741935 L27.168,12.7741935 L27.168,6.96774194 Z M15.142097,19.8941673 L14.010097,21.9055221 L9.10865951,19.0023689 L10.2406595,16.9910141 L15.142097,19.8941673 Z M15.1414798,38.1684391 L10.2392312,41.0711569 L9.10745761,39.0595698 L14.0097062,36.156852 L15.1414798,38.1684391 Z M47.4926245,39.0557654 L46.3606245,41.0671202 L41.459187,38.163967 L42.591187,36.1526121 L47.4926245,39.0557654 Z M47.4926189,19.0078753 L42.5903704,21.910593 L41.4585968,19.8990059 L46.3608453,16.9962882 L47.4926189,19.0078753 Z M28.3,15.0967742 C35.790444,15.0967742 41.884,21.348 41.884,29.0322581 C41.884,36.7165161 35.790444,42.9677419 28.3,42.9677419 C20.809556,42.9677419 14.716,36.7165161 14.716,29.0322581 C14.716,21.348 20.809556,15.0967742 28.3,15.0967742 Z M28.3,40.6451613 C34.541848,40.6451613 39.62,35.4356129 39.62,29.0322581 C39.62,22.6289032 34.541848,17.4193548 28.3,17.4193548 C22.058152,17.4193548 16.98,22.6289032 16.98,29.0322581 C16.98,35.4356129 22.058152,40.6451613 28.3,40.6451613 Z M27.168,45.2903226 L29.432,45.2903226 L29.432,51.0967742 L27.168,51.0967742 L27.168,45.2903226 Z" id="Combined-Shape"></path>
                                <path d="M56.6,29.0322581 C56.6,13.023871 43.90462,0 28.3,0 C12.69538,0 0,13.023871 0,29.0322581 C0,38.7162581 4.643464,47.6581935 12.452,53.0790968 L12.452,55.7419355 L10.188,55.7419355 L10.188,58.0645161 L12.452,58.0645161 L12.452,60.3870968 L10.188,60.3870968 L10.188,62.7096774 L12.452,62.7096774 L12.452,65.0322581 L10.188,65.0322581 L10.188,67.3548387 L12.452,67.3548387 L12.452,72 L44.148,72 L44.148,67.3548387 L46.412,67.3548387 L46.412,65.0322581 L44.148,65.0322581 L44.148,62.7096774 L46.412,62.7096774 L46.412,60.3870968 L44.148,60.3870968 L44.148,58.0645161 L46.412,58.0645161 L46.412,55.7419355 L44.148,55.7419355 L44.148,53.0790968 C51.956536,47.6581935 56.6,38.7162581 56.6,29.0322581 Z M41.884,69.6774194 L14.716,69.6774194 L14.716,67.3548387 L41.884,67.3548387 L41.884,69.6774194 Z M41.884,60.3870968 L39.62,60.3870968 L39.62,62.7096774 L41.884,62.7096774 L41.884,65.0322581 L14.716,65.0322581 L14.716,62.7096774 L37.356,62.7096774 L37.356,60.3870968 L14.716,60.3870968 L14.716,58.0645161 L41.884,58.0645161 L41.884,60.3870968 Z M14.716,55.7419355 L14.716,51.8225806 L14.198676,51.48 C6.725212,46.5270968 2.264,38.1356129 2.264,29.0322581 C2.264,14.3047742 13.942844,2.32258065 28.3,2.32258065 C42.657156,2.32258065 54.336,14.3047742 54.336,29.0322581 C54.336,38.1356129 49.874788,46.5270968 42.401324,51.48 L41.884,51.8225806 L41.884,55.7419355 L14.716,55.7419355 Z" id="Shape"></path>
                            </g>
                        </g>
                    </g>
                </g>
            </g>
        </g>
    </g>
</svg>