<?xml version="1.0" encoding="UTF-8"?>
<svg width="16px" height="20px" viewBox="0 0 16 20" version="1.1" xmlns="http://www.w3.org/2000/svg" xmlns:xlink="http://www.w3.org/1999/xlink">
    <!-- Generator: Sketch 53.1 (72631) - https://sketchapp.com -->
    <title>money-bag</title>
    <desc>Created with Sketch.</desc>
    <g id="Page-1" stroke="none" stroke-width="1" fill="none" fill-rule="evenodd">
        <g id="01-Desktop" transform="translate(-360.000000, -576.000000)" fill="#FFFFFF" fill-rule="nonzero">
            <g id="Body" transform="translate(0.000000, 84.000000)">
                <g id="Steps" transform="translate(352.000000, 388.000000)">
                    <g id="Point" transform="translate(0.000000, 98.000000)">
                        <g id="Group-3">
                            <g id="money-bag" transform="translate(8.000000, 6.000000)">
                                <path d="M10.3454945,5.37900452 C10.5140789,5.25447964 10.621435,5.06841629 10.621435,4.86027149 C10.621435,4.60850679 10.464331,4.38923077 10.2316225,4.2720362 C10.464331,4.15484163 10.621435,3.93556561 10.621435,3.6838009 C10.621435,3.3120362 10.2797156,3.01040724 9.85608274,3.00552036 L11.1674208,1.01809955 C11.3060116,0.808144796 11.3060116,0.549321267 11.1674208,0.339366516 C11.02883,0.129411765 10.7729541,0 10.4957725,0 L4.67433743,0 C4.39715579,0 4.14117647,0.129411765 4.00258565,0.339366516 C3.86399483,0.549411765 3.86399483,0.808144796 4.00258565,1.01809955 L5.31392372,3.00552036 C4.89029089,3.01040724 4.54857143,3.3120362 4.54857143,3.6838009 C4.54857143,3.93556561 4.7056755,4.15484163 4.93838397,4.2720362 C4.7056755,4.38923077 4.54857143,4.60850679 4.54857143,4.86027149 C4.54857143,5.06072398 4.64848093,5.24027149 4.80630899,5.36452489 C1.95040724,6.73972851 0.0325791855,10.1034389 0.0325791855,13.1860633 C0.0325791855,15.1667873 0.797104072,16.8688688 2.24320621,18.1083258 C3.61246283,19.28181 5.50102133,19.9281448 7.56074984,19.9281448 C9.62047835,19.9281448 11.5090368,19.28181 12.8782935,18.1083258 C14.3243956,16.8688688 15.0889205,15.1667873 15.0889205,13.1860633 C15.0889205,10.1143891 13.1846412,6.76334842 10.3454945,5.37900452 Z M8.52798966,11.6085068 C9.74748546,11.6085068 10.7396509,12.4766516 10.7396509,13.5437104 L10.7396509,13.6147511 C10.7396509,14.68181 9.74748546,15.5499548 8.52798966,15.5499548 L8.36085326,15.5499548 L8.36085326,16.2931222 C8.36085326,16.6679638 8.01365223,16.9718552 7.58515837,16.9718552 C7.15666451,16.9718552 6.80946348,16.6679638 6.80946348,16.2931222 L6.80946348,15.5499548 L5.2063607,15.5499548 C4.77786684,15.5499548 4.4306658,15.2460633 4.4306658,14.8712217 C4.4306658,14.4963801 4.77786684,14.1924887 5.2063607,14.1924887 L6.80946348,14.1924887 L6.80946348,12.9659729 L6.64232708,12.9659729 C5.42283129,12.9659729 4.4306658,12.0978281 4.4306658,11.0307692 C4.4306658,9.96371041 5.42283129,9.09556561 6.64232708,9.09556561 L6.80946348,9.09556561 L6.80946348,8.23891403 C6.80946348,7.8640724 7.15666451,7.560181 7.58515837,7.560181 C8.01365223,7.560181 8.36085326,7.8640724 8.36085326,8.23891403 L8.36085326,9.09565611 L9.96395604,9.09565611 C10.3924499,9.09565611 10.7396509,9.39954751 10.7396509,9.77438914 C10.7396509,10.1492308 10.3924499,10.4531222 9.96395604,10.4531222 L8.36085326,10.4531222 L8.36085326,11.6085973 L8.52798966,11.6085973 L8.52798966,11.6085068 Z M6.64222366,10.4531222 L6.80936005,10.4531222 L6.80936005,11.6085973 L6.64222366,11.6085973 C6.27806076,11.6085973 5.98195217,11.3494118 5.98195217,11.0308597 C5.98195217,10.7123077 6.27816419,10.4531222 6.64222366,10.4531222 Z M8.36074984,14.1924887 L8.36074984,12.9659729 L8.52788623,12.9659729 C8.89204913,12.9659729 9.18815772,13.2251584 9.18815772,13.5437104 L9.18815772,13.6147511 C9.18815772,13.9333032 8.89204913,14.1924887 8.52788623,14.1924887 L8.36074984,14.1924887 Z" id="Shape"></path>
                            </g>
                        </g>
                    </g>
                </g>
            </g>
        </g>
    </g>
</svg>