<?xml version="1.0" encoding="UTF-8"?>
<svg width="386px" height="375px" viewBox="0 0 386 375" version="1.1" xmlns="http://www.w3.org/2000/svg" xmlns:xlink="http://www.w3.org/1999/xlink">
    <!-- Generator: Sketch 55.2 (78181) - https://sketchapp.com -->
    <title>shutterstock_1018500754</title>
    <desc>Created with Sketch.</desc>
    <g id="Page-1" stroke="none" stroke-width="1" fill="none" fill-rule="evenodd">
        <g id="Desktop" transform="translate(-823.000000, -88.000000)">
            <g id="Hero-Section" transform="translate(0.000000, 88.000000)">
                <g id="shutterstock_1018500754" transform="translate(823.000000, -105.000000)">
                    <path d="M372.055428,371.151855 C367.867233,371.151855 364.458214,374.560875 364.458214,378.74907 C364.458214,382.938293 367.867233,386.345254 372.055428,386.345254 C376.243623,386.345254 379.651613,382.938293 379.651613,378.74907 C379.651613,374.560875 376.243623,371.151855 372.055428,371.151855 Z M372.055428,390.462428 C365.595583,390.462428 360.34104,385.207885 360.34104,378.74907 C360.34104,372.290254 365.595583,367.034682 372.055428,367.034682 C378.513214,367.034682 383.768786,372.290254 383.768786,378.74907 C383.768786,385.207885 378.513214,390.462428 372.055428,390.462428 L372.055428,390.462428 Z" id="Fill-8" fill="#FFCF00"></path>
                    <path d="M11.7143875,307.56226 C7.52516359,307.56226 4.11717335,310.97128 4.11717335,315.160503 C4.11717335,319.348698 7.52516359,322.755659 11.7143875,322.755659 C15.9036114,322.755659 19.3105723,319.348698 19.3105723,315.160503 C19.3105723,310.97128 15.9036114,307.56226 11.7143875,307.56226 Z M11.7143875,326.872832 C5.25557178,326.872832 0,321.61829 0,315.160503 C0,308.700658 5.25557178,303.445087 11.7143875,303.445087 C18.1742325,303.445087 23.4277457,308.700658 23.4277457,315.160503 C23.4277457,321.61829 18.1742325,326.872832 11.7143875,326.872832 L11.7143875,326.872832 Z" id="Fill-11" fill="#FFCF00"></path>
                    <path d="M80.4358437,424.488311 L90.879051,414.04427 C91.680008,413.243328 91.680008,411.946027 90.879051,411.144059 C90.0780941,410.343117 88.7787183,410.343117 87.9787868,411.144059 L77.5345539,421.5881 L67.0913465,411.144059 C66.2903895,410.343117 64.9910137,410.343117 64.1910823,411.144059 C63.3890997,411.946027 63.3890997,413.243328 64.1910823,414.04427 L74.6342897,424.488311 L64.1910823,434.931327 C63.3890997,435.732269 63.3890997,437.030595 64.1910823,437.831537 C64.591048,438.231496 65.1161312,438.4325 65.6412144,438.4325 C66.165272,438.4325 66.6913808,438.231496 67.0913465,437.831537 L77.5345539,427.388522 L87.9787868,437.832563 C88.3797781,438.232521 88.9038357,438.433526 89.4289189,438.433526 C89.9540021,438.433526 90.4780598,438.232521 90.879051,437.832563 C91.680008,437.030595 91.680008,435.733294 90.879051,434.932352 L80.4358437,424.488311" id="Fill-12" fill="#FFCF00"></path>
                    <path d="M380.092869,186.307159 L385.374953,181.025074 C386.208349,180.191679 386.208349,178.840745 385.374953,178.00735 C384.541558,177.172887 383.190625,177.172887 382.357229,178.00735 L377.075145,183.289434 L371.79306,178.00735 C370.959664,177.172887 369.608731,177.172887 368.775336,178.00735 C367.94194,178.840745 367.94194,180.191679 368.775336,181.025074 L374.056353,186.307159 L368.775336,191.588176 C367.94194,192.422639 367.94194,193.772505 368.775336,194.6059 C369.192567,195.023132 369.738916,195.231214 370.284198,195.231214 C370.830547,195.231214 371.376896,195.023132 371.79306,194.6059 L377.075145,189.324883 L382.357229,194.6059 C382.773393,195.023132 383.319742,195.231214 383.866091,195.231214 C384.411373,195.231214 384.957722,195.023132 385.374953,194.6059 C386.208349,193.772505 386.208349,192.422639 385.374953,191.588176 L380.092869,186.307159" id="Fill-14" fill="#FFCF00"></path>
                    <path d="M263.841551,471.713964 C262.199644,471.713964 260.864253,473.049355 260.864253,474.690241 C260.864253,476.332148 262.199644,477.667539 263.841551,477.667539 C265.482437,477.667539 266.817828,476.332148 266.817828,474.690241 C266.817828,473.049355 265.482437,471.713964 263.841551,471.713964 Z M263.841551,479.710983 C261.072685,479.710983 258.820809,477.459107 258.820809,474.690241 C258.820809,471.922396 261.072685,469.67052 263.841551,469.67052 C266.609396,469.67052 268.861272,471.922396 268.861272,474.690241 C268.861272,477.459107 266.609396,479.710983 263.841551,479.710983 L263.841551,479.710983 Z" id="Fill-17" fill="#FFFFFF"></path>
                    <path d="M100.962947,332.29485 C98.7227716,332.29485 96.9017864,334.115835 96.9017864,336.35601 C96.9017864,338.59411 98.7227716,340.416133 100.962947,340.416133 C103.201046,340.416133 105.023069,338.59411 105.023069,336.35601 C105.023069,334.115835 103.201046,332.29485 100.962947,332.29485 Z M100.962947,342.491329 C97.5793382,342.491329 94.8265896,339.738581 94.8265896,336.35601 C94.8265896,332.972402 97.5793382,330.219653 100.962947,330.219653 C104.345517,330.219653 107.098266,332.972402 107.098266,336.35601 C107.098266,339.738581 104.345517,342.491329 100.962947,342.491329 L100.962947,342.491329 Z" id="Fill-26" fill="#FFFFFF"></path>
                    <path d="M331.412731,370.381503 C331.236427,370.381503 331.05805,370.33922 330.895229,370.249739 L291.692658,348.788861 C291.195898,348.517465 291.025817,347.915676 291.313088,347.445651 C291.599321,346.974642 292.234013,346.814361 292.729736,347.085757 L331.932307,368.546635 C332.42803,368.81803 332.59811,369.418836 332.311877,369.889845 C332.118981,370.204506 331.770522,370.381503 331.412731,370.381503" id="Fill-125" fill="#FFFFFF"></path>
                    <path d="M292.212234,264.398844 C291.853405,264.398844 291.504947,264.22185 291.313088,263.906212 C291.025817,263.436195 291.195898,262.8354 291.692658,262.563027 L330.895229,241.103532 C331.388878,240.831159 332.024606,240.99242 332.311877,241.463419 C332.59811,241.933436 332.42803,242.535214 331.932307,242.806604 L292.729736,264.266099 C292.566915,264.355579 292.388537,264.398844 292.212234,264.398844" id="Fill-126" fill="#FFFFFF"></path>
                    <path d="M109.220606,370.381503 C108.872786,370.381503 108.535018,370.193393 108.349045,369.858974 C108.070588,369.358392 108.236456,368.719862 108.71697,368.431426 L147.983419,344.863295 C148.461923,344.573815 149.078147,344.745204 149.356604,345.245786 C149.634055,345.745324 149.469193,346.383854 148.988679,346.673335 L109.72223,370.241465 C109.564404,370.336565 109.3915,370.381503 109.220606,370.381503" id="Fill-127" fill="#FFFFFF"></path>
                    <path d="M140.364433,441.780347 C140.209124,441.780347 140.051989,441.737198 139.908557,441.645882 C139.470952,441.367922 139.321125,440.754803 139.573273,440.275145 L145.554477,428.894818 C145.807538,428.415161 146.365735,428.250592 146.802426,428.527549 C147.24003,428.804506 147.389857,429.418629 147.137709,429.898286 L141.156506,441.278613 C140.98658,441.599723 140.679618,441.780347 140.364433,441.780347" id="Fill-128" fill="#FFFFFF"></path>
                    <path d="M153.882876,418.352601 C153.705216,418.352601 153.525467,418.309375 153.361393,418.217897 C152.860811,417.940447 152.689422,417.326236 152.978902,416.844719 L176.545968,377.578459 C176.835448,377.096942 177.475023,376.93208 177.97456,377.210536 C178.474097,377.487986 178.645486,378.103202 178.35705,378.583714 L154.78894,417.849974 C154.595604,418.172661 154.244465,418.352601 153.882876,418.352601" id="Fill-129" fill="#FFFFFF"></path>
                    <path d="M347.018473,304.560694 L301.149157,304.560694 C300.568014,304.560694 300.098266,304.062017 300.098266,303.445087 C300.098266,302.829272 300.568014,302.32948 301.149157,302.32948 L347.018473,302.32948 C347.599616,302.32948 348.069364,302.829272 348.069364,303.445087 C348.069364,304.062017 347.599616,304.560694 347.018473,304.560694" id="Fill-130" fill="#FFFFFF"></path>
                    <path d="M74.7788587,304.560694 L66.9032222,304.560694 C66.3046478,304.560694 65.8208092,304.062017 65.8208092,303.445087 C65.8208092,302.829272 66.3046478,302.32948 66.9032222,302.32948 L74.7788587,302.32948 C75.3763507,302.32948 75.8612717,302.829272 75.8612717,303.445087 C75.8612717,304.062017 75.3763507,304.560694 74.7788587,304.560694" id="Fill-131" fill="#FFFFFF"></path>
                    <path d="M369.298973,304.560694 L361.42357,304.560694 C360.824931,304.560694 360.34104,304.062017 360.34104,303.445087 C360.34104,302.829272 360.824931,302.32948 361.42357,302.32948 L369.298973,302.32948 C369.89653,302.32948 370.381503,302.829272 370.381503,303.445087 C370.381503,304.062017 369.89653,304.560694 369.298973,304.560694" id="Fill-132" fill="#FFFFFF"></path>
                    <path d="M136.201245,304.560694 L90.2669631,304.560694 C89.7048018,304.560694 89.2485549,304.062017 89.2485549,303.445087 C89.2485549,302.829272 89.7048018,302.32948 90.2669631,302.32948 L136.201245,302.32948 C136.764425,302.32948 137.219653,302.829272 137.219653,303.445087 C137.219653,304.062017 136.764425,304.560694 136.201245,304.560694" id="Fill-133" fill="#FFFFFF"></path>
                    <path d="M217.543353,433.971098 C216.927538,433.971098 216.427746,433.514851 216.427746,432.95269 L216.427746,387.018408 C216.427746,386.456247 216.927538,386 217.543353,386 C218.160283,386 218.65896,386.456247 218.65896,387.018408 L218.65896,432.95269 C218.65896,433.514851 218.160283,433.971098 217.543353,433.971098" id="Fill-134" fill="#FFFFFF"></path>
                    <path d="M282.494377,420.583815 C281.806833,420.583815 281.139161,420.210162 280.77055,419.541959 L259.08709,380.198097 C258.538644,379.202036 258.864532,377.929119 259.815369,377.354589 C260.7672,376.779018 261.979344,377.121446 262.529776,378.116466 L284.213236,417.460328 C284.761682,418.456388 284.436787,419.729306 283.48595,420.303836 C283.171985,420.493264 282.831194,420.583815 282.494377,420.583815" id="Fill-135" fill="#FFFFFF"></path>
                    <path d="M297.08023,444.011561 C296.422467,444.011561 295.782791,443.646078 295.429637,442.993504 L289.197553,431.447728 C288.672105,430.474466 288.983376,429.229383 289.894343,428.666398 C290.806263,428.103413 291.968531,428.438353 292.495883,429.411615 L298.727967,440.957392 C299.252464,441.930654 298.941193,443.175736 298.030225,443.738722 C297.730377,443.924008 297.402924,444.011561 297.08023,444.011561" id="Fill-136" fill="#FFFFFF"></path>
                    <path d="M91.4797688,224.950089 C89.4122565,224.950089 87.7304363,226.63191 87.7304363,228.699422 C87.7304363,230.766934 89.4122565,232.448754 91.4797688,232.448754 C93.547281,232.448754 95.2291013,230.766934 95.2291013,228.699422 C95.2291013,226.63191 93.547281,224.950089 91.4797688,224.950089 Z M91.4797688,236.508671 C87.1732128,236.508671 83.6705202,233.005978 83.6705202,228.699422 C83.6705202,224.393881 87.1732128,220.890173 91.4797688,220.890173 C95.7853098,220.890173 99.2890173,224.393881 99.2890173,228.699422 C99.2890173,233.005978 95.7853098,236.508671 91.4797688,236.508671 L91.4797688,236.508671 Z" id="Fill-137" fill="#FFFFFF"></path>
                    <path d="M147.468278,266.630058 C147.125758,266.630058 146.778186,266.539727 146.459915,266.348561 L106.993306,242.660811 C106.026368,242.081011 105.695973,240.795369 106.253705,239.791223 C106.810426,238.787078 108.045115,238.440459 109.014074,239.022359 L148.480683,262.710109 C149.44762,263.289909 149.778016,264.574501 149.220284,265.579696 C148.845431,266.254028 148.166453,266.630058 147.468278,266.630058" id="Fill-138" fill="#FFFFFF"></path>
                    <polyline id="Fill-145" fill="#FFFFFF" points="215.604607 171.803468 215.312139 0.0112932011 220.597705 0 220.890173 171.792175 215.604607 171.803468"></polyline>
                    <path d="M217.543859,173.478812 C209.802265,173.478812 204.862439,176.169453 204.862439,178.022138 C204.862439,179.874823 230.224266,179.874823 230.224266,178.022138 C230.224266,176.169453 225.28444,173.478812 217.543859,173.478812 Z M200.809249,178.022138 C200.809249,173.205353 208.003662,169.572254 217.543859,169.572254 C227.083043,169.572254 234.277457,173.205353 234.277457,178.022138 C234.277457,182.8399 227.800458,181.584379 218.261274,181.584379 C206.62659,182.421393 200.809249,181.233979 200.809249,178.022138 Z" id="Fill-147" fill="#FFFFFF"></path>
                    <path d="M206.561341,186.326191 C207.178109,186.326191 207.873077,186.303879 208.618497,186.292723 C207.912177,186.281567 207.170541,186.281567 206.387283,186.326191 L206.561341,186.326191" id="Fill-150" fill="#FFFFFF"></path>
                    <path d="M219.07476,370.718923 L219.541268,370.73021 C219.669429,370.734315 219.79759,370.739446 219.927802,370.739446 C255.720714,370.739446 284.841032,341.595549 284.841032,305.773656 C284.841032,286.154217 276.459277,267.934408 261.843753,255.787184 C260.609302,254.760037 258.870409,253.696975 257.027961,252.57132 C251.417568,249.143049 244.435335,244.875411 244.435335,237.229781 L244.435335,233.919514 L195.626353,233.919514 L195.626353,237.229781 C195.626353,244.796399 188.352938,249.02915 182.506728,252.429716 C180.481778,253.608729 178.568585,254.72207 177.287996,255.786158 C162.228521,268.302785 153.592494,286.522595 153.592494,305.773656 C153.592494,341.595549 182.608232,370.739446 218.274008,370.739446 C218.403195,370.739446 218.532381,370.734315 218.660543,370.73021 L219.07476,370.718923 Z M219.927802,374.843931 C219.749402,374.843931 219.572026,374.8388 219.395676,374.831617 L219.07476,374.822382 L218.806134,374.831617 C218.628759,374.8388 218.452408,374.843931 218.274008,374.843931 C180.347465,374.843931 149.491329,343.859173 149.491329,305.773656 C149.491329,285.298432 158.666659,265.927315 174.667352,252.628783 C176.211441,251.345105 178.268175,250.148648 180.445893,248.881388 C185.638992,245.859461 191.525188,242.435294 191.525188,237.229781 L191.525188,229.815029 L248.5365,229.815029 L248.5365,237.229781 C248.5365,242.572795 254.183803,246.02364 259.165693,249.068142 C261.138353,250.273835 263.000281,251.411803 264.465422,252.629809 C280.021139,265.559963 288.942197,284.930054 288.942197,305.773656 C288.942197,343.859173 257.982507,374.843931 219.927802,374.843931 L219.927802,374.843931 Z" id="Fill-153" fill="#FFFFFF"></path>
                    <path d="M191.574698,229.020206 L249.090042,229.020206 L249.090042,191.721597 C249.090042,190.702752 248.731869,188.127685 245.402416,186.209069 C241.000519,183.673347 236.505186,183.726153 233.21207,183.764464 C232.839362,183.769641 232.48638,183.773782 232.157276,183.773782 L206.6242,183.773782 C206.287829,183.773782 205.936923,183.768605 205.571482,183.764464 C202.518186,183.728224 198.71013,183.680595 194.32173,186.209069 C191.786487,187.670034 191.574698,189.820582 191.574698,191.721597 L191.574698,229.020206 Z M253.242775,233.16185 L187.421965,233.16185 L187.421965,191.721597 C187.421965,189.99246 187.421965,185.402484 192.243288,182.622405 C197.622114,179.524456 202.251373,179.581403 205.622353,179.62282 C205.970145,179.626961 206.303402,179.632138 206.6242,179.632138 L232.157276,179.632138 C232.471845,179.632138 232.808216,179.627997 233.164313,179.623855 C236.721129,179.581403 242.093726,179.518243 247.480858,182.622405 C252.681118,185.620955 253.242775,189.984177 253.242775,191.721597 L253.242775,233.16185 L253.242775,233.16185 Z" id="Fill-154" fill="#FFFFFF"></path>
                    <path d="M172.613229,314.601156 C171.602438,314.601156 170.702404,313.925632 170.503472,312.955517 C169.885169,309.942576 169.572254,306.841258 169.572254,303.738924 C169.572254,300.025063 170.020658,296.326439 170.904563,292.743619 C171.17554,291.651606 172.333649,290.972018 173.487455,291.22699 C174.643413,291.481963 175.362795,292.573976 175.093967,293.667005 C174.28426,296.947109 173.873491,300.335906 173.873491,303.738924 C173.873491,306.583238 174.160599,309.423489 174.726212,312.182473 C174.952027,313.283629 174.189632,314.350247 173.022922,314.56357 C172.886358,314.588966 172.748718,314.601156 172.613229,314.601156" id="Fill-155" fill="#FFFFFF"></path>
                    <path d="M218.800667,352.531792 C198.826032,352.531792 180.881352,340.945193 173.085404,323.012704 C172.635116,321.976785 173.130329,320.780946 174.193887,320.341929 C175.258491,319.900874 176.482941,320.387766 176.93323,321.422666 C184.073073,337.845587 200.508084,348.457384 218.800667,348.457384 C219.955119,348.457384 220.890173,349.370051 220.890173,350.494588 C220.890173,351.620143 219.955119,352.531792 218.800667,352.531792" id="Fill-156" fill="#FFFFFF"></path>
                    <path d="M204.935661,273.784381 C199.509506,275.312327 194.857055,277.959509 194.857055,282.383006 C194.857055,285.777393 197.016684,286.981515 198.866626,286.981515 C200.326138,286.981515 201.779518,286.287756 202.856776,285.078395 C204.217148,283.549401 204.935661,281.294161 204.935661,278.556854 L204.935661,273.784381 Z M232.100167,273.639761 L232.100167,278.556854 C232.100167,281.286825 232.831967,283.535777 234.217891,285.062675 C235.324789,286.282517 236.824162,286.981515 238.33069,286.981515 C240.235823,286.981515 242.460864,285.777393 242.460864,282.383006 C242.460864,277.666076 237.471131,275.069197 232.100167,273.639761 Z M238.33069,291.17341 C235.691712,291.17341 233.101793,289.987104 231.224255,287.918404 C229.758611,286.303476 228.011898,283.368101 228.011898,278.556854 L228.011898,272.762606 C223.262351,271.953571 219.154662,271.898028 219.056544,271.89698 C216.653663,271.901172 212.881213,272.146398 209.023931,272.849588 L209.023931,278.556854 C209.023931,283.357622 207.31299,286.288804 205.876985,287.903732 C204.028066,289.981864 201.472897,291.17341 198.866626,291.17341 C194.841724,291.17341 190.768786,288.154198 190.768786,282.383006 C190.768786,274.979071 197.853757,271.310115 204.935661,269.490832 L204.935661,230.930636 L209.023931,230.930636 L209.023931,268.625206 C214.217055,267.734428 218.606834,267.706133 219.057566,267.705085 C219.471503,267.706133 223.319587,267.731284 228.011898,268.490017 L228.011898,230.930636 L232.100167,230.930636 L232.100167,269.316869 C239.202513,271.071177 246.549133,274.734893 246.549133,282.383006 C246.549133,288.154198 242.414871,291.17341 238.33069,291.17341 L238.33069,291.17341 Z" id="Fill-157" fill="#FFFFFF"></path>
                    <polygon id="Fill-158" fill="#FFFFFF" points="207.50289 230.930636 251.011561 230.930636 251.011561 228.699422 207.50289 228.699422"></polygon>
                    <polyline id="Fill-159" fill="#FFFFFF" points="205.756834 230.930636 205.271676 228.952023 248.296219 218.65896 248.780347 220.637573 205.756834 230.930636"></polyline>
                    <polyline id="Fill-160" fill="#FFFFFF" points="205.756834 219.774566 205.271676 217.795789 248.296219 207.50289 248.780347 209.48065 205.756834 219.774566"></polyline>
                    <polyline id="Fill-161" fill="#FFFFFF" points="205.756834 209.734104 205.271676 207.756345 248.296219 197.462428 248.780347 199.441205 205.756834 209.734104"></polyline>
                    <polyline id="Fill-162" fill="#FFFFFF" points="205.756834 199.693642 205.271676 197.715028 248.296219 187.421965 248.780347 189.400578 205.756834 199.693642"></polyline>
                </g>
            </g>
        </g>
    </g>
</svg>