<?xml version="1.0" encoding="UTF-8"?>
<svg width="18px" height="18px" viewBox="0 0 18 18" version="1.1" xmlns="http://www.w3.org/2000/svg" xmlns:xlink="http://www.w3.org/1999/xlink">
    <!-- Generator: Sketch 54.1 (76490) - https://sketchapp.com -->
    <title>chat</title>
    <desc>Created with Sketch.</desc>
    <g id="Page-1" stroke="none" stroke-width="1" fill="none" fill-rule="evenodd">
        <g id="Desktop-Step8" transform="translate(-264.000000, -392.000000)" fill="#FFFFFF" fill-rule="nonzero">
            <g id="Group-3" transform="translate(257.000000, 192.000000)">
                <g id="Group-4" transform="translate(0.000000, 136.000000)">
                    <g id="Points">
                        <g id="Point" transform="translate(0.000000, 56.000000)">
                            <g id="Icon" transform="translate(0.000000, 1.000000)">
                                <g id="chat" transform="translate(7.200000, 7.200000)">
                                    <path d="M15.0053992,2.57740586 C16.6659849,4.23799163 17.579123,6.44719665 17.579123,8.79263598 C17.579123,11.1380753 16.6659849,13.3472803 15.0053992,15.0078661 C13.3448134,16.6684519 11.1392904,17.58159 8.79016904,17.58159 C7.33209372,17.58159 5.89979247,17.2207531 4.62581757,16.5358996 C3.67954142,17.1876151 2.54548285,17.5594979 1.46665439,17.5594979 C1.2494159,17.5594979 1.03954142,17.5410879 0.844394979,17.5116318 C0.487240167,17.4564017 0.214771548,17.180251 0.159541423,16.8230962 C0.107993305,16.4696234 0.288411715,16.1235146 0.608746444,15.9651883 C1.13159163,15.7074477 1.59920669,15.1698745 1.99318159,14.3635146 C-0.860374895,10.8950628 -0.628408368,5.77707113 2.57493891,2.57372385 C4.23552469,0.913138075 6.4410477,1.42108547e-14 8.79016904,1.42108547e-14 C11.1392904,1.42108547e-14 13.3448134,0.916820084 15.0053992,2.57740586 Z M14.3021356,14.3046025 C17.3434745,11.2669456 17.3434745,6.31832636 14.3021356,3.27330544 C12.8293322,1.80050209 10.8741858,0.990460251 8.79016904,0.990460251 C6.70983431,0.990460251 4.75100586,1.80050209 3.27820251,3.27330544 C0.3694159,6.18209205 0.225817573,10.8729707 2.95050377,13.9511297 C3.07937406,14.09841 3.11251213,14.3046025 3.03518996,14.4813389 C2.61912301,15.4349791 2.12205188,16.1198326 1.52924854,16.5616736 C2.02631967,16.5506276 3.16037824,16.4217573 4.2870728,15.5491213 C4.375441,15.4828452 4.48590126,15.4460251 4.5926795,15.4460251 C4.67736569,15.4460251 4.76573389,15.4717992 4.84305607,15.5159833 C6.03234477,16.2155649 7.39836987,16.5874477 8.79016904,16.5874477 C10.8705038,16.5874477 12.8293322,15.7774059 14.3021356,14.3046025 Z M11.0214661,4.76451883 C11.8130979,4.76451883 12.5605456,5.07380753 13.1238929,5.63715481 C13.6835582,6.20050209 13.9928469,6.94794979 13.9928469,7.7432636 C13.9928469,8.5348954 13.6835582,9.2823431 13.1202109,9.84569038 L9.13627782,13.8148954 C9.04054561,13.9106276 8.91167531,13.9584937 8.78648703,13.9584937 C8.66129874,13.9584937 8.53242845,13.9069456 8.43669623,13.8112134 L4.46380921,9.83832636 C3.90414393,9.27497908 3.59117322,8.53121339 3.59117322,7.73589958 C3.58749121,6.94426778 3.89677992,6.19682008 4.4601272,5.6334728 C5.01979247,5.07380753 5.76724017,4.76451883 6.55887197,4.76451883 C7.35418577,4.76451883 8.10163347,5.07380753 8.66498075,5.63715481 L8.79016904,5.7623431 L8.91535732,5.63715481 C9.4787046,5.07380753 10.2261523,4.76451883 11.0214661,4.76451883 Z M12.4169473,9.14242678 C12.7925121,8.76686192 12.9987046,8.26979079 12.9987046,7.73958159 C13.0023866,7.21305439 12.7961941,6.71598326 12.4206293,6.34041841 C12.0450644,5.96485356 11.5479933,5.75866109 11.0214661,5.75866109 C10.4912569,5.75866109 9.99418577,5.96485356 9.61862092,6.34041841 L9.14364184,6.81539749 C8.9484954,7.01054393 8.63552469,7.01054393 8.44037824,6.81539749 L7.96171715,6.3367364 C7.5861523,5.96117155 7.08908117,5.75497908 6.55887197,5.75497908 C6.02866276,5.75497908 5.53159163,5.96117155 5.15970879,6.33305439 C4.78782594,6.70493724 4.58163347,7.20200837 4.58163347,7.73221757 C4.58163347,8.26242678 4.78782594,8.75949791 5.16339079,9.13506276 L8.78648703,12.758159 L12.4169473,9.14242678 Z" id="Combined-Shape"></path>
                                </g>
                            </g>
                        </g>
                    </g>
                </g>
            </g>
        </g>
    </g>
</svg>