<?xml version="1.0" encoding="UTF-8"?>
<svg width="51px" height="80px" viewBox="0 0 51 80" version="1.1" xmlns="http://www.w3.org/2000/svg" xmlns:xlink="http://www.w3.org/1999/xlink">
    <!-- Generator: Sketch 55 (78076) - https://sketchapp.com -->
    <title>Shape</title>
    <desc>Created with Sketch.</desc>
    <g id="Symbols" stroke="none" stroke-width="1" fill="none" fill-rule="evenodd">
        <g id="Gender-/-Female" transform="translate(-55.000000, -16.000000)" fill="#95C849">
            <path d="M105.35567,36.5366857 C105.033732,34.9051429 104.551737,33.3094857 103.916741,31.7732571 C103.280152,30.2301714 102.493067,28.7540571 101.567098,27.3664 C99.7049152,24.5673143 97.3129241,22.1629714 94.5272768,20.2898286 C91.7712277,18.4313143 88.6761652,17.1385143 85.4201339,16.4864 C82.1365536,15.8379429 78.7587143,15.8379429 75.4751339,16.4864 C72.2191027,17.1382857 69.1238125,18.4310857 66.3679911,20.2898286 C63.5832545,22.1602286 61.1912634,24.5616 59.3281696,27.3572571 C57.4769152,30.1241143 56.1893929,33.2313143 55.5395982,36.5001143 C54.8934464,39.7965714 54.8934464,43.1876571 55.5395982,46.4841143 C56.1889375,49.7529143 57.4766875,52.8603429 59.3281696,55.6269714 C61.7905134,59.3227429 65.1672143,62.3126857 69.1274554,64.3035429 C71.5290089,65.5371429 74.111567,66.3766857 76.7774554,66.7904 C77.3090848,66.8386286 77.7097991,67.2971429 77.6881696,67.8326857 L77.6881696,75.0555429 C77.6881696,75.6109714 77.2396429,76.0612571 76.6863839,76.0612571 L66.0674554,76.0612571 C65.3507232,76.0642286 64.663817,76.3499429 64.1549554,76.8566857 C63.1340446,77.8955429 63.101942,79.5549714 64.0820982,80.6326857 L64.1367411,80.6784 C64.3983437,80.9323429 64.7079866,81.1314286 65.0474554,81.2635429 C65.3737187,81.3997714 65.7232054,81.4713143 66.0765625,81.4738286 L76.7137054,81.4738286 C76.9798616,81.4726857 77.235317,81.5780571 77.4240625,81.7664 C77.5973259,81.9556571 77.6918125,82.2043429 77.6881696,82.4612571 L77.6881696,93.1492571 C77.6868036,93.5065143 77.7548795,93.8605714 77.8885268,94.1915429 C78.0187589,94.5330286 78.2172946,94.8441143 78.4713839,95.1058286 C78.7320759,95.3611429 79.0419464,95.5604571 79.3820982,95.6909714 C80.0446429,95.9627429 80.786875,95.9627429 81.4494196,95.6909714 C81.7895714,95.5602286 82.099442,95.3609143 82.3601339,95.1058286 C82.6142232,94.8441143 82.8127589,94.5330286 82.9429911,94.1915429 C83.0766384,93.8605714 83.1447143,93.5065143 83.1433482,93.1492571 L83.1433482,82.4612571 C83.1422098,82.1940571 83.2471696,81.9376 83.4347768,81.7481143 C83.6235223,81.5597714 83.8789777,81.4544 84.1451339,81.4555429 L94.7731696,81.4555429 C95.1290312,81.4569143 95.4817054,81.3885714 95.8113839,81.2544 C96.1515357,81.1236571 96.4614062,80.9245714 96.7220982,80.6692571 C96.9761875,80.4075429 97.1747232,80.0964571 97.3049554,79.7549714 C97.5756652,79.0898286 97.5756652,78.3446857 97.3049554,77.6795429 C97.2339196,77.5062857 97.1453527,77.3408 97.0408482,77.1858286 L96.6856696,76.8292571 C96.176808,76.3225143 95.4899018,76.0368 94.7731696,76.0338286 L84.1269196,76.0338286 C83.8607634,76.0349714 83.605308,75.9296 83.4165625,75.7412571 C83.2289554,75.5517714 83.1239955,75.2953143 83.1251339,75.0281143 L83.1251339,68.2989714 L83.1251339,67.8326857 C83.1255893,67.5906286 83.2127902,67.3570286 83.3710268,67.1744 C83.5283527,66.9947429 83.7451027,66.8779429 83.9812054,66.8452571 C86.6846607,66.4617143 89.3082009,65.6402286 91.7495982,64.4132571 C97.247808,61.6548571 101.568692,56.9958857 103.916741,51.2932571 C104.552192,49.7540571 105.034188,48.1554286 105.35567,46.5206857 C106.001821,43.2242286 106.001821,39.8329143 105.35567,36.5366857 Z M100.046205,45.4509714 L100.046205,45.4875429 C97.8142723,56.4144 87.1814554,63.456 76.2972812,61.2153143 C65.4131071,58.9746286 58.3990134,48.3001143 60.6309464,37.3732571 C62.8628795,26.4464 73.4956964,19.4048 84.3798705,21.6454857 C93.7775313,23.5801143 100.507027,31.9072 100.456027,41.5378286 C100.447375,42.8523429 100.310085,44.1632 100.046205,45.4509714 Z" id="Shape"></path>
        </g>
    </g>
</svg>