<?xml version="1.0" encoding="UTF-8"?>
<svg width="18px" height="16px" viewBox="0 0 18 16" version="1.1" xmlns="http://www.w3.org/2000/svg" xmlns:xlink="http://www.w3.org/1999/xlink">
    <!-- Generator: Sketch 55 (78076) - https://sketchapp.com -->
    <title>heart-3</title>
    <desc>Created with Sketch.</desc>
    <g id="Page-1" stroke="none" stroke-width="1" fill="none" fill-rule="evenodd">
        <g id="Desktop-/-Desktop-Step10" transform="translate(-359.000000, -289.000000)" fill="#FFFFFF">
            <g id="Group-3" transform="translate(352.000000, 184.000000)">
                <g id="Group-4" transform="translate(0.000000, 96.000000)">
                    <g id="Points">
                        <g id="Point">
                            <g id="Icon">
                                <g id="heart-3" transform="translate(7.000000, 9.000000)">
                                    <path d="M16.5821484,1.41236719 C15.697793,0.516832031 14.4783633,0.023625 13.1484375,0.023625 C10.8233438,0.023625 9.62117578,1.21999219 9.02211328,2.22359766 C9.01466016,2.23604297 9.00727734,2.24852344 9,2.26096875 C8.99272266,2.24852344 8.98533984,2.23604297 8.97788672,2.22359766 C8.37882422,1.21999219 7.17665625,0.023625 4.8515625,0.023625 C3.52163672,0.023625 2.30220703,0.516832031 1.41785156,1.41240234 C0.490289062,2.35174219 0,3.63758203 0,5.13091406 C0,8.3019375 2.81886328,10.4043867 5.30585156,12.2593359 C6.54507422,13.1835938 7.71556641,14.0566289 8.45226563,14.9719219 C8.58571875,15.1377539 8.78712891,15.2341875 9,15.2341875 C9.21287109,15.2341875 9.41428125,15.1377539 9.54776953,14.9719922 C9.92668359,14.5011797 10.4533945,14.0005898 11.205457,13.3965703 C11.5081875,13.1533945 11.5564922,12.7108125 11.3133164,12.4080469 C11.0701758,12.1053516 10.6275937,12.0569766 10.3248281,12.3001523 C9.79425,12.7263164 9.36028125,13.1117344 9.00031641,13.4779922 C8.20550391,12.6677461 7.19950781,11.9174062 6.14661328,11.1321211 C3.81610547,9.39389062 1.40625,7.59645703 1.40625,5.13091406 C1.40625,2.95178906 2.82301172,1.429875 4.8515625,1.429875 C6.17058984,1.429875 7.14455859,1.92610547 7.74632812,2.90475 C8.22410156,3.68159766 8.29842188,4.49022656 8.29891406,4.49521875 C8.32710937,4.86151172 8.63247656,5.14589062 8.99982422,5.14589062 C9.36724219,5.14589062 9.67257422,4.86460547 9.70076953,4.4983125 C9.70150781,4.49022656 9.77582813,3.68159766 10.2536016,2.90475 C10.8554414,1.92610547 11.8294102,1.429875 13.1484375,1.429875 C15.1769883,1.429875 16.59375,2.95178906 16.59375,5.13091406 C16.59375,7.1713125 14.9325469,8.75327344 13.1373633,10.1588555 C12.8316445,10.3982344 12.7778203,10.8401836 13.0172344,11.1459375 C13.256543,11.4516562 13.6985273,11.5054805 14.0043164,11.2660664 C14.8582617,10.5974297 15.9406172,9.69387891 16.7367656,8.63282812 C17.5867734,7.49998828 18,6.35449219 18,5.13091406 C18,3.63758203 17.5097109,2.35174219 16.5821484,1.41236719 Z" id="Path"></path>
                                </g>
                            </g>
                        </g>
                    </g>
                </g>
            </g>
        </g>
    </g>
</svg>