<?xml version="1.0" encoding="UTF-8"?>
<svg xmlns="http://www.w3.org/2000/svg" xmlns:xlink="http://www.w3.org/1999/xlink" width="20px" height="14px" version="1.1" viewBox="0 0 20 14">
<!--Generator: Sketch 54.1 (76490) - https://sketchapp.com-->
    <title>
        Icons / Marker
    </title>
    <desc>
        Created with Sketch.
    </desc>
    <g id="Page-1" fill="none" fill-rule="evenodd" stroke="none" stroke-width="1">
        <g id="Desktop-Step8" fill="#000000" transform="translate(-770.000000, -367.000000)">
            <g id="Group-3" transform="translate(257.000000, 192.000000)">
                <g id="Group-4" transform="translate(0.000000, 136.000000)">
                    <g id="Group-2" transform="translate(503.000000, 0.000000)">
                        <g id="Atoms-/-Textfield-/-Placeholder-/-Left-Icon">
                            <g id="Textfield" transform="translate(0.000000, 22.000000)">
                                <g id="Icons-/-mail" transform="translate(8.000000, 12.000000)">
                                    <g id="mail-2" transform="translate(2.000000, 5.000000)">
                                        <path id="Path" fill-rule="nonzero" d="M16.4133884,2.67785124 L9.96190083,8.36289256 L3.50900826,2.6777686 C3.25206612,2.45140496 2.86041322,2.47628099 2.63413223,2.73305785 C2.40793388,2.98991736 2.43256198,3.38157025 2.68950413,3.60793388 L9.5522314,9.65413223 C9.66933884,9.75727273 9.81570248,9.80884298 9.96198347,9.80884298 C10.1082645,9.80884298 10.2547107,9.75727273 10.3718182,9.65404959 L17.2331405,3.60785124 C17.4899174,3.38157025 17.5146281,2.98983471 17.2883471,2.73297521 C17.0619008,2.47636364 16.6703306,2.45157025 16.4133884,2.67785124 Z"/>
                                        <path id="Shape" fill-rule="nonzero" d="M18.0628926,0.0437190083 L1.85950413,0.0437190083 C0.834214876,0.0437190083 0,0.87785124 0,1.90322314 L0,11.7380992 C0,12.7634711 0.834214876,13.5976033 1.85950413,13.5976033 L18.0628926,13.5976033 C19.0881818,13.5976033 19.9223967,12.7634711 19.9223967,11.7380992 L19.9223967,1.90322314 C19.9223967,0.877933884 19.0881818,0.0437190083 18.0628926,0.0437190083 Z M18.6827273,11.7380992 C18.6827273,12.0798347 18.4047107,12.3579339 18.0628926,12.3579339 L1.85950413,12.3579339 C1.51768595,12.3579339 1.23966942,12.0798347 1.23966942,11.7380992 L1.23966942,1.90322314 C1.23966942,1.5614876 1.51768595,1.28338843 1.85950413,1.28338843 L18.0628926,1.28338843 C18.4047107,1.28338843 18.6827273,1.5614876 18.6827273,1.90322314 L18.6827273,11.7380992 Z"/>
                                    </g>
                                </g>
                            </g>
                        </g>
                    </g>
                </g>
            </g>
        </g>
    </g>
</svg>
