<?xml version="1.0" encoding="UTF-8"?>
<svg width="60px" height="75px" viewBox="0 0 60 75" version="1.1" xmlns="http://www.w3.org/2000/svg" xmlns:xlink="http://www.w3.org/1999/xlink">
    <!-- Generator: Sketch 55 (78076) - https://sketchapp.com -->
    <title>Shape</title>
    <desc>Created with Sketch.</desc>
    <g id="Symbols" stroke="none" stroke-width="1" fill="none" fill-rule="evenodd">
        <g id="Gender-/-Male" transform="translate(-50.000000, -19.000000)" fill="#95C849">
            <path d="M109.293569,36.0380058 L97.3455925,20.2663295 L97.2762283,20.1709538 C96.8678468,19.512211 96.1748555,19.0823699 95.403396,19.009104 C95.1478324,18.987211 94.8905347,19.0047688 94.6403902,19.0611272 L94.5276734,19.0611272 L74.9583092,21.4802023 C73.6113439,21.6291185 72.6402457,22.8419075 72.7891618,24.1888728 C72.938078,25.5358382 74.1508671,26.5069364 75.4978324,26.3580202 C75.5117052,26.3565029 75.5253613,26.3547688 75.5392341,26.3530347 L89.1085983,24.6882948 L91.2242052,24.4281792 L90.3571532,26.3877168 L83.0132225,43.7287572 L82.5970376,44.7171965 L81.6085983,44.474422 C68.1827312,40.9257948 54.4221821,48.9328035 50.8735549,62.3586705 C47.3249277,75.7845376 55.3319364,89.5450867 68.7578035,93.0937139 C82.1836705,96.642341 95.9442197,88.6353324 99.4928468,75.2094653 C102.352818,64.3893064 97.7169075,52.9812861 88.120159,47.2229769 L87.2010838,46.6767341 L87.6172688,45.6882948 L94.9611994,28.3472543 L95.8282514,26.3877168 L97.1114884,28.1218208 L105.374494,39.0119942 C106.245231,40.0567919 107.797905,40.1979046 108.842702,39.3271676 C109.82052,38.5121387 110.01604,37.0860549 109.293569,36.0380058 Z M89.5681358,54.6102601 L89.5421243,54.6015896 C97.4299133,62.5739162 97.3614162,75.4309971 89.3890896,83.3187861 C81.416763,91.2065751 68.5596821,91.138078 60.6718931,83.1657514 C52.784104,75.1934249 52.8526012,62.3363439 60.8249277,54.4485549 C66.6734104,48.6620665 75.4351879,46.9763006 83.0132225,50.1796243 C85.4682803,51.2111994 87.695737,52.7168353 89.5681358,54.6102601 Z" id="Shape"></path>
        </g>
    </g>
</svg>