<?xml version="1.0" encoding="UTF-8"?>
<svg width="14px" height="18px" viewBox="0 0 14 18" version="1.1" xmlns="http://www.w3.org/2000/svg" xmlns:xlink="http://www.w3.org/1999/xlink">
    <!-- Generator: Sketch 54.1 (76490) - https://sketchapp.com -->
    <title>maps-and-flags</title>
    <desc>Created with Sketch.</desc>
    <g id="Symbols" stroke="none" stroke-width="1" fill="none" fill-rule="evenodd">
        <g id="Icons-/-Marker" transform="translate(-5.000000, -3.000000)" fill="#000000" fill-rule="nonzero">
            <g id="maps-and-flags" transform="translate(5.000000, 3.000000)">
                <path d="M6.51891797,0 C2.92436719,0 0,2.92436719 0,6.51888281 C0,10.9797891 5.83379297,17.5286602 6.08217188,17.8052695 C6.31546875,18.0651094 6.72278906,18.0646523 6.95566406,17.8052695 C7.20404297,17.5286602 13.0378359,10.9797891 13.0378359,6.51888281 C13.0377656,2.92436719 10.1134336,0 6.51891797,0 Z M6.51891797,16.5139102 C4.55554687,14.1817148 1.1739375,9.5805 1.1739375,6.51895313 C1.1739375,3.57166406 3.57166406,1.1739375 6.51891797,1.1739375 C9.46617188,1.1739375 11.8638984,3.57166406 11.8638984,6.51891797 C11.8638633,9.58060547 8.48278125,14.1809766 6.51891797,16.5139102 Z" id="Shape"></path>
                <path d="M6.5,9.00008347 C5.12145242,9.00008347 4,7.87858932 4,6.50004174 C4,5.12149416 5.12149416,4 6.5,4 C7.87850584,4 9,5.12149416 9,6.50004174 C9,7.87858932 7.87850584,9.00008347 6.5,9.00008347 Z" id="Path"></path>
            </g>
        </g>
    </g>
</svg>