<?xml version="1.0" encoding="UTF-8"?>
<svg width="16px" height="19px" viewBox="0 0 16 19" version="1.1" xmlns="http://www.w3.org/2000/svg" xmlns:xlink="http://www.w3.org/1999/xlink">
    <!-- Generator: Sketch 55 (78076) - https://sketchapp.com -->
    <title>open-lock</title>
    <desc>Created with Sketch.</desc>
    <g id="Page-1" stroke="none" stroke-width="1" fill="none" fill-rule="evenodd">
        <g id="Desktop-/-Desktop-Step10" transform="translate(-360.000000, -367.000000)" fill="#FFFFFF">
            <g id="Group-3" transform="translate(352.000000, 184.000000)">
                <g id="Group-4" transform="translate(0.000000, 96.000000)">
                    <g id="Points">
                        <g id="Point" transform="translate(0.000000, 80.000000)">
                            <g id="Icon" transform="translate(0.000000, 0.007692)">
                                <g id="open-lock" transform="translate(8.000000, 7.000000)">
                                    <path d="M15.046875,12.7265625 C14.6585391,12.7265625 14.34375,12.4117734 14.34375,12.0234375 L14.34375,9.421875 C14.34375,8.64646875 13.7129062,8.015625 12.9375,8.015625 L2.8125,8.015625 C2.03709375,8.015625 1.40625,8.64646875 1.40625,9.421875 L1.40625,15.1875 C1.40625,15.9629062 2.03709375,16.59375 2.8125,16.59375 L12.9375,16.59375 C13.7129062,16.59375 14.34375,15.9629062 14.34375,15.1875 C14.34375,14.7991641 14.6585391,14.484375 15.046875,14.484375 C15.4352109,14.484375 15.75,14.7991641 15.75,15.1875 C15.75,16.7383125 14.4883125,18 12.9375,18 L2.8125,18 C1.2616875,18 0,16.7383125 0,15.1875 L0,9.421875 C0,7.8710625 1.2616875,6.609375 2.8125,6.609375 L3.65494922,6.609375 L3.65494922,4.12966406 C3.65494922,1.85255859 5.54748047,0 7.87369922,0 C10.199918,0 12.0924492,1.86099609 12.0924492,4.1484375 C12.0924492,4.53677344 11.7776602,4.8515625 11.3893242,4.8515625 C11.0009883,4.8515625 10.6861992,4.53677344 10.6861992,4.1484375 C10.6861992,2.63640234 9.42451172,1.40625 7.87369922,1.40625 C6.32288672,1.40625 5.06119922,2.62796484 5.06119922,4.12966406 L5.06119922,6.609375 L12.9375,6.609375 C14.4883125,6.609375 15.75,7.8710625 15.75,9.421875 L15.75,12.0234375 C15.75,12.4117734 15.4352109,12.7265625 15.046875,12.7265625 Z M6.33238515,12.6040736 C6.00665428,12.3382218 5.90727173,11.8830303 6.09259182,11.5055983 C6.27777327,11.1281664 6.698867,10.928431 7.10831762,11.0235167 C7.51776821,11.1186024 7.80773797,11.4835595 7.80759937,11.9039602 C7.80759937,11.4835595 8.09743053,11.118741 8.50688111,11.0236553 C8.91647034,10.9285696 9.33742547,11.128305 9.52260692,11.5055983 C9.70792697,11.8830303 9.60868302,12.3382218 9.28295219,12.6040736 L8.11683573,13.6896583 C7.94260439,13.8518307 7.67273295,13.8518307 7.49850157,13.6896583 L6.33238515,12.6040736 Z" id="Combined-Shape"></path>
                                </g>
                            </g>
                        </g>
                    </g>
                </g>
            </g>
        </g>
    </g>
</svg>