<?xml version="1.0" encoding="UTF-8"?>
<svg width="48px" height="48px" viewBox="0 0 48 48" version="1.1" xmlns="http://www.w3.org/2000/svg" xmlns:xlink="http://www.w3.org/1999/xlink">
    <!-- Generator: Sketch 54.1 (76490) - https://sketchapp.com -->
    <title>Icons / Phone-head</title>
    <desc>Created with Sketch.</desc>
    <g id="Symbols" stroke="none" stroke-width="1" fill="none" fill-rule="evenodd">
        <g id="Sections-/-Header-/-Desktop-/-LIC" transform="translate(-1016.000000, -20.000000)" fill="#95C849">
            <g id="Call" transform="translate(1016.000000, 18.000000)">
                <g id="Assets-/-Icons-/-Phone-head" transform="translate(0.000000, 2.000000)">
                    <path d="M24,48 C10.745166,48 0,37.254834 0,24 C0,10.745166 10.745166,0 24,0 C37.254834,0 48,10.745166 48,24 C48,37.254834 37.254834,48 24,48 Z M37.4081322,31.9419922 C37.3347766,31.5753996 37.1057256,31.2730505 36.7207099,31.0345856 L31.4148949,27.9002188 L31.3874483,27.9002188 C31.2041716,27.7901961 30.9568829,27.7352521 30.6452227,27.7352521 C30.2053137,27.7352521 29.8206124,27.8818891 29.4905347,28.1751183 L27.923564,29.7697962 C27.8868637,29.8065004 27.8272988,29.8385323 27.7448243,29.8660717 C27.6624396,29.8935212 27.6027399,29.9073133 27.5660846,29.9073133 L27.2225307,29.8385323 C26.9934797,29.792843 26.6635817,29.6599532 26.2328815,29.4399976 C25.8021813,29.220042 25.2659173,28.8762267 24.6245837,28.4090008 C23.9831153,27.9415054 23.2500086,27.2863109 22.4252636,26.4430581 C21.5821908,25.6182247 20.9315586,24.8896668 20.4733669,24.2572945 C20.0151752,23.6249223 19.6761134,23.0887806 19.4561813,22.6488694 C19.199594,22.1539694 19.034645,21.7140583 18.9613343,21.329136 C18.9613343,21.2741471 18.9750801,21.205411 19.0025716,21.1229277 C19.0300631,21.0404443 19.0621365,20.980873 19.0987918,20.9442138 L20.4458754,19.5969859 C20.6841351,19.3587007 20.8399203,19.0654266 20.9132309,18.7171637 C20.9865416,18.3689007 20.9407224,18.0481321 20.7757734,17.754858 L17.8341827,12.1734855 C17.705889,11.9718596 17.5501039,11.8023105 17.3668272,11.6648383 C17.1835505,11.527366 16.9727823,11.4586299 16.7345226,11.4586299 C16.4046246,11.4586299 16.1113819,11.5869373 15.8547946,11.8435522 L12.1984248,15.5003135 C12.0151481,15.6652801 11.8593629,15.8806533 11.7310693,16.146433 C11.6027756,16.4122126 11.5203011,16.6734098 11.4836457,16.9300247 C11.4836457,16.9666839 11.4744819,17.1499802 11.4561542,17.4799136 C11.4378266,17.8098469 11.4744819,18.2635053 11.5661203,18.8408887 C11.6577586,19.418272 11.8318714,20.1056332 12.0884588,20.9029721 C12.3450461,21.7003111 12.7299272,22.5892981 13.2431468,23.5699334 C13.7563215,24.5505686 14.4344452,25.6182696 15.2775179,26.7730813 C16.1205907,27.9278031 17.1835954,29.1375587 18.4665322,30.4023032 C20.079367,32.0336853 21.6006083,33.3168493 23.0301215,34.2515257 C24.4596347,35.186247 25.7379446,35.8874452 26.8652759,36.3548508 C27.9923376,36.8221665 28.9453315,37.1154855 29.7242573,37.2346731 C30.5031832,37.3538606 31.066804,37.4134319 31.4151195,37.4134319 C31.5617408,37.4134319 31.6808707,37.4087596 31.7723743,37.3996397 C31.8640575,37.3904749 31.9191753,37.3857577 31.9375029,37.3857577 C32.1940005,37.3491434 32.4551248,37.2666601 32.720876,37.1383077 C32.9866272,37.0101351 33.2019324,36.8541984 33.3668814,36.6709021 L37.0232511,33.04177 C37.3346867,32.7302112 37.4631601,32.3636186 37.4081322,31.9419922 Z" id="Color"></path>
                </g>
            </g>
        </g>
    </g>
</svg>