<svg id="Capa_1" data-name="Capa 1" xmlns="http://www.w3.org/2000/svg" width="25" height="25" viewBox="0 0 25 25"><defs><style>.cls-1{fill:#5cb85c;opacity:0.5;}.cls-2{fill:#13708c;}</style></defs><title>Icon-active</title><ellipse class="cls-1" cx="6.31" cy="16.98" rx="2.28" ry="2.73"/><ellipse class="cls-1" cx="20.1" cy="16.9" rx="2.28" ry="2.65"/><path class="cls-1" d="M18.87,11.73H17.76a.15.15,0,0,0-.14.15v1.23H16.37V11.88a.15.15,0,0,0-.14-.15H15.12V10.34h1.11a.16.16,0,0,0,.14-.16V9h1.25v1.23a.15.15,0,0,0,.14.16h1.11Z"/><path class="cls-2" d="M23.11,4.92H10.16A1.39,1.39,0,0,0,8.77,6.31V6.8H5.7A5.21,5.21,0,0,0,.5,12v4.87a.28.28,0,0,0,.29.29h2a3.2,3.2,0,0,0,6.38,0h7.21a3.21,3.21,0,0,0,6.39,0h1.47a.28.28,0,0,0,.29-.29V6.31A1.39,1.39,0,0,0,23.11,4.92ZM8.54,17.19a2.59,2.59,0,1,1,0-.31A1.67,1.67,0,0,1,8.54,17.19Zm.23-1.83a3.21,3.21,0,0,0-6,1.23H1.08V12.11H8.77Zm0-3.79H1.12A4.6,4.6,0,0,1,5.68,7.4H8.77Zm13.39,5.62a2.65,2.65,0,1,1,0-.31C22.18,17,22.16,17.08,22.16,17.19Zm1.76-.6H22.76a3.2,3.2,0,0,0-6.38,0h-7V6.31a.81.81,0,0,1,.81-.81h13a.81.81,0,0,1,.81.81Z"/><path class="cls-2" d="M18.43,9.79h-.54V9.25a.79.79,0,0,0-.79-.79h-.93a.79.79,0,0,0-.79.79v.54h-.54a.79.79,0,0,0-.79.79v.93a.8.8,0,0,0,.79.79h.54v.53a.79.79,0,0,0,.79.79h.93a.8.8,0,0,0,.79-.79V12.3h.54a.8.8,0,0,0,.79-.79v-.93A.79.79,0,0,0,18.43,9.79Zm.2,1.72a.2.2,0,0,1-.2.21H17.6a.28.28,0,0,0-.29.29v.82a.19.19,0,0,1-.21.21h-.93a.19.19,0,0,1-.21-.21V12a.28.28,0,0,0-.29-.29h-.83a.21.21,0,0,1-.21-.21v-.93a.2.2,0,0,1,.21-.21h.83a.28.28,0,0,0,.29-.29V9.25A.2.2,0,0,1,16.17,9h.93a.2.2,0,0,1,.21.21v.83a.28.28,0,0,0,.29.29h.83a.19.19,0,0,1,.2.21Z"/></svg>