<svg id="Capa_1" data-name="Capa 1" xmlns="http://www.w3.org/2000/svg" width="25" height="25" viewBox="0 0 25 25"><defs><style>.cls-1{fill:#838383;}</style></defs><title>Icon-inactive</title><path class="cls-1" d="M4.08,2.71a.31.31,0,0,0,.25-.35.32.32,0,0,0-.25-.24A1.68,1.68,0,0,1,2.71.75a.28.28,0,0,0-.12-.2A.37.37,0,0,0,2.36.5a.3.3,0,0,0-.24.25A1.68,1.68,0,0,1,.75,2.12a.3.3,0,0,0-.25.34.32.32,0,0,0,.25.25A1.68,1.68,0,0,1,2.12,4.08a.25.25,0,0,0,.12.19.28.28,0,0,0,.23.05.3.3,0,0,0,.24-.24A1.68,1.68,0,0,1,4.08,2.71Zm-1-.21a2.06,2.06,0,0,0-.55.55l-.08.11-.09-.11a2.06,2.06,0,0,0-.55-.55l-.12-.09.12-.08a2.21,2.21,0,0,0,.55-.55l.09-.12.08.12a2.21,2.21,0,0,0,.55.55l.12.08Z"/><path class="cls-1" d="M16.42,2.92h0a5.53,5.53,0,0,0-2.23.46,4.4,4.4,0,0,1-3.38,0,5.5,5.5,0,0,0-2.23-.46,5.65,5.65,0,0,0-5.2,3.43,5.46,5.46,0,0,0-.46,2.23,12.57,12.57,0,0,0,1.91,6.66h0l.13.2v0L6.7,23.12a1.78,1.78,0,0,0,.78,1.11,1.81,1.81,0,0,0,1.34.23A1.77,1.77,0,0,0,10.18,23l1.21-7.26a1.13,1.13,0,0,1,2.22,0L14.82,23a1.76,1.76,0,0,0,.72,1.15,1.77,1.77,0,0,0,2.76-1.05l1.75-7.68.12-.2a12.57,12.57,0,0,0,1.91-6.66A5.67,5.67,0,0,0,16.42,2.92Zm3.24,12-.16.24a.29.29,0,0,0,0,.1L17.71,23a1.17,1.17,0,0,1-2.29-.06l-1.21-7.26a1.73,1.73,0,0,0-3.42,0L9.58,22.92a1.17,1.17,0,0,1-1.15,1l-.19,0a1.18,1.18,0,0,1-1-.89L5.53,15.25a.32.32,0,0,0,0-.09l-.16-.24A12,12,0,0,1,3.52,8.58,5.08,5.08,0,0,1,8.58,3.52h0a5,5,0,0,1,2,.41,4.88,4.88,0,0,0,3.86,0,5.06,5.06,0,0,1,7.05,4.65A12,12,0,0,1,19.66,14.92Z"/><path class="cls-1" d="M24.25,19.06a1.68,1.68,0,0,1-1.37-1.37.25.25,0,0,0-.12-.19.27.27,0,0,0-.17-.06h-.06a.32.32,0,0,0-.24.25,1.68,1.68,0,0,1-1.37,1.37.31.31,0,0,0-.25.35.32.32,0,0,0,.25.24A1.68,1.68,0,0,1,22.29,21a.28.28,0,0,0,.12.2.37.37,0,0,0,.23.05.3.3,0,0,0,.24-.25,1.68,1.68,0,0,1,1.37-1.37.3.3,0,0,0,.25-.34A.32.32,0,0,0,24.25,19.06Zm-1,.38a2.21,2.21,0,0,0-.55.55l-.09.12L22.5,20a2.21,2.21,0,0,0-.55-.55l-.12-.08.12-.09a2.06,2.06,0,0,0,.55-.55l.08-.12.09.12a2.06,2.06,0,0,0,.55.55l.12.09Z"/></svg>