<?xml version="1.0" encoding="UTF-8"?>
<svg width="545px" height="506px" viewBox="0 0 545 506" version="1.1" xmlns="http://www.w3.org/2000/svg" xmlns:xlink="http://www.w3.org/1999/xlink">
    <!-- Generator: Sketch 53.1 (72631) - https://sketchapp.com -->
    <title>Map</title>
    <desc>Created with Sketch.</desc>
    <g id="Page-1" stroke="none" stroke-width="1" fill="none" fill-rule="evenodd">
        <g id="03-Desktop" transform="translate(-733.000000, -156.000000)">
            <g id="Body" transform="translate(0.000000, 84.000000)">
                <g id="Map" transform="translate(733.000000, 72.000000)">
                    <g id="Age_of_consent_-_Australia" fill-rule="nonzero">
                        <path d="M209.650775,59.1756227 L200.633537,57.4848907 L196.970284,56.357736 L188.234835,48.467653 L183.444428,46.4951322 L179.781175,44.5226115 L176.6815,44.5226115 L174.42719,46.2133436 L175.272556,49.0312304 L173.300036,50.1583851 L172.172881,49.0312304 L165.97353,51.2855398 L163.437432,57.7666794 L160.337756,55.7941586 L153.856617,58.8938341 L151.320519,62.5570868 L154.420194,65.938551 L153.574828,65.938551 L151.03873,66.783917 L151.602308,71.8561131 L147.939055,71.0107471 L143.430436,74.6739991 L142.58507,76.9283085 L143.148647,79.7461952 L144.557591,82.0005046 L142.021493,85.1001801 L142.866859,87.3544895 L137.512874,86.7909121 L134.13141,85.9455461 L131.595312,86.7909121 L132.440678,89.0452215 L131.313523,92.7084743 L135.540353,97.2170931 L134.694987,100.03498 L133.004255,98.3442478 L131.8771,106.234331 C131.8771,106.234331 129.059213,104.825387 128.213847,103.698233 C127.368481,102.571078 122.859863,92.4266856 122.859863,92.4266856 L122.859863,91.0177422 L120.887342,92.144897 L115.251568,98.9078252 L111.870104,103.134655 L111.306527,107.643274 L112.997259,112.433682 L114.687991,116.378723 L112.71547,119.478398 L107.079697,124.550595 L103.980021,134.976776 L100.316769,139.767183 L91.5813196,144.839379 L88.7634328,147.093689 L81.1551386,148.784421 L78.9008292,150.756941 L71.0107463,149.066209 L68.4746482,153.856617 L67.0657048,154.983772 L58.6120445,157.238081 L56.6395238,158.928813 L54.6670031,162.310277 L49.0312296,164.282798 L43.1136674,163.437432 L38.3232599,164.001009 L34.3782184,166.537107 L28.4606562,173.018247 L23.1066714,179.781175 L15.2165885,183.726217 L12.1169131,186.544103 L10.7079697,195.561341 L8.1718716,196.970284 L6.19935087,196.970284 L5.07219616,188.234835 L2.81788676,188.798413 L0,199.788171 L3.38146411,204.578579 L3.66325278,207.678254 L2.81788676,215.286548 L0.845366027,220.076956 L0.845366027,227.68525 L4.79040749,231.91208 L7.32650557,237.547854 L13.2440678,244.028993 L16.9073205,248.537612 L17.1891092,255.30054 L12.9622791,253.046231 L5.07219616,244.874359 L4.22683014,248.537612 L9.01723762,253.328019 L11.8351244,257.273061 L5.35398484,256.427695 L6.48113954,258.963793 L15.4983772,268.826397 L18.8798413,274.743959 L19.7252073,279.534366 L28.7424449,290.242336 L33.5328524,297.287053 L34.9417958,304.895347 L35.2235845,309.403966 L38.6050486,316.730471 L47.0587088,328.84739 L49.0312296,333.637798 L50.4401729,346.036499 L51.285539,352.517639 L51.0037503,356.180892 L49.5948069,360.971299 L47.6222862,361.534877 L43.3954561,359.844145 L43.3954561,362.94382 L44.2408221,369.706748 L45.9315541,372.524635 L49.0312296,371.39748 L54.9487918,373.370001 L59.7391992,377.87862 L63.9660294,379.569352 L71.8561123,379.85114 L79.7461952,379.005774 L87.9180668,375.906099 L90.4541649,373.65179 L94.3992064,368.297805 L98.6260365,366.888861 L101.725712,365.479918 L102.571078,360.971299 L107.925063,357.871624 L120.041976,355.899103 L127.65027,354.49016 L134.13141,355.899103 L144.839379,353.926582 L146.8119,353.926582 L149.347998,354.49016 L154.420194,351.954062 L157.801658,347.163654 L159.210602,339.837149 L161.183122,338.428205 L166.818896,337.30105 L182.880851,326.874864 L187.953047,326.029498 L198.661016,326.593075 L204.578579,323.211611 L214.159394,318.139415 L219.23159,315.885105 L209.650775,60.5845661 L209.650775,59.1756227 Z" id="path3031" fill="#FAFAFA"></path>
                        <g id="g3843" transform="translate(212.186873, 1.306885)" fill="#FB9943">
                            <polygon id="path3033" points="0 60.123047 4.22683014 59.277681 8.45366027 60.4048357 8.73544895 56.7415829 4.50861881 52.5147527 4.22683014 49.696866 5.91756219 46.5971904 9.01723762 46.3154018 10.7079697 37.5799529 13.2440678 38.425319 16.3437432 34.4802775 14.6530111 31.0988134 14.6530111 28.2809266 17.1891092 28.2809266 18.0344752 25.7448286 21.4159394 23.7723078 21.9795167 19.8272664 26.2063468 19.8272664 28.4606562 16.7275909 34.3782184 18.418323 40.5775693 17.572957 43.9590334 18.7001117 48.7494409 15.8822241 52.976271 14.7550694 51.8491163 9.11929584 49.0312296 6.58319776 45.0861881 6.01962041 42.2683014 2.91994498 49.0312296 0.102058223 54.6670031 6.30140909 57.4848898 4.32888836 60.866354 9.6828732 67.6292822 11.3736053 71.292535 9.40108452 71.8561123 11.9371826 84.254814 14.191492 85.9455461 14.4732807 90.1723762 17.8547456 92.4266856 18.1365343 94.680995 15.8822241 98.6260365 16.4458014 99.4714025 18.418323 103.134655 17.572957 104.825387 21.2362097 107.361485 21.5179984 109.334006 18.7001117 107.361485 16.4458014 111.306527 14.4732807 112.151893 14.4732807 113.842625 17.0093796 115.815146 17.572957 117.224089 18.1365343 118.633032 20.3908437 115.815146 23.4905192 113.842625 26.5901946 111.588316 26.8719833 112.151893 30.535236 110.461161 33.0713341 107.925063 32.2259681 102.289289 35.8892209 102.289289 40.6796284 103.980021 42.3703603 101.443923 46.8789791 101.725712 48.2879226 99.1896138 50.2604433 95.8081497 55.8962169 94.680995 56.7415829 95.8081497 60.6866243 106.516119 67.7313412 107.643274 69.9856506 112.433682 72.5217487 113.560836 76.1850007 118.914821 75.3396346 124.550595 79.0028874 129.059213 81.2571968 131.313523 85.484027 126.241327 227.787308 98.6260365 226.941942 63.9660294 226.378365 18.0344752 227.787308 5.63577351 228.069097"></polygon>
                        </g>
                        <polygon id="path3041" fill="#FAFAFA" points="378.160403 278.689 419.301549 282.070464 449.452938 284.888351 483.267579 288.551604 487.494409 284.324774 490.875873 283.479408 493.69376 284.324774 499.611322 284.042985 501.583843 285.451928 503.274575 286.015506 506.37425 286.579083 508.346771 287.988027 509.755714 289.115181 511.728235 291.369491 512.010024 294.187377 513.982544 294.750955 516.236854 293.6238 517.645797 291.087702 520.181895 292.496645 523.281571 292.496645 524.408725 289.678759 524.126937 287.142661 530.889865 284.042985 533.98954 284.888351 536.807427 286.297295 543.570355 284.888351 543.288567 292.214857 539.625314 298.977785 536.525639 307.713234 532.862386 315.885105 532.862386 320.957302 530.326288 326.874864 527.226612 333.637798 524.408725 337.019262 522.154416 340.400726 520.745473 344.345767 510.60108 350.826907 502.710997 360.125933 500.174899 366.325284 497.075224 371.961058 494.539126 380.414718 490.875873 384.077971 485.803677 389.431955 482.98579 396.476672 480.731481 403.239601 479.040749 413.383993 477.631805 415.074725 459.033753 402.957812 459.315541 398.730982 458.188387 395.913095 458.188387 391.122688 453.116191 388.868378 447.198628 389.713744 441.844643 388.586589 435.363504 388.304801 427.75521 385.768703 422.964802 383.796182 418.737972 384.641548 418.456183 386.33228 418.737972 388.023012 417.892606 388.304801 415.920085 387.177646 412.82041 382.10545 409.438946 378.442197 404.930327 375.906099 403.521384 373.370001 401.548863 371.115692 402.676018 366.325284 399.858131 365.057235 394.64504 363.366503 392.249837 365.198129 390.277316 360.689511 389.995527 358.153412 384.641542 354.49016 382.105444 353.644794 379.569346 355.053737 373.651784 352.799428"></polygon>
                        <polygon id="path3813" fill="#FAFAFA" points="373.088207 355.053737 369.706743 415.638302 376.469671 420.42871 379.851135 418.1744 384.641542 420.146921 391.968048 424.091963 398.167399 428.600581 410.284312 422.964808 412.82041 420.710498 416.483663 415.356514 418.174395 418.456189 416.483663 422.401231 415.920085 424.091963 422.683014 428.037004 426.628055 430.573102 427.75521 432.545623 438.463179 430.291313 447.198628 422.401231 454.806923 419.865132 464.387738 419.583344 473.123186 420.146921 476.504651 416.765457 457.343021 404.084967 456.497655 401.830657 457.343021 398.449193 456.215866 397.322038 455.652289 392.81342 453.116191 391.968054 449.734726 391.404476 447.198628 392.531631 443.535376 391.404476 440.999277 390.277321 437.617813 391.686265 435.081715 390.55911 426.909844 387.741223 424.091957 386.614069 420.710493 386.614069 420.146915 389.713744 418.456183 390.55911 415.779191 390.277321 413.102199 386.050491 410.847889 382.10545 406.621059 378.723986 402.676018 377.315042 400.562603 373.510895 400.280814 369.424959 399.435448 366.607073 396.617561 365.761707 394.222357 365.198129 391.968048 367.17065 389.713738 363.789186 388.304795 361.816665 388.304795 359.280567 383.514388 356.46268 380.97829 357.308046 377.878614 356.744469"></polygon>
                        <g id="g3834" transform="translate(408.048788, 443.512142)" fill="#FAFAFA">
                            <path d="M29.0938511,62 L32.6601942,56.0598802 L35.6634304,54.9461078 L39.605178,47.3353293 L41.2944984,47.3353293 L45.7993528,48.0778443 L48.0517799,45.2934132 L51.2427184,34.5269461 L54.9967638,31 L55.9352751,22.6467066 L56.3106796,15.5928144 L58,10.7664671 C58,10.7664671 54.2459547,5.56886228 53.4951456,5.56886228 C52.7443366,5.56886228 48.0517799,8.7245509 48.0517799,8.7245509 L38.2912621,8.91017964 L34.1618123,10.0239521 L27.4045307,11.6946108 L15.7669903,6.1257485 L3.75404531,0 L2.06472492,0.185628743 L0.938511327,4.08383234 L0,7.98203593 L2.81553398,16.7065868 L5.63106796,23.2035928 L8.82200647,29.1437126 L10.1359223,34.3413174 L9.00970874,37.8682635 L8.82200647,40.6526946 L14.2653722,52.5329341 L17.0809061,58.8443114 L19.3333333,59.9580838 L23.4627832,59.5868263 L27.4045307,62 L29.0938511,62 Z" id="path3817"></path>
                        </g>
                        <g id="g3829" transform="translate(340.964298, 0.179730)" fill="#FAFAFA">
                            <polygon id="path3039" points="5.07219616 88.020125 9.2990263 89.4290684 15.4983772 91.6833778 18.8798413 94.2194759 21.697728 100.137038 26.7699242 102.109559 32.123909 106.336389 36.9143165 105.209234 41.704724 104.645657 44.8043994 100.418827 48.1858635 94.5012646 51.8491163 89.7108571 54.3852144 81.2571968 54.9487918 75.903212 58.6120445 66.3223979 56.9213125 61.813779 58.3302559 54.2054848 57.4848898 50.8240207 56.0759465 47.4425565 58.3302559 43.2157263 60.5845653 39.8342623 60.0209879 33.6349115 62.8388747 32.2259681 64.8113954 29.68987 61.1481426 26.3084059 67.3474935 16.7275901 69.6018029 7.14677511 70.4471689 4.61067703 73.5468444 2.91994498 76.3647311 0.102058223 77.7736745 0.665635574 77.4918858 2.6381563 80.8733499 5.45604306 81.1551386 17.5729561 82.8458707 19.5454777 85.1001801 20.9544211 82.8458707 24.8994625 87.6362781 30.535236 87.6362781 32.7895454 89.0452215 37.0163756 88.1998555 47.1607678 90.1723762 54.2054848 91.2995309 59.277681 94.680995 60.968413 98.3442478 57.5869489 102.852867 56.7415829 103.980021 61.5319904 109.897584 66.6041865 112.71547 68.8584959 112.433682 77.0303667 113.842625 83.7932949 113.560836 88.020125 112.997259 91.9651665 119.478398 105.491023 121.450919 109.154276 121.169131 115.353627 119.19661 119.862245 122.859863 121.271189 122.014497 128.034117 121.732708 130.852004 125.677749 135.642411 131.595312 139.587453 137.512874 140.15103 138.640028 143.532494 139.767183 147.477536 146.248323 148.60469 149.066209 154.522253 151.602308 152.549732 156.110926 156.776562 154.701983 160.158026 157.801658 166.920954 160.901334 173.965671 162.028489 184.673641 162.028489 190.309414 165.97353 191.15478 167.100685 192.281935 167.664262 186.082584 170.20036 187.773316 176.399711 194.536244 178.935809 199.044863 177.526866 208.062101 184.289794 217.361127 188.234835 218.206493 190.770933 222.151535 191.616299 226.941942 196.688496 230.605195 197.81565 234.268448 199.224594 237.931701 201.478903 239.904221 201.197114 244.694629 203.451424 248.63967 202.887847 250.612191 201.197114 253.148289 201.478903 264.138047 201.197114 266.955934 198.942805 266.674145 200.351748 270.337398 202.887847 275.973172 202.324269 283.017889 195.561341 283.581466 189.925567 281.327157 181.471907 285.835775 180.90833 290.062606 177.526866 289.780817 176.117922 289.499028 173.581824 292.598704 172.172881 292.880492 172.736458 290.062606 170.763937 287.808296 169.354994 285.835775 165.691741 284.426832 162.028489 284.426832 160.337756 281.608945 153.574828 282.7361 149.347998 280.481791 145.402957 281.890734 141.457915 285.835775 97.2170931 281.608945 72.983267 278.791058 40.0139919 276.536749 36.9143165 276.25496 40.0139919 231.168772 0 229.196252"></polygon>
                        </g>
                        <g id="g3839" transform="translate(218.104435, 230.119290)" fill="#FAFAFA">
                            <polygon id="path3815" points="149.207104 184.250963 145.262062 183.687386 142.303281 180.305922 136.949296 170.584213 135.822142 166.92096 136.949296 164.103073 135.540353 157.903722 134.554093 151.845266 130.749946 148.463802 126.66401 145.082338 123.564334 145.505021 121.732708 146.068598 118.069455 145.645915 118.351244 143.814288 121.873602 137.896726 122.578074 134.797051 122.43718 131.697375 117.787666 124.37087 116.801406 127.188757 113.701731 137.755832 111.306527 138.882987 104.684493 138.882987 103.27555 135.642417 104.825387 134.515262 108.347746 134.374368 108.911323 132.120058 109.756689 124.793553 111.306527 119.157779 115.251568 115.776315 116.237829 114.085583 116.096934 109.576964 117.928561 108.590704 118.492138 107.886232 115.251568 98.8689947 113.983519 99.1507834 113.701731 104.22298 111.72921 106.336395 108.206851 112.394851 106.516119 115.776315 103.134655 116.339893 98.0624591 119.862251 94.258312 125.35713 91.0177422 130.570221 87.7771725 132.965424 84.677497 131.697375 81.4369273 120.848511 81.2960329 118.030625 77.3509915 114.226478 74.6739991 108.168021 71.1516406 106.899972 68.6155425 104.363874 67.4883878 102.250459 69.1791199 99.1507834 66.3612331 97.60094 64.9522897 95.4875249 63.1206634 92.5287439 60.4436709 91.2606948 56.0759465 92.6696382 53.8216371 90.9789061 50.862856 89.4290684 47.9040749 88.8654911 46.4951315 89.9926458 44.2408221 89.9926458 40.859358 87.597442 35.7871618 84.4977666 31.4194373 82.3843515 29.8695996 82.1025629 28.6015506 82.3843515 26.4881355 83.5115062 19.8661016 83.6524006 3.52235845 84.7795553 0 1.08831859 51.0037503 0.102058223 91.1586366 0.24295256 132.440678 1.93368461 160.619545 3.06083932 150.05247 184.532752"></polygon>
                        </g>
                    </g>
                    <text id="WA" font-family="ProximaNova-Semibold, Proxima Nova" font-size="28" font-weight="500" fill="#1D88C3">
                        <tspan x="98" y="241">WA</tspan>
                    </text>
                    <text id="SA" font-family="ProximaNova-Semibold, Proxima Nova" font-size="28" font-weight="500" fill="#1D88C3">
                        <tspan x="282" y="291">SA</tspan>
                    </text>
                    <text id="NT" font-family="ProximaNova-Bold, Proxima Nova" font-size="28" font-weight="bold" fill="#FFFFFF">
                        <tspan x="263" y="146">NT</tspan>
                    </text>
                    <text id="QLD" font-family="ProximaNova-Semibold, Proxima Nova" font-size="28" font-weight="500" fill="#1D88C3">
                        <tspan x="403" y="207">QLD</tspan>
                    </text>
                    <text id="NSW" font-family="ProximaNova-Semibold, Proxima Nova" font-size="28" font-weight="500" fill="#1D88C3">
                        <tspan x="418" y="343">NSW</tspan>
                    </text>
                    <text id="VIC" font-family="ProximaNova-Semibold, Proxima Nova" font-size="21" font-weight="500" fill="#1D88C3">
                        <tspan x="379" y="410">VIC</tspan>
                    </text>
                    <text id="TAS" font-family="ProximaNova-Bold, Proxima Nova" font-size="16" font-weight="bold" fill="#1D88C3">
                        <tspan x="422" y="481">TAS</tspan>
                    </text>
                </g>
            </g>
        </g>
    </g>
</svg>