<svg id="Capa_1" data-name="Capa 1" xmlns="http://www.w3.org/2000/svg" width="25" height="25" viewBox="0 0 25 25"><defs><style>.cls-1{fill:#838383;}</style></defs><title>Icon-inactive</title><path class="cls-1" d="M16.77,12.47H14.53V10.24A.55.55,0,0,0,14,9.67H11a.56.56,0,0,0-.56.56v2.24H8.23a.55.55,0,0,0-.56.55v3a.56.56,0,0,0,.56.56h2.24v2.23a.55.55,0,0,0,.55.57h3a.56.56,0,0,0,.56-.56V16.53h2.24a.55.55,0,0,0,.56-.55V13A.56.56,0,0,0,16.77,12.47Zm-.07,3.44H14.22a.31.31,0,0,0-.31.31V18.7H11.09V16.22a.31.31,0,0,0-.31-.31H8.3V13.1h2.48a.31.31,0,0,0,.31-.32V10.3H13.9v2.48a.31.31,0,0,0,.32.31H16.7Z"/><path class="cls-1" d="M21.23,5.41H16.91V3.46a1.28,1.28,0,0,0-1.23-1.32H9.43A1.29,1.29,0,0,0,8.09,3.35V5.4H3.77A3.08,3.08,0,0,0,.5,8.68V19.59a3.07,3.07,0,0,0,3.27,3.27H21.23a3.07,3.07,0,0,0,3.27-3.27V8.69A3.08,3.08,0,0,0,21.23,5.41ZM8.72,3.46a.65.65,0,0,1,.73-.72h6.11a.64.64,0,0,1,.72.72V5.4H8.72ZM23.87,19.59a2.45,2.45,0,0,1-1,2.21,3,3,0,0,1-1.61.43H3.77a2.45,2.45,0,0,1-2.64-2.64V8.69a2.46,2.46,0,0,1,1-2.22A3,3,0,0,1,3.77,6H21.23a2.45,2.45,0,0,1,2.64,2.65Z"/></svg>