<svg id="Capa_1" data-name="Capa 1" xmlns="http://www.w3.org/2000/svg" width="25" height="25" viewBox="0 0 25 25"><defs><style>.cls-1{fill:#838383;}</style></defs><title>Icon-inactive</title><path class="cls-1" d="M22.44,3.65a7,7,0,0,0-9.93,0,7,7,0,0,0-9.93,10h0l9.7,9.74a.32.32,0,0,0,.21.08h0a.28.28,0,0,0,.2-.08l9.71-9.74a7,7,0,0,0,0-9.95ZM3,4.07a6.46,6.46,0,0,1,9.13,0l.17.17a.29.29,0,0,0,.42,0l.17-.17a6.45,6.45,0,0,1,10.68,6.62l-5.05,0a.28.28,0,0,0-.28.21L17.57,13l-1-4.35a.3.3,0,0,0-.58,0L14.9,13.38l-.56-7A.31.31,0,0,0,14,6.11a.29.29,0,0,0-.26.23l-1.31,6.08-1.18-3.5a.29.29,0,0,0-.37-.18.28.28,0,0,0-.2.23l-1,5.7L8.45,5.56a.29.29,0,0,0-.33-.25.33.33,0,0,0-.24.2L6.3,10.69l-4.86,0A6.45,6.45,0,0,1,3,4.07ZM22,13.2l-9.51,9.55L3,13.2a6.45,6.45,0,0,1-1.33-1.94H6.51a.29.29,0,0,0,.28-.2L8,7l1.37,9.67a.29.29,0,0,0,.57,0l1.1-6.42,1.15,3.39a.3.3,0,0,0,.57,0L13.91,8.4l.56,6.93a.31.31,0,0,0,.32.27.28.28,0,0,0,.26-.23L16.28,10l.94,4.13a.29.29,0,0,0,.35.22.28.28,0,0,0,.22-.2l.93-2.88h4.62A6.2,6.2,0,0,1,22,13.2Z"/></svg>