<?xml version="1.0" encoding="UTF-8"?>
<svg width="10px" height="18px" viewBox="0 0 10 18" version="1.1" xmlns="http://www.w3.org/2000/svg" xmlns:xlink="http://www.w3.org/1999/xlink">
    <!-- Generator: Sketch 53.2 (72643) - https://sketchapp.com -->
    <title>flash (1)</title>
    <desc>Created with Sketch.</desc>
    <g id="Page-1" stroke="none" stroke-width="1" fill="none" fill-rule="evenodd">
        <g id="Desktop-step6-Checking-process" transform="translate(-634.000000, -944.000000)" fill="#FFFFFF" fill-rule="nonzero">
            <g id="Body" transform="translate(162.000000, 128.000000)">
                <g id="Points" transform="translate(231.000000, 809.000000)">
                    <g id="Point" transform="translate(229.000000, 0.000000)">
                        <g id="Icon">
                            <g id="flash-(1)" transform="translate(12.000000, 7.000000)">
                                <path d="M9.23438672,7.44598828 C9.29619141,7.56439453 9.28715625,7.70726953 9.21083203,7.81692188 L2.22605859,17.846332 C2.15711719,17.9452969 2.04588281,18 1.931625,18 C1.88026172,18 1.82833594,17.9889609 1.77932812,17.9659336 C1.62116016,17.8916484 1.53959766,17.7142148 1.58621484,17.5457461 L3.46812891,10.7465625 L0.364675781,10.7465625 C0.252632812,10.7465625 0.147128906,10.69425 0.0793125,10.6050937 C0.01153125,10.5159727 -0.0107578125,10.4002734 0.019125,10.2923086 L2.79513281,0.262898437 C2.83812891,0.107578125 2.97949219,0 3.14068359,0 L7.34944922,0 C7.46142187,0 7.56699609,0.0523125 7.6348125,0.141433594 C7.70259375,0.230554687 7.72488281,0.346253906 7.695,0.45421875 L5.81308594,7.25340234 L8.91653906,7.25340234 C9.05013281,7.25340234 9.17261719,7.32758203 9.23438672,7.44598828 Z M2.83739062,15.7135781 L8.22983203,7.97055469 L5.34178125,7.97055469 C5.22980859,7.97055469 5.12426953,7.91824219 5.05641797,7.82908594 C4.98863672,7.73996484 4.96634766,7.62426563 4.99623047,7.51630078 L6.87821484,0.717117188 L3.41349609,0.717117188 L0.835980469,10.0294102 L3.93943359,10.0294102 C4.05147656,10.0294102 4.15698047,10.0817227 4.22479687,10.1708789 C4.29257812,10.26 4.31486719,10.3756992 4.28498437,10.4836641 L2.83739062,15.7135781 Z M4.96638281,4.86123047 C5.15710547,4.91449219 5.26858594,5.11231641 5.21532422,5.30296875 L5.16529688,5.48201953 C5.121,5.64050391 4.97696484,5.74425 4.82013281,5.74425 C4.78817578,5.74425 4.75572656,5.73996094 4.72348828,5.73096094 C4.53276563,5.67773437 4.42132031,5.47991016 4.47458203,5.2891875 L4.52460938,5.11013672 C4.57783594,4.91941406 4.77576563,4.80800391 4.96638281,4.86123047 Z M6.02792578,1.06024219 C6.21864844,1.11353906 6.33012891,1.31129297 6.27686719,1.50198047 L5.51576953,4.22711719 C5.47150781,4.38560156 5.3274375,4.48934766 5.17060547,4.48934766 C5.13864844,4.48934766 5.10619922,4.48505859 5.07396094,4.47605859 C4.88323828,4.42279687 4.77175781,4.22500781 4.82505469,4.03428516 L5.58615234,1.30914844 C5.63937891,1.11842578 5.83734375,1.00715625 6.02792578,1.06024219 Z" id="Combined-Shape"></path>
                            </g>
                        </g>
                    </g>
                </g>
            </g>
        </g>
    </g>
</svg>