<?xml version="1.0" encoding="UTF-8"?>
<svg width="22px" height="22px" viewBox="0 0 22 22" version="1.1" xmlns="http://www.w3.org/2000/svg" xmlns:xlink="http://www.w3.org/1999/xlink">
    <!-- Generator: Sketch 53.2 (72643) - https://sketchapp.com -->
    <title>heart</title>
    <desc>Created with Sketch.</desc>
    <g id="Page-1" stroke="none" stroke-width="1" fill="none" fill-rule="evenodd">
        <g id="Desktop-step7" transform="translate(-769.000000, -658.000000)" fill="#FFFFFF" fill-rule="nonzero">
            <g id="Body" transform="translate(162.000000, 128.000000)">
                <g id="Points" transform="translate(598.000000, 521.000000)">
                    <g id="Point">
                        <g id="Icon">
                            <g id="heart" transform="translate(9.000000, 9.000000)">
                                <path d="M17.2473996,1.24319298 C17.9243392,2.00397271 18.2971384,3.02099025 18.2971384,4.10700975 C18.2971384,6.01757895 17.0651384,7.44337622 15.733731,8.69956335 C15.0479571,9.34652632 14.2577154,10.0135166 13.3426784,10.7858752 C12.8161793,11.2302066 12.2717973,11.6897193 11.6933216,12.1910448 C11.5724288,12.29577 11.4222456,12.3481754 11.2721053,12.3481754 C11.121922,12.3481754 10.9717388,12.29577 10.8508889,12.1910448 C10.2723275,11.6895906 9.72785965,11.230078 9.20136062,10.7856608 C7.77654971,9.58307992 6.54609357,8.54453411 5.68826511,7.53416374 C4.70512671,6.37609747 4.24715789,5.28711891 4.24715789,4.10696686 C4.24715789,3.02099025 4.62,2.00392982 5.29689669,1.2431501 C6.01020273,0.441500975 6.99904483,-5.87085935e-13 8.08120468,-5.87085935e-13 C9.28910331,-5.87085935e-13 10.3361404,0.5711423 11.1091852,1.65162963 C11.1671657,1.73263938 11.2213723,1.81360624 11.2721481,1.89384405 C11.3229669,1.81364912 11.3771735,1.73263938 11.435154,1.65162963 C12.2081559,0.5711423 13.255193,-5.87085935e-13 14.4630916,-5.87085935e-13 C15.5452515,-5.87085935e-13 16.5340507,0.441500975 17.2473996,1.24319298 Z M14.8510292,7.76394152 C16.4053099,6.29744639 17.0108889,5.27215205 17.0108889,4.10700975 C17.0108889,2.49899415 15.9155634,1.28633528 14.4630916,1.28633528 C12.5493489,1.28633528 11.898269,3.55735283 11.891922,3.5802963 C11.814729,3.85892008 11.561193,4.05181676 11.2721053,4.05181676 C10.9830175,4.05181676 10.7294815,3.85892008 10.6522885,3.5802963 C10.6510877,3.57617934 10.4740156,2.96326706 10.0426784,2.37205458 C9.51712281,1.65162963 8.85716569,1.28633528 8.08116179,1.28633528 C6.62864717,1.28633528 5.53336452,2.49895127 5.53345029,4.10700975 C5.53345029,6.00668616 7.22637817,7.43552827 10.0310136,9.80273684 C10.4316023,10.140885 10.8425692,10.4877388 11.2721481,10.8559922 C11.7016413,10.4876959 12.1124795,10.1409279 12.5130682,9.8028655 C13.4135244,9.0428577 14.1912008,8.38650292 14.8510292,7.76394152 Z M20.0253177,12.9532827 C21.0891657,12.9532827 21.9547135,13.8187875 21.9547135,14.8826355 C21.9547135,15.3033801 21.8215556,15.7033255 21.5696062,16.0392865 C21.5695205,16.0393723 21.5694776,16.0394581 21.5694347,16.0395439 L18.4817583,20.1563743 C17.6360663,21.2839493 16.289692,21.9571579 14.8802339,21.9571579 L9.13759064,21.9571579 C7.78435478,21.9571579 6.43768031,21.7715088 5.13492008,21.4053138 L4.75405848,21.2982729 C4.40017154,21.7017349 3.8814347,21.9572008 3.30385965,21.9572008 L0.645590643,21.9572008 C0.290374269,21.9572008 0.00244444444,21.6692281 0.00244444444,21.3140546 L0.00244444444,13.5964717 C0.00244444444,13.2412554 0.290417154,12.9533255 0.645590643,12.9533255 L3.30385965,12.9533255 C3.95468226,12.9533255 4.53079922,13.2775361 4.88044055,13.7725575 C6.57589864,12.3224444 9.10036647,12.3354386 10.7798713,13.8134269 C11.0921598,14.0882339 11.4932632,14.239575 11.9092047,14.239575 L14.8802768,14.239575 C15.7450955,14.239575 16.4787719,14.8115322 16.7230877,15.5970136 L18.6133294,13.5677817 C18.9771228,13.177271 19.4917856,12.9532827 20.0253177,12.9532827 Z M3.94700585,20.0277193 L3.94700585,14.8826784 C3.94700585,14.5280195 3.65847563,14.2395322 3.30385965,14.2395322 L1.28869396,14.2395322 L1.28869396,20.6708655 L3.30385965,20.6708655 C3.65851852,20.6708655 3.94700585,20.3823353 3.94700585,20.0277193 Z M20.5404951,15.2676569 C20.6242066,15.1560273 20.6684639,15.0229123 20.6684639,14.8826784 C20.6684639,14.5280195 20.3799337,14.2395322 20.0253177,14.2395322 C19.8448577,14.2395322 19.6776491,14.312308 19.5545263,14.4444795 L16.7231306,17.4839961 C16.359423,17.8744211 15.844846,18.0983236 15.3113138,18.0983236 L10.3094659,18.0983236 C9.95424951,18.0983236 9.66631969,17.8103938 9.66631969,17.4551774 C9.66631969,17.099961 9.9542924,16.8120312 10.3094659,16.8120312 L14.8803626,16.8120312 C15.2350214,16.8120312 15.5235088,16.523501 15.5235088,16.168885 C15.5235088,15.814269 15.2349786,15.5257388 14.8803626,15.5257388 L11.9092904,15.5257388 C11.1802885,15.5257388 10.4775322,15.260538 9.9302768,14.7789825 C8.71911891,13.7132047 6.89260429,13.7132904 5.68153216,14.7789825 L5.23334113,15.1733957 L5.23334113,20.0277622 C5.23334113,20.0507485 5.23239766,20.0735205 5.23158285,20.0963353 L5.48310331,20.1670526 C6.6725614,20.501384 7.90215984,20.6709084 9.1377193,20.6709084 L14.8802339,20.6709084 C15.8870019,20.6709084 16.8486979,20.1900819 17.4527758,19.3846589 L20.5404094,15.2677427 C20.5404522,15.2676998 20.5404951,15.2676998 20.5404951,15.2676569 Z" id="Combined-Shape"></path>
                            </g>
                        </g>
                    </g>
                </g>
            </g>
        </g>
    </g>
</svg>