<?xml version="1.0" encoding="UTF-8"?>
<svg width="16px" height="21px" viewBox="0 0 16 21" version="1.1" xmlns="http://www.w3.org/2000/svg" xmlns:xlink="http://www.w3.org/1999/xlink">
    <!-- Generator: Sketch 53.2 (72643) - https://sketchapp.com -->
    <title>lock</title>
    <desc>Created with Sketch.</desc>
    <g id="Page-1" stroke="none" stroke-width="1" fill="none" fill-rule="evenodd">
        <g id="Desktop-step1" transform="translate(-574.000000, -905.000000)" fill="#7D7D7D" fill-rule="nonzero">
            <g id="Body" transform="translate(162.000000, 128.000000)">
                <g id="Privacy" transform="translate(412.000000, 777.000000)">
                    <g id="lock">
                        <path d="M15.5555417,7.63636364 L14.2222083,7.63636364 L14.2222083,5.93938068 C14.2222083,2.664375 11.431,0 8,0 C4.569,0 1.77779167,2.664375 1.77779167,5.93938068 L1.77779167,7.63636364 L0.444458333,7.63636364 C0.198791667,7.63636364 0,7.82611932 0,8.06061932 L0,18.6666932 C0,19.6025852 0.797291667,20.3636364 1.77779167,20.3636364 L14.22225,20.3636364 C15.2027083,20.3636364 16,19.6025852 16,18.6666534 L16,8.06061932 C16,7.82611932 15.8012083,7.63636364 15.5555417,7.63636364 Z M9.33075,16.498642 C9.344625,16.618358 9.30429167,16.7385114 9.22008333,16.8284375 C9.135875,16.9183239 9.01520833,16.9697102 8.88891667,16.9697102 L7.111125,16.9697102 C6.98483333,16.9697102 6.86416667,16.9183239 6.77995833,16.8284375 C6.69575,16.7385511 6.655375,16.6183977 6.66929167,16.498642 L6.94966667,14.0919943 C6.494375,13.7758807 6.22225,13.2758182 6.22225,12.7272727 C6.22225,11.7913807 7.01954167,11.0302898 8.00004167,11.0302898 C8.98054167,11.0302898 9.77783333,11.7913409 9.77783333,12.7272727 C9.77783333,13.2758182 9.50570833,13.7758807 9.05041667,14.0919943 L9.33075,16.498642 Z M11.5555417,7.63636364 L4.44445833,7.63636364 L4.44445833,5.93938068 C4.44445833,4.06799432 6.0395,2.54545455 8,2.54545455 C9.9605,2.54545455 11.5555417,4.06799432 11.5555417,5.93938068 L11.5555417,7.63636364 L11.5555417,7.63636364 Z" id="Shape"></path>
                    </g>
                </g>
            </g>
        </g>
    </g>
</svg>