<?xml version="1.0" encoding="UTF-8"?>
<svg width="25px" height="25px" viewBox="0 0 25 25" version="1.1" xmlns="http://www.w3.org/2000/svg" xmlns:xlink="http://www.w3.org/1999/xlink">
    <!-- Generator: Sketch 52.6 (67491) - http://www.bohemiancoding.com/sketch -->
    <title>Shape</title>
    <desc>Created with Sketch.</desc>
    <g id="desktop" stroke="none" stroke-width="1" fill="none" fill-rule="evenodd">
        <g id="hic_guide_template" transform="translate(-697.000000, -797.000000)" fill="#FFFFFF" fill-rule="nonzero">
            <g id="Group-21" transform="translate(528.000000, 657.000000)">
                <g id="Group-12" transform="translate(169.000000, 140.000000)">
                    <path d="M22.4945534,7.58896151 L18.9905592,7.58896151 C18.1190995,7.46187364 17.4655047,6.75381264 17.3565723,5.86419753 L17.3565723,2.4691358 C17.3565723,2.37835875 17.3565723,2.2875817 17.3384168,2.21496006 C17.211329,0.962236747 16.1583152,0 14.8874365,0 L13.9251997,0 L13.0900508,0 L11.8373275,0 L10.0580973,0 C8.78721859,0 7.73420479,0.962236747 7.60711692,2.21496006 C7.58896151,2.30573711 7.58896151,2.37835875 7.58896151,2.4691358 L7.58896151,5.86419753 C7.49818446,6.73565723 6.82643428,7.44371823 5.95497458,7.58896151 L2.4691358,7.58896151 C1.10748003,7.58896151 0,8.69644154 0,10.0580973 L0,10.5482934 L0,12.1822803 L0,12.7995643 L0,14.0885984 L0,14.9419027 C0,16.3035585 1.10748003,17.4110385 2.4691358,17.4110385 L5.97312999,17.4110385 C6.84458969,17.5381264 7.49818446,18.2461874 7.60711692,19.1358025 L7.60711692,22.5308642 C7.60711692,22.6216412 7.60711692,22.7124183 7.62527233,22.7850399 C7.7523602,24.0377633 8.805374,25 10.0762527,25 L11.8736383,25 L13.1263617,25 L13.9615105,25 L14.9237473,25 C16.194626,25 17.2476398,24.0377633 17.3747277,22.7850399 C17.3928831,22.6942629 17.3928831,22.6216412 17.3928831,22.5308642 L17.3928831,19.1358025 C17.4836601,18.2643428 18.1554103,17.5562818 19.02687,17.4110385 L22.5308642,17.4110385 C23.89252,17.4110385 25,16.3035585 25,14.9419027 L25,14.0885984 L25,12.7995643 L25,12.1822803 L25,10.5482934 L25,10.0580973 C24.9636892,8.71459695 23.8562092,7.58896151 22.4945534,7.58896151 Z M17.3384168,13.1445171 C17.1387073,14.0341322 16.6303558,14.8329702 15.9767611,15.4320988 L12.4546115,18.5729847 L8.9869281,15.4320988 C8.33333333,14.8329702 7.82498184,14.0341322 7.62527233,13.1445171 C7.46187364,12.4909223 7.53449528,12.1278141 7.53449528,12.1278141 C7.66158315,10.6572259 8.69644154,9.44081336 10.130719,9.44081336 C11.2018882,9.44081336 12.0551924,10.0944081 12.4546115,11.0566449 C12.8540305,10.0944081 13.7799564,9.44081336 14.8329702,9.44081336 C16.2672476,9.44081336 17.302106,10.6753813 17.4291939,12.1278141 C17.4291939,12.1096587 17.5018155,12.4727669 17.3384168,13.1445171 Z" id="Shape"></path>
                </g>
            </g>
        </g>
    </g>
</svg>